%TF.GenerationSoftware,KiCad,Pcbnew,8.0.2*%
%TF.CreationDate,2024-06-23T16:01:54-05:00*%
%TF.ProjectId,janus,6a616e75-732e-46b6-9963-61645f706362,v1.0.0*%
%TF.SameCoordinates,Original*%
%TF.FileFunction,Copper,L2,Bot*%
%TF.FilePolarity,Positive*%
%FSLAX46Y46*%
G04 Gerber Fmt 4.6, Leading zero omitted, Abs format (unit mm)*
G04 Created by KiCad (PCBNEW 8.0.2) date 2024-06-23 16:01:54*
%MOMM*%
%LPD*%
G01*
G04 APERTURE LIST*
G04 Aperture macros list*
%AMRotRect*
0 Rectangle, with rotation*
0 The origin of the aperture is its center*
0 $1 length*
0 $2 width*
0 $3 Rotation angle, in degrees counterclockwise*
0 Add horizontal line*
21,1,$1,$2,0,0,$3*%
%AMFreePoly0*
4,1,6,0.500000,-0.750000,-0.500000,-0.750000,-1.000000,0.000000,-0.500000,0.750000,0.500000,0.750000,0.500000,-0.750000,0.500000,-0.750000,$1*%
%AMFreePoly1*
4,1,6,0.150000,0.000000,0.650000,-0.750000,-0.500000,-0.750000,-0.500000,0.750000,0.650000,0.750000,0.150000,0.000000,0.150000,0.000000,$1*%
%AMFreePoly2*
4,1,6,0.600000,-0.250000,-0.600000,-0.250000,-0.600000,1.000000,0.000000,0.400000,0.600000,1.000000,0.600000,-0.250000,0.600000,-0.250000,$1*%
%AMFreePoly3*
4,1,6,0.600000,0.200000,0.000000,-0.400000,-0.600000,0.200000,-0.600000,0.400000,0.600000,0.400000,0.600000,0.200000,0.600000,0.200000,$1*%
G04 Aperture macros list end*
%TA.AperFunction,SMDPad,CuDef*%
%ADD10R,1.250000X0.900000*%
%TD*%
%TA.AperFunction,SMDPad,CuDef*%
%ADD11R,0.900000X0.900000*%
%TD*%
%TA.AperFunction,WasherPad*%
%ADD12C,1.000000*%
%TD*%
%TA.AperFunction,SMDPad,CuDef*%
%ADD13R,1.100000X1.800000*%
%TD*%
%TA.AperFunction,ComponentPad*%
%ADD14C,1.905000*%
%TD*%
%TA.AperFunction,SMDPad,CuDef*%
%ADD15R,1.200000X0.900000*%
%TD*%
%TA.AperFunction,ComponentPad*%
%ADD16R,1.778000X1.778000*%
%TD*%
%TA.AperFunction,SMDPad,CuDef*%
%ADD17RotRect,0.900000X1.200000X274.000000*%
%TD*%
%TA.AperFunction,ComponentPad*%
%ADD18RotRect,1.778000X1.778000X274.000000*%
%TD*%
%TA.AperFunction,SMDPad,CuDef*%
%ADD19RotRect,0.900000X1.200000X158.000000*%
%TD*%
%TA.AperFunction,ComponentPad*%
%ADD20RotRect,1.778000X1.778000X158.000000*%
%TD*%
%TA.AperFunction,SMDPad,CuDef*%
%ADD21RotRect,2.600000X2.600000X256.000000*%
%TD*%
%TA.AperFunction,ComponentPad*%
%ADD22C,0.800000*%
%TD*%
%TA.AperFunction,SMDPad,CuDef*%
%ADD23R,2.600000X2.600000*%
%TD*%
%TA.AperFunction,SMDPad,CuDef*%
%ADD24RotRect,2.600000X2.600000X2.000000*%
%TD*%
%TA.AperFunction,SMDPad,CuDef*%
%ADD25RotRect,2.600000X2.600000X4.000000*%
%TD*%
%TA.AperFunction,SMDPad,CuDef*%
%ADD26RotRect,0.900000X1.200000X272.000000*%
%TD*%
%TA.AperFunction,ComponentPad*%
%ADD27RotRect,1.778000X1.778000X272.000000*%
%TD*%
%TA.AperFunction,SMDPad,CuDef*%
%ADD28RotRect,2.600000X2.600000X240.000000*%
%TD*%
%TA.AperFunction,SMDPad,CuDef*%
%ADD29RotRect,2.600000X2.600000X248.000000*%
%TD*%
%TA.AperFunction,ComponentPad*%
%ADD30C,1.752600*%
%TD*%
%TA.AperFunction,SMDPad,CuDef*%
%ADD31FreePoly0,0.000000*%
%TD*%
%TA.AperFunction,SMDPad,CuDef*%
%ADD32FreePoly1,0.000000*%
%TD*%
%TA.AperFunction,SMDPad,CuDef*%
%ADD33FreePoly1,180.000000*%
%TD*%
%TA.AperFunction,SMDPad,CuDef*%
%ADD34FreePoly0,180.000000*%
%TD*%
%TA.AperFunction,SMDPad,CuDef*%
%ADD35RotRect,2.600000X2.600000X264.000000*%
%TD*%
%TA.AperFunction,SMDPad,CuDef*%
%ADD36RotRect,0.900000X1.200000X166.000000*%
%TD*%
%TA.AperFunction,ComponentPad*%
%ADD37RotRect,1.778000X1.778000X166.000000*%
%TD*%
%TA.AperFunction,ComponentPad*%
%ADD38O,1.200000X1.700000*%
%TD*%
%TA.AperFunction,ComponentPad*%
%ADD39R,1.200000X1.700000*%
%TD*%
%TA.AperFunction,SMDPad,CuDef*%
%ADD40RotRect,0.900000X1.200000X174.000000*%
%TD*%
%TA.AperFunction,ComponentPad*%
%ADD41RotRect,1.778000X1.778000X174.000000*%
%TD*%
%TA.AperFunction,SMDPad,CuDef*%
%ADD42RotRect,0.900000X1.200000X150.000000*%
%TD*%
%TA.AperFunction,ComponentPad*%
%ADD43RotRect,1.778000X1.778000X150.000000*%
%TD*%
%TA.AperFunction,SMDPad,CuDef*%
%ADD44FreePoly2,0.000000*%
%TD*%
%TA.AperFunction,SMDPad,CuDef*%
%ADD45FreePoly3,0.000000*%
%TD*%
%TA.AperFunction,ViaPad*%
%ADD46C,0.800000*%
%TD*%
%TA.AperFunction,Conductor*%
%ADD47C,0.250000*%
%TD*%
G04 APERTURE END LIST*
D10*
%TO.P,T1,3*%
%TO.N,N/C*%
X181617705Y-115718174D03*
%TO.P,T1,2*%
%TO.N,RAW*%
X181617705Y-114218174D03*
%TO.P,T1,1*%
%TO.N,BPOS*%
X181617705Y-111218174D03*
D11*
%TO.P,T1,*%
%TO.N,*%
X182592712Y-117168175D03*
X184792706Y-117168173D03*
D12*
X183692706Y-114968175D03*
X183692704Y-111968173D03*
D11*
X182592704Y-109768175D03*
X184792698Y-109768173D03*
%TD*%
D13*
%TO.P,B1,2*%
%TO.N,RST*%
X165642704Y-116568173D03*
X165642705Y-110368174D03*
%TO.P,B1,1*%
%TO.N,GND*%
X169342703Y-116568174D03*
X169342704Y-110368175D03*
%TD*%
D14*
%TO.P,D21,2*%
%TO.N,index_home*%
X136092692Y-111278175D03*
D15*
X136092692Y-109118175D03*
%TO.P,D21,1*%
%TO.N,P7*%
X136092692Y-105818175D03*
D16*
X136092692Y-103658175D03*
%TD*%
D14*
%TO.P,D8,2*%
%TO.N,pinky_home*%
X75273509Y-112750706D03*
D17*
X75122835Y-110595968D03*
%TO.P,D8,1*%
%TO.N,P7*%
X74892639Y-107304006D03*
D18*
X74741965Y-105149268D03*
%TD*%
D14*
%TO.P,D30,2*%
%TO.N,home_cluster*%
X168140271Y-171819176D03*
D19*
X170142988Y-172628327D03*
%TO.P,D30,1*%
%TO.N,P9*%
X173202694Y-173864529D03*
D20*
X175205411Y-174673680D03*
%TD*%
D14*
%TO.P,D22,2*%
%TO.N,index_top*%
X136092715Y-92078167D03*
D15*
X136092715Y-89918167D03*
%TO.P,D22,1*%
%TO.N,P6*%
X136092715Y-86618167D03*
D16*
X136092715Y-84458167D03*
%TD*%
D21*
%TO.P,S29,2*%
%TO.N,inner_cluster*%
X140885698Y-164638691D03*
D22*
%TO.P,S29,1*%
%TO.N,P19*%
X141609921Y-150854446D03*
D21*
X145182550Y-151745203D03*
%TD*%
D23*
%TO.P,S26,2*%
%TO.N,inner_top*%
X152167703Y-100018180D03*
D22*
%TO.P,S26,1*%
%TO.N,P20*%
X138617702Y-102650180D03*
D23*
X138617702Y-98968180D03*
%TD*%
D14*
%TO.P,D7,2*%
%TO.N,pinky_bottom*%
X76612830Y-131903928D03*
D17*
X76462156Y-129749190D03*
%TO.P,D7,1*%
%TO.N,P8*%
X76231960Y-126457228D03*
D18*
X76081286Y-124302490D03*
%TD*%
D24*
%TO.P,S12,2*%
%TO.N,ring_bottom*%
X93906038Y-139218665D03*
D22*
%TO.P,S12,1*%
%TO.N,P16*%
X80456147Y-142321951D03*
D24*
X80327647Y-138642193D03*
%TD*%
D23*
%TO.P,S22,2*%
%TO.N,index_top*%
X132967708Y-100018175D03*
D22*
%TO.P,S22,1*%
%TO.N,P19*%
X119417707Y-102650175D03*
D23*
X119417707Y-98968175D03*
%TD*%
D14*
%TO.P,D24,2*%
%TO.N,inner_bottom*%
X155292705Y-130478178D03*
D15*
X155292705Y-128318178D03*
%TO.P,D24,1*%
%TO.N,P8*%
X155292705Y-125018178D03*
D16*
X155292705Y-122858178D03*
%TD*%
D25*
%TO.P,S4,2*%
%TO.N,outer_top*%
X52217442Y-103075453D03*
%TO.P,S4,1*%
%TO.N,P15*%
X38627204Y-102973212D03*
D22*
X38884047Y-106646244D03*
%TD*%
D14*
%TO.P,D10,2*%
%TO.N,pinky_number*%
X72594871Y-74444241D03*
D17*
X72444197Y-72289503D03*
%TO.P,D10,1*%
%TO.N,P5*%
X72214001Y-68997541D03*
D18*
X72063327Y-66842803D03*
%TD*%
D14*
%TO.P,D17,2*%
%TO.N,middle_home*%
X115270255Y-111316070D03*
D26*
X115194872Y-109157386D03*
%TO.P,D17,1*%
%TO.N,P7*%
X115079704Y-105859396D03*
D27*
X115004321Y-103700712D03*
%TD*%
D14*
%TO.P,D13,2*%
%TO.N,ring_home*%
X96081953Y-111986140D03*
D26*
X96006570Y-109827456D03*
%TO.P,D13,1*%
%TO.N,P7*%
X95891402Y-106529466D03*
D27*
X95816019Y-104370782D03*
%TD*%
D14*
%TO.P,D2,2*%
%TO.N,outer_bottom*%
X57459604Y-133243257D03*
D17*
X57308930Y-131088519D03*
%TO.P,D2,1*%
%TO.N,P8*%
X57078734Y-127796557D03*
D18*
X56928060Y-125641819D03*
%TD*%
D14*
%TO.P,D12,2*%
%TO.N,ring_bottom*%
X96752020Y-131174446D03*
D26*
X96676637Y-129015762D03*
%TO.P,D12,1*%
%TO.N,P8*%
X96561469Y-125717772D03*
D27*
X96486086Y-123559088D03*
%TD*%
D25*
%TO.P,S9,2*%
%TO.N,pinky_top*%
X71370663Y-101736118D03*
%TO.P,S9,1*%
%TO.N,P14*%
X57780425Y-101633877D03*
D22*
X58037268Y-105306909D03*
%TD*%
D14*
%TO.P,D23,2*%
%TO.N,index_number*%
X136092711Y-72878176D03*
D15*
X136092711Y-70718176D03*
%TO.P,D23,1*%
%TO.N,P5*%
X136092711Y-67418176D03*
D16*
X136092711Y-65258176D03*
%TD*%
D14*
%TO.P,D15,2*%
%TO.N,ring_number*%
X94741818Y-73609537D03*
D26*
X94666435Y-71450853D03*
%TO.P,D15,1*%
%TO.N,P5*%
X94551267Y-68152863D03*
D27*
X94475884Y-65994179D03*
%TD*%
D28*
%TO.P,S31,2*%
%TO.N,outer_cluster*%
X180673144Y-174583018D03*
D22*
%TO.P,S31,1*%
%TO.N,P18*%
X185168764Y-161532373D03*
D28*
X188357470Y-163373373D03*
%TD*%
D23*
%TO.P,S23,2*%
%TO.N,index_number*%
X132967693Y-80818181D03*
D22*
%TO.P,S23,1*%
%TO.N,P19*%
X119417692Y-83450181D03*
D23*
X119417692Y-79768181D03*
%TD*%
%TO.P,S21,2*%
%TO.N,index_home*%
X132967704Y-119218176D03*
D22*
%TO.P,S21,1*%
%TO.N,P19*%
X119417703Y-121850176D03*
D23*
X119417703Y-118168176D03*
%TD*%
D14*
%TO.P,D16,2*%
%TO.N,middle_bottom*%
X115940319Y-130504371D03*
D26*
X115864936Y-128345687D03*
%TO.P,D16,1*%
%TO.N,P8*%
X115749768Y-125047697D03*
D27*
X115674385Y-122889013D03*
%TD*%
D29*
%TO.P,S30,2*%
%TO.N,home_cluster*%
X161949068Y-165947339D03*
D22*
%TO.P,S30,1*%
%TO.N,P20*%
X164584639Y-152398035D03*
D29*
X167998538Y-153777339D03*
%TD*%
D14*
%TO.P,D6,2*%
%TO.N,pinky_mod*%
X77952162Y-151057174D03*
D17*
X77801488Y-148902436D03*
%TO.P,D6,1*%
%TO.N,P9*%
X77571292Y-145610474D03*
D18*
X77420618Y-143455736D03*
%TD*%
D25*
%TO.P,S6,2*%
%TO.N,pinky_mod*%
X75388640Y-159195807D03*
%TO.P,S6,1*%
%TO.N,P14*%
X61798402Y-159093566D03*
D22*
X62055245Y-162766598D03*
%TD*%
D24*
%TO.P,S14,2*%
%TO.N,ring_top*%
X92565887Y-100842056D03*
D22*
%TO.P,S14,1*%
%TO.N,P16*%
X79115996Y-103945342D03*
D24*
X78987496Y-100265584D03*
%TD*%
D23*
%TO.P,S20,2*%
%TO.N,index_bottom*%
X132967711Y-138418180D03*
D22*
%TO.P,S20,1*%
%TO.N,P19*%
X119417710Y-141050180D03*
D23*
X119417710Y-137368180D03*
%TD*%
D25*
%TO.P,S3,2*%
%TO.N,outer_home*%
X53556757Y-122228667D03*
%TO.P,S3,1*%
%TO.N,P15*%
X39966519Y-122126426D03*
D22*
X40223362Y-125799458D03*
%TD*%
%TO.P,MCU1,VCC*%
%TO.N,VCC*%
X170112697Y-70718169D03*
%TO.P,MCU1,RST*%
%TO.N,RST*%
X170112697Y-68178170D03*
%TO.P,MCU1,P21*%
%TO.N,P21*%
X170112697Y-73258170D03*
%TO.P,MCU1,P20*%
%TO.N,P20*%
X170112698Y-75798169D03*
%TO.P,MCU1,P19*%
%TO.N,P19*%
X170112699Y-78338168D03*
%TO.P,MCU1,P18*%
%TO.N,P18*%
X170112699Y-80878169D03*
%TO.P,MCU1,P16*%
%TO.N,P16*%
X170112697Y-88498170D03*
%TO.P,MCU1,P15*%
%TO.N,P15*%
X170112698Y-83418170D03*
%TO.P,MCU1,P14*%
%TO.N,P14*%
X170112701Y-85958165D03*
%TO.P,MCU1,P10*%
%TO.N,P10*%
X170112698Y-91038169D03*
%TO.P,MCU1,P9*%
%TO.N,P9*%
X164872698Y-91038170D03*
%TO.P,MCU1,P8*%
%TO.N,P8*%
X164872695Y-88498165D03*
%TO.P,MCU1,P7*%
%TO.N,P7*%
X164872699Y-85958168D03*
%TO.P,MCU1,P6*%
%TO.N,P6*%
X164872699Y-83418169D03*
%TO.P,MCU1,P5*%
%TO.N,P5*%
X164872699Y-80878168D03*
%TO.P,MCU1,P4*%
%TO.N,P4*%
X164872698Y-78338169D03*
%TO.P,MCU1,P3*%
%TO.N,P3*%
X164872697Y-75798170D03*
%TO.P,MCU1,P2*%
%TO.N,P2*%
X164872697Y-73258169D03*
%TO.P,MCU1,P1*%
%TO.N,P1*%
X164872698Y-63098169D03*
%TO.P,MCU1,P0*%
%TO.N,P0*%
X164872699Y-65638168D03*
%TO.P,MCU1,GND*%
%TO.N,GND*%
X170112701Y-65638173D03*
X164872698Y-70718168D03*
X164872695Y-68178173D03*
%TO.P,MCU1,B+*%
%TO.N,RAW*%
X170112698Y-63098168D03*
D30*
%TO.P,MCU1,*%
%TO.N,17*%
X175112701Y-80878170D03*
%TO.N,14*%
X175112699Y-88498168D03*
%TO.N,19*%
X175112699Y-75798168D03*
%TO.N,21*%
X175112699Y-70718170D03*
%TO.N,22*%
X175112699Y-68178174D03*
%TO.N,20*%
X175112698Y-73258169D03*
%TO.N,23*%
X175112698Y-65638169D03*
%TO.N,15*%
X175112697Y-85958170D03*
%TO.N,16*%
X175112697Y-83418168D03*
%TO.N,18*%
X175112697Y-78338169D03*
%TO.N,24*%
X175112690Y-63098170D03*
%TO.N,13*%
X175112683Y-91038167D03*
D31*
X173207699Y-91038169D03*
%TO.N,20*%
X173207699Y-73258168D03*
%TO.N,22*%
X173207699Y-68178172D03*
%TO.N,24*%
X173207699Y-63098166D03*
%TO.N,14*%
X173207698Y-88498168D03*
%TO.N,15*%
X173207698Y-85958169D03*
%TO.N,16*%
X173207698Y-83418170D03*
%TO.N,23*%
X173207698Y-65638169D03*
%TO.N,17*%
X173207697Y-80878169D03*
%TO.N,19*%
X173207697Y-75798170D03*
%TO.N,18*%
X173207695Y-78338168D03*
%TO.N,21*%
X173207695Y-70718168D03*
D32*
%TO.N,P2*%
X171757699Y-73258169D03*
%TO.N,P8*%
X171757693Y-88498168D03*
%TO.N,P5*%
X171757694Y-80878169D03*
%TO.N,GND*%
X171757693Y-68178170D03*
%TO.N,P1*%
X171757693Y-63098169D03*
%TO.N,P9*%
X171757692Y-91038169D03*
%TO.N,P7*%
X171757692Y-85958169D03*
%TO.N,P6*%
X171757692Y-83418169D03*
%TO.N,P3*%
X171757692Y-75798176D03*
%TO.N,GND*%
X171757692Y-70718168D03*
%TO.N,P0*%
X171757692Y-65638168D03*
%TO.N,P4*%
X171757691Y-78338155D03*
D33*
%TO.N,P21*%
X163227696Y-73258177D03*
%TO.N,P20*%
X163227695Y-75798169D03*
%TO.N,GND*%
X163227695Y-65638170D03*
%TO.N,P16*%
X163227694Y-88498168D03*
%TO.N,P15*%
X163227694Y-83418169D03*
%TO.N,P19*%
X163227694Y-78338169D03*
%TO.N,VCC*%
X163227694Y-70718169D03*
%TO.N,RAW*%
X163227694Y-63098169D03*
%TO.N,P10*%
X163227693Y-91038168D03*
%TO.N,P14*%
X163227693Y-85958169D03*
%TO.N,RST*%
X163227692Y-68178171D03*
%TO.N,P18*%
X163227691Y-80878169D03*
D34*
%TO.N,9*%
X161777701Y-83418170D03*
%TO.N,6*%
X161777701Y-75798170D03*
%TO.N,7*%
X161777699Y-78338168D03*
%TO.N,5*%
X161777699Y-73258169D03*
%TO.N,11*%
X161777698Y-88498169D03*
%TO.N,4*%
X161777698Y-70718168D03*
%TO.N,3*%
X161777698Y-68178169D03*
%TO.N,2*%
X161777698Y-65638170D03*
%TO.N,12*%
X161777697Y-91038172D03*
%TO.N,10*%
X161777697Y-85958166D03*
%TO.N,8*%
X161777697Y-80878170D03*
%TO.N,1*%
X161777697Y-63098169D03*
D30*
X159872713Y-63098171D03*
%TO.N,12*%
X159872706Y-91038168D03*
%TO.N,6*%
X159872699Y-75798169D03*
%TO.N,4*%
X159872699Y-70718170D03*
%TO.N,3*%
X159872699Y-68178168D03*
%TO.N,11*%
X159872698Y-88498169D03*
%TO.N,8*%
X159872698Y-80878169D03*
%TO.N,10*%
X159872697Y-85958164D03*
%TO.N,9*%
X159872697Y-83418168D03*
%TO.N,7*%
X159872697Y-78338170D03*
%TO.N,2*%
X159872697Y-65638170D03*
%TO.N,5*%
X159872695Y-73258168D03*
%TD*%
D25*
%TO.P,S8,2*%
%TO.N,pinky_home*%
X72709991Y-120889357D03*
%TO.P,S8,1*%
%TO.N,P14*%
X59119753Y-120787116D03*
D22*
X59376596Y-124460148D03*
%TD*%
D25*
%TO.P,S2,2*%
%TO.N,outer_bottom*%
X54896084Y-141381908D03*
%TO.P,S2,1*%
%TO.N,P15*%
X41305846Y-141279667D03*
D22*
X41562689Y-144952699D03*
%TD*%
D14*
%TO.P,D20,2*%
%TO.N,index_bottom*%
X136092697Y-130478173D03*
D15*
X136092697Y-128318173D03*
%TO.P,D20,1*%
%TO.N,P8*%
X136092697Y-125018173D03*
D16*
X136092697Y-122858173D03*
%TD*%
D24*
%TO.P,S13,2*%
%TO.N,ring_home*%
X93235969Y-120030369D03*
D22*
%TO.P,S13,1*%
%TO.N,P16*%
X79786078Y-123133655D03*
D24*
X79657578Y-119453897D03*
%TD*%
D35*
%TO.P,S28,2*%
%TO.N,mod_cluster*%
X120760112Y-162109952D03*
D22*
%TO.P,S28,1*%
%TO.N,P10*%
X119558892Y-148359060D03*
D35*
X123220721Y-148743934D03*
%TD*%
D24*
%TO.P,S19,2*%
%TO.N,middle_number*%
X111084125Y-80983680D03*
D22*
%TO.P,S19,1*%
%TO.N,P10*%
X97634234Y-84086966D03*
D24*
X97505734Y-80407208D03*
%TD*%
D25*
%TO.P,S7,2*%
%TO.N,pinky_bottom*%
X74049314Y-140042571D03*
%TO.P,S7,1*%
%TO.N,P14*%
X60459076Y-139940330D03*
D22*
X60715919Y-143613362D03*
%TD*%
D14*
%TO.P,D9,2*%
%TO.N,pinky_top*%
X73934196Y-93597476D03*
D17*
X73783522Y-91442738D03*
%TO.P,D9,1*%
%TO.N,P6*%
X73553326Y-88150776D03*
D18*
X73402652Y-85996038D03*
%TD*%
D14*
%TO.P,D27,2*%
%TO.N,inner_number*%
X155292704Y-72878181D03*
D15*
X155292704Y-70718181D03*
%TO.P,D27,1*%
%TO.N,P5*%
X155292704Y-67418181D03*
D16*
X155292704Y-65258181D03*
%TD*%
D24*
%TO.P,S17,2*%
%TO.N,middle_home*%
X112424268Y-119360290D03*
D22*
%TO.P,S17,1*%
%TO.N,P10*%
X98974377Y-122463576D03*
D24*
X98845877Y-118783818D03*
%TD*%
D25*
%TO.P,S10,2*%
%TO.N,pinky_number*%
X70031322Y-82582893D03*
%TO.P,S10,1*%
%TO.N,P14*%
X56441084Y-82480652D03*
D22*
X56697927Y-86153684D03*
%TD*%
D14*
%TO.P,D3,2*%
%TO.N,outer_home*%
X56120269Y-114090029D03*
D17*
X55969595Y-111935291D03*
%TO.P,D3,1*%
%TO.N,P7*%
X55739399Y-108643329D03*
D18*
X55588725Y-106488591D03*
%TD*%
D14*
%TO.P,D26,2*%
%TO.N,inner_top*%
X155292710Y-92078168D03*
D15*
X155292710Y-89918168D03*
%TO.P,D26,1*%
%TO.N,P6*%
X155292710Y-86618168D03*
D16*
X155292710Y-84458168D03*
%TD*%
D14*
%TO.P,D29,2*%
%TO.N,inner_cluster*%
X147833844Y-169591731D03*
D36*
X149929682Y-170114282D03*
%TO.P,D29,1*%
%TO.N,P9*%
X153131658Y-170912624D03*
D37*
X155227496Y-171435175D03*
%TD*%
D23*
%TO.P,S27,2*%
%TO.N,inner_number*%
X152167709Y-80818164D03*
D22*
%TO.P,S27,1*%
%TO.N,P20*%
X138617708Y-83450164D03*
D23*
X138617708Y-79768164D03*
%TD*%
D14*
%TO.P,D18,2*%
%TO.N,middle_top*%
X114600190Y-92127757D03*
D26*
X114524807Y-89969073D03*
%TO.P,D18,1*%
%TO.N,P6*%
X114409639Y-86671083D03*
D27*
X114334256Y-84512399D03*
%TD*%
D38*
%TO.P,JST1,2*%
%TO.N,GND*%
X178692709Y-99268170D03*
D39*
%TO.P,JST1,1*%
%TO.N,BPOS*%
X180692707Y-99268170D03*
%TD*%
D25*
%TO.P,S5,2*%
%TO.N,outer_number*%
X50878115Y-83922210D03*
%TO.P,S5,1*%
%TO.N,P15*%
X37287877Y-83819969D03*
D22*
X37544720Y-87493001D03*
%TD*%
D24*
%TO.P,S15,2*%
%TO.N,ring_number*%
X91895824Y-81653745D03*
D22*
%TO.P,S15,1*%
%TO.N,P16*%
X78445933Y-84757031D03*
D24*
X78317433Y-81077273D03*
%TD*%
D14*
%TO.P,D5,2*%
%TO.N,outer_number*%
X53441644Y-75783563D03*
D17*
X53290970Y-73628825D03*
%TO.P,D5,1*%
%TO.N,P5*%
X53060774Y-70336863D03*
D18*
X52910100Y-68182125D03*
%TD*%
D14*
%TO.P,D1,2*%
%TO.N,outer_mod*%
X58798932Y-152396483D03*
D17*
X58648258Y-150241745D03*
%TO.P,D1,1*%
%TO.N,P9*%
X58418062Y-146949783D03*
D18*
X58267388Y-144795045D03*
%TD*%
D14*
%TO.P,D11,2*%
%TO.N,ring_mod*%
X97422102Y-150362735D03*
D26*
X97346719Y-148204051D03*
%TO.P,D11,1*%
%TO.N,P9*%
X97231551Y-144906061D03*
D27*
X97156168Y-142747377D03*
%TD*%
D14*
%TO.P,D19,2*%
%TO.N,middle_number*%
X113930127Y-72939464D03*
D26*
X113854744Y-70780780D03*
%TO.P,D19,1*%
%TO.N,P5*%
X113739576Y-67482790D03*
D27*
X113664193Y-65324106D03*
%TD*%
D14*
%TO.P,D28,2*%
%TO.N,mod_cluster*%
X128329963Y-166047782D03*
D40*
X130478131Y-166273564D03*
%TO.P,D28,1*%
%TO.N,P9*%
X133760055Y-166618508D03*
D41*
X135908223Y-166844290D03*
%TD*%
D25*
%TO.P,S1,2*%
%TO.N,outer_mod*%
X56235414Y-160535139D03*
%TO.P,S1,1*%
%TO.N,P15*%
X42645176Y-160432898D03*
D22*
X42902019Y-164105930D03*
%TD*%
D14*
%TO.P,D25,2*%
%TO.N,inner_home*%
X155292709Y-111278173D03*
D15*
X155292709Y-109118173D03*
%TO.P,D25,1*%
%TO.N,P7*%
X155292709Y-105818173D03*
D16*
X155292709Y-103658173D03*
%TD*%
D14*
%TO.P,D4,2*%
%TO.N,outer_top*%
X54780953Y-94936790D03*
D17*
X54630279Y-92782052D03*
%TO.P,D4,1*%
%TO.N,P6*%
X54400083Y-89490090D03*
D18*
X54249409Y-87335352D03*
%TD*%
D23*
%TO.P,S25,2*%
%TO.N,inner_home*%
X152167714Y-119218175D03*
D22*
%TO.P,S25,1*%
%TO.N,P20*%
X138617713Y-121850175D03*
D23*
X138617713Y-118168175D03*
%TD*%
D14*
%TO.P,D14,2*%
%TO.N,ring_top*%
X95411892Y-92797834D03*
D26*
X95336509Y-90639150D03*
%TO.P,D14,1*%
%TO.N,P6*%
X95221341Y-87341160D03*
D27*
X95145958Y-85182476D03*
%TD*%
D14*
%TO.P,D31,2*%
%TO.N,outer_cluster*%
X185986887Y-181259358D03*
D42*
X187857501Y-182339360D03*
%TO.P,D31,1*%
%TO.N,P9*%
X190715385Y-183989358D03*
D43*
X192585999Y-185069360D03*
%TD*%
D24*
%TO.P,S18,2*%
%TO.N,middle_top*%
X111754199Y-100171998D03*
D22*
%TO.P,S18,1*%
%TO.N,P10*%
X98304308Y-103275284D03*
D24*
X98175808Y-99595526D03*
%TD*%
%TO.P,S16,2*%
%TO.N,middle_bottom*%
X113094331Y-138548593D03*
D22*
%TO.P,S16,1*%
%TO.N,P10*%
X99644440Y-141651879D03*
D24*
X99515940Y-137972121D03*
%TD*%
%TO.P,S11,2*%
%TO.N,ring_mod*%
X94576105Y-158406969D03*
D22*
%TO.P,S11,1*%
%TO.N,P16*%
X81126214Y-161510255D03*
D24*
X80997714Y-157830497D03*
%TD*%
D23*
%TO.P,S24,2*%
%TO.N,inner_bottom*%
X152167707Y-138418166D03*
D22*
%TO.P,S24,1*%
%TO.N,P20*%
X138617706Y-141050166D03*
D23*
X138617706Y-137368166D03*
%TD*%
D30*
%TO.P,OLED1,5*%
%TO.N,O5*%
X172572697Y-97548172D03*
%TO.P,OLED1,4*%
%TO.N,O4*%
X170032702Y-97548172D03*
%TO.P,OLED1,3*%
%TO.N,VCC*%
X167492702Y-97548172D03*
%TO.P,OLED1,2*%
%TO.N,O2*%
X164952701Y-97548171D03*
%TO.P,OLED1,1*%
%TO.N,O1*%
X162412701Y-97548171D03*
D44*
%TO.P,OLED1,*%
%TO.N,P2*%
X172572705Y-100880165D03*
D45*
%TO.N,O5*%
X172572702Y-99703372D03*
D22*
%TO.N,P1*%
X172572701Y-102150171D03*
D45*
%TO.N,O4*%
X170032709Y-99703373D03*
D44*
%TO.N,P3*%
X170032706Y-100880173D03*
D22*
%TO.N,GND*%
X170032702Y-102150174D03*
%TO.N,P3*%
X164952705Y-102150170D03*
D44*
%TO.N,GND*%
X164952701Y-100880172D03*
D45*
%TO.N,O2*%
X164952697Y-99703373D03*
D22*
%TO.N,P2*%
X162412703Y-102150172D03*
D44*
%TO.N,P1*%
X162412703Y-100880166D03*
D45*
%TO.N,O1*%
X162412702Y-99703372D03*
%TD*%
D46*
%TO.N,P18*%
X178949454Y-112380000D03*
%TO.N,P9*%
X159650000Y-144919798D03*
X157835403Y-139888165D03*
X101709908Y-142586645D03*
%TO.N,RAW*%
X174270886Y-113468172D03*
X167799248Y-94110760D03*
X178949454Y-113468170D03*
%TO.N,BPOS*%
X179949455Y-113468172D03*
%TO.N,GND*%
X169342707Y-113468174D03*
%TO.N,RST*%
X165642706Y-113468179D03*
%TO.N,P1*%
X169799255Y-95110755D03*
X167799249Y-95110754D03*
%TD*%
D47*
%TO.N,P18*%
X177738774Y-113301226D02*
X177738774Y-113551230D01*
X178660000Y-112380000D02*
X177738774Y-113301226D01*
X178949454Y-112380000D02*
X178660000Y-112380000D01*
X177738770Y-154102390D02*
X177738770Y-113551230D01*
%TO.N,P9*%
X159647717Y-144922081D02*
X159650000Y-144919798D01*
X159647717Y-153706649D02*
X159647717Y-144922081D01*
X155227496Y-171435176D02*
X159647717Y-153706649D01*
X155356008Y-142367562D02*
X157835403Y-139888165D01*
X120725507Y-142367571D02*
X155356008Y-142367562D01*
X120479461Y-142376157D02*
X120725507Y-142367571D01*
X120460879Y-142376808D02*
X120479461Y-142376157D01*
X120460851Y-142376805D02*
X120460879Y-142376808D01*
X102169845Y-143015539D02*
X120460851Y-142376805D01*
X101709908Y-142586645D02*
X102169845Y-143015539D01*
%TO.N,RAW*%
X174270886Y-95399788D02*
X174270886Y-113468172D01*
X172981863Y-94110753D02*
X174270886Y-95399788D01*
X167799248Y-94110760D02*
X172981863Y-94110753D01*
%TO.N,GND*%
X172012770Y-71983469D02*
X171757696Y-71728397D01*
X176432366Y-71983465D02*
X172012770Y-71983469D01*
X177738763Y-73289866D02*
X176432366Y-71983465D01*
X177738766Y-98314236D02*
X177738763Y-73289866D01*
X171757696Y-71728397D02*
X171757697Y-70718174D01*
X178692706Y-99268173D02*
X177738766Y-98314236D01*
%TO.N,P14*%
X170112704Y-86029874D02*
X170112706Y-85958174D01*
X176432367Y-87223466D02*
X171306296Y-87223467D01*
X176838773Y-87629867D02*
X176432367Y-87223466D01*
X176838766Y-137820270D02*
X176838773Y-87629867D01*
X170921061Y-143737976D02*
X176838766Y-137820270D01*
X120164586Y-143737982D02*
X170921061Y-143737976D01*
X101177255Y-144401033D02*
X102547718Y-144353164D01*
X102547718Y-144353164D02*
X120164586Y-143737982D01*
X99156343Y-146568195D02*
X101177255Y-144401033D01*
X98107808Y-161750460D02*
X99629530Y-160118616D01*
X78987019Y-162418178D02*
X98107808Y-161750460D01*
X62944881Y-163539954D02*
X78987019Y-162418178D01*
X171306296Y-87223467D02*
X170112704Y-86029874D01*
X62055241Y-162766600D02*
X62944881Y-163539954D01*
X99629530Y-160118616D02*
X99156343Y-146568195D01*
%TO.N,P10*%
X170590373Y-92303469D02*
X170112702Y-91825804D01*
X170112702Y-91825804D02*
X170112701Y-91038177D01*
X170513042Y-142823804D02*
X175931571Y-137405272D01*
X174374963Y-92303466D02*
X170590373Y-92303469D01*
X120554936Y-142823797D02*
X170513042Y-142823804D01*
X175931573Y-93860063D02*
X174374963Y-92303466D01*
X101610597Y-143485344D02*
X120554936Y-142823797D01*
X175931571Y-137405272D02*
X175931573Y-93860063D01*
X99644442Y-141651885D02*
X101610597Y-143485344D01*
%TO.N,P16*%
X170112702Y-88569871D02*
X170112701Y-88498175D01*
X176127572Y-89763465D02*
X171306304Y-89763469D01*
X176381568Y-90017467D02*
X176127572Y-89763465D01*
X176381576Y-137591672D02*
X176381568Y-90017467D01*
X170692080Y-143281164D02*
X176381576Y-137591672D01*
X100975268Y-143957806D02*
X120351955Y-143281159D01*
X97905820Y-161307240D02*
X99173296Y-159948041D01*
X99173296Y-159948041D02*
X98700107Y-146397624D01*
X81522041Y-161879371D02*
X97905820Y-161307240D01*
X120351955Y-143281159D02*
X170692080Y-143281164D01*
X171306304Y-89763469D02*
X170112702Y-88569871D01*
X98700107Y-146397624D02*
X100975268Y-143957806D01*
X81126219Y-161510259D02*
X81522041Y-161879371D01*
%TO.N,P15*%
X78612996Y-162895427D02*
X44271942Y-165296786D01*
X98296385Y-162208067D02*
X78612996Y-162895427D01*
X100085763Y-160289191D02*
X98296385Y-162208067D01*
X44271942Y-165296786D02*
X42902017Y-164105932D01*
X99612566Y-146738771D02*
X100085763Y-160289191D01*
X101379239Y-144844252D02*
X99612566Y-146738771D01*
X119977208Y-144194800D02*
X102258816Y-144813536D01*
X102258816Y-144813536D02*
X101379239Y-144844252D01*
X177288770Y-85539869D02*
X177288777Y-138030670D01*
X176432368Y-84683473D02*
X177288770Y-85539869D01*
X177288777Y-138030670D02*
X171124645Y-144194798D01*
X170112705Y-83983865D02*
X170812312Y-84683477D01*
X170812312Y-84683477D02*
X176432368Y-84683473D01*
X171124645Y-144194798D02*
X119977208Y-144194800D01*
X170112697Y-83418173D02*
X170112705Y-83983865D01*
%TO.N,RST*%
X163227700Y-69059312D02*
X163227697Y-68178177D01*
X158537653Y-69456759D02*
X162830254Y-69456755D01*
X162830254Y-69456755D02*
X163227700Y-69059312D01*
X157826451Y-109817356D02*
X157826453Y-70167960D01*
X157826453Y-70167960D02*
X158537653Y-69456759D01*
X161477273Y-113468177D02*
X157826451Y-109817356D01*
X165642706Y-113468179D02*
X161477273Y-113468177D01*
%TO.N,BPOS*%
X181617706Y-100193171D02*
X180692708Y-99268175D01*
X181617709Y-111218168D02*
X181617706Y-100193171D01*
%TO.N,RAW*%
X178949449Y-113493476D02*
X178949454Y-113468170D01*
X179674143Y-114218165D02*
X178949449Y-113493476D01*
X181617702Y-114218167D02*
X179674143Y-114218165D01*
%TO.N,BPOS*%
X179949455Y-112886411D02*
X179949455Y-113468172D01*
X181617709Y-111218168D02*
X179949455Y-112886411D01*
%TO.N,7*%
X159872706Y-78338176D02*
X161777706Y-78338178D01*
%TO.N,1*%
X159872706Y-63098175D02*
X161777706Y-63098181D01*
%TO.N,13*%
X173207710Y-91038174D02*
X173207705Y-91038176D01*
%TO.N,O1*%
X162412701Y-97548168D02*
X162412700Y-99703369D01*
X162412700Y-99703369D02*
X162412698Y-99703373D01*
%TO.N,5*%
X159872705Y-73258173D02*
X161777705Y-73258174D01*
%TO.N,3*%
X159872705Y-68178176D02*
X161777701Y-68178173D01*
%TO.N,19*%
X173207711Y-75798178D02*
X173207711Y-75798181D01*
%TO.N,12*%
X159872719Y-91038176D02*
X159872714Y-91038173D01*
%TO.N,16*%
X175112712Y-83418176D02*
X173207705Y-83418171D01*
%TO.N,23*%
X175112704Y-65638176D02*
X173207710Y-65638177D01*
%TO.N,22*%
X175112704Y-68178178D02*
X173207707Y-68178175D01*
%TO.N,2*%
X159872708Y-65638175D02*
X161777707Y-65638175D01*
%TO.N,15*%
X173207706Y-85958182D02*
X173207702Y-85958180D01*
%TO.N,19*%
X175112704Y-75798173D02*
X173207711Y-75798178D01*
%TO.N,O4*%
X170032703Y-99703366D02*
X170032709Y-99703370D01*
%TO.N,O5*%
X172572693Y-97548173D02*
X172572695Y-99703358D01*
%TO.N,16*%
X173207705Y-83418171D02*
X173207704Y-83418173D01*
%TO.N,17*%
X173207704Y-80878179D02*
X173207704Y-80878179D01*
%TO.N,10*%
X159872701Y-85958170D02*
X161777706Y-85958175D01*
%TO.N,18*%
X175112707Y-78338169D02*
X173207701Y-78338179D01*
%TO.N,O2*%
X164952695Y-99703377D02*
X164952694Y-99703377D01*
%TO.N,9*%
X161777702Y-83418176D02*
X161777706Y-83418174D01*
%TO.N,13*%
X175112692Y-91038171D02*
X173207710Y-91038174D01*
%TO.N,3*%
X161777701Y-68178173D02*
X161777707Y-68178173D01*
%TO.N,14*%
X175112707Y-88498180D02*
X173207706Y-88498169D01*
%TO.N,21*%
X175112709Y-70718179D02*
X173207701Y-70718174D01*
%TO.N,1*%
X161777706Y-63098181D02*
X161777701Y-63098177D01*
%TO.N,8*%
X161777700Y-80878179D02*
X161777699Y-80878175D01*
%TO.N,21*%
X173207701Y-70718174D02*
X173207701Y-70718175D01*
%TO.N,4*%
X161777705Y-70718176D02*
X161777705Y-70718173D01*
X159872709Y-70718170D02*
X161777705Y-70718176D01*
%TO.N,O5*%
X172572695Y-99703358D02*
X172572695Y-99703360D01*
%TO.N,15*%
X175112701Y-85958172D02*
X173207706Y-85958182D01*
%TO.N,9*%
X159872710Y-83418171D02*
X161777702Y-83418176D01*
%TO.N,18*%
X173207701Y-78338179D02*
X173207702Y-78338179D01*
%TO.N,17*%
X175112710Y-80878180D02*
X173207704Y-80878179D01*
%TO.N,11*%
X159872706Y-88498177D02*
X161777707Y-88498176D01*
%TO.N,O2*%
X164952695Y-97548169D02*
X164952695Y-99703377D01*
%TO.N,20*%
X175112703Y-73258177D02*
X173207704Y-73258170D01*
%TO.N,8*%
X159872702Y-80878174D02*
X161777700Y-80878179D01*
%TO.N,24*%
X173207707Y-63098178D02*
X173207706Y-63098176D01*
%TO.N,6*%
X159872700Y-75798183D02*
X161777703Y-75798171D01*
%TO.N,12*%
X161777707Y-91038171D02*
X159872719Y-91038176D01*
%TO.N,20*%
X173207704Y-73258170D02*
X173207706Y-73258171D01*
%TO.N,5*%
X161777705Y-73258174D02*
X161777709Y-73258168D01*
%TO.N,7*%
X161777706Y-78338178D02*
X161777707Y-78338179D01*
%TO.N,O4*%
X170032701Y-97548166D02*
X170032703Y-99703366D01*
%TO.N,24*%
X175112704Y-63098166D02*
X173207707Y-63098178D01*
%TO.N,6*%
X161777703Y-75798171D02*
X161777706Y-75798174D01*
%TO.N,P15*%
X164114396Y-84304867D02*
X169226010Y-84304860D01*
X42902018Y-164105931D02*
X42645161Y-160432899D01*
X163227702Y-83418177D02*
X164114396Y-84304867D01*
X41562698Y-144952700D02*
X41305848Y-141279669D01*
X38627202Y-102973196D02*
X38884042Y-106646239D01*
X37544721Y-87493002D02*
X37287873Y-83819963D01*
X39966522Y-122126428D02*
X40223367Y-125799462D01*
X169226010Y-84304860D02*
X170112702Y-83418177D01*
%TO.N,outer_mod*%
X56235405Y-160535124D02*
X55899527Y-155731873D01*
X58648258Y-150241741D02*
X58798934Y-152396494D01*
X55899527Y-155731873D02*
X58798934Y-152396494D01*
%TO.N,outer_bottom*%
X54560203Y-136578622D02*
X57459598Y-133243252D01*
X57308937Y-131088509D02*
X57459598Y-133243252D01*
X54896079Y-141381898D02*
X54560203Y-136578622D01*
%TO.N,outer_home*%
X53220884Y-117425390D02*
X56120273Y-114090024D01*
X56120273Y-114090024D02*
X55969611Y-111935292D01*
X53556764Y-122228670D02*
X53220884Y-117425390D01*
%TO.N,outer_top*%
X54630283Y-92782057D02*
X54780942Y-94936789D01*
X52217433Y-103075447D02*
X51881556Y-98272170D01*
X51881556Y-98272170D02*
X54780942Y-94936789D01*
%TO.N,outer_number*%
X50542238Y-79118947D02*
X53441637Y-75783566D01*
X50878119Y-83922206D02*
X50542238Y-79118947D01*
X53441637Y-75783566D02*
X53290957Y-73628832D01*
%TO.N,P14*%
X56697946Y-86153685D02*
X56441109Y-82480655D01*
X163227694Y-85958179D02*
X163952707Y-86683171D01*
X60715922Y-143613366D02*
X60459063Y-139940341D01*
X59119748Y-120787111D02*
X59376586Y-124460131D01*
X169387712Y-86683170D02*
X170112709Y-85958173D01*
X62055247Y-162766606D02*
X61798406Y-159093573D01*
X58037261Y-105306903D02*
X57780422Y-101633866D01*
X163952707Y-86683171D02*
X169387712Y-86683170D01*
%TO.N,pinky_mod*%
X77801479Y-148902420D02*
X77952166Y-151057165D01*
X75388639Y-159195808D02*
X75052767Y-154392538D01*
X75052767Y-154392538D02*
X77952166Y-151057165D01*
%TO.N,pinky_bottom*%
X74049307Y-140042578D02*
X73713433Y-135239307D01*
X73713433Y-135239307D02*
X76612846Y-131903924D01*
X76462154Y-129749192D02*
X76612846Y-131903924D01*
%TO.N,pinky_home*%
X72709978Y-120889350D02*
X72374112Y-116086078D01*
X75273514Y-112750698D02*
X75122839Y-110595967D01*
X72374112Y-116086078D02*
X75273514Y-112750698D01*
%TO.N,pinky_top*%
X73934183Y-93597481D02*
X73783524Y-91442735D01*
X71034785Y-96932847D02*
X73934183Y-93597481D01*
X71370658Y-101736123D02*
X71034785Y-96932847D01*
%TO.N,pinky_number*%
X70031345Y-82582892D02*
X69695462Y-77779617D01*
X72594866Y-74444245D02*
X72444192Y-72289499D01*
X69695462Y-77779617D02*
X72594866Y-74444245D01*
%TO.N,P16*%
X80456139Y-142321951D02*
X80327635Y-138642190D01*
X79786079Y-123133652D02*
X79657557Y-119453885D01*
X81126216Y-161510255D02*
X80997710Y-157830502D01*
X79115992Y-103945335D02*
X78987495Y-100265591D01*
X78445918Y-84757044D02*
X78317430Y-81077282D01*
X163952697Y-89223173D02*
X169387710Y-89223172D01*
X169387710Y-89223172D02*
X170112700Y-88498173D01*
X163227701Y-88498171D02*
X163952697Y-89223173D01*
%TO.N,ring_mod*%
X94576102Y-158406974D02*
X94408067Y-153594898D01*
X94408067Y-153594898D02*
X97422092Y-150362751D01*
X97422092Y-150362751D02*
X97346720Y-148204058D01*
%TO.N,ring_bottom*%
X93906030Y-139218665D02*
X93737997Y-134406598D01*
X96752026Y-131174437D02*
X96676641Y-129015760D01*
X93737997Y-134406598D02*
X96752026Y-131174437D01*
%TO.N,ring_home*%
X93067921Y-115218299D02*
X96081952Y-111986136D01*
X96006568Y-109827456D02*
X96081952Y-111986136D01*
X93235965Y-120030367D02*
X93067921Y-115218299D01*
%TO.N,ring_top*%
X92397851Y-96029992D02*
X95411889Y-92797835D01*
X92565887Y-100842057D02*
X92397851Y-96029992D01*
X95336505Y-90639146D02*
X95411889Y-92797835D01*
%TO.N,ring_number*%
X91895835Y-81653748D02*
X91727779Y-76841691D01*
X91727779Y-76841691D02*
X94741802Y-73609527D01*
X94666428Y-71450844D02*
X94741802Y-73609527D01*
%TO.N,P10*%
X163952694Y-91763177D02*
X169387703Y-91763184D01*
X98974372Y-122463579D02*
X98845874Y-118783822D01*
X97634233Y-84086959D02*
X97505742Y-80407205D01*
X169387703Y-91763184D02*
X170112699Y-91038177D01*
X99651001Y-141644843D02*
X99644440Y-141651874D01*
X163227708Y-91038174D02*
X163952694Y-91763177D01*
X99644445Y-141651873D02*
X99515958Y-137972122D01*
X119558886Y-148359058D02*
X123220718Y-148743929D01*
X98304301Y-103275279D02*
X98175800Y-99595515D01*
X123220718Y-148743929D02*
X123220719Y-148743934D01*
%TO.N,middle_bottom*%
X113094338Y-138548592D02*
X112926303Y-133736528D01*
X112926303Y-133736528D02*
X115940335Y-130504373D01*
X115940335Y-130504373D02*
X115864955Y-128345679D01*
%TO.N,middle_home*%
X115194878Y-109157388D02*
X115270262Y-111316076D01*
X112424268Y-119360283D02*
X112256222Y-114548225D01*
X112256222Y-114548225D02*
X115270262Y-111316076D01*
%TO.N,middle_top*%
X114600195Y-92127758D02*
X114524797Y-89969077D01*
X111754188Y-100171992D02*
X111586145Y-95359916D01*
X111586145Y-95359916D02*
X114600195Y-92127758D01*
%TO.N,middle_number*%
X113854732Y-70780769D02*
X113930112Y-72939457D01*
X111084125Y-80983678D02*
X110916085Y-76171617D01*
X110916085Y-76171617D02*
X113930112Y-72939457D01*
%TO.N,P19*%
X163227705Y-78338174D02*
X163952698Y-79063172D01*
X119417710Y-83450170D02*
X119417703Y-79768171D01*
X119417702Y-118168177D02*
X119417708Y-121850170D01*
X119417691Y-141050176D02*
X119417704Y-137368178D01*
X141609926Y-150854450D02*
X145182567Y-151745213D01*
X163952698Y-79063172D02*
X169387706Y-79063175D01*
X119417711Y-98968169D02*
X119417711Y-102650167D01*
X169387706Y-79063175D02*
X170112704Y-78338181D01*
%TO.N,index_bottom*%
X132967712Y-138418175D02*
X132967708Y-133603177D01*
X136092709Y-128318169D02*
X136092712Y-130478172D01*
X132967708Y-133603177D02*
X136092712Y-130478172D01*
%TO.N,index_home*%
X132967708Y-119218179D02*
X132967701Y-114403179D01*
X136092703Y-109118180D02*
X136092707Y-111278181D01*
X132967701Y-114403179D02*
X136092707Y-111278181D01*
%TO.N,index_top*%
X132967716Y-95203166D02*
X136092708Y-92078171D01*
X132967717Y-100018171D02*
X132967716Y-95203166D01*
X136092706Y-89918173D02*
X136092705Y-92078169D01*
%TO.N,index_number*%
X132967702Y-80818169D02*
X132967701Y-76003182D01*
X136092709Y-70718165D02*
X136092702Y-72878178D01*
X132967701Y-76003182D02*
X136092702Y-72878178D01*
%TO.N,P20*%
X163227704Y-75798174D02*
X163952704Y-76523176D01*
X167998524Y-153777340D02*
X167998527Y-153777342D01*
X164584645Y-152398043D02*
X167998524Y-153777340D01*
X138617709Y-141050179D02*
X138617711Y-137368181D01*
X138617709Y-118168176D02*
X138617708Y-121850182D01*
X169387702Y-76523177D02*
X170112706Y-75798169D01*
X163952704Y-76523176D02*
X169387702Y-76523177D01*
X138617705Y-102650177D02*
X138617706Y-98968180D01*
X138617705Y-83450169D02*
X138617716Y-79768168D01*
%TO.N,inner_bottom*%
X152167713Y-133603176D02*
X155292708Y-130478165D01*
X155292707Y-128318174D02*
X155292708Y-130478165D01*
X152167705Y-138418168D02*
X152167713Y-133603176D01*
%TO.N,inner_home*%
X155292711Y-109118180D02*
X155292711Y-111278170D01*
X152167710Y-119218167D02*
X152167715Y-114403175D01*
X152167715Y-114403175D02*
X155292711Y-111278170D01*
%TO.N,inner_top*%
X152167698Y-95203169D02*
X155292710Y-92078177D01*
X152167710Y-100018177D02*
X152167698Y-95203169D01*
X155292706Y-89918175D02*
X155292710Y-92078177D01*
%TO.N,inner_number*%
X152167711Y-76003170D02*
X155292708Y-72878173D01*
X152167712Y-80818172D02*
X152167711Y-76003170D01*
X155292704Y-70718160D02*
X155292708Y-72878173D01*
%TO.N,mod_cluster*%
X120760105Y-162109950D02*
X125548722Y-162613250D01*
X130478127Y-166273560D02*
X130478133Y-166273568D01*
X125548722Y-162613250D02*
X128329968Y-166047777D01*
X128329968Y-166047777D02*
X130478127Y-166273560D01*
%TO.N,inner_cluster*%
X140885700Y-164638692D02*
X145557678Y-165803561D01*
X145557678Y-165803561D02*
X147833850Y-169591729D01*
X147833850Y-169591729D02*
X149929685Y-170114286D01*
X149929685Y-170114286D02*
X149929682Y-170114282D01*
%TO.N,home_cluster*%
X166413466Y-167751080D02*
X168140248Y-171819168D01*
X161949071Y-165947351D02*
X166413466Y-167751080D01*
X168140248Y-171819168D02*
X170142986Y-172628320D01*
%TO.N,P18*%
X188357470Y-163373368D02*
X188357474Y-163373371D01*
X185168763Y-161532388D02*
X188357470Y-163373368D01*
X169387705Y-81603169D02*
X170112706Y-80878174D01*
X163227693Y-80878174D02*
X163952700Y-81603170D01*
X163952700Y-81603170D02*
X169387705Y-81603169D01*
%TO.N,outer_cluster*%
X184843068Y-176990532D02*
X185986895Y-181259354D01*
X185986895Y-181259354D02*
X187857496Y-182339342D01*
X187857496Y-182339342D02*
X187857497Y-182339346D01*
X180673136Y-174583033D02*
X184843068Y-176990532D01*
%TO.N,P9*%
X171977385Y-176043888D02*
X175205400Y-174673683D01*
X136972412Y-168615411D02*
X153190615Y-172659060D01*
X77420606Y-143455722D02*
X77420626Y-143455732D01*
X190715382Y-183989355D02*
X192585998Y-185069363D01*
X77420611Y-143455718D02*
X77571294Y-145610465D01*
X77420626Y-143455731D02*
X97137686Y-142767190D01*
X155227491Y-171435168D02*
X157833014Y-170329194D01*
X171757704Y-91038174D02*
X171032695Y-90313172D01*
X155227487Y-171435173D02*
X155227487Y-171435172D01*
X153190615Y-172659060D02*
X155227489Y-171435168D01*
X97137686Y-142767190D02*
X97156167Y-142747372D01*
X135908222Y-166844299D02*
X136972412Y-168615411D01*
X176078185Y-177930941D02*
X189755792Y-185827702D01*
X58418059Y-146949783D02*
X58267387Y-144795048D01*
X171032695Y-90313172D02*
X165597711Y-90313174D01*
X157833014Y-170329194D02*
X171977385Y-176043888D01*
X165597711Y-90313174D02*
X164872706Y-91038178D01*
X133760048Y-166618505D02*
X135908222Y-166844296D01*
X153131659Y-170912628D02*
X155227487Y-171435173D01*
X97231543Y-144906066D02*
X97156166Y-142747384D01*
X173202691Y-173864527D02*
X175205404Y-174673678D01*
X175205402Y-174673682D02*
X176078185Y-177930941D01*
X189755792Y-185827702D02*
X192585993Y-185069357D01*
X192585998Y-185069363D02*
X192585997Y-185069364D01*
X135908222Y-166844296D02*
X135908222Y-166844300D01*
X58267385Y-144795041D02*
X77420606Y-143455722D01*
%TO.N,P8*%
X96561472Y-125717774D02*
X96486096Y-123559084D01*
X115674403Y-122889012D02*
X136061869Y-122889009D01*
X76231970Y-126457227D02*
X76081287Y-124302493D01*
X96486096Y-123559081D02*
X96486087Y-123559084D01*
X57078732Y-127796552D02*
X56928059Y-125641804D01*
X155292714Y-122858176D02*
X136092708Y-122858169D01*
X56928058Y-125641807D02*
X76081284Y-124302490D01*
X76081284Y-124302490D02*
X76081283Y-124302488D01*
X136061869Y-122889009D02*
X136092706Y-122858170D01*
X76111022Y-124270593D02*
X76081281Y-124302488D01*
X115749793Y-125047698D02*
X115674401Y-122889020D01*
X136092708Y-122858169D02*
X136092706Y-122858170D01*
X171757701Y-88498171D02*
X171032704Y-87773173D01*
X155292710Y-125018171D02*
X155292719Y-122858164D01*
X96486087Y-123559084D02*
X76111022Y-124270593D01*
X165597700Y-87773179D02*
X164872700Y-88498166D01*
X115674403Y-122889012D02*
X96486096Y-123559081D01*
X171032704Y-87773173D02*
X165597700Y-87773179D01*
X136092701Y-122858167D02*
X136092710Y-125018167D01*
%TO.N,P7*%
X155292712Y-103658168D02*
X136092705Y-103658166D01*
X98322185Y-104283261D02*
X95816019Y-104370782D01*
X136092701Y-103658176D02*
X115046864Y-103658172D01*
X165597707Y-85233170D02*
X164872707Y-85958172D01*
X74741966Y-105149271D02*
X74741972Y-105149271D01*
X171032694Y-85233167D02*
X165597707Y-85233170D01*
X136092706Y-103658174D02*
X136092719Y-105818172D01*
X136092705Y-103658166D02*
X136092701Y-103658176D01*
X115004320Y-103700712D02*
X98322187Y-104283261D01*
X55588733Y-106488600D02*
X74741966Y-105149271D01*
X155292713Y-103658171D02*
X155292706Y-105818175D01*
X115046864Y-103658172D02*
X115004320Y-103700712D01*
X171757695Y-85958179D02*
X171032694Y-85233167D01*
X95816023Y-104370780D02*
X95891404Y-106529464D01*
X74892639Y-107303998D02*
X74741977Y-105149265D01*
X98322187Y-104283261D02*
X98322185Y-104283261D01*
X95774988Y-104414782D02*
X95816019Y-104370782D01*
X55739408Y-108643325D02*
X55588732Y-106488588D01*
X115004321Y-103700707D02*
X115079718Y-105859403D01*
X74741968Y-105149275D02*
X95774988Y-104414782D01*
%TO.N,P6*%
X114388484Y-84458165D02*
X114334246Y-84512400D01*
X95221328Y-87341158D02*
X95145951Y-85182483D01*
X54400077Y-89490093D02*
X54249416Y-87335363D01*
X95145949Y-85182472D02*
X73454956Y-85939941D01*
X95145951Y-85182470D02*
X95145949Y-85182472D01*
X171032696Y-82693179D02*
X165597711Y-82693177D01*
X171757702Y-83418174D02*
X171032696Y-82693179D01*
X73454956Y-85939941D02*
X73402642Y-85996042D01*
X136092715Y-84458173D02*
X136092708Y-84458168D01*
X73553320Y-88150767D02*
X73402654Y-85996031D01*
X155292703Y-84458173D02*
X136092715Y-84458173D01*
X136092715Y-84458175D02*
X136092715Y-86618179D01*
X165597711Y-82693177D02*
X164872702Y-83418181D01*
X136092708Y-84458168D02*
X114388484Y-84458165D01*
X73402645Y-85996035D02*
X73402648Y-85996037D01*
X114334248Y-84512401D02*
X95145951Y-85182470D01*
X54249409Y-87335360D02*
X73402645Y-85996035D01*
X114409634Y-86671087D02*
X114334248Y-84512406D01*
X155292698Y-84458171D02*
X155292705Y-86618179D01*
%TO.N,P5*%
X113664183Y-65324094D02*
X113739564Y-67482790D01*
X136092712Y-65258183D02*
X113730122Y-65258177D01*
X53060760Y-70336870D02*
X52910094Y-68182129D01*
X72063317Y-66842798D02*
X72063322Y-66842799D01*
X155292701Y-65258182D02*
X155292716Y-67418170D01*
X72213993Y-68997545D02*
X72063316Y-66842799D01*
X52910092Y-68182124D02*
X72063317Y-66842798D01*
X94475874Y-65994183D02*
X72126889Y-66774623D01*
X113664188Y-65324100D02*
X94475886Y-65994175D01*
X113730122Y-65258177D02*
X113664187Y-65324100D01*
X165597703Y-80153179D02*
X164872707Y-80878170D01*
X155292709Y-65258190D02*
X136092721Y-65258184D01*
X94475877Y-65994174D02*
X94551249Y-68152849D01*
X171032704Y-80153173D02*
X165597703Y-80153179D01*
X136092721Y-65258184D02*
X136092712Y-65258183D01*
X171757697Y-80878170D02*
X171032704Y-80153173D01*
X94475886Y-65994175D02*
X94475874Y-65994183D01*
X72126889Y-66774623D02*
X72063322Y-66842799D01*
X136092711Y-65258181D02*
X136092699Y-67418180D01*
%TO.N,RAW*%
X163227701Y-63098177D02*
X163952696Y-63823175D01*
X169387711Y-63823175D02*
X170112703Y-63098173D01*
X163952696Y-63823175D02*
X169387711Y-63823175D01*
%TO.N,GND*%
X170094654Y-67453175D02*
X165597709Y-67453179D01*
X171757700Y-70718176D02*
X171032700Y-69993173D01*
X171032700Y-69993173D02*
X165597704Y-69993171D01*
X169342713Y-116568175D02*
X169342707Y-113468174D01*
X169226019Y-66524869D02*
X170112701Y-65638180D01*
X171757700Y-70718176D02*
X171757691Y-68178180D01*
X171032706Y-67453175D02*
X170094654Y-67453175D01*
X165597704Y-69993171D02*
X164872700Y-70718175D01*
X164952694Y-100880170D02*
X164227707Y-101605158D01*
X171757694Y-68178174D02*
X171032706Y-67453175D01*
X163227708Y-65638175D02*
X164114391Y-66524863D01*
X170112708Y-67435120D02*
X170094654Y-67453175D01*
X169299710Y-102883153D02*
X170032697Y-102150174D01*
X164114391Y-66524863D02*
X169226019Y-66524869D01*
X170112701Y-65638180D02*
X170112708Y-67435120D01*
X169342709Y-113468173D02*
X169342709Y-110368175D01*
X164227707Y-101605158D02*
X164227699Y-102450472D01*
X169342707Y-113468174D02*
X169342709Y-113468173D01*
X164227699Y-102450472D02*
X164660387Y-102883157D01*
X164660387Y-102883157D02*
X169299710Y-102883153D01*
X171757691Y-68178180D02*
X171757694Y-68178174D01*
X165597709Y-67453179D02*
X164872702Y-68178181D01*
%TO.N,RST*%
X169387705Y-68903182D02*
X170112707Y-68178172D01*
X163227697Y-68178177D02*
X163952703Y-68903176D01*
X165642711Y-116568170D02*
X165642704Y-113468179D01*
X165642704Y-113468179D02*
X165642706Y-113468179D01*
X163952703Y-68903176D02*
X169387705Y-68903182D01*
X165642706Y-113468179D02*
X165642710Y-110368178D01*
%TO.N,VCC*%
X169226007Y-71604866D02*
X170112701Y-70718177D01*
X163227705Y-70718175D02*
X164114396Y-71604867D01*
X164114396Y-71604867D02*
X169226007Y-71604866D01*
%TO.N,P21*%
X164114386Y-74144874D02*
X169226017Y-74144869D01*
X163227703Y-73258175D02*
X164114386Y-74144874D01*
X169226017Y-74144869D02*
X170112704Y-73258172D01*
%TO.N,P1*%
X169799255Y-95110755D02*
X167799249Y-95110754D01*
X170939718Y-103783158D02*
X172572698Y-102150166D01*
X162942850Y-103783158D02*
X170939718Y-103783158D01*
X161687696Y-101605167D02*
X161687696Y-102528000D01*
X161687696Y-102528000D02*
X162942850Y-103783158D01*
X171757703Y-63098176D02*
X171032699Y-62373176D01*
X171032699Y-62373176D02*
X165597706Y-62373174D01*
X165597706Y-62373174D02*
X164872700Y-63098180D01*
X162412703Y-100880166D02*
X161687696Y-101605167D01*
%TO.N,P0*%
X171757697Y-65638178D02*
X171032696Y-64913185D01*
X171032696Y-64913185D02*
X165597707Y-64913177D01*
X165597707Y-64913177D02*
X164872706Y-65638171D01*
%TO.N,P2*%
X171032697Y-72533181D02*
X165597698Y-72533182D01*
X165597698Y-72533182D02*
X164872714Y-73258170D01*
X170119710Y-103333161D02*
X163595689Y-103333153D01*
X172572699Y-100880167D02*
X170119710Y-103333161D01*
X163595689Y-103333153D02*
X162412701Y-102150173D01*
X171757706Y-73258171D02*
X171032697Y-72533181D01*
%TO.N,P3*%
X170032702Y-100880180D02*
X168762699Y-102150168D01*
X171032699Y-75073174D02*
X165597706Y-75073178D01*
X171757698Y-75798184D02*
X171032699Y-75073174D01*
X168762699Y-102150168D02*
X164952704Y-102150170D01*
X165597706Y-75073178D02*
X164872713Y-75798181D01*
%TO.N,P4*%
X171757693Y-78338171D02*
X171032700Y-77613170D01*
X171032700Y-77613170D02*
X165597705Y-77613173D01*
X165597705Y-77613173D02*
X164872706Y-78338185D01*
%TO.N,P18*%
X177738770Y-154102390D02*
X185168758Y-161532377D01*
%TD*%
M02*
