M48
; DRILL file {KiCad 8.0.2} date 2024-05-17T16:06:06-0500
; FORMAT={-:-/ absolute / inch / decimal}
; #@! TF.CreationDate,2024-05-17T16:06:06-05:00
; #@! TF.GenerationSoftware,Kicad,Pcbnew,8.0.2
; #@! TF.FileFunction,NonPlated,1,2,NPTH
FMAT,2
INCH
; #@! TA.AperFunction,NonPlated,NPTH,ComponentDrill
T1C0.0354
; #@! TA.AperFunction,NonPlated,NPTH,ComponentDrill
T2C0.1181
; #@! TA.AperFunction,NonPlated,NPTH,ComponentDrill
T3C0.1969
%
G90
G05
T1
X11.3893Y-5.8429
X11.3893Y-5.961
T2
X5.525Y-4.8981
X5.5892Y-5.2625
X5.6583Y-5.6541
X5.7225Y-6.0186
X5.7892Y-4.8095
X5.7916Y-6.4102
X5.8558Y-6.7746
X5.8678Y-5.2554
X5.9225Y-5.5655
X5.9249Y-7.1662
X5.9892Y-7.5307
X6.0011Y-6.0114
X6.0558Y-6.3216
X6.1344Y-6.7675
X6.1891Y-7.0777
X6.2673Y-4.6872
X6.2677Y-7.5235
X6.3316Y-5.0517
X6.4006Y-5.4433
X6.4649Y-5.8077
X6.5316Y-4.5986
X6.534Y-6.1993
X6.5982Y-6.5638
X6.6102Y-5.0445
X6.6649Y-5.3547
X6.6673Y-6.9554
X6.7315Y-7.3198
X6.7435Y-5.8006
X6.7982Y-6.1107
X6.8768Y-6.5566
X6.9315Y-6.8668
X7.0101Y-7.3127
X7.0809Y-4.3792
X7.1324Y-4.7457
X7.1877Y-5.1395
X7.2392Y-5.506
X7.2946Y-5.8997
X7.3461Y-6.2662
X7.348Y-4.3
X7.4014Y-6.66
X7.411Y-4.7483
X7.4529Y-7.0265
X7.4549Y-5.0602
X7.5179Y-5.5085
X7.5617Y-5.8204
X7.6247Y-6.2688
X7.6686Y-6.5807
X7.7316Y-7.029
X7.8247Y-4.1554
X7.8762Y-4.5219
X7.9315Y-4.9157
X7.983Y-5.2822
X8.0384Y-5.6759
X8.0899Y-6.0424
X8.0918Y-4.0761
X8.1452Y-6.4362
X8.1548Y-4.5245
X8.1967Y-6.8026
X8.1987Y-4.8364
X8.2617Y-5.2847
X8.3055Y-5.5966
X8.3685Y-6.045
X8.4124Y-6.3569
X8.4754Y-6.8052
X8.7728Y-4.1354
X8.7986Y-4.5046
X8.8264Y-4.9012
X8.8522Y-5.2704
X8.8799Y-5.6671
X8.9057Y-6.0362
X9.0449Y-4.0749
X9.0764Y-4.5266
X9.0984Y-4.8408
X9.13Y-5.2924
X9.152Y-5.6066
X9.1835Y-6.0583
X9.666Y-7.0193
X9.7201Y-5.7169
X9.7201Y-6.087
X9.7201Y-4.9492
X9.7201Y-5.3193
X9.7201Y-4.1815
X9.7201Y-4.5516
X9.7991Y-6.7745
X9.9956Y-5.6756
X9.9956Y-6.1283
X9.9956Y-4.9079
X9.9956Y-5.3606
X9.9956Y-4.1402
X9.9956Y-4.5929
X10.0915Y-7.1742
X10.1469Y-6.9011
X10.4292Y-7.1736
X10.5623Y-6.9288
X10.8547Y-7.3285
X10.9101Y-7.0554
X11.1507Y-7.4362
X11.2838Y-7.1914
X11.5761Y-7.591
X11.6315Y-7.3179
T3
X5.7277Y-5.0502
X5.861Y-5.8063
X5.9943Y-6.5623
X6.1276Y-7.3184
X6.4701Y-4.8393
X6.6034Y-5.5954
X6.7367Y-6.3515
X6.87Y-7.1075
X7.2782Y-4.5384
X7.385Y-5.2986
X7.4919Y-6.0589
X7.5987Y-6.8191
X8.022Y-4.3146
X8.1288Y-5.0748
X8.2357Y-5.8351
X8.3425Y-6.5953
X8.9585Y-4.3079
X9.0121Y-5.0737
X9.0656Y-5.8396
X9.8933Y-5.902
X9.8933Y-5.1343
X9.8933Y-4.3665
X9.9138Y-7.0006
X10.677Y-7.1549
X11.3984Y-7.4174
M30
