%TF.GenerationSoftware,KiCad,Pcbnew,8.0.2*%
%TF.CreationDate,2024-06-23T16:01:54-05:00*%
%TF.ProjectId,janus,6a616e75-732e-46b6-9963-61645f706362,v1.0.0*%
%TF.SameCoordinates,Original*%
%TF.FileFunction,Soldermask,Bot*%
%TF.FilePolarity,Negative*%
%FSLAX46Y46*%
G04 Gerber Fmt 4.6, Leading zero omitted, Abs format (unit mm)*
G04 Created by KiCad (PCBNEW 8.0.2) date 2024-06-23 16:01:54*
%MOMM*%
%LPD*%
G01*
G04 APERTURE LIST*
G04 Aperture macros list*
%AMRotRect*
0 Rectangle, with rotation*
0 The origin of the aperture is its center*
0 $1 length*
0 $2 width*
0 $3 Rotation angle, in degrees counterclockwise*
0 Add horizontal line*
21,1,$1,$2,0,0,$3*%
%AMFreePoly0*
4,1,6,0.500000,-0.750000,-0.500000,-0.750000,-1.000000,0.000000,-0.500000,0.750000,0.500000,0.750000,0.500000,-0.750000,0.500000,-0.750000,$1*%
%AMFreePoly1*
4,1,6,0.150000,0.000000,0.650000,-0.750000,-0.500000,-0.750000,-0.500000,0.750000,0.650000,0.750000,0.150000,0.000000,0.150000,0.000000,$1*%
%AMFreePoly2*
4,1,6,0.600000,-0.250000,-0.600000,-0.250000,-0.600000,1.000000,0.000000,0.400000,0.600000,1.000000,0.600000,-0.250000,0.600000,-0.250000,$1*%
%AMFreePoly3*
4,1,6,0.600000,0.200000,0.000000,-0.400000,-0.600000,0.200000,-0.600000,0.400000,0.600000,0.400000,0.600000,0.200000,0.600000,0.200000,$1*%
G04 Aperture macros list end*
%ADD10R,1.250000X0.900000*%
%ADD11R,0.900000X0.900000*%
%ADD12C,1.000000*%
%ADD13R,1.100000X1.800000*%
%ADD14C,1.905000*%
%ADD15R,1.200000X0.900000*%
%ADD16R,1.778000X1.778000*%
%ADD17RotRect,0.900000X1.200000X274.000000*%
%ADD18RotRect,1.778000X1.778000X274.000000*%
%ADD19RotRect,0.900000X1.200000X158.000000*%
%ADD20RotRect,1.778000X1.778000X158.000000*%
%ADD21RotRect,2.600000X2.600000X256.000000*%
%ADD22C,3.000000*%
%ADD23C,5.000000*%
%ADD24R,2.600000X2.600000*%
%ADD25RotRect,2.600000X2.600000X2.000000*%
%ADD26RotRect,2.600000X2.600000X4.000000*%
%ADD27RotRect,0.900000X1.200000X272.000000*%
%ADD28RotRect,1.778000X1.778000X272.000000*%
%ADD29RotRect,2.600000X2.600000X240.000000*%
%ADD30RotRect,2.600000X2.600000X248.000000*%
%ADD31C,0.800000*%
%ADD32C,1.752600*%
%ADD33FreePoly0,0.000000*%
%ADD34FreePoly1,0.000000*%
%ADD35FreePoly1,180.000000*%
%ADD36FreePoly0,180.000000*%
%ADD37RotRect,2.600000X2.600000X264.000000*%
%ADD38RotRect,0.900000X1.200000X166.000000*%
%ADD39RotRect,1.778000X1.778000X166.000000*%
%ADD40O,1.200000X1.700000*%
%ADD41R,1.200000X1.700000*%
%ADD42RotRect,0.900000X1.200000X174.000000*%
%ADD43RotRect,1.778000X1.778000X174.000000*%
%ADD44RotRect,0.900000X1.200000X150.000000*%
%ADD45RotRect,1.778000X1.778000X150.000000*%
%ADD46FreePoly2,0.000000*%
%ADD47FreePoly3,0.000000*%
G04 APERTURE END LIST*
D10*
%TO.C,T1*%
X181617705Y-115718174D03*
X181617705Y-114218174D03*
X181617705Y-111218174D03*
D11*
X182592712Y-117168175D03*
X184792706Y-117168173D03*
D12*
X183692706Y-114968175D03*
X183692704Y-111968173D03*
D11*
X182592704Y-109768175D03*
X184792698Y-109768173D03*
%TD*%
D13*
%TO.C,B1*%
X165642704Y-116568173D03*
X165642705Y-110368174D03*
X169342703Y-116568174D03*
X169342704Y-110368175D03*
%TD*%
D14*
%TO.C,D21*%
X136092692Y-111278175D03*
D15*
X136092692Y-109118175D03*
X136092692Y-105818175D03*
D16*
X136092692Y-103658175D03*
%TD*%
D14*
%TO.C,D8*%
X75273509Y-112750706D03*
D17*
X75122835Y-110595968D03*
X74892639Y-107304006D03*
D18*
X74741965Y-105149268D03*
%TD*%
D14*
%TO.C,D30*%
X168140271Y-171819176D03*
D19*
X170142988Y-172628327D03*
X173202694Y-173864529D03*
D20*
X175205411Y-174673680D03*
%TD*%
D14*
%TO.C,D22*%
X136092715Y-92078167D03*
D15*
X136092715Y-89918167D03*
X136092715Y-86618167D03*
D16*
X136092715Y-84458167D03*
%TD*%
D21*
%TO.C,S29*%
X140885698Y-164638691D03*
X145182550Y-151745203D03*
D22*
X141677992Y-161460972D03*
X152836393Y-164243074D03*
D23*
X147886189Y-160329254D03*
D22*
X144390253Y-154922918D03*
X153511040Y-157196985D03*
%TD*%
D24*
%TO.C,S26*%
X152167703Y-100018180D03*
X138617702Y-98968180D03*
D22*
X148892703Y-100018178D03*
X148892703Y-88518181D03*
D23*
X146292703Y-94268180D03*
D22*
X141892702Y-98968184D03*
X141892702Y-89568176D03*
%TD*%
D14*
%TO.C,D7*%
X76612830Y-131903928D03*
D17*
X76462156Y-129749190D03*
X76231960Y-126457228D03*
D18*
X76081286Y-124302490D03*
%TD*%
D25*
%TO.C,S12*%
X93906038Y-139218665D03*
X80327647Y-138642193D03*
D22*
X90231688Y-127839967D03*
X90633030Y-139332963D03*
D23*
X87833944Y-133677203D03*
D22*
X83600652Y-138527902D03*
X83272597Y-129133622D03*
%TD*%
D24*
%TO.C,S22*%
X132967708Y-100018175D03*
X119417707Y-98968175D03*
D22*
X129692708Y-100018173D03*
X129692708Y-88518176D03*
D23*
X127092708Y-94268175D03*
D22*
X122692707Y-98968179D03*
X122692707Y-89568171D03*
%TD*%
D14*
%TO.C,D24*%
X155292705Y-130478178D03*
D15*
X155292705Y-128318178D03*
X155292705Y-125018178D03*
D16*
X155292705Y-122858178D03*
%TD*%
D26*
%TO.C,S4*%
X52217442Y-103075453D03*
X38627204Y-102973212D03*
D22*
X48148220Y-91831920D03*
X48950417Y-103303908D03*
D23*
X45955653Y-97749280D03*
D22*
X41894227Y-102744763D03*
X41238516Y-93367656D03*
%TD*%
D14*
%TO.C,D10*%
X72594871Y-74444241D03*
D17*
X72444197Y-72289503D03*
X72214001Y-68997541D03*
D18*
X72063327Y-66842803D03*
%TD*%
D14*
%TO.C,D17*%
X115270255Y-111316070D03*
D27*
X115194872Y-109157386D03*
X115079704Y-105859396D03*
D28*
X115004321Y-103700712D03*
%TD*%
D14*
%TO.C,D13*%
X96081953Y-111986140D03*
D27*
X96006570Y-109827456D03*
X95891402Y-106529466D03*
D28*
X95816019Y-104370782D03*
%TD*%
D14*
%TO.C,D2*%
X57459604Y-133243257D03*
D17*
X57308930Y-131088519D03*
X57078734Y-127796557D03*
D18*
X56928060Y-125641819D03*
%TD*%
D14*
%TO.C,D12*%
X96752020Y-131174446D03*
D27*
X96676637Y-129015762D03*
X96561469Y-125717772D03*
D28*
X96486086Y-123559088D03*
%TD*%
D26*
%TO.C,S9*%
X71370663Y-101736118D03*
X57780425Y-101633877D03*
D22*
X67301441Y-90492585D03*
X68103638Y-101964573D03*
D23*
X65108874Y-96409945D03*
D22*
X61047448Y-101405428D03*
X60391737Y-92028321D03*
%TD*%
D14*
%TO.C,D23*%
X136092711Y-72878176D03*
D15*
X136092711Y-70718176D03*
X136092711Y-67418176D03*
D16*
X136092711Y-65258176D03*
%TD*%
D14*
%TO.C,D15*%
X94741818Y-73609537D03*
D27*
X94666435Y-71450853D03*
X94551267Y-68152863D03*
D28*
X94475884Y-65994179D03*
%TD*%
D29*
%TO.C,S31*%
X180673144Y-174583018D03*
X188357470Y-163373373D03*
D22*
X182310643Y-171746784D03*
X192269935Y-177496784D03*
D23*
X188590289Y-172370118D03*
D22*
X186719970Y-166209606D03*
X194860608Y-170909606D03*
%TD*%
D24*
%TO.C,S23*%
X132967693Y-80818181D03*
X119417692Y-79768181D03*
D22*
X129692693Y-80818179D03*
X129692693Y-69318182D03*
D23*
X127092693Y-75068181D03*
D22*
X122692692Y-79768185D03*
X122692692Y-70368177D03*
%TD*%
D24*
%TO.C,S21*%
X132967704Y-119218176D03*
X119417703Y-118168176D03*
D22*
X129692704Y-119218174D03*
X129692704Y-107718177D03*
D23*
X127092704Y-113468176D03*
D22*
X122692703Y-118168180D03*
X122692703Y-108768172D03*
%TD*%
D14*
%TO.C,D16*%
X115940319Y-130504371D03*
D27*
X115864936Y-128345687D03*
X115749768Y-125047697D03*
D28*
X115674385Y-122889013D03*
%TD*%
D30*
%TO.C,S30*%
X161949068Y-165947339D03*
X167998538Y-153777339D03*
D22*
X173838520Y-167218789D03*
X163175905Y-162910811D03*
D23*
X169481189Y-162654122D03*
D22*
X175487222Y-160335165D03*
X166771695Y-156813863D03*
%TD*%
D14*
%TO.C,D6*%
X77952162Y-151057174D03*
D17*
X77801488Y-148902436D03*
X77571292Y-145610474D03*
D18*
X77420618Y-143455736D03*
%TD*%
D26*
%TO.C,S6*%
X75388640Y-159195807D03*
X61798402Y-159093566D03*
D22*
X71319418Y-147952274D03*
X72121615Y-159424262D03*
D23*
X69126851Y-153869634D03*
D22*
X65065425Y-158865117D03*
X64409714Y-149488010D03*
%TD*%
D25*
%TO.C,S14*%
X92565887Y-100842056D03*
X78987496Y-100265584D03*
D22*
X88891537Y-89463358D03*
X89292879Y-100956354D03*
D23*
X86493793Y-95300594D03*
D22*
X82260501Y-100151293D03*
X81932446Y-90757013D03*
%TD*%
D24*
%TO.C,S20*%
X132967711Y-138418180D03*
X119417710Y-137368180D03*
D22*
X129692711Y-138418178D03*
X129692711Y-126918181D03*
D23*
X127092711Y-132668180D03*
D22*
X122692710Y-137368184D03*
X122692710Y-127968176D03*
%TD*%
D26*
%TO.C,S3*%
X53556757Y-122228667D03*
X39966519Y-122126426D03*
D22*
X49487535Y-110985134D03*
X50289732Y-122457122D03*
D23*
X47294968Y-116902494D03*
D22*
X43233542Y-121897977D03*
X42577831Y-112520870D03*
%TD*%
D31*
%TO.C,MCU1*%
X170112697Y-70718169D03*
X170112697Y-68178170D03*
X170112697Y-73258170D03*
X170112698Y-75798169D03*
X170112699Y-78338168D03*
X170112699Y-80878169D03*
X170112697Y-88498170D03*
X170112698Y-83418170D03*
X170112701Y-85958165D03*
X170112698Y-91038169D03*
X164872698Y-91038170D03*
X164872695Y-88498165D03*
X164872699Y-85958168D03*
X164872699Y-83418169D03*
X164872699Y-80878168D03*
X164872698Y-78338169D03*
X164872697Y-75798170D03*
X164872697Y-73258169D03*
X164872698Y-63098169D03*
X164872699Y-65638168D03*
X170112701Y-65638173D03*
X164872698Y-70718168D03*
X164872695Y-68178173D03*
X170112698Y-63098168D03*
D32*
X175112701Y-80878170D03*
X175112699Y-88498168D03*
X175112699Y-75798168D03*
X175112699Y-70718170D03*
X175112699Y-68178174D03*
X175112698Y-73258169D03*
X175112698Y-65638169D03*
X175112697Y-85958170D03*
X175112697Y-83418168D03*
X175112697Y-78338169D03*
X175112690Y-63098170D03*
X175112683Y-91038167D03*
D33*
X173207699Y-91038169D03*
X173207699Y-73258168D03*
X173207699Y-68178172D03*
X173207699Y-63098166D03*
X173207698Y-88498168D03*
X173207698Y-85958169D03*
X173207698Y-83418170D03*
X173207698Y-65638169D03*
X173207697Y-80878169D03*
X173207697Y-75798170D03*
X173207695Y-78338168D03*
X173207695Y-70718168D03*
D34*
X171757699Y-73258169D03*
X171757693Y-88498168D03*
X171757694Y-80878169D03*
X171757693Y-68178170D03*
X171757693Y-63098169D03*
X171757692Y-91038169D03*
X171757692Y-85958169D03*
X171757692Y-83418169D03*
X171757692Y-75798176D03*
X171757692Y-70718168D03*
X171757692Y-65638168D03*
X171757691Y-78338155D03*
D35*
X163227696Y-73258177D03*
X163227695Y-75798169D03*
X163227695Y-65638170D03*
X163227694Y-88498168D03*
X163227694Y-83418169D03*
X163227694Y-78338169D03*
X163227694Y-70718169D03*
X163227694Y-63098169D03*
X163227693Y-91038168D03*
X163227693Y-85958169D03*
X163227692Y-68178171D03*
X163227691Y-80878169D03*
D36*
X161777701Y-83418170D03*
X161777701Y-75798170D03*
X161777699Y-78338168D03*
X161777699Y-73258169D03*
X161777698Y-88498169D03*
X161777698Y-70718168D03*
X161777698Y-68178169D03*
X161777698Y-65638170D03*
X161777697Y-91038172D03*
X161777697Y-85958166D03*
X161777697Y-80878170D03*
X161777697Y-63098169D03*
D32*
X159872713Y-63098171D03*
X159872706Y-91038168D03*
X159872699Y-75798169D03*
X159872699Y-70718170D03*
X159872699Y-68178168D03*
X159872698Y-88498169D03*
X159872698Y-80878169D03*
X159872697Y-85958164D03*
X159872697Y-83418168D03*
X159872697Y-78338170D03*
X159872697Y-65638170D03*
X159872695Y-73258168D03*
%TD*%
D26*
%TO.C,S8*%
X72709991Y-120889357D03*
X59119753Y-120787116D03*
D22*
X68640769Y-109645824D03*
X69442966Y-121117812D03*
D23*
X66448202Y-115563184D03*
D22*
X62386776Y-120558667D03*
X61731065Y-111181560D03*
%TD*%
D26*
%TO.C,S2*%
X54896084Y-141381908D03*
X41305846Y-141279667D03*
D22*
X50826862Y-130138375D03*
X51629059Y-141610363D03*
D23*
X48634295Y-136055735D03*
D22*
X44572869Y-141051218D03*
X43917158Y-131674111D03*
%TD*%
D14*
%TO.C,D20*%
X136092697Y-130478173D03*
D15*
X136092697Y-128318173D03*
X136092697Y-125018173D03*
D16*
X136092697Y-122858173D03*
%TD*%
D25*
%TO.C,S13*%
X93235969Y-120030369D03*
X79657578Y-119453897D03*
D22*
X89561619Y-108651671D03*
X89962961Y-120144667D03*
D23*
X87163875Y-114488907D03*
D22*
X82930583Y-119339606D03*
X82602528Y-109945326D03*
%TD*%
D37*
%TO.C,S28*%
X120760112Y-162109952D03*
X123220721Y-148743934D03*
D22*
X121102444Y-158852893D03*
X132539445Y-160054969D03*
D23*
X127092718Y-156868174D03*
D22*
X122878390Y-152000993D03*
X132226900Y-152983562D03*
%TD*%
D25*
%TO.C,S19*%
X111084125Y-80983680D03*
X97505734Y-80407208D03*
D22*
X107409775Y-69604982D03*
X107811117Y-81097978D03*
D23*
X105012031Y-75442218D03*
D22*
X100778739Y-80292917D03*
X100450684Y-70898637D03*
%TD*%
D26*
%TO.C,S7*%
X74049314Y-140042571D03*
X60459076Y-139940330D03*
D22*
X69980092Y-128799038D03*
X70782289Y-140271026D03*
D23*
X67787525Y-134716398D03*
D22*
X63726099Y-139711881D03*
X63070388Y-130334774D03*
%TD*%
D14*
%TO.C,D9*%
X73934196Y-93597476D03*
D17*
X73783522Y-91442738D03*
X73553326Y-88150776D03*
D18*
X73402652Y-85996038D03*
%TD*%
D14*
%TO.C,D27*%
X155292704Y-72878181D03*
D15*
X155292704Y-70718181D03*
X155292704Y-67418181D03*
D16*
X155292704Y-65258181D03*
%TD*%
D25*
%TO.C,S17*%
X112424268Y-119360290D03*
X98845877Y-118783818D03*
D22*
X108749918Y-107981592D03*
X109151260Y-119474588D03*
D23*
X106352174Y-113818828D03*
D22*
X102118882Y-118669527D03*
X101790827Y-109275247D03*
%TD*%
D26*
%TO.C,S10*%
X70031322Y-82582893D03*
X56441084Y-82480652D03*
D22*
X65962100Y-71339360D03*
X66764297Y-82811348D03*
D23*
X63769533Y-77256720D03*
D22*
X59708107Y-82252203D03*
X59052396Y-72875096D03*
%TD*%
D14*
%TO.C,D3*%
X56120269Y-114090029D03*
D17*
X55969595Y-111935291D03*
X55739399Y-108643329D03*
D18*
X55588725Y-106488591D03*
%TD*%
D14*
%TO.C,D26*%
X155292710Y-92078168D03*
D15*
X155292710Y-89918168D03*
X155292710Y-86618168D03*
D16*
X155292710Y-84458168D03*
%TD*%
D14*
%TO.C,D29*%
X147833844Y-169591731D03*
D38*
X149929682Y-170114282D03*
X153131658Y-170912624D03*
D39*
X155227496Y-171435175D03*
%TD*%
D24*
%TO.C,S27*%
X152167709Y-80818164D03*
X138617708Y-79768164D03*
D22*
X148892709Y-80818162D03*
X148892709Y-69318165D03*
D23*
X146292709Y-75068164D03*
D22*
X141892708Y-79768168D03*
X141892708Y-70368160D03*
%TD*%
D14*
%TO.C,D18*%
X114600190Y-92127757D03*
D27*
X114524807Y-89969073D03*
X114409639Y-86671083D03*
D28*
X114334256Y-84512399D03*
%TD*%
D40*
%TO.C,JST1*%
X178692709Y-99268170D03*
D41*
X180692707Y-99268170D03*
%TD*%
D26*
%TO.C,S5*%
X50878115Y-83922210D03*
X37287877Y-83819969D03*
D22*
X46808893Y-72678677D03*
X47611090Y-84150665D03*
D23*
X44616326Y-78596037D03*
D22*
X40554900Y-83591520D03*
X39899189Y-74214413D03*
%TD*%
D25*
%TO.C,S15*%
X91895824Y-81653745D03*
X78317433Y-81077273D03*
D22*
X88221474Y-70275047D03*
X88622816Y-81768043D03*
D23*
X85823730Y-76112283D03*
D22*
X81590438Y-80962982D03*
X81262383Y-71568702D03*
%TD*%
D14*
%TO.C,D5*%
X53441644Y-75783563D03*
D17*
X53290970Y-73628825D03*
X53060774Y-70336863D03*
D18*
X52910100Y-68182125D03*
%TD*%
D14*
%TO.C,D1*%
X58798932Y-152396483D03*
D17*
X58648258Y-150241745D03*
X58418062Y-146949783D03*
D18*
X58267388Y-144795045D03*
%TD*%
D14*
%TO.C,D11*%
X97422102Y-150362735D03*
D27*
X97346719Y-148204051D03*
X97231551Y-144906061D03*
D28*
X97156168Y-142747377D03*
%TD*%
D14*
%TO.C,D19*%
X113930127Y-72939464D03*
D27*
X113854744Y-70780780D03*
X113739576Y-67482790D03*
D28*
X113664193Y-65324106D03*
%TD*%
D14*
%TO.C,D28*%
X128329963Y-166047782D03*
D42*
X130478131Y-166273564D03*
X133760055Y-166618508D03*
D43*
X135908223Y-166844290D03*
%TD*%
D26*
%TO.C,S1*%
X56235414Y-160535139D03*
X42645176Y-160432898D03*
D22*
X52166192Y-149291606D03*
X52968389Y-160763594D03*
D23*
X49973625Y-155208966D03*
D22*
X45912199Y-160204449D03*
X45256488Y-150827342D03*
%TD*%
D14*
%TO.C,D25*%
X155292709Y-111278173D03*
D15*
X155292709Y-109118173D03*
X155292709Y-105818173D03*
D16*
X155292709Y-103658173D03*
%TD*%
D14*
%TO.C,D4*%
X54780953Y-94936790D03*
D17*
X54630279Y-92782052D03*
X54400083Y-89490090D03*
D18*
X54249409Y-87335352D03*
%TD*%
D24*
%TO.C,S25*%
X152167714Y-119218175D03*
X138617713Y-118168175D03*
D22*
X148892714Y-119218173D03*
X148892714Y-107718176D03*
D23*
X146292714Y-113468175D03*
D22*
X141892713Y-118168179D03*
X141892713Y-108768171D03*
%TD*%
D14*
%TO.C,D14*%
X95411892Y-92797834D03*
D27*
X95336509Y-90639150D03*
X95221341Y-87341160D03*
D28*
X95145958Y-85182476D03*
%TD*%
D14*
%TO.C,D31*%
X185986887Y-181259358D03*
D44*
X187857501Y-182339360D03*
X190715385Y-183989358D03*
D45*
X192585999Y-185069360D03*
%TD*%
D25*
%TO.C,S18*%
X111754199Y-100171998D03*
X98175808Y-99595526D03*
D22*
X108079849Y-88793300D03*
X108481191Y-100286296D03*
D23*
X105682105Y-94630536D03*
D22*
X101448813Y-99481235D03*
X101120758Y-90086955D03*
%TD*%
D25*
%TO.C,S16*%
X113094331Y-138548593D03*
X99515940Y-137972121D03*
D22*
X109419981Y-127169895D03*
X109821323Y-138662891D03*
D23*
X107022237Y-133007131D03*
D22*
X102788945Y-137857830D03*
X102460890Y-128463550D03*
%TD*%
D25*
%TO.C,S11*%
X94576105Y-158406969D03*
X80997714Y-157830497D03*
D22*
X90901755Y-147028271D03*
X91303097Y-158521267D03*
D23*
X88504011Y-152865507D03*
D22*
X84270719Y-157716206D03*
X83942664Y-148321926D03*
%TD*%
D24*
%TO.C,S24*%
X152167707Y-138418166D03*
X138617706Y-137368166D03*
D22*
X148892707Y-138418164D03*
X148892707Y-126918167D03*
D23*
X146292707Y-132668166D03*
D22*
X141892706Y-137368170D03*
X141892706Y-127968162D03*
%TD*%
D32*
%TO.C,OLED1*%
X172572697Y-97548172D03*
X170032702Y-97548172D03*
X167492702Y-97548172D03*
X164952701Y-97548171D03*
X162412701Y-97548171D03*
D46*
X172572705Y-100880165D03*
D47*
X172572702Y-99703372D03*
X170032709Y-99703373D03*
D46*
X170032706Y-100880173D03*
X164952701Y-100880172D03*
D47*
X164952697Y-99703373D03*
D46*
X162412703Y-100880166D03*
D47*
X162412702Y-99703372D03*
%TD*%
M02*
