M48
; DRILL file {KiCad 8.0.2} date 2024-06-23T16:01:50-0500
; FORMAT={-:-/ absolute / inch / decimal}
; #@! TF.CreationDate,2024-06-23T16:01:50-05:00
; #@! TF.GenerationSoftware,Kicad,Pcbnew,8.0.2
; #@! TF.FileFunction,Plated,1,2,PTH
FMAT,2
INCH
; #@! TA.AperFunction,Plated,PTH,ViaDrill
T1C0.0157
; #@! TA.AperFunction,Plated,PTH,ComponentDrill
T2C0.0157
; #@! TA.AperFunction,Plated,PTH,ComponentDrill
T3C0.0295
; #@! TA.AperFunction,Plated,PTH,ComponentDrill
T4C0.0390
; #@! TA.AperFunction,Plated,PTH,ComponentDrill
T5C0.0430
%
G90
G05
T1
X4.0043Y-5.6136
X6.214Y-5.5074
X6.2854Y-5.7055
X6.5214Y-4.4673
X6.6063Y-3.7051
X6.6063Y-3.7445
X6.667Y-4.4673
X6.685Y-3.7445
X6.8611Y-4.4673
X7.0453Y-4.4244
X7.0453Y-4.4673
X7.0846Y-4.4673
T2
X1.4781Y-3.4446
X1.5309Y-4.1987
X1.5836Y-4.9527
X1.6363Y-5.7068
X1.6891Y-6.4609
X2.2322Y-3.3919
X2.2849Y-4.1459
X2.3377Y-4.9
X2.3904Y-5.6541
X2.4431Y-6.4081
X3.0884Y-3.3369
X3.1148Y-4.0923
X3.1412Y-4.8478
X3.1676Y-5.6032
X3.1939Y-6.3587
X3.8439Y-3.3105
X3.8702Y-4.066
X3.8966Y-4.8214
X3.923Y-5.5768
X4.7015Y-3.2854
X4.7015Y-4.7973
X4.7015Y-4.0413
X4.7015Y-5.5532
X4.707Y-5.8409
X5.4574Y-4.0413
X5.4574Y-5.5532
X5.4574Y-3.2854
X5.4574Y-4.7973
X5.5752Y-5.9392
X6.3942Y-4.0217
X6.4797Y-5.9999
X6.4911Y-2.6842
X6.4911Y-3.4842
X6.4911Y-2.8842
X6.4911Y-2.9842
X6.4911Y-2.4842
X6.4911Y-2.7842
X6.4911Y-3.0842
X6.4911Y-3.5842
X6.4911Y-2.5842
X6.4911Y-3.1842
X6.4911Y-3.2842
X6.4911Y-3.3842
X6.4942Y-4.0217
X6.6942Y-4.0217
X6.6974Y-2.6842
X6.6974Y-2.7842
X6.6974Y-2.8842
X6.6974Y-3.4842
X6.6974Y-2.4842
X6.6974Y-2.9842
X6.6974Y-3.2842
X6.6974Y-3.5842
X6.6974Y-3.0842
X6.6974Y-3.1842
X6.6974Y-2.5842
X6.6974Y-3.3842
X6.7942Y-4.0217
X7.2901Y-6.3595
T3
X7.0351Y-3.9082
X7.1139Y-3.9082
T4
X2.0831Y-2.6843
X2.104Y-2.9836
X2.1358Y-3.4384
X2.1567Y-3.7377
X2.1885Y-4.1925
X2.2095Y-4.4917
X2.2413Y-4.9465
X2.2622Y-5.2458
X2.294Y-5.7006
X2.3149Y-5.9999
X2.8371Y-2.6316
X2.8581Y-2.9309
X2.8899Y-3.3857
X2.9108Y-3.6849
X2.9426Y-4.1397
X2.9635Y-4.439
X2.9953Y-4.8938
X3.0163Y-5.1931
X3.0481Y-5.6479
X3.069Y-5.9471
X3.7195Y-2.5982
X3.73Y-2.898
X3.7459Y-3.3536
X3.7564Y-3.6535
X3.7723Y-4.1091
X3.7828Y-4.4089
X3.7987Y-4.8645
X3.8091Y-5.1643
X3.825Y-5.62
X3.8355Y-5.9198
X4.475Y-2.5718
X4.4854Y-2.8716
X4.5013Y-3.3273
X4.5118Y-3.6271
X4.5277Y-4.0827
X4.5382Y-4.3825
X4.5541Y-4.8382
X4.5646Y-5.138
X5.0524Y-6.5373
X5.3507Y-6.5687
X5.358Y-4.081
X5.358Y-4.381
X5.358Y-4.8369
X5.358Y-5.1369
X5.358Y-2.5692
X5.358Y-2.8692
X5.358Y-3.3251
X5.358Y-3.6251
X5.8202Y-6.6768
X6.1113Y-6.7494
X6.1139Y-2.5692
X6.1139Y-2.8692
X6.1139Y-4.8369
X6.1139Y-5.1369
X6.1139Y-4.081
X6.1139Y-4.381
X6.1139Y-3.3251
X6.1139Y-3.6251
X6.6197Y-6.7645
X6.8979Y-6.8769
X7.3223Y-7.1362
X7.5821Y-7.2862
T5
X6.2942Y-2.8842
X6.2942Y-2.5842
X6.2942Y-3.0842
X6.2942Y-3.2842
X6.2942Y-3.3842
X6.2942Y-3.1842
X6.2942Y-3.4842
X6.2942Y-2.6842
X6.2942Y-2.7842
X6.2942Y-2.9842
X6.2942Y-3.5842
X6.2942Y-2.4842
X6.3942Y-3.8405
X6.4942Y-3.8405
X6.5942Y-3.8405
X6.6942Y-3.8405
X6.7942Y-3.8405
X6.8942Y-3.5842
X6.8942Y-2.4842
X6.8942Y-3.0842
X6.8942Y-3.2842
X6.8942Y-3.3842
X6.8942Y-2.5842
X6.8942Y-2.8842
X6.8942Y-2.6842
X6.8942Y-2.7842
X6.8942Y-2.9842
X6.8942Y-3.4842
X6.8942Y-3.1842
M30
