%TF.GenerationSoftware,KiCad,Pcbnew,8.0.2*%
%TF.CreationDate,2024-05-17T16:06:01-05:00*%
%TF.ProjectId,janus,6a616e75-732e-46b6-9963-61645f706362,v1.0.0*%
%TF.SameCoordinates,Original*%
%TF.FileFunction,Profile,NP*%
%FSLAX46Y46*%
G04 Gerber Fmt 4.6, Leading zero omitted, Abs format (unit mm)*
G04 Created by KiCad (PCBNEW 8.0.2) date 2024-05-17 16:06:01*
%MOMM*%
%LPD*%
G01*
G04 APERTURE LIST*
%TA.AperFunction,Profile*%
%ADD10C,0.150000*%
%TD*%
G04 APERTURE END LIST*
D10*
X148525037Y-112253582D02*
G75*
G02*
X152581941Y-109507365I5098863J-3162718D01*
G01*
X169130701Y-104566099D02*
G75*
G02*
X173583131Y-101460450I5287499J-2836001D01*
G01*
X167932141Y-106800732D02*
X169130693Y-104566095D01*
X308595049Y-180580317D02*
X299103984Y-206656794D01*
X128858529Y-121813874D02*
G75*
G02*
X133725485Y-114863136I5908871J1041874D01*
G01*
X287439351Y-163160023D02*
G75*
G02*
X285139351Y-163160023I-1150000J0D01*
G01*
X285139351Y-163160023D02*
G75*
G02*
X287439351Y-163160023I1150000J0D01*
G01*
X232053215Y-188637366D02*
X149128974Y-202519838D01*
X238148623Y-93897485D02*
X243079480Y-95660028D01*
X291289350Y-160977249D02*
X306801101Y-173921465D01*
X133725487Y-114863147D02*
X148525037Y-112253580D01*
X210795794Y-93201046D02*
G75*
G02*
X213251374Y-93365654I835006J-5941754D01*
G01*
X152581946Y-109507391D02*
X167932141Y-106800732D01*
X148477132Y-197760642D02*
G75*
G02*
X146177132Y-197760642I-1150000J0D01*
G01*
X146177132Y-197760642D02*
G75*
G02*
X148477132Y-197760642I1150000J0D01*
G01*
X134758916Y-119960821D02*
G75*
G02*
X132458916Y-119960821I-1150000J0D01*
G01*
X132458916Y-119960821D02*
G75*
G02*
X134758916Y-119960821I1150000J0D01*
G01*
X232489027Y-183056517D02*
G75*
G02*
X230189027Y-183056517I-1150000J0D01*
G01*
X230189027Y-183056517D02*
G75*
G02*
X232489027Y-183056517I1150000J0D01*
G01*
X291289352Y-101660033D02*
X291289350Y-160977249D01*
X218293172Y-94779941D02*
X235710517Y-93561997D01*
X142229444Y-197644069D02*
X128858529Y-121813874D01*
X295213507Y-205886364D02*
G75*
G02*
X292913507Y-205886364I-1150000J0D01*
G01*
X292913507Y-205886364D02*
G75*
G02*
X295213507Y-205886364I1150000J0D01*
G01*
X287439344Y-100660034D02*
G75*
G02*
X285139344Y-100660034I-1150000J0D01*
G01*
X285139344Y-100660034D02*
G75*
G02*
X287439344Y-100660034I1150000J0D01*
G01*
X149128974Y-202519838D02*
G75*
G02*
X142229460Y-197644066I-990674J5917638D01*
G01*
X306801096Y-173921461D02*
G75*
G02*
X308595047Y-180580316I-3844196J-4606739D01*
G01*
X213251376Y-93365648D02*
X218293172Y-94779941D01*
X187747774Y-99469712D02*
G75*
G02*
X192475836Y-95775773I5563026J-2247588D01*
G01*
X192475833Y-95775750D02*
X210795794Y-93201046D01*
X235710516Y-93561999D02*
G75*
G02*
X238148625Y-93897479I418484J-5985901D01*
G01*
X243079480Y-95660028D02*
X285289350Y-95660027D01*
X173583128Y-101460425D02*
X187747774Y-99469712D01*
X203342508Y-98449463D02*
G75*
G02*
X201042508Y-98449463I-1150000J0D01*
G01*
X201042508Y-98449463D02*
G75*
G02*
X203342508Y-98449463I1150000J0D01*
G01*
X285289350Y-95660027D02*
G75*
G02*
X291289373Y-101660033I-50J-6000073D01*
G01*
X291413713Y-210242803D02*
X232053215Y-188637366D01*
X299103984Y-206656794D02*
G75*
G02*
X291413730Y-210242756I-5638084J2052094D01*
G01*
M02*
