M48
; DRILL file {KiCad 8.0.2} date 2024-06-23T16:01:50-0500
; FORMAT={-:-/ absolute / inch / decimal}
; #@! TF.CreationDate,2024-06-23T16:01:50-05:00
; #@! TF.GenerationSoftware,Kicad,Pcbnew,8.0.2
; #@! TF.FileFunction,NonPlated,1,2,NPTH
FMAT,2
INCH
; #@! TA.AperFunction,NonPlated,NPTH,ComponentDrill
T1C0.0354
; #@! TA.AperFunction,NonPlated,NPTH,ComponentDrill
T2C0.1181
; #@! TA.AperFunction,NonPlated,NPTH,ComponentDrill
T3C0.1969
%
G90
G05
T1
X7.232Y-4.4082
X7.232Y-4.5263
T2
X1.5708Y-2.9218
X1.5966Y-3.291
X1.6236Y-3.6759
X1.6494Y-4.0451
X1.6763Y-4.43
X1.7021Y-4.7991
X1.729Y-5.184
X1.7548Y-5.5532
X1.7818Y-5.9381
X1.8076Y-6.3073
X1.8429Y-2.8614
X1.8745Y-3.313
X1.8956Y-3.6154
X1.9272Y-4.0671
X1.9483Y-4.3695
X1.9799Y-4.8211
X2.0011Y-5.1236
X2.0326Y-5.5752
X2.0538Y-5.8776
X2.0854Y-6.3293
X2.3249Y-2.8691
X2.3507Y-3.2383
X2.3776Y-3.6232
X2.4034Y-3.9923
X2.4304Y-4.3772
X2.4562Y-4.7464
X2.4831Y-5.1313
X2.5089Y-5.5005
X2.5358Y-5.8854
X2.5616Y-6.2545
X2.5969Y-2.8086
X2.6285Y-3.2603
X2.6497Y-3.5627
X2.6812Y-4.0144
X2.7024Y-4.3168
X2.734Y-4.7684
X2.7551Y-5.0708
X2.7867Y-5.5225
X2.8079Y-5.8249
X2.8394Y-6.2765
X3.1993Y-2.8177
X3.2122Y-3.1875
X3.2257Y-3.5731
X3.2386Y-3.943
X3.2521Y-4.3286
X3.265Y-4.6984
X3.2784Y-5.084
X3.2914Y-5.4539
X3.3048Y-5.8394
X3.3177Y-6.2093
X3.4733Y-2.7667
X3.4891Y-3.2192
X3.4997Y-3.5222
X3.5155Y-3.9747
X3.526Y-4.2776
X3.5418Y-4.7301
X3.5524Y-5.0331
X3.5682Y-5.4855
X3.5788Y-5.7885
X3.5946Y-6.241
X3.9548Y-2.7913
X3.9677Y-3.1611
X3.9811Y-3.5467
X3.994Y-3.9166
X4.0075Y-4.3022
X4.0204Y-4.672
X4.0339Y-5.0576
X4.0468Y-5.4275
X4.2287Y-2.7404
X4.2445Y-3.1928
X4.2551Y-3.4958
X4.2709Y-3.9483
X4.2815Y-4.2512
X4.2973Y-4.7037
X4.3079Y-5.0067
X4.3237Y-5.4592
X4.7678Y-6.2541
X4.8304Y-2.7704
X4.8304Y-3.1405
X4.8304Y-4.2822
X4.8304Y-4.6523
X4.8304Y-3.5263
X4.8304Y-3.8964
X4.8304Y-5.0381
X4.8304Y-5.4082
X4.8377Y-5.9843
X5.106Y-2.7291
X5.106Y-3.1818
X5.106Y-4.2409
X5.106Y-4.6936
X5.106Y-3.485
X5.106Y-3.9377
X5.106Y-4.9968
X5.106Y-5.4495
X5.2058Y-6.023
X5.2181Y-6.3014
X5.5779Y-6.3567
X5.5863Y-3.5263
X5.5863Y-3.8964
X5.5863Y-5.0381
X5.5863Y-5.4082
X5.5863Y-2.7704
X5.5863Y-3.1405
X5.5863Y-4.2822
X5.5863Y-4.6523
X5.6847Y-6.0993
X5.8619Y-3.485
X5.8619Y-3.9377
X5.8619Y-4.9968
X5.8619Y-5.4495
X5.8619Y-2.7291
X5.8619Y-3.1818
X5.8619Y-4.2409
X5.8619Y-4.6936
X6.0172Y-6.4663
X6.0437Y-6.1889
X6.4242Y-6.4138
X6.5658Y-6.1738
X6.844Y-6.5834
X6.9089Y-6.3124
X7.1776Y-6.7617
X7.3512Y-6.5437
X7.5697Y-6.9881
X7.6717Y-6.7287
T3
X1.7565Y-3.0943
X1.8093Y-3.8484
X1.862Y-4.6025
X1.9147Y-5.3565
X1.9675Y-6.1106
X2.5106Y-3.0416
X2.5633Y-3.7957
X2.6161Y-4.5497
X2.6688Y-5.3038
X2.7215Y-6.0579
X3.3789Y-2.9965
X3.4053Y-3.752
X3.4316Y-4.5074
X3.458Y-5.2629
X3.4844Y-6.0183
X4.1343Y-2.9702
X4.1607Y-3.7256
X4.1871Y-4.4811
X4.2135Y-5.2365
X5.0036Y-2.9554
X5.0036Y-4.4673
X5.0036Y-3.7113
X5.0037Y-5.2232
X5.0037Y-6.1759
X5.7596Y-3.7113
X5.7596Y-5.2232
X5.7596Y-2.9554
X5.7596Y-4.4673
X5.8223Y-6.3122
X6.6725Y-6.4037
X7.4248Y-6.7862
M30
