%TF.GenerationSoftware,KiCad,Pcbnew,8.0.2*%
%TF.CreationDate,2024-05-15T16:11:07-05:00*%
%TF.ProjectId,janus,6a616e75-732e-46b6-9963-61645f706362,v1.0.0*%
%TF.SameCoordinates,Original*%
%TF.FileFunction,Legend,Bot*%
%TF.FilePolarity,Positive*%
%FSLAX46Y46*%
G04 Gerber Fmt 4.6, Leading zero omitted, Abs format (unit mm)*
G04 Created by KiCad (PCBNEW 8.0.2) date 2024-05-15 16:11:07*
%MOMM*%
%LPD*%
G01*
G04 APERTURE LIST*
%ADD10C,0.250000*%
%ADD11C,0.150000*%
%ADD12C,0.100000*%
%ADD13C,0.200000*%
G04 APERTURE END LIST*
D10*
X276146501Y-125442986D02*
X276146501Y-126109653D01*
X276146501Y-125538224D02*
X276098882Y-125490605D01*
X276098882Y-125490605D02*
X276003644Y-125442986D01*
X276003644Y-125442986D02*
X275860787Y-125442986D01*
X275860787Y-125442986D02*
X275765549Y-125490605D01*
X275765549Y-125490605D02*
X275717930Y-125585843D01*
X275717930Y-125585843D02*
X275717930Y-126109653D01*
X275241739Y-126109653D02*
X275241739Y-125442986D01*
X275241739Y-125109653D02*
X275289358Y-125157272D01*
X275289358Y-125157272D02*
X275241739Y-125204891D01*
X275241739Y-125204891D02*
X275194120Y-125157272D01*
X275194120Y-125157272D02*
X275241739Y-125109653D01*
X275241739Y-125109653D02*
X275241739Y-125204891D01*
X274336978Y-126062034D02*
X274432216Y-126109653D01*
X274432216Y-126109653D02*
X274622692Y-126109653D01*
X274622692Y-126109653D02*
X274717930Y-126062034D01*
X274717930Y-126062034D02*
X274765549Y-126014414D01*
X274765549Y-126014414D02*
X274813168Y-125919176D01*
X274813168Y-125919176D02*
X274813168Y-125633462D01*
X274813168Y-125633462D02*
X274765549Y-125538224D01*
X274765549Y-125538224D02*
X274717930Y-125490605D01*
X274717930Y-125490605D02*
X274622692Y-125442986D01*
X274622692Y-125442986D02*
X274432216Y-125442986D01*
X274432216Y-125442986D02*
X274336978Y-125490605D01*
X273527454Y-126062034D02*
X273622692Y-126109653D01*
X273622692Y-126109653D02*
X273813168Y-126109653D01*
X273813168Y-126109653D02*
X273908406Y-126062034D01*
X273908406Y-126062034D02*
X273956025Y-125966795D01*
X273956025Y-125966795D02*
X273956025Y-125585843D01*
X273956025Y-125585843D02*
X273908406Y-125490605D01*
X273908406Y-125490605D02*
X273813168Y-125442986D01*
X273813168Y-125442986D02*
X273622692Y-125442986D01*
X273622692Y-125442986D02*
X273527454Y-125490605D01*
X273527454Y-125490605D02*
X273479835Y-125585843D01*
X273479835Y-125585843D02*
X273479835Y-125681081D01*
X273479835Y-125681081D02*
X273956025Y-125776319D01*
X273051263Y-126014414D02*
X273003644Y-126062034D01*
X273003644Y-126062034D02*
X273051263Y-126109653D01*
X273051263Y-126109653D02*
X273098882Y-126062034D01*
X273098882Y-126062034D02*
X273051263Y-126014414D01*
X273051263Y-126014414D02*
X273051263Y-126109653D01*
X273051263Y-125728700D02*
X273098882Y-125157272D01*
X273098882Y-125157272D02*
X273051263Y-125109653D01*
X273051263Y-125109653D02*
X273003644Y-125157272D01*
X273003644Y-125157272D02*
X273051263Y-125728700D01*
X273051263Y-125728700D02*
X273051263Y-125109653D01*
X272575073Y-125442986D02*
X272575073Y-126109653D01*
X272575073Y-125538224D02*
X272527454Y-125490605D01*
X272527454Y-125490605D02*
X272432216Y-125442986D01*
X272432216Y-125442986D02*
X272289359Y-125442986D01*
X272289359Y-125442986D02*
X272194121Y-125490605D01*
X272194121Y-125490605D02*
X272146502Y-125585843D01*
X272146502Y-125585843D02*
X272146502Y-126109653D01*
X271241740Y-126109653D02*
X271241740Y-125585843D01*
X271241740Y-125585843D02*
X271289359Y-125490605D01*
X271289359Y-125490605D02*
X271384597Y-125442986D01*
X271384597Y-125442986D02*
X271575073Y-125442986D01*
X271575073Y-125442986D02*
X271670311Y-125490605D01*
X271241740Y-126062034D02*
X271336978Y-126109653D01*
X271336978Y-126109653D02*
X271575073Y-126109653D01*
X271575073Y-126109653D02*
X271670311Y-126062034D01*
X271670311Y-126062034D02*
X271717930Y-125966795D01*
X271717930Y-125966795D02*
X271717930Y-125871557D01*
X271717930Y-125871557D02*
X271670311Y-125776319D01*
X271670311Y-125776319D02*
X271575073Y-125728700D01*
X271575073Y-125728700D02*
X271336978Y-125728700D01*
X271336978Y-125728700D02*
X271241740Y-125681081D01*
X270765549Y-125442986D02*
X270765549Y-126109653D01*
X270765549Y-125538224D02*
X270717930Y-125490605D01*
X270717930Y-125490605D02*
X270622692Y-125442986D01*
X270622692Y-125442986D02*
X270479835Y-125442986D01*
X270479835Y-125442986D02*
X270384597Y-125490605D01*
X270384597Y-125490605D02*
X270336978Y-125585843D01*
X270336978Y-125585843D02*
X270336978Y-126109653D01*
X269717930Y-126109653D02*
X269813168Y-126062034D01*
X269813168Y-126062034D02*
X269860787Y-126014414D01*
X269860787Y-126014414D02*
X269908406Y-125919176D01*
X269908406Y-125919176D02*
X269908406Y-125633462D01*
X269908406Y-125633462D02*
X269860787Y-125538224D01*
X269860787Y-125538224D02*
X269813168Y-125490605D01*
X269813168Y-125490605D02*
X269717930Y-125442986D01*
X269717930Y-125442986D02*
X269575073Y-125442986D01*
X269575073Y-125442986D02*
X269479835Y-125490605D01*
X269479835Y-125490605D02*
X269432216Y-125538224D01*
X269432216Y-125538224D02*
X269384597Y-125633462D01*
X269384597Y-125633462D02*
X269384597Y-125919176D01*
X269384597Y-125919176D02*
X269432216Y-126014414D01*
X269432216Y-126014414D02*
X269479835Y-126062034D01*
X269479835Y-126062034D02*
X269575073Y-126109653D01*
X269575073Y-126109653D02*
X269717930Y-126109653D01*
D11*
%TO.C,T1*%
X287789352Y-146610029D02*
X287789357Y-153210031D01*
X287789357Y-153210031D02*
X290639355Y-153210031D01*
X290639355Y-146610031D02*
X287789352Y-146610029D01*
X290639355Y-149910031D02*
X290639355Y-146610031D01*
X290639355Y-149910031D02*
X290639355Y-153210031D01*
X290639355Y-151860031D02*
X290639355Y-147960031D01*
%TO.C,B1*%
X270039353Y-148660045D02*
X270039354Y-151160040D01*
X271539354Y-147160040D02*
X270039353Y-148660045D01*
X271539359Y-152660041D02*
X270039354Y-151160040D01*
X274039349Y-147160039D02*
X271539354Y-147160040D01*
X274039349Y-147160039D02*
X275539354Y-148660040D01*
X274039354Y-152660040D02*
X271539359Y-152660041D01*
X274039354Y-152660040D02*
X275539355Y-151160035D01*
X275539354Y-148660040D02*
X275539355Y-151160035D01*
D12*
%TO.C,D20*%
X259889343Y-144160044D02*
X260289343Y-143560035D01*
X260289343Y-143160035D02*
X260289343Y-143560035D01*
X260289343Y-143560035D02*
X259739343Y-143560035D01*
X260289343Y-143560035D02*
X260689337Y-144160041D01*
X260289343Y-143560035D02*
X260839343Y-143560035D01*
X260289343Y-144160035D02*
X260289343Y-144660035D01*
X260689337Y-144160041D02*
X259889343Y-144160044D01*
%TO.C,D12*%
X192581566Y-108383728D02*
X192894169Y-107733898D01*
X192838500Y-107337791D02*
X192894169Y-107733898D01*
X192894169Y-107733898D02*
X192349522Y-107810443D01*
X192894169Y-107733898D02*
X193373781Y-108272396D01*
X192894169Y-107733898D02*
X193438817Y-107657353D01*
X192977673Y-108328059D02*
X193047260Y-108823193D01*
X193373781Y-108272396D02*
X192581566Y-108383728D01*
%TO.C,D23*%
X253997746Y-188613905D02*
X254271361Y-187862149D01*
X254134553Y-188238025D02*
X253664707Y-188067014D01*
X254271361Y-187862149D02*
X254698369Y-188443242D01*
X254698369Y-188443242D02*
X253997746Y-188613905D01*
X254698369Y-188443242D02*
X254510255Y-188960070D01*
X254698369Y-188443242D02*
X254886480Y-187926409D01*
X255074245Y-188580054D02*
X254698369Y-188443242D01*
%TO.C,D15*%
X214188144Y-122009282D02*
X214500747Y-121359452D01*
X214445078Y-120963345D02*
X214500747Y-121359452D01*
X214500747Y-121359452D02*
X213956100Y-121435997D01*
X214500747Y-121359452D02*
X214980359Y-121897950D01*
X214500747Y-121359452D02*
X215045395Y-121282907D01*
X214584251Y-121953613D02*
X214653838Y-122448747D01*
X214980359Y-121897950D02*
X214188144Y-122009282D01*
%TO.C,D19*%
X235724770Y-103084194D02*
X236081942Y-102457753D01*
X236054039Y-102058727D02*
X236081942Y-102457753D01*
X236081942Y-102457753D02*
X235533282Y-102496119D01*
X236081942Y-102457753D02*
X236522821Y-103028395D01*
X236081942Y-102457753D02*
X236630602Y-102419387D01*
X236123796Y-103056291D02*
X236158675Y-103555073D01*
X236522821Y-103028395D02*
X235724770Y-103084194D01*
%TO.C,D3*%
X156340112Y-140322950D02*
X156629846Y-139662606D01*
X156560387Y-139268683D02*
X156629846Y-139662606D01*
X156629846Y-139662606D02*
X156088202Y-139758113D01*
X156629846Y-139662606D02*
X157127956Y-140184032D01*
X156629846Y-139662606D02*
X157171490Y-139567100D01*
X156734035Y-140253491D02*
X156820859Y-140745895D01*
X157127956Y-140184032D02*
X156340112Y-140322950D01*
%TO.C,D25*%
X291707447Y-199202464D02*
X291981070Y-198450713D01*
X291844260Y-198826590D02*
X291374416Y-198655579D01*
X291981070Y-198450713D02*
X292408077Y-199031802D01*
X292408077Y-199031802D02*
X291707447Y-199202464D01*
X292408077Y-199031802D02*
X292219966Y-199548633D01*
X292408077Y-199031802D02*
X292596188Y-198514971D01*
X292783954Y-199168611D02*
X292408077Y-199031802D01*
%TO.C,D5*%
X181968845Y-173374693D02*
X182258579Y-172714349D01*
X182189120Y-172320426D02*
X182258579Y-172714349D01*
X182258579Y-172714349D02*
X181716935Y-172809856D01*
X182258579Y-172714349D02*
X182756689Y-173235775D01*
X182258579Y-172714349D02*
X182800223Y-172618843D01*
X182362768Y-173305234D02*
X182449592Y-173797638D01*
X182756689Y-173235775D02*
X181968845Y-173374693D01*
%TO.C,D11*%
X195295435Y-127693944D02*
X195608038Y-127044114D01*
X195552369Y-126648007D02*
X195608038Y-127044114D01*
X195608038Y-127044114D02*
X195063391Y-127120659D01*
X195608038Y-127044114D02*
X196087650Y-127582612D01*
X195608038Y-127044114D02*
X196152686Y-126967569D01*
X195691542Y-127638275D02*
X195761129Y-128133409D01*
X196087650Y-127582612D02*
X195295435Y-127693944D01*
%TO.C,D7*%
X175196562Y-134967189D02*
X175486296Y-134306845D01*
X175416837Y-133912922D02*
X175486296Y-134306845D01*
X175486296Y-134306845D02*
X174944652Y-134402352D01*
X175486296Y-134306845D02*
X175984406Y-134828271D01*
X175486296Y-134306845D02*
X176027940Y-134211339D01*
X175590485Y-134897730D02*
X175677309Y-135390134D01*
X175984406Y-134828271D02*
X175196562Y-134967189D01*
D11*
%TO.C,JST1*%
X282339342Y-129160031D02*
X282339342Y-136760031D01*
X282339342Y-136760031D02*
X283039342Y-136760031D01*
X283039341Y-135160031D02*
X287539340Y-135160023D01*
X283039342Y-136760031D02*
X283039341Y-135160031D01*
X286289342Y-133910031D02*
X286289342Y-133410031D01*
X286539342Y-133660031D02*
X286039342Y-133660031D01*
X287539340Y-135160023D02*
X287539342Y-136760031D01*
X287539342Y-136760031D02*
X288239341Y-136760025D01*
X288239341Y-136760025D02*
X288239342Y-129160031D01*
X288239342Y-129160031D02*
X282339342Y-129160031D01*
D12*
%TO.C,D9*%
X200723189Y-166314405D02*
X201035792Y-165664575D01*
X200980123Y-165268468D02*
X201035792Y-165664575D01*
X201035792Y-165664575D02*
X200491145Y-165741120D01*
X201035792Y-165664575D02*
X201515404Y-166203073D01*
X201035792Y-165664575D02*
X201580440Y-165588030D01*
X201119296Y-166258736D02*
X201188883Y-166753870D01*
X201515404Y-166203073D02*
X200723189Y-166314405D01*
%TO.C,D17*%
X238445286Y-141989192D02*
X238802458Y-141362751D01*
X238774555Y-140963725D02*
X238802458Y-141362751D01*
X238802458Y-141362751D02*
X238253798Y-141401117D01*
X238802458Y-141362751D02*
X239243337Y-141933393D01*
X238802458Y-141362751D02*
X239351118Y-141324385D01*
X238844312Y-141961289D02*
X238879191Y-142460071D01*
X239243337Y-141933393D02*
X238445286Y-141989192D01*
%TO.C,D21*%
X259889345Y-124660041D02*
X260289345Y-124060032D01*
X260289345Y-123660032D02*
X260289345Y-124060032D01*
X260289345Y-124060032D02*
X259739345Y-124060032D01*
X260289345Y-124060032D02*
X260689339Y-124660038D01*
X260289345Y-124060032D02*
X260839345Y-124060032D01*
X260289345Y-124660032D02*
X260289345Y-125160032D01*
X260689339Y-124660038D02*
X259889345Y-124660041D01*
%TO.C,MCU1*%
X264534359Y-97670034D02*
X263899359Y-98305029D01*
X263899357Y-97665038D01*
X264534359Y-97670034D01*
G36*
X264534359Y-97670034D02*
G01*
X263899359Y-98305029D01*
X263899357Y-97665038D01*
X264534359Y-97670034D01*
G37*
D13*
X281679361Y-128155030D02*
X263899357Y-128155034D01*
X263899357Y-97665038D01*
X281679361Y-97665034D01*
X281679361Y-128155030D01*
D12*
%TO.C,D2*%
X159726249Y-159526695D02*
X160015983Y-158866351D01*
X159946524Y-158472428D02*
X160015983Y-158866351D01*
X160015983Y-158866351D02*
X159474339Y-158961858D01*
X160015983Y-158866351D02*
X160514093Y-159387777D01*
X160015983Y-158866351D02*
X160557627Y-158770845D01*
X160120172Y-159457236D02*
X160206996Y-159949640D01*
X160514093Y-159387777D02*
X159726249Y-159526695D01*
%TO.C,D6*%
X178582697Y-154170945D02*
X178872431Y-153510601D01*
X178802972Y-153116678D02*
X178872431Y-153510601D01*
X178872431Y-153510601D02*
X178330787Y-153606108D01*
X178872431Y-153510601D02*
X179370541Y-154032027D01*
X178872431Y-153510601D02*
X179414075Y-153415095D01*
X178976620Y-154101486D02*
X179063444Y-154593890D01*
X179370541Y-154032027D02*
X178582697Y-154170945D01*
%TO.C,D10*%
X198009316Y-147004191D02*
X198321919Y-146354361D01*
X198266250Y-145958254D02*
X198321919Y-146354361D01*
X198321919Y-146354361D02*
X197777272Y-146430906D01*
X198321919Y-146354361D02*
X198801531Y-146892859D01*
X198321919Y-146354361D02*
X198866567Y-146277816D01*
X198405423Y-146948522D02*
X198475010Y-147443656D01*
X198801531Y-146892859D02*
X198009316Y-147004191D01*
%TO.C,D1*%
X163112376Y-178730451D02*
X163402110Y-178070107D01*
X163332651Y-177676184D02*
X163402110Y-178070107D01*
X163402110Y-178070107D02*
X162860466Y-178165614D01*
X163402110Y-178070107D02*
X163900220Y-178591533D01*
X163402110Y-178070107D02*
X163943754Y-177974601D01*
X163506299Y-178660992D02*
X163593123Y-179153396D01*
X163900220Y-178591533D02*
X163112376Y-178730451D01*
%TO.C,D24*%
X273383435Y-192533073D02*
X273657058Y-191781322D01*
X273520248Y-192157199D02*
X273050404Y-191986188D01*
X273657058Y-191781322D02*
X274084065Y-192362411D01*
X274084065Y-192362411D02*
X273383435Y-192533073D01*
X274084065Y-192362411D02*
X273895954Y-192879242D01*
X274084065Y-192362411D02*
X274272176Y-191845580D01*
X274459942Y-192499220D02*
X274084065Y-192362411D01*
%TO.C,D22*%
X259889346Y-105160042D02*
X260289346Y-104560033D01*
X260289346Y-104160033D02*
X260289346Y-104560033D01*
X260289346Y-104560033D02*
X259739346Y-104560033D01*
X260289346Y-104560033D02*
X260689340Y-105160039D01*
X260289346Y-104560033D02*
X260839346Y-104560033D01*
X260289346Y-105160033D02*
X260289346Y-105660033D01*
X260689340Y-105160039D02*
X259889346Y-105160042D01*
%TO.C,D4*%
X152953966Y-121119197D02*
X153243700Y-120458853D01*
X153174241Y-120064930D02*
X153243700Y-120458853D01*
X153243700Y-120458853D02*
X152702056Y-120554360D01*
X153243700Y-120458853D02*
X153741810Y-120980279D01*
X153243700Y-120458853D02*
X153785344Y-120363347D01*
X153347889Y-121049738D02*
X153434713Y-121542142D01*
X153741810Y-120980279D02*
X152953966Y-121119197D01*
%TO.C,D8*%
X171810427Y-115763437D02*
X172100161Y-115103093D01*
X172030702Y-114709170D02*
X172100161Y-115103093D01*
X172100161Y-115103093D02*
X171558517Y-115198600D01*
X172100161Y-115103093D02*
X172598271Y-115624519D01*
X172100161Y-115103093D02*
X172641805Y-115007587D01*
X172204350Y-115693978D02*
X172291174Y-116186382D01*
X172598271Y-115624519D02*
X171810427Y-115763437D01*
%TO.C,D13*%
X219615889Y-160629733D02*
X219928492Y-159979903D01*
X219872823Y-159583796D02*
X219928492Y-159979903D01*
X219928492Y-159979903D02*
X219383845Y-160056448D01*
X219928492Y-159979903D02*
X220408104Y-160518401D01*
X219928492Y-159979903D02*
X220473140Y-159903358D01*
X220011996Y-160574064D02*
X220081583Y-161069198D01*
X220408104Y-160518401D02*
X219615889Y-160629733D01*
%TO.C,D16*%
X211474270Y-102699048D02*
X211786873Y-102049218D01*
X211731204Y-101653111D02*
X211786873Y-102049218D01*
X211786873Y-102049218D02*
X211242226Y-102125763D01*
X211786873Y-102049218D02*
X212266485Y-102587716D01*
X211786873Y-102049218D02*
X212331521Y-101972673D01*
X211870377Y-102643379D02*
X211939964Y-103138513D01*
X212266485Y-102587716D02*
X211474270Y-102699048D01*
%TO.C,D14*%
X216902011Y-141319507D02*
X217214614Y-140669677D01*
X217158945Y-140273570D02*
X217214614Y-140669677D01*
X217214614Y-140669677D02*
X216669967Y-140746222D01*
X217214614Y-140669677D02*
X217694226Y-141208175D01*
X217214614Y-140669677D02*
X217759262Y-140593132D01*
X217298118Y-141263838D02*
X217367705Y-141758972D01*
X217694226Y-141208175D02*
X216902011Y-141319507D01*
%TO.C,D18*%
X237085033Y-122536689D02*
X237442205Y-121910248D01*
X237414302Y-121511222D02*
X237442205Y-121910248D01*
X237442205Y-121910248D02*
X236893545Y-121948614D01*
X237442205Y-121910248D02*
X237883084Y-122480890D01*
X237442205Y-121910248D02*
X237990865Y-121871882D01*
X237484059Y-122508786D02*
X237518938Y-123007568D01*
X237883084Y-122480890D02*
X237085033Y-122536689D01*
%TD*%
M02*
