%TF.GenerationSoftware,KiCad,Pcbnew,8.0.2*%
%TF.CreationDate,2024-05-17T16:06:01-05:00*%
%TF.ProjectId,janus,6a616e75-732e-46b6-9963-61645f706362,v1.0.0*%
%TF.SameCoordinates,Original*%
%TF.FileFunction,Soldermask,Top*%
%TF.FilePolarity,Negative*%
%FSLAX46Y46*%
G04 Gerber Fmt 4.6, Leading zero omitted, Abs format (unit mm)*
G04 Created by KiCad (PCBNEW 8.0.2) date 2024-05-17 16:06:01*
%MOMM*%
%LPD*%
G01*
G04 APERTURE LIST*
G04 Aperture macros list*
%AMRotRect*
0 Rectangle, with rotation*
0 The origin of the aperture is its center*
0 $1 length*
0 $2 width*
0 $3 Rotation angle, in degrees counterclockwise*
0 Add horizontal line*
21,1,$1,$2,0,0,$3*%
%AMFreePoly0*
4,1,6,0.600000,0.200000,0.000000,-0.400000,-0.600000,0.200000,-0.600000,0.400000,0.600000,0.400000,0.600000,0.200000,0.600000,0.200000,$1*%
%AMFreePoly1*
4,1,6,0.600000,-0.250000,-0.600000,-0.250000,-0.600000,1.000000,0.000000,0.400000,0.600000,1.000000,0.600000,-0.250000,0.600000,-0.250000,$1*%
%AMFreePoly2*
4,1,6,1.000000,0.000000,0.500000,-0.750000,-0.500000,-0.750000,-0.500000,0.750000,0.500000,0.750000,1.000000,0.000000,1.000000,0.000000,$1*%
%AMFreePoly3*
4,1,6,0.500000,-0.750000,-0.650000,-0.750000,-0.150000,0.000000,-0.650000,0.750000,0.500000,0.750000,0.500000,-0.750000,0.500000,-0.750000,$1*%
G04 Aperture macros list end*
%ADD10R,0.900000X0.900000*%
%ADD11C,1.000000*%
%ADD12R,1.250000X0.900000*%
%ADD13R,1.100000X1.800000*%
%ADD14R,1.778000X1.778000*%
%ADD15R,1.200000X0.900000*%
%ADD16C,1.905000*%
%ADD17C,3.000000*%
%ADD18C,5.000000*%
%ADD19RotRect,2.600000X2.600000X10.000000*%
%ADD20RotRect,1.778000X1.778000X278.000000*%
%ADD21RotRect,0.900000X1.200000X278.000000*%
%ADD22RotRect,2.600000X2.600000X8.000000*%
%ADD23R,2.600000X2.600000*%
%ADD24RotRect,1.778000X1.778000X160.000000*%
%ADD25RotRect,0.900000X1.200000X160.000000*%
%ADD26RotRect,1.778000X1.778000X274.000000*%
%ADD27RotRect,0.900000X1.200000X274.000000*%
%ADD28RotRect,1.778000X1.778000X280.000000*%
%ADD29RotRect,0.900000X1.200000X280.000000*%
%ADD30R,1.200000X1.700000*%
%ADD31O,1.200000X1.700000*%
%ADD32FreePoly0,0.000000*%
%ADD33FreePoly1,0.000000*%
%ADD34C,1.752600*%
%ADD35FreePoly2,0.000000*%
%ADD36FreePoly3,0.000000*%
%ADD37FreePoly3,180.000000*%
%ADD38FreePoly2,180.000000*%
%ADD39C,0.800000*%
%ADD40RotRect,2.600000X2.600000X4.000000*%
%ADD41RotRect,2.600000X2.600000X250.000000*%
G04 APERTURE END LIST*
D10*
%TO.C,T1*%
X290389355Y-146210031D03*
X288189355Y-146210031D03*
D11*
X289289355Y-148410031D03*
X289289355Y-151410031D03*
D10*
X290389355Y-153610031D03*
X288189355Y-153610031D03*
D12*
X287214355Y-152160031D03*
X287214355Y-149160031D03*
X287214355Y-147660031D03*
%TD*%
D13*
%TO.C,B1*%
X274639354Y-146810049D03*
X274639354Y-153010031D03*
X270939354Y-146810049D03*
X270939354Y-153010031D03*
%TD*%
D14*
%TO.C,D20*%
X260289343Y-140100035D03*
D15*
X260289343Y-142260035D03*
X260289343Y-145560035D03*
D16*
X260289343Y-147720035D03*
%TD*%
D17*
%TO.C,S6*%
X165962536Y-157462425D03*
X167594831Y-166719617D03*
D18*
X171111839Y-161326969D03*
D17*
X172673862Y-155212840D03*
X174670816Y-166538128D03*
D19*
X162737293Y-158031122D03*
X175899109Y-154644141D03*
%TD*%
D20*
%TO.C,D12*%
X192412629Y-104307571D03*
D21*
X192713244Y-106446550D03*
X193172516Y-109714434D03*
D16*
X193473131Y-111853413D03*
%TD*%
D17*
%TO.C,S12*%
X179854204Y-111232766D03*
X181162431Y-120541286D03*
D18*
X184865497Y-115274664D03*
D17*
X186639949Y-109218774D03*
X188240439Y-120606855D03*
D22*
X176611076Y-111688558D03*
X189883077Y-108762981D03*
%TD*%
D17*
%TO.C,S22*%
X246889359Y-106210034D03*
X246889359Y-115610034D03*
D18*
X251289359Y-110910034D03*
D17*
X253889359Y-105160034D03*
X253889359Y-116660034D03*
D23*
X243614359Y-106210034D03*
X257164359Y-105160034D03*
%TD*%
D24*
%TO.C,D23*%
X257949704Y-189626631D03*
D25*
X255919974Y-188887868D03*
X252818978Y-187759200D03*
D16*
X250789248Y-187020437D03*
%TD*%
D20*
%TO.C,D15*%
X214019207Y-117933125D03*
D21*
X214319822Y-120072104D03*
X214779094Y-123339988D03*
D16*
X215079709Y-125478967D03*
%TD*%
D17*
%TO.C,S8*%
X159190240Y-119054914D03*
X160822535Y-128312106D03*
D18*
X164339543Y-122919458D03*
D17*
X165901566Y-116805329D03*
X167898520Y-128130617D03*
D19*
X155964997Y-119623611D03*
X169126813Y-116236630D03*
%TD*%
D17*
%TO.C,S4*%
X140333794Y-124410676D03*
X141966089Y-133667868D03*
D18*
X145483097Y-128275220D03*
D17*
X147045120Y-122161091D03*
X149042074Y-133486379D03*
D19*
X137108551Y-124979373D03*
X150270367Y-121592392D03*
%TD*%
D17*
%TO.C,S15*%
X201460791Y-124858306D03*
X202769018Y-134166826D03*
D18*
X206472084Y-128900204D03*
D17*
X208246536Y-122844314D03*
X209847026Y-134232395D03*
D22*
X198217663Y-125314098D03*
X211489664Y-122388521D03*
%TD*%
D17*
%TO.C,S1*%
X150492215Y-182021929D03*
X152124510Y-191279121D03*
D18*
X155641518Y-185886473D03*
D17*
X157203541Y-179772344D03*
X159200495Y-191097632D03*
D19*
X147266972Y-182590626D03*
X160428788Y-179203645D03*
%TD*%
D17*
%TO.C,S20*%
X246889348Y-145210041D03*
X246889348Y-154610041D03*
D18*
X251289348Y-149910041D03*
D17*
X253889348Y-144160041D03*
X253889348Y-155660041D03*
D23*
X243614348Y-145210041D03*
X257164348Y-144160041D03*
%TD*%
D26*
%TO.C,D19*%
X235840585Y-99006181D03*
D27*
X235991259Y-101160919D03*
X236221455Y-104452881D03*
D16*
X236372129Y-106607619D03*
%TD*%
D17*
%TO.C,S16*%
X198746921Y-105548081D03*
X200055148Y-114856601D03*
D18*
X203758214Y-109589979D03*
D17*
X205532666Y-103534089D03*
X207133156Y-114922170D03*
D22*
X195503793Y-106003873D03*
X208775794Y-103078296D03*
%TD*%
D28*
%TO.C,D3*%
X156029023Y-136255169D03*
D29*
X156404104Y-138382355D03*
X156977142Y-141632223D03*
D16*
X157352223Y-143759409D03*
%TD*%
D24*
%TO.C,D25*%
X295659414Y-200215192D03*
D25*
X293629679Y-199476428D03*
X290528691Y-198347762D03*
D16*
X288498956Y-197608998D03*
%TD*%
D28*
%TO.C,D5*%
X181657756Y-169306912D03*
D29*
X182032837Y-171434098D03*
X182605875Y-174683966D03*
D16*
X182980956Y-176811152D03*
%TD*%
D20*
%TO.C,D11*%
X195126498Y-123617787D03*
D21*
X195427113Y-125756766D03*
X195886385Y-129024650D03*
D16*
X196187000Y-131163629D03*
%TD*%
D28*
%TO.C,D7*%
X174885473Y-130899408D03*
D29*
X175260554Y-133026594D03*
X175833592Y-136276462D03*
D16*
X176208673Y-138403648D03*
%TD*%
D30*
%TO.C,JST1*%
X286289342Y-135410035D03*
D31*
X284289342Y-135410027D03*
%TD*%
D20*
%TO.C,D9*%
X200554252Y-162238248D03*
D21*
X200854867Y-164377227D03*
X201314139Y-167645111D03*
D16*
X201614754Y-169784090D03*
%TD*%
D32*
%TO.C,OLED1*%
X267709351Y-135545229D03*
D33*
X267709351Y-136722028D03*
X270249345Y-136722033D03*
D32*
X270249351Y-135545228D03*
X275329351Y-135545228D03*
D33*
X275329351Y-136722028D03*
X277869351Y-136722028D03*
D32*
X277869354Y-135545228D03*
D34*
X267709351Y-133390028D03*
X270249351Y-133390028D03*
X272789351Y-133390028D03*
X275329351Y-133390028D03*
X277869351Y-133390028D03*
%TD*%
D17*
%TO.C,S7*%
X162576385Y-138258668D03*
X164208680Y-147515860D03*
D18*
X167725688Y-142123212D03*
D17*
X169287711Y-136009083D03*
X171284665Y-147334371D03*
D19*
X159351142Y-138827365D03*
X172512958Y-135440384D03*
%TD*%
D26*
%TO.C,D17*%
X238561101Y-137911179D03*
D27*
X238711775Y-140065917D03*
X238941971Y-143357879D03*
D16*
X239092645Y-145512617D03*
%TD*%
D17*
%TO.C,S9*%
X187995840Y-169163442D03*
X189304067Y-178471962D03*
D18*
X193007133Y-173205340D03*
D17*
X194781585Y-167149450D03*
X196382075Y-178537531D03*
D22*
X184752712Y-169619234D03*
X198024713Y-166693657D03*
%TD*%
D14*
%TO.C,D21*%
X260289345Y-120600032D03*
D15*
X260289345Y-122760032D03*
X260289345Y-126060032D03*
D16*
X260289345Y-128220032D03*
%TD*%
D17*
%TO.C,S13*%
X206888545Y-163478769D03*
X208196772Y-172787289D03*
D18*
X211899838Y-167520667D03*
D17*
X213674290Y-161464777D03*
X215274780Y-172852858D03*
D22*
X203645417Y-163934561D03*
X216917418Y-161008984D03*
%TD*%
D34*
%TO.C,MCU1*%
X265169359Y-101480032D03*
X265169359Y-104020034D03*
X265169359Y-106560034D03*
X265169359Y-109100034D03*
X265169359Y-111640034D03*
X265169359Y-114180034D03*
X265169359Y-116720034D03*
X265169359Y-119260034D03*
X265169359Y-121800034D03*
X265169359Y-124340036D03*
X265169366Y-126880034D03*
X265169367Y-98940034D03*
D35*
X267074353Y-104020034D03*
X267074353Y-121800034D03*
X267074358Y-111640041D03*
X267074359Y-98940034D03*
X267074359Y-101480034D03*
X267074359Y-106560034D03*
X267074359Y-109100034D03*
X267074359Y-116720034D03*
X267074359Y-119260037D03*
X267074359Y-124340034D03*
X267074359Y-126880034D03*
X267074360Y-114180021D03*
D36*
X268524354Y-98940031D03*
X268524358Y-111640034D03*
X268524359Y-106560030D03*
X268524359Y-116720036D03*
X268524359Y-119260034D03*
X268524359Y-124340034D03*
X268524361Y-109100027D03*
X268524362Y-114180036D03*
X268524364Y-101480036D03*
X268524365Y-104020034D03*
X268524365Y-121800034D03*
X268524365Y-126880036D03*
D37*
X277054353Y-98940032D03*
X277054353Y-104020034D03*
X277054353Y-121800034D03*
X277054354Y-124340032D03*
X277054356Y-111640032D03*
X277054357Y-116720041D03*
X277054359Y-101480034D03*
X277054359Y-106560034D03*
X277054359Y-109100032D03*
X277054359Y-119260038D03*
X277054360Y-114180034D03*
X277054364Y-126880037D03*
D38*
X278504358Y-111640047D03*
X278504359Y-98940034D03*
X278504359Y-101480034D03*
X278504359Y-106560031D03*
X278504359Y-109100034D03*
X278504359Y-116720034D03*
X278504359Y-119260034D03*
X278504359Y-124340034D03*
X278504359Y-126880034D03*
X278504360Y-114180027D03*
X278504365Y-104020034D03*
X278504365Y-121800034D03*
D34*
X280409351Y-126880034D03*
X280409352Y-98940034D03*
X280409359Y-101480032D03*
X280409359Y-104020034D03*
X280409359Y-106560034D03*
X280409359Y-109100034D03*
X280409359Y-111640034D03*
X280409359Y-114180034D03*
X280409359Y-116720034D03*
X280409359Y-119260034D03*
X280409359Y-121800034D03*
X280409359Y-124340036D03*
D39*
X275409359Y-98940034D03*
X270169359Y-106560034D03*
X270169360Y-104020034D03*
X275409359Y-101480034D03*
X270169359Y-101480034D03*
X270169359Y-98940034D03*
X270169359Y-109100034D03*
X270169354Y-111640039D03*
X270169359Y-114180034D03*
X270169359Y-116720034D03*
X270169359Y-119260034D03*
X270169359Y-121800039D03*
X270169359Y-124340034D03*
X270169359Y-126880034D03*
X275409359Y-126880034D03*
X275409358Y-121800034D03*
X275409359Y-119260034D03*
X275409359Y-124340034D03*
X275409359Y-116720034D03*
X275409364Y-114180029D03*
X275409359Y-111640034D03*
X275409359Y-109100034D03*
X275409359Y-104020029D03*
X275409359Y-106560034D03*
%TD*%
D28*
%TO.C,D2*%
X159415160Y-155458914D03*
D29*
X159790241Y-157586100D03*
X160363279Y-160835968D03*
D16*
X160738360Y-162963154D03*
%TD*%
D17*
%TO.C,S3*%
X143719935Y-143614423D03*
X145352230Y-152871615D03*
D18*
X148869238Y-147478967D03*
D17*
X150431261Y-141364838D03*
X152428215Y-152690126D03*
D19*
X140494692Y-144183120D03*
X153656508Y-140796139D03*
%TD*%
D17*
%TO.C,S17*%
X225550184Y-143943467D03*
X226205895Y-153320572D03*
D18*
X230267321Y-148325090D03*
D17*
X232459888Y-142407730D03*
X233262087Y-153879716D03*
D40*
X222283161Y-144171920D03*
X235726910Y-142179277D03*
%TD*%
D28*
%TO.C,D6*%
X178271608Y-150103164D03*
D29*
X178646689Y-152230350D03*
X179219727Y-155480218D03*
D16*
X179594808Y-157607404D03*
%TD*%
D20*
%TO.C,D10*%
X197840379Y-142928034D03*
D21*
X198140994Y-145067013D03*
X198600266Y-148334897D03*
D16*
X198900881Y-150473876D03*
%TD*%
D17*
%TO.C,S2*%
X147106075Y-162818177D03*
X148738370Y-172075369D03*
D18*
X152255378Y-166682721D03*
D17*
X153817401Y-160568592D03*
X155814355Y-171893880D03*
D19*
X143880832Y-163386874D03*
X157042648Y-159999893D03*
%TD*%
D28*
%TO.C,D1*%
X162801287Y-174662670D03*
D29*
X163176368Y-176789856D03*
X163749406Y-180039724D03*
D16*
X164124487Y-182166910D03*
%TD*%
D17*
%TO.C,S21*%
X246889351Y-125710039D03*
X246889351Y-135110039D03*
D18*
X251289351Y-130410039D03*
D17*
X253889351Y-124660039D03*
X253889351Y-136160039D03*
D23*
X243614351Y-125710039D03*
X257164351Y-124660039D03*
%TD*%
D24*
%TO.C,D24*%
X277335402Y-193545801D03*
D25*
X275305667Y-192807037D03*
X272204679Y-191678371D03*
D16*
X270174944Y-190939607D03*
%TD*%
D17*
%TO.C,S14*%
X204174674Y-144168540D03*
X205482901Y-153477060D03*
D18*
X209185967Y-148210438D03*
D17*
X210960419Y-142154548D03*
X212560909Y-153542629D03*
D22*
X200931546Y-144624332D03*
X214203547Y-141698755D03*
%TD*%
D14*
%TO.C,D22*%
X260289346Y-101100033D03*
D15*
X260289346Y-103260033D03*
X260289346Y-106560033D03*
D16*
X260289346Y-108720033D03*
%TD*%
D17*
%TO.C,S24*%
X277116647Y-179206192D03*
X268283536Y-175991203D03*
D18*
X271195203Y-181733345D03*
D17*
X264902720Y-182209930D03*
X275709183Y-186143162D03*
D41*
X278236763Y-176128700D03*
X274589067Y-189220655D03*
%TD*%
D17*
%TO.C,S23*%
X257730974Y-175287025D03*
X248897863Y-172072037D03*
D18*
X251809528Y-177814178D03*
D17*
X245517040Y-178290760D03*
X256323508Y-182223997D03*
D41*
X258851088Y-172209533D03*
X255203390Y-185301484D03*
%TD*%
D28*
%TO.C,D4*%
X152642877Y-117051416D03*
D29*
X153017958Y-119178602D03*
X153590996Y-122428470D03*
D16*
X153966077Y-124555656D03*
%TD*%
D17*
%TO.C,S5*%
X169348664Y-176666168D03*
X170980959Y-185923360D03*
D18*
X174497967Y-180530712D03*
D17*
X176059990Y-174416583D03*
X178056944Y-185741871D03*
D19*
X166123421Y-177234865D03*
X179285237Y-173847884D03*
%TD*%
D17*
%TO.C,S18*%
X224189942Y-124490969D03*
X224845653Y-133868074D03*
D18*
X228907079Y-128872592D03*
D17*
X231099646Y-122955232D03*
X231901845Y-134427218D03*
D40*
X220922919Y-124719422D03*
X234366668Y-122726779D03*
%TD*%
D28*
%TO.C,D8*%
X171499338Y-111695656D03*
D29*
X171874419Y-113822842D03*
X172447457Y-117072710D03*
D16*
X172822538Y-119199896D03*
%TD*%
D20*
%TO.C,D13*%
X219446952Y-156553576D03*
D21*
X219747567Y-158692555D03*
X220206839Y-161960439D03*
D16*
X220507454Y-164099418D03*
%TD*%
D17*
%TO.C,S11*%
X182568092Y-130543000D03*
X183876319Y-139851520D03*
D18*
X187579385Y-134584898D03*
D17*
X189353837Y-128529008D03*
X190954327Y-139917089D03*
D22*
X179324964Y-130998792D03*
X192596965Y-128073215D03*
%TD*%
D20*
%TO.C,D16*%
X211305333Y-98622891D03*
D21*
X211605948Y-100761870D03*
X212065220Y-104029754D03*
D16*
X212365835Y-106168733D03*
%TD*%
D17*
%TO.C,S19*%
X222829686Y-105038471D03*
X223485397Y-114415576D03*
D18*
X227546823Y-109420094D03*
D17*
X229739390Y-103502734D03*
X230541589Y-114974720D03*
D40*
X219562663Y-105266924D03*
X233006412Y-103274281D03*
%TD*%
D20*
%TO.C,D14*%
X216733074Y-137243350D03*
D21*
X217033689Y-139382329D03*
X217492961Y-142650213D03*
D16*
X217793576Y-144789192D03*
%TD*%
D26*
%TO.C,D18*%
X237200848Y-118458676D03*
D27*
X237351522Y-120613414D03*
X237581718Y-123905376D03*
D16*
X237732392Y-126060114D03*
%TD*%
D17*
%TO.C,S25*%
X295440649Y-185875598D03*
X286607538Y-182660609D03*
D18*
X289519205Y-188402751D03*
D17*
X283226722Y-188879336D03*
X294033185Y-192812568D03*
D41*
X296560765Y-182798106D03*
X292913069Y-195890061D03*
%TD*%
D17*
%TO.C,S10*%
X185281960Y-149853218D03*
X186590187Y-159161738D03*
D18*
X190293253Y-153895116D03*
D17*
X192067705Y-147839226D03*
X193668195Y-159227307D03*
D22*
X182038832Y-150309010D03*
X195310833Y-147383433D03*
%TD*%
M02*
