%TF.GenerationSoftware,KiCad,Pcbnew,8.0.2*%
%TF.CreationDate,2024-06-23T16:01:54-05:00*%
%TF.ProjectId,janus,6a616e75-732e-46b6-9963-61645f706362,v1.0.0*%
%TF.SameCoordinates,Original*%
%TF.FileFunction,Paste,Bot*%
%TF.FilePolarity,Positive*%
%FSLAX46Y46*%
G04 Gerber Fmt 4.6, Leading zero omitted, Abs format (unit mm)*
G04 Created by KiCad (PCBNEW 8.0.2) date 2024-06-23 16:01:54*
%MOMM*%
%LPD*%
G01*
G04 APERTURE LIST*
G04 Aperture macros list*
%AMRotRect*
0 Rectangle, with rotation*
0 The origin of the aperture is its center*
0 $1 length*
0 $2 width*
0 $3 Rotation angle, in degrees counterclockwise*
0 Add horizontal line*
21,1,$1,$2,0,0,$3*%
G04 Aperture macros list end*
%ADD10R,1.250000X0.900000*%
%ADD11R,0.900000X0.900000*%
%ADD12R,1.100000X1.800000*%
%ADD13R,1.200000X0.900000*%
%ADD14RotRect,0.900000X1.200000X274.000000*%
%ADD15RotRect,0.900000X1.200000X158.000000*%
%ADD16RotRect,2.600000X2.600000X256.000000*%
%ADD17R,2.600000X2.600000*%
%ADD18RotRect,2.600000X2.600000X2.000000*%
%ADD19RotRect,2.600000X2.600000X4.000000*%
%ADD20RotRect,0.900000X1.200000X272.000000*%
%ADD21RotRect,2.600000X2.600000X240.000000*%
%ADD22RotRect,2.600000X2.600000X248.000000*%
%ADD23RotRect,2.600000X2.600000X264.000000*%
%ADD24RotRect,0.900000X1.200000X166.000000*%
%ADD25RotRect,0.900000X1.200000X174.000000*%
%ADD26RotRect,0.900000X1.200000X150.000000*%
G04 APERTURE END LIST*
D10*
%TO.C,T1*%
X181617705Y-115718174D03*
X181617705Y-114218174D03*
X181617705Y-111218174D03*
D11*
X182592712Y-117168175D03*
X184792706Y-117168173D03*
X182592704Y-109768175D03*
X184792698Y-109768173D03*
%TD*%
D12*
%TO.C,B1*%
X165642704Y-116568173D03*
X165642705Y-110368174D03*
X169342703Y-116568174D03*
X169342704Y-110368175D03*
%TD*%
D13*
%TO.C,D21*%
X136092692Y-109118175D03*
X136092692Y-105818175D03*
%TD*%
D14*
%TO.C,D8*%
X75122835Y-110595968D03*
X74892639Y-107304006D03*
%TD*%
D15*
%TO.C,D30*%
X170142988Y-172628327D03*
X173202694Y-173864529D03*
%TD*%
D13*
%TO.C,D22*%
X136092715Y-89918167D03*
X136092715Y-86618167D03*
%TD*%
D16*
%TO.C,S29*%
X140885698Y-164638691D03*
X145182550Y-151745203D03*
%TD*%
D17*
%TO.C,S26*%
X152167703Y-100018180D03*
X138617702Y-98968180D03*
%TD*%
D14*
%TO.C,D7*%
X76462156Y-129749190D03*
X76231960Y-126457228D03*
%TD*%
D18*
%TO.C,S12*%
X93906038Y-139218665D03*
X80327647Y-138642193D03*
%TD*%
D17*
%TO.C,S22*%
X132967708Y-100018175D03*
X119417707Y-98968175D03*
%TD*%
D13*
%TO.C,D24*%
X155292705Y-128318178D03*
X155292705Y-125018178D03*
%TD*%
D19*
%TO.C,S4*%
X52217442Y-103075453D03*
X38627204Y-102973212D03*
%TD*%
D14*
%TO.C,D10*%
X72444197Y-72289503D03*
X72214001Y-68997541D03*
%TD*%
D20*
%TO.C,D17*%
X115194872Y-109157386D03*
X115079704Y-105859396D03*
%TD*%
%TO.C,D13*%
X96006570Y-109827456D03*
X95891402Y-106529466D03*
%TD*%
D14*
%TO.C,D2*%
X57308930Y-131088519D03*
X57078734Y-127796557D03*
%TD*%
D20*
%TO.C,D12*%
X96676637Y-129015762D03*
X96561469Y-125717772D03*
%TD*%
D19*
%TO.C,S9*%
X71370663Y-101736118D03*
X57780425Y-101633877D03*
%TD*%
D13*
%TO.C,D23*%
X136092711Y-70718176D03*
X136092711Y-67418176D03*
%TD*%
D20*
%TO.C,D15*%
X94666435Y-71450853D03*
X94551267Y-68152863D03*
%TD*%
D21*
%TO.C,S31*%
X180673144Y-174583018D03*
X188357470Y-163373373D03*
%TD*%
D17*
%TO.C,S23*%
X132967693Y-80818181D03*
X119417692Y-79768181D03*
%TD*%
%TO.C,S21*%
X132967704Y-119218176D03*
X119417703Y-118168176D03*
%TD*%
D20*
%TO.C,D16*%
X115864936Y-128345687D03*
X115749768Y-125047697D03*
%TD*%
D22*
%TO.C,S30*%
X161949068Y-165947339D03*
X167998538Y-153777339D03*
%TD*%
D14*
%TO.C,D6*%
X77801488Y-148902436D03*
X77571292Y-145610474D03*
%TD*%
D19*
%TO.C,S6*%
X75388640Y-159195807D03*
X61798402Y-159093566D03*
%TD*%
D18*
%TO.C,S14*%
X92565887Y-100842056D03*
X78987496Y-100265584D03*
%TD*%
D17*
%TO.C,S20*%
X132967711Y-138418180D03*
X119417710Y-137368180D03*
%TD*%
D19*
%TO.C,S3*%
X53556757Y-122228667D03*
X39966519Y-122126426D03*
%TD*%
%TO.C,S8*%
X72709991Y-120889357D03*
X59119753Y-120787116D03*
%TD*%
%TO.C,S2*%
X54896084Y-141381908D03*
X41305846Y-141279667D03*
%TD*%
D13*
%TO.C,D20*%
X136092697Y-128318173D03*
X136092697Y-125018173D03*
%TD*%
D18*
%TO.C,S13*%
X93235969Y-120030369D03*
X79657578Y-119453897D03*
%TD*%
D23*
%TO.C,S28*%
X120760112Y-162109952D03*
X123220721Y-148743934D03*
%TD*%
D18*
%TO.C,S19*%
X111084125Y-80983680D03*
X97505734Y-80407208D03*
%TD*%
D19*
%TO.C,S7*%
X74049314Y-140042571D03*
X60459076Y-139940330D03*
%TD*%
D14*
%TO.C,D9*%
X73783522Y-91442738D03*
X73553326Y-88150776D03*
%TD*%
D13*
%TO.C,D27*%
X155292704Y-70718181D03*
X155292704Y-67418181D03*
%TD*%
D18*
%TO.C,S17*%
X112424268Y-119360290D03*
X98845877Y-118783818D03*
%TD*%
D19*
%TO.C,S10*%
X70031322Y-82582893D03*
X56441084Y-82480652D03*
%TD*%
D14*
%TO.C,D3*%
X55969595Y-111935291D03*
X55739399Y-108643329D03*
%TD*%
D13*
%TO.C,D26*%
X155292710Y-89918168D03*
X155292710Y-86618168D03*
%TD*%
D24*
%TO.C,D29*%
X149929682Y-170114282D03*
X153131658Y-170912624D03*
%TD*%
D17*
%TO.C,S27*%
X152167709Y-80818164D03*
X138617708Y-79768164D03*
%TD*%
D20*
%TO.C,D18*%
X114524807Y-89969073D03*
X114409639Y-86671083D03*
%TD*%
D19*
%TO.C,S5*%
X50878115Y-83922210D03*
X37287877Y-83819969D03*
%TD*%
D18*
%TO.C,S15*%
X91895824Y-81653745D03*
X78317433Y-81077273D03*
%TD*%
D14*
%TO.C,D5*%
X53290970Y-73628825D03*
X53060774Y-70336863D03*
%TD*%
%TO.C,D1*%
X58648258Y-150241745D03*
X58418062Y-146949783D03*
%TD*%
D20*
%TO.C,D11*%
X97346719Y-148204051D03*
X97231551Y-144906061D03*
%TD*%
%TO.C,D19*%
X113854744Y-70780780D03*
X113739576Y-67482790D03*
%TD*%
D25*
%TO.C,D28*%
X130478131Y-166273564D03*
X133760055Y-166618508D03*
%TD*%
D19*
%TO.C,S1*%
X56235414Y-160535139D03*
X42645176Y-160432898D03*
%TD*%
D13*
%TO.C,D25*%
X155292709Y-109118173D03*
X155292709Y-105818173D03*
%TD*%
D14*
%TO.C,D4*%
X54630279Y-92782052D03*
X54400083Y-89490090D03*
%TD*%
D17*
%TO.C,S25*%
X152167714Y-119218175D03*
X138617713Y-118168175D03*
%TD*%
D20*
%TO.C,D14*%
X95336509Y-90639150D03*
X95221341Y-87341160D03*
%TD*%
D26*
%TO.C,D31*%
X187857501Y-182339360D03*
X190715385Y-183989358D03*
%TD*%
D18*
%TO.C,S18*%
X111754199Y-100171998D03*
X98175808Y-99595526D03*
%TD*%
%TO.C,S16*%
X113094331Y-138548593D03*
X99515940Y-137972121D03*
%TD*%
%TO.C,S11*%
X94576105Y-158406969D03*
X80997714Y-157830497D03*
%TD*%
D17*
%TO.C,S24*%
X152167707Y-138418166D03*
X138617706Y-137368166D03*
%TD*%
M02*
