M48
; DRILL file {KiCad 8.0.2} date 2024-05-15T16:11:17-0500
; FORMAT={-:-/ absolute / inch / decimal}
; #@! TF.CreationDate,2024-05-15T16:11:17-05:00
; #@! TF.GenerationSoftware,Kicad,Pcbnew,8.0.2
; #@! TF.FileFunction,Plated,1,2,PTH
FMAT,2
INCH
; #@! TA.AperFunction,Plated,PTH,ViaDrill
T1C0.0157
; #@! TA.AperFunction,Plated,PTH,ComponentDrill
T2C0.0157
; #@! TA.AperFunction,Plated,PTH,ComponentDrill
T3C0.0295
; #@! TA.AperFunction,Plated,PTH,ComponentDrill
T4C0.0390
; #@! TA.AperFunction,Plated,PTH,ComponentDrill
T5C0.0430
%
G90
G05
T1
X10.6149Y-5.0793
X10.6669Y-5.8963
X10.7389Y-5.1433
X10.7769Y-5.5883
X10.8126Y-5.8963
X10.8349Y-5.1433
X10.8483Y-5.5883
X11.2459Y-5.8803
T2
X5.4874Y-5.4277
X5.6207Y-6.1837
X5.754Y-6.9398
X5.8873Y-7.6958
X6.2298Y-5.2168
X6.3631Y-5.9729
X6.4964Y-6.7289
X6.6297Y-7.485
X7.0249Y-4.9072
X7.1317Y-5.6675
X7.2386Y-6.4277
X7.3454Y-7.1879
X7.7687Y-4.6834
X7.8755Y-5.4437
X7.9824Y-6.2039
X8.0892Y-6.9641
X8.6801Y-4.6582
X8.7337Y-5.424
X8.7872Y-6.1898
X9.5911Y-6.232
X9.5911Y-5.4643
X9.5911Y-4.6965
X9.707Y-6.6037
X10.4702Y-6.758
X10.5397Y-5.4328
X10.6366Y-4.3953
X10.6366Y-3.8953
X10.6366Y-3.9953
X10.6366Y-4.1953
X10.6366Y-4.2953
X10.6366Y-4.4953
X10.6366Y-4.5953
X10.6366Y-4.6953
X10.6366Y-4.7953
X10.6366Y-4.8953
X10.6366Y-4.9953
X10.6366Y-4.0953
X10.6397Y-5.4328
X10.8397Y-5.4328
X10.8429Y-4.7953
X10.8429Y-3.8953
X10.8429Y-3.9953
X10.8429Y-4.0953
X10.8429Y-4.1953
X10.8429Y-4.2953
X10.8429Y-4.3953
X10.8429Y-4.5953
X10.8429Y-4.6953
X10.8429Y-4.8953
X10.8429Y-4.9953
X10.8429Y-4.4953
X10.9397Y-5.4328
X11.1916Y-7.0206
T3
X11.1925Y-5.3311
X11.2712Y-5.3311
T4
X6.0096Y-4.6083
X6.0617Y-4.9038
X6.1429Y-5.3644
X6.195Y-5.6598
X6.2762Y-6.1204
X6.3283Y-6.4159
X6.4095Y-6.8765
X6.4616Y-7.1719
X6.7519Y-4.3975
X6.804Y-4.6929
X6.8853Y-5.1535
X6.9373Y-5.449
X7.0186Y-5.9096
X7.0707Y-6.205
X7.1519Y-6.6656
X7.204Y-6.9611
X7.5753Y-4.1066
X7.6171Y-4.4037
X7.6821Y-4.8668
X7.7239Y-5.1639
X7.789Y-5.6271
X7.8307Y-5.9242
X7.8958Y-6.3873
X7.9376Y-6.6844
X8.3191Y-3.8828
X8.3609Y-4.1799
X8.426Y-4.643
X8.4677Y-4.9401
X8.5328Y-5.4033
X8.5746Y-5.7004
X8.6396Y-6.1635
X8.6814Y-6.4606
X9.2851Y-3.8979
X9.306Y-4.1972
X9.3386Y-4.6637
X9.3595Y-4.963
X9.3922Y-5.4296
X9.4131Y-5.7288
X9.8736Y-7.363
X10.1555Y-7.4656
X10.2476Y-5.5157
X10.2476Y-5.8157
X10.2476Y-4.748
X10.2476Y-5.048
X10.2476Y-3.9803
X10.2476Y-4.2803
X10.6368Y-7.5173
X10.9187Y-7.6199
X11.3582Y-7.7799
X11.6401Y-7.8825
T5
X10.4397Y-3.9953
X10.4397Y-4.0953
X10.4397Y-4.1953
X10.4397Y-4.2953
X10.4397Y-4.3953
X10.4397Y-4.4953
X10.4397Y-4.5953
X10.4397Y-4.6953
X10.4397Y-4.7953
X10.4397Y-4.8953
X10.4397Y-4.9953
X10.4397Y-3.8953
X10.5397Y-5.2516
X10.6397Y-5.2516
X10.7397Y-5.2516
X10.8397Y-5.2516
X10.9397Y-5.2516
X11.0397Y-4.9953
X11.0397Y-3.8953
X11.0397Y-3.9953
X11.0397Y-4.0953
X11.0397Y-4.1953
X11.0397Y-4.2953
X11.0397Y-4.3953
X11.0397Y-4.4953
X11.0397Y-4.5953
X11.0397Y-4.6953
X11.0397Y-4.7953
X11.0397Y-4.8953
M30
