%TF.GenerationSoftware,KiCad,Pcbnew,8.0.2*%
%TF.CreationDate,2024-05-17T16:06:01-05:00*%
%TF.ProjectId,janus,6a616e75-732e-46b6-9963-61645f706362,v1.0.0*%
%TF.SameCoordinates,Original*%
%TF.FileFunction,Copper,L1,Top*%
%TF.FilePolarity,Positive*%
%FSLAX46Y46*%
G04 Gerber Fmt 4.6, Leading zero omitted, Abs format (unit mm)*
G04 Created by KiCad (PCBNEW 8.0.2) date 2024-05-17 16:06:01*
%MOMM*%
%LPD*%
G01*
G04 APERTURE LIST*
G04 Aperture macros list*
%AMRotRect*
0 Rectangle, with rotation*
0 The origin of the aperture is its center*
0 $1 length*
0 $2 width*
0 $3 Rotation angle, in degrees counterclockwise*
0 Add horizontal line*
21,1,$1,$2,0,0,$3*%
%AMFreePoly0*
4,1,6,0.600000,0.200000,0.000000,-0.400000,-0.600000,0.200000,-0.600000,0.400000,0.600000,0.400000,0.600000,0.200000,0.600000,0.200000,$1*%
%AMFreePoly1*
4,1,6,0.600000,-0.250000,-0.600000,-0.250000,-0.600000,1.000000,0.000000,0.400000,0.600000,1.000000,0.600000,-0.250000,0.600000,-0.250000,$1*%
%AMFreePoly2*
4,1,6,1.000000,0.000000,0.500000,-0.750000,-0.500000,-0.750000,-0.500000,0.750000,0.500000,0.750000,1.000000,0.000000,1.000000,0.000000,$1*%
%AMFreePoly3*
4,1,6,0.500000,-0.750000,-0.650000,-0.750000,-0.150000,0.000000,-0.650000,0.750000,0.500000,0.750000,0.500000,-0.750000,0.500000,-0.750000,$1*%
G04 Aperture macros list end*
%TA.AperFunction,SMDPad,CuDef*%
%ADD10R,0.900000X0.900000*%
%TD*%
%TA.AperFunction,WasherPad*%
%ADD11C,1.000000*%
%TD*%
%TA.AperFunction,SMDPad,CuDef*%
%ADD12R,1.250000X0.900000*%
%TD*%
%TA.AperFunction,SMDPad,CuDef*%
%ADD13R,1.100000X1.800000*%
%TD*%
%TA.AperFunction,ComponentPad*%
%ADD14R,1.778000X1.778000*%
%TD*%
%TA.AperFunction,SMDPad,CuDef*%
%ADD15R,1.200000X0.900000*%
%TD*%
%TA.AperFunction,ComponentPad*%
%ADD16C,1.905000*%
%TD*%
%TA.AperFunction,SMDPad,CuDef*%
%ADD17RotRect,2.600000X2.600000X10.000000*%
%TD*%
%TA.AperFunction,ComponentPad*%
%ADD18C,0.800000*%
%TD*%
%TA.AperFunction,ComponentPad*%
%ADD19RotRect,1.778000X1.778000X278.000000*%
%TD*%
%TA.AperFunction,SMDPad,CuDef*%
%ADD20RotRect,0.900000X1.200000X278.000000*%
%TD*%
%TA.AperFunction,SMDPad,CuDef*%
%ADD21RotRect,2.600000X2.600000X8.000000*%
%TD*%
%TA.AperFunction,SMDPad,CuDef*%
%ADD22R,2.600000X2.600000*%
%TD*%
%TA.AperFunction,ComponentPad*%
%ADD23RotRect,1.778000X1.778000X160.000000*%
%TD*%
%TA.AperFunction,SMDPad,CuDef*%
%ADD24RotRect,0.900000X1.200000X160.000000*%
%TD*%
%TA.AperFunction,ComponentPad*%
%ADD25RotRect,1.778000X1.778000X274.000000*%
%TD*%
%TA.AperFunction,SMDPad,CuDef*%
%ADD26RotRect,0.900000X1.200000X274.000000*%
%TD*%
%TA.AperFunction,ComponentPad*%
%ADD27RotRect,1.778000X1.778000X280.000000*%
%TD*%
%TA.AperFunction,SMDPad,CuDef*%
%ADD28RotRect,0.900000X1.200000X280.000000*%
%TD*%
%TA.AperFunction,ComponentPad*%
%ADD29R,1.200000X1.700000*%
%TD*%
%TA.AperFunction,ComponentPad*%
%ADD30O,1.200000X1.700000*%
%TD*%
%TA.AperFunction,SMDPad,CuDef*%
%ADD31FreePoly0,0.000000*%
%TD*%
%TA.AperFunction,SMDPad,CuDef*%
%ADD32FreePoly1,0.000000*%
%TD*%
%TA.AperFunction,ComponentPad*%
%ADD33C,1.752600*%
%TD*%
%TA.AperFunction,SMDPad,CuDef*%
%ADD34FreePoly2,0.000000*%
%TD*%
%TA.AperFunction,SMDPad,CuDef*%
%ADD35FreePoly3,0.000000*%
%TD*%
%TA.AperFunction,SMDPad,CuDef*%
%ADD36FreePoly3,180.000000*%
%TD*%
%TA.AperFunction,SMDPad,CuDef*%
%ADD37FreePoly2,180.000000*%
%TD*%
%TA.AperFunction,SMDPad,CuDef*%
%ADD38RotRect,2.600000X2.600000X4.000000*%
%TD*%
%TA.AperFunction,SMDPad,CuDef*%
%ADD39RotRect,2.600000X2.600000X250.000000*%
%TD*%
%TA.AperFunction,ViaPad*%
%ADD40C,0.800000*%
%TD*%
%TA.AperFunction,Conductor*%
%ADD41C,0.250000*%
%TD*%
G04 APERTURE END LIST*
D10*
%TO.P,T1,*%
%TO.N,*%
X290389355Y-146210031D03*
X288189355Y-146210031D03*
D11*
X289289355Y-148410031D03*
X289289355Y-151410031D03*
D10*
X290389355Y-153610031D03*
X288189355Y-153610031D03*
D12*
%TO.P,T1,1*%
%TO.N,BPOS*%
X287214355Y-152160031D03*
%TO.P,T1,2*%
%TO.N,RAW*%
X287214355Y-149160031D03*
%TO.P,T1,3*%
%TO.N,N/C*%
X287214355Y-147660031D03*
%TD*%
D13*
%TO.P,B1,1*%
%TO.N,GND*%
X274639354Y-146810049D03*
X274639354Y-153010031D03*
%TO.P,B1,2*%
%TO.N,RST*%
X270939354Y-146810049D03*
X270939354Y-153010031D03*
%TD*%
D14*
%TO.P,D20,1*%
%TO.N,P8*%
X260289343Y-140100035D03*
D15*
X260289343Y-142260035D03*
%TO.P,D20,2*%
%TO.N,inner_bottom*%
X260289343Y-145560035D03*
D16*
X260289343Y-147720035D03*
%TD*%
D17*
%TO.P,S6,1*%
%TO.N,P19*%
X162737293Y-158031122D03*
D18*
X165008961Y-170914370D03*
D17*
%TO.P,S6,2*%
%TO.N,pinky_bottom*%
X175899109Y-154644141D03*
%TD*%
D19*
%TO.P,D12,1*%
%TO.N,P6*%
X192412629Y-104307571D03*
D20*
X192713244Y-106446550D03*
%TO.P,D12,2*%
%TO.N,ring_top*%
X193172516Y-109714434D03*
D16*
X193473131Y-111853413D03*
%TD*%
D21*
%TO.P,S12,1*%
%TO.N,P18*%
X176611076Y-111688558D03*
D18*
X178431739Y-124643245D03*
D21*
%TO.P,S12,2*%
%TO.N,ring_top*%
X189883077Y-108762981D03*
%TD*%
D22*
%TO.P,S22,1*%
%TO.N,P16*%
X243614359Y-106210034D03*
D18*
X243614359Y-119292034D03*
D22*
%TO.P,S22,2*%
%TO.N,inner_top*%
X257164359Y-105160034D03*
%TD*%
D23*
%TO.P,D23,1*%
%TO.N,P9*%
X257949704Y-189626631D03*
D24*
X255919974Y-188887868D03*
%TO.P,D23,2*%
%TO.N,inner_cluster*%
X252818978Y-187759200D03*
D16*
X250789248Y-187020437D03*
%TD*%
D19*
%TO.P,D15,1*%
%TO.N,P7*%
X214019207Y-117933125D03*
D20*
X214319822Y-120072104D03*
%TO.P,D15,2*%
%TO.N,middle_home*%
X214779094Y-123339988D03*
D16*
X215079709Y-125478967D03*
%TD*%
D17*
%TO.P,S8,1*%
%TO.N,P19*%
X155964997Y-119623611D03*
D18*
X158236665Y-132506859D03*
D17*
%TO.P,S8,2*%
%TO.N,pinky_top*%
X169126813Y-116236630D03*
%TD*%
%TO.P,S4,1*%
%TO.N,P20*%
X137108551Y-124979373D03*
D18*
X139380219Y-137862621D03*
D17*
%TO.P,S4,2*%
%TO.N,outer_top*%
X150270367Y-121592392D03*
%TD*%
D21*
%TO.P,S15,1*%
%TO.N,P15*%
X198217663Y-125314098D03*
D18*
X200038326Y-138268785D03*
D21*
%TO.P,S15,2*%
%TO.N,middle_home*%
X211489664Y-122388521D03*
%TD*%
D17*
%TO.P,S1,1*%
%TO.N,P20*%
X147266972Y-182590626D03*
D18*
X149538640Y-195473874D03*
D17*
%TO.P,S1,2*%
%TO.N,outer_mod*%
X160428788Y-179203645D03*
%TD*%
D22*
%TO.P,S20,1*%
%TO.N,P16*%
X243614348Y-145210041D03*
D18*
X243614348Y-158292041D03*
D22*
%TO.P,S20,2*%
%TO.N,inner_bottom*%
X257164348Y-144160041D03*
%TD*%
D25*
%TO.P,D19,1*%
%TO.N,P6*%
X235840585Y-99006181D03*
D26*
X235991259Y-101160919D03*
%TO.P,D19,2*%
%TO.N,index_top*%
X236221455Y-104452881D03*
D16*
X236372129Y-106607619D03*
%TD*%
D21*
%TO.P,S16,1*%
%TO.N,P15*%
X195503793Y-106003873D03*
D18*
X197324456Y-118958560D03*
D21*
%TO.P,S16,2*%
%TO.N,middle_top*%
X208775794Y-103078296D03*
%TD*%
D27*
%TO.P,D3,1*%
%TO.N,P7*%
X156029023Y-136255169D03*
D28*
X156404104Y-138382355D03*
%TO.P,D3,2*%
%TO.N,outer_home*%
X156977142Y-141632223D03*
D16*
X157352223Y-143759409D03*
%TD*%
D23*
%TO.P,D25,1*%
%TO.N,P9*%
X295659414Y-200215192D03*
D24*
X293629679Y-199476428D03*
%TO.P,D25,2*%
%TO.N,outer_cluster*%
X290528691Y-198347762D03*
D16*
X288498956Y-197608998D03*
%TD*%
D27*
%TO.P,D5,1*%
%TO.N,P9*%
X181657756Y-169306912D03*
D28*
X182032837Y-171434098D03*
%TO.P,D5,2*%
%TO.N,pinky_mod*%
X182605875Y-174683966D03*
D16*
X182980956Y-176811152D03*
%TD*%
D19*
%TO.P,D11,1*%
%TO.N,P7*%
X195126498Y-123617787D03*
D20*
X195427113Y-125756766D03*
%TO.P,D11,2*%
%TO.N,ring_home*%
X195886385Y-129024650D03*
D16*
X196187000Y-131163629D03*
%TD*%
D27*
%TO.P,D7,1*%
%TO.N,P7*%
X174885473Y-130899408D03*
D28*
X175260554Y-133026594D03*
%TO.P,D7,2*%
%TO.N,pinky_home*%
X175833592Y-136276462D03*
D16*
X176208673Y-138403648D03*
%TD*%
D29*
%TO.P,JST1,1*%
%TO.N,BPOS*%
X286289342Y-135410035D03*
D30*
%TO.P,JST1,2*%
%TO.N,GND*%
X284289342Y-135410027D03*
%TD*%
D19*
%TO.P,D9,1*%
%TO.N,P9*%
X200554252Y-162238248D03*
D20*
X200854867Y-164377227D03*
%TO.P,D9,2*%
%TO.N,ring_mod*%
X201314139Y-167645111D03*
D16*
X201614754Y-169784090D03*
%TD*%
D31*
%TO.P,OLED1,*%
%TO.N,O1*%
X267709351Y-135545229D03*
D32*
%TO.N,P2*%
X267709351Y-136722028D03*
D18*
X267709351Y-137992028D03*
D32*
%TO.N,P3*%
X270249345Y-136722033D03*
D31*
%TO.N,O2*%
X270249351Y-135545228D03*
D18*
%TO.N,P3*%
X270249351Y-137992028D03*
D31*
%TO.N,O4*%
X275329351Y-135545228D03*
D32*
%TO.N,GND*%
X275329351Y-136722028D03*
D18*
X275329351Y-137992028D03*
D32*
%TO.N,P1*%
X277869351Y-136722028D03*
D18*
X277869351Y-137992028D03*
D31*
%TO.N,O5*%
X277869354Y-135545228D03*
D33*
%TO.P,OLED1,1*%
%TO.N,O1*%
X267709351Y-133390028D03*
%TO.P,OLED1,2*%
%TO.N,O2*%
X270249351Y-133390028D03*
%TO.P,OLED1,3*%
%TO.N,VCC*%
X272789351Y-133390028D03*
%TO.P,OLED1,4*%
%TO.N,O4*%
X275329351Y-133390028D03*
%TO.P,OLED1,5*%
%TO.N,O5*%
X277869351Y-133390028D03*
%TD*%
D17*
%TO.P,S7,1*%
%TO.N,P19*%
X159351142Y-138827365D03*
D18*
X161622810Y-151710613D03*
D17*
%TO.P,S7,2*%
%TO.N,pinky_home*%
X172512958Y-135440384D03*
%TD*%
D25*
%TO.P,D17,1*%
%TO.N,P8*%
X238561101Y-137911179D03*
D26*
X238711775Y-140065917D03*
%TO.P,D17,2*%
%TO.N,index_bottom*%
X238941971Y-143357879D03*
D16*
X239092645Y-145512617D03*
%TD*%
D21*
%TO.P,S9,1*%
%TO.N,P18*%
X184752712Y-169619234D03*
D18*
X186573375Y-182573921D03*
D21*
%TO.P,S9,2*%
%TO.N,ring_mod*%
X198024713Y-166693657D03*
%TD*%
D14*
%TO.P,D21,1*%
%TO.N,P7*%
X260289345Y-120600032D03*
D15*
X260289345Y-122760032D03*
%TO.P,D21,2*%
%TO.N,inner_home*%
X260289345Y-126060032D03*
D16*
X260289345Y-128220032D03*
%TD*%
D21*
%TO.P,S13,1*%
%TO.N,P15*%
X203645417Y-163934561D03*
D18*
X205466080Y-176889248D03*
D21*
%TO.P,S13,2*%
%TO.N,middle_mod*%
X216917418Y-161008984D03*
%TD*%
D33*
%TO.P,MCU1,*%
%TO.N,2*%
X265169359Y-101480032D03*
%TO.N,3*%
X265169359Y-104020034D03*
%TO.N,4*%
X265169359Y-106560034D03*
%TO.N,5*%
X265169359Y-109100034D03*
%TO.N,6*%
X265169359Y-111640034D03*
%TO.N,7*%
X265169359Y-114180034D03*
%TO.N,8*%
X265169359Y-116720034D03*
%TO.N,9*%
X265169359Y-119260034D03*
%TO.N,10*%
X265169359Y-121800034D03*
%TO.N,11*%
X265169359Y-124340036D03*
%TO.N,12*%
X265169366Y-126880034D03*
%TO.N,1*%
X265169367Y-98940034D03*
D34*
%TO.N,3*%
X267074353Y-104020034D03*
%TO.N,10*%
X267074353Y-121800034D03*
%TO.N,6*%
X267074358Y-111640041D03*
%TO.N,1*%
X267074359Y-98940034D03*
%TO.N,2*%
X267074359Y-101480034D03*
%TO.N,4*%
X267074359Y-106560034D03*
%TO.N,5*%
X267074359Y-109100034D03*
%TO.N,8*%
X267074359Y-116720034D03*
%TO.N,9*%
X267074359Y-119260037D03*
%TO.N,11*%
X267074359Y-124340034D03*
%TO.N,12*%
X267074359Y-126880034D03*
%TO.N,7*%
X267074360Y-114180021D03*
D35*
%TO.N,P1*%
X268524354Y-98940031D03*
%TO.N,P3*%
X268524358Y-111640034D03*
%TO.N,GND*%
X268524359Y-106560030D03*
%TO.N,P5*%
X268524359Y-116720036D03*
%TO.N,P6*%
X268524359Y-119260034D03*
%TO.N,P8*%
X268524359Y-124340034D03*
%TO.N,P2*%
X268524361Y-109100027D03*
%TO.N,P4*%
X268524362Y-114180036D03*
%TO.N,P0*%
X268524364Y-101480036D03*
%TO.N,GND*%
X268524365Y-104020034D03*
%TO.N,P7*%
X268524365Y-121800034D03*
%TO.N,P9*%
X268524365Y-126880036D03*
D36*
%TO.N,RAW*%
X277054353Y-98940032D03*
%TO.N,RST*%
X277054353Y-104020034D03*
%TO.N,P14*%
X277054353Y-121800034D03*
%TO.N,P16*%
X277054354Y-124340032D03*
%TO.N,P20*%
X277054356Y-111640032D03*
%TO.N,P18*%
X277054357Y-116720041D03*
%TO.N,GND*%
X277054359Y-101480034D03*
%TO.N,VCC*%
X277054359Y-106560034D03*
%TO.N,P21*%
X277054359Y-109100032D03*
%TO.N,P15*%
X277054359Y-119260038D03*
%TO.N,P19*%
X277054360Y-114180034D03*
%TO.N,P10*%
X277054364Y-126880037D03*
D37*
%TO.N,19*%
X278504358Y-111640047D03*
%TO.N,24*%
X278504359Y-98940034D03*
%TO.N,23*%
X278504359Y-101480034D03*
%TO.N,21*%
X278504359Y-106560031D03*
%TO.N,20*%
X278504359Y-109100034D03*
%TO.N,17*%
X278504359Y-116720034D03*
%TO.N,16*%
X278504359Y-119260034D03*
%TO.N,14*%
X278504359Y-124340034D03*
%TO.N,13*%
X278504359Y-126880034D03*
%TO.N,18*%
X278504360Y-114180027D03*
%TO.N,22*%
X278504365Y-104020034D03*
%TO.N,15*%
X278504365Y-121800034D03*
D33*
%TO.N,13*%
X280409351Y-126880034D03*
%TO.N,24*%
X280409352Y-98940034D03*
%TO.N,23*%
X280409359Y-101480032D03*
%TO.N,22*%
X280409359Y-104020034D03*
%TO.N,21*%
X280409359Y-106560034D03*
%TO.N,20*%
X280409359Y-109100034D03*
%TO.N,19*%
X280409359Y-111640034D03*
%TO.N,18*%
X280409359Y-114180034D03*
%TO.N,17*%
X280409359Y-116720034D03*
%TO.N,16*%
X280409359Y-119260034D03*
%TO.N,15*%
X280409359Y-121800034D03*
%TO.N,14*%
X280409359Y-124340036D03*
D18*
%TO.P,MCU1,B+*%
%TO.N,RAW*%
X275409359Y-98940034D03*
%TO.P,MCU1,GND*%
%TO.N,GND*%
X270169359Y-106560034D03*
X270169360Y-104020034D03*
X275409359Y-101480034D03*
%TO.P,MCU1,P0*%
%TO.N,P0*%
X270169359Y-101480034D03*
%TO.P,MCU1,P1*%
%TO.N,P1*%
X270169359Y-98940034D03*
%TO.P,MCU1,P2*%
%TO.N,P2*%
X270169359Y-109100034D03*
%TO.P,MCU1,P3*%
%TO.N,P3*%
X270169354Y-111640039D03*
%TO.P,MCU1,P4*%
%TO.N,P4*%
X270169359Y-114180034D03*
%TO.P,MCU1,P5*%
%TO.N,P5*%
X270169359Y-116720034D03*
%TO.P,MCU1,P6*%
%TO.N,P6*%
X270169359Y-119260034D03*
%TO.P,MCU1,P7*%
%TO.N,P7*%
X270169359Y-121800039D03*
%TO.P,MCU1,P8*%
%TO.N,P8*%
X270169359Y-124340034D03*
%TO.P,MCU1,P9*%
%TO.N,P9*%
X270169359Y-126880034D03*
%TO.P,MCU1,P10*%
%TO.N,P10*%
X275409359Y-126880034D03*
%TO.P,MCU1,P14*%
%TO.N,P14*%
X275409358Y-121800034D03*
%TO.P,MCU1,P15*%
%TO.N,P15*%
X275409359Y-119260034D03*
%TO.P,MCU1,P16*%
%TO.N,P16*%
X275409359Y-124340034D03*
%TO.P,MCU1,P18*%
%TO.N,P18*%
X275409359Y-116720034D03*
%TO.P,MCU1,P19*%
%TO.N,P19*%
X275409364Y-114180029D03*
%TO.P,MCU1,P20*%
%TO.N,P20*%
X275409359Y-111640034D03*
%TO.P,MCU1,P21*%
%TO.N,P21*%
X275409359Y-109100034D03*
%TO.P,MCU1,RST*%
%TO.N,RST*%
X275409359Y-104020029D03*
%TO.P,MCU1,VCC*%
%TO.N,VCC*%
X275409359Y-106560034D03*
%TD*%
D27*
%TO.P,D2,1*%
%TO.N,P8*%
X159415160Y-155458914D03*
D28*
X159790241Y-157586100D03*
%TO.P,D2,2*%
%TO.N,outer_bottom*%
X160363279Y-160835968D03*
D16*
X160738360Y-162963154D03*
%TD*%
D17*
%TO.P,S3,1*%
%TO.N,P20*%
X140494692Y-144183120D03*
D18*
X142766360Y-157066368D03*
D17*
%TO.P,S3,2*%
%TO.N,outer_home*%
X153656508Y-140796139D03*
%TD*%
D38*
%TO.P,S17,1*%
%TO.N,P14*%
X222283161Y-144171920D03*
D18*
X223195716Y-157222053D03*
D38*
%TO.P,S17,2*%
%TO.N,index_bottom*%
X235726910Y-142179277D03*
%TD*%
D27*
%TO.P,D6,1*%
%TO.N,P8*%
X178271608Y-150103164D03*
D28*
X178646689Y-152230350D03*
%TO.P,D6,2*%
%TO.N,pinky_bottom*%
X179219727Y-155480218D03*
D16*
X179594808Y-157607404D03*
%TD*%
D19*
%TO.P,D10,1*%
%TO.N,P8*%
X197840379Y-142928034D03*
D20*
X198140994Y-145067013D03*
%TO.P,D10,2*%
%TO.N,ring_bottom*%
X198600266Y-148334897D03*
D16*
X198900881Y-150473876D03*
%TD*%
D17*
%TO.P,S2,1*%
%TO.N,P20*%
X143880832Y-163386874D03*
D18*
X146152500Y-176270122D03*
D17*
%TO.P,S2,2*%
%TO.N,outer_bottom*%
X157042648Y-159999893D03*
%TD*%
D27*
%TO.P,D1,1*%
%TO.N,P9*%
X162801287Y-174662670D03*
D28*
X163176368Y-176789856D03*
%TO.P,D1,2*%
%TO.N,outer_mod*%
X163749406Y-180039724D03*
D16*
X164124487Y-182166910D03*
%TD*%
D22*
%TO.P,S21,1*%
%TO.N,P16*%
X243614351Y-125710039D03*
D18*
X243614351Y-138792039D03*
D22*
%TO.P,S21,2*%
%TO.N,inner_home*%
X257164351Y-124660039D03*
%TD*%
D23*
%TO.P,D24,1*%
%TO.N,P9*%
X277335402Y-193545801D03*
D24*
X275305667Y-192807037D03*
%TO.P,D24,2*%
%TO.N,home_cluster*%
X272204679Y-191678371D03*
D16*
X270174944Y-190939607D03*
%TD*%
D21*
%TO.P,S14,1*%
%TO.N,P15*%
X200931546Y-144624332D03*
D18*
X202752209Y-157579019D03*
D21*
%TO.P,S14,2*%
%TO.N,middle_bottom*%
X214203547Y-141698755D03*
%TD*%
D14*
%TO.P,D22,1*%
%TO.N,P6*%
X260289346Y-101100033D03*
D15*
X260289346Y-103260033D03*
%TO.P,D22,2*%
%TO.N,inner_top*%
X260289346Y-106560033D03*
D16*
X260289346Y-108720033D03*
%TD*%
D18*
%TO.P,S24,1*%
%TO.N,P16*%
X265943704Y-171654391D03*
D39*
X278236763Y-176128700D03*
%TO.P,S24,2*%
%TO.N,home_cluster*%
X274589067Y-189220655D03*
%TD*%
%TO.P,S23,1*%
%TO.N,P14*%
X258851088Y-172209533D03*
D18*
X246558027Y-167735228D03*
D39*
%TO.P,S23,2*%
%TO.N,inner_cluster*%
X255203390Y-185301484D03*
%TD*%
D27*
%TO.P,D4,1*%
%TO.N,P6*%
X152642877Y-117051416D03*
D28*
X153017958Y-119178602D03*
%TO.P,D4,2*%
%TO.N,outer_top*%
X153590996Y-122428470D03*
D16*
X153966077Y-124555656D03*
%TD*%
D17*
%TO.P,S5,1*%
%TO.N,P19*%
X166123421Y-177234865D03*
D18*
X168395089Y-190118113D03*
D17*
%TO.P,S5,2*%
%TO.N,pinky_mod*%
X179285237Y-173847884D03*
%TD*%
D38*
%TO.P,S18,1*%
%TO.N,P14*%
X220922919Y-124719422D03*
D18*
X221835474Y-137769555D03*
D38*
%TO.P,S18,2*%
%TO.N,index_home*%
X234366668Y-122726779D03*
%TD*%
D27*
%TO.P,D8,1*%
%TO.N,P6*%
X171499338Y-111695656D03*
D28*
X171874419Y-113822842D03*
%TO.P,D8,2*%
%TO.N,pinky_top*%
X172447457Y-117072710D03*
D16*
X172822538Y-119199896D03*
%TD*%
D19*
%TO.P,D13,1*%
%TO.N,P9*%
X219446952Y-156553576D03*
D20*
X219747567Y-158692555D03*
%TO.P,D13,2*%
%TO.N,middle_mod*%
X220206839Y-161960439D03*
D16*
X220507454Y-164099418D03*
%TD*%
D21*
%TO.P,S11,1*%
%TO.N,P18*%
X179324964Y-130998792D03*
D18*
X181145627Y-143953479D03*
D21*
%TO.P,S11,2*%
%TO.N,ring_home*%
X192596965Y-128073215D03*
%TD*%
D19*
%TO.P,D16,1*%
%TO.N,P6*%
X211305333Y-98622891D03*
D20*
X211605948Y-100761870D03*
%TO.P,D16,2*%
%TO.N,middle_top*%
X212065220Y-104029754D03*
D16*
X212365835Y-106168733D03*
%TD*%
D38*
%TO.P,S19,1*%
%TO.N,P14*%
X219562663Y-105266924D03*
D18*
X220475218Y-118317057D03*
D38*
%TO.P,S19,2*%
%TO.N,index_top*%
X233006412Y-103274281D03*
%TD*%
D19*
%TO.P,D14,1*%
%TO.N,P8*%
X216733074Y-137243350D03*
D20*
X217033689Y-139382329D03*
%TO.P,D14,2*%
%TO.N,middle_bottom*%
X217492961Y-142650213D03*
D16*
X217793576Y-144789192D03*
%TD*%
D25*
%TO.P,D18,1*%
%TO.N,P7*%
X237200848Y-118458676D03*
D26*
X237351522Y-120613414D03*
%TO.P,D18,2*%
%TO.N,index_home*%
X237581718Y-123905376D03*
D16*
X237732392Y-126060114D03*
%TD*%
D18*
%TO.P,S25,1*%
%TO.N,P10*%
X284267706Y-178323797D03*
D39*
X296560765Y-182798106D03*
%TO.P,S25,2*%
%TO.N,outer_cluster*%
X292913069Y-195890061D03*
%TD*%
D21*
%TO.P,S10,1*%
%TO.N,P18*%
X182038832Y-150309010D03*
D18*
X183859495Y-163263697D03*
D21*
%TO.P,S10,2*%
%TO.N,ring_bottom*%
X195310833Y-147383433D03*
%TD*%
D40*
%TO.N,P10*%
X269617404Y-129014455D03*
%TO.N,RAW*%
X285644805Y-149359855D03*
%TO.N,GND*%
X274639354Y-149766257D03*
%TO.N,RST*%
X270939353Y-149766252D03*
X273732206Y-141943058D03*
X275546502Y-141943056D03*
%TO.N,P1*%
X275205404Y-130640056D03*
X272767004Y-130640057D03*
%TD*%
D41*
%TO.N,P15*%
X275409357Y-119260032D02*
X277054355Y-119260034D01*
X197324449Y-118958564D02*
X195503793Y-106003877D01*
X200931534Y-144624328D02*
X200931533Y-144624329D01*
X200038322Y-138268785D02*
X198217659Y-125314113D01*
X195503793Y-106003877D02*
X195503793Y-106003879D01*
X202752198Y-157579022D02*
X200931534Y-144624328D01*
X198217659Y-125314113D02*
X198217654Y-125314110D01*
X277054355Y-119260034D02*
X277054359Y-119260037D01*
X205466079Y-176889245D02*
X203645413Y-163934556D01*
X203645413Y-163934556D02*
X203645411Y-163934559D01*
%TO.N,outer_mod*%
X163749417Y-180039730D02*
X164124487Y-182166897D01*
X160504313Y-179632035D02*
X164124487Y-182166899D01*
X160428788Y-179203642D02*
X160504313Y-179632035D01*
X164124487Y-182166897D02*
X164124487Y-182166899D01*
%TO.N,outer_bottom*%
X160738352Y-162963158D02*
X160738357Y-162963158D01*
X160363275Y-160835979D02*
X160738352Y-162963158D01*
X157042645Y-159999894D02*
X157118179Y-160428289D01*
X157118179Y-160428289D02*
X160738357Y-162963158D01*
%TO.N,outer_home*%
X156977131Y-141632225D02*
X156977131Y-141632222D01*
X153732041Y-141224534D02*
X157352217Y-143759407D01*
X153656514Y-140796146D02*
X153732041Y-141224534D01*
X157352217Y-143759407D02*
X156977131Y-141632225D01*
%TO.N,outer_top*%
X150270375Y-121592389D02*
X150345915Y-122020788D01*
X150345915Y-122020788D02*
X153966076Y-124555645D01*
X153966076Y-124555645D02*
X153591008Y-122428470D01*
X153591008Y-122428470D02*
X153591004Y-122428468D01*
%TO.N,P14*%
X221835463Y-137769562D02*
X220922914Y-124719423D01*
X223195720Y-157222051D02*
X223195722Y-157222061D01*
X220475224Y-118317061D02*
X219562682Y-105266926D01*
X246558003Y-167735227D02*
X258851071Y-172209527D01*
X219562682Y-105266926D02*
X219562678Y-105266930D01*
X275409353Y-121800035D02*
X277054350Y-121800032D01*
X222283168Y-144171927D02*
X223195720Y-157222051D01*
X258851071Y-172209529D02*
X258851071Y-172209535D01*
X258851071Y-172209527D02*
X258851070Y-172209533D01*
X220922914Y-124719423D02*
X220922916Y-124719425D01*
%TO.N,pinky_mod*%
X182980955Y-176811152D02*
X182605870Y-174683971D01*
X182980955Y-176811152D02*
X179360773Y-174276272D01*
X182605870Y-174683971D02*
X182605867Y-174683971D01*
X179360773Y-174276272D02*
X179285236Y-173847883D01*
%TO.N,pinky_bottom*%
X179594807Y-157607405D02*
X179219742Y-155480216D01*
X179219742Y-155480216D02*
X179219737Y-155480209D01*
X179594807Y-157607405D02*
X175974648Y-155072522D01*
X175974648Y-155072522D02*
X175899092Y-154644130D01*
%TO.N,pinky_home*%
X176208663Y-138403650D02*
X175833592Y-136276469D01*
X172588497Y-135868777D02*
X172512959Y-135440385D01*
X175833592Y-136276469D02*
X175833583Y-136276468D01*
X176208663Y-138403650D02*
X172588497Y-135868777D01*
%TO.N,pinky_top*%
X172822532Y-119199890D02*
X172447453Y-117072714D01*
X172447453Y-117072714D02*
X172447455Y-117072715D01*
X172822532Y-119199890D02*
X169202357Y-116665025D01*
X169202357Y-116665025D02*
X169126822Y-116236633D01*
%TO.N,P16*%
X278236755Y-176128699D02*
X278236755Y-176128700D01*
X277054349Y-124340030D02*
X277054351Y-124340028D01*
X275409356Y-124340032D02*
X277054349Y-124340030D01*
X243614352Y-138792030D02*
X243614352Y-125710034D01*
X243614352Y-158292038D02*
X243614342Y-145210031D01*
X243614348Y-119292038D02*
X243614351Y-106210035D01*
X265943698Y-171654391D02*
X278236755Y-176128699D01*
%TO.N,ring_mod*%
X201614754Y-169784096D02*
X198085237Y-167124422D01*
X201314134Y-167645118D02*
X201314134Y-167645113D01*
X201614754Y-169784096D02*
X201314134Y-167645118D01*
X198085237Y-167124422D02*
X198024712Y-166693655D01*
%TO.N,ring_bottom*%
X198600267Y-148334893D02*
X198600265Y-148334889D01*
X198900884Y-150473882D02*
X198600267Y-148334893D01*
X195371376Y-147814202D02*
X195310835Y-147383440D01*
X198900884Y-150473882D02*
X195371376Y-147814202D01*
%TO.N,ring_home*%
X192657496Y-128503971D02*
X192596948Y-128073206D01*
X196187000Y-131163640D02*
X192657496Y-128503971D01*
X196187000Y-131163640D02*
X195886389Y-129024663D01*
X195886389Y-129024663D02*
X195886385Y-129024665D01*
%TO.N,ring_top*%
X193473119Y-111853407D02*
X189943629Y-109193747D01*
X189943629Y-109193747D02*
X189883091Y-108762983D01*
X193473119Y-111853407D02*
X193172514Y-109714440D01*
X193172514Y-109714440D02*
X193172518Y-109714443D01*
%TO.N,P10*%
X264610618Y-129005066D02*
X262826111Y-130789571D01*
X277054361Y-126880036D02*
X275409359Y-126880035D01*
X269608014Y-129005066D02*
X269617404Y-129014455D01*
X282881650Y-175351378D02*
X284267713Y-178323796D01*
X296560761Y-182798093D02*
X296560758Y-182798094D01*
X262826111Y-168110713D02*
X282881650Y-175351378D01*
X275409359Y-126880035D02*
X275409356Y-126880031D01*
X284267702Y-178323781D02*
X296560761Y-182798093D01*
X269069629Y-129005064D02*
X264610618Y-129005066D01*
X269069629Y-129005064D02*
X269608014Y-129005066D01*
X262826111Y-130789571D02*
X262826111Y-168110713D01*
%TO.N,middle_mod*%
X220507456Y-164099411D02*
X216977950Y-161439745D01*
X216977950Y-161439745D02*
X216917414Y-161008983D01*
X220507456Y-164099411D02*
X220206844Y-161960437D01*
X220206844Y-161960437D02*
X220206843Y-161960437D01*
%TO.N,middle_bottom*%
X217793581Y-144789185D02*
X214264088Y-142129520D01*
X217492972Y-142650212D02*
X217492970Y-142650211D01*
X217793581Y-144789185D02*
X217492972Y-142650212D01*
X214264088Y-142129520D02*
X214203540Y-141698760D01*
%TO.N,middle_home*%
X215079709Y-125478966D02*
X211550200Y-122819289D01*
X215079709Y-125478966D02*
X214779100Y-123339988D01*
X214779100Y-123339988D02*
X214779095Y-123339991D01*
X211550200Y-122819289D02*
X211489671Y-122388528D01*
%TO.N,middle_top*%
X212365829Y-106168737D02*
X212065221Y-104029759D01*
X212365829Y-106168737D02*
X208836330Y-103509075D01*
X208836330Y-103509075D02*
X208775796Y-103078303D01*
X212065221Y-104029759D02*
X212065220Y-104029758D01*
%TO.N,P20*%
X143880830Y-163386872D02*
X146152500Y-176270125D01*
X277054354Y-111640034D02*
X277054354Y-111640031D01*
X140494681Y-144183118D02*
X142766356Y-157066369D01*
X137108551Y-124979369D02*
X139380212Y-137862616D01*
X139380212Y-137862616D02*
X139380213Y-137862618D01*
X142766356Y-157066369D02*
X142766362Y-157066373D01*
X149538643Y-195473882D02*
X149538631Y-195473885D01*
X146152500Y-176270125D02*
X146152507Y-176270126D01*
X275409358Y-111640033D02*
X277054354Y-111640034D01*
X147266962Y-182590632D02*
X149538643Y-195473882D01*
%TO.N,index_bottom*%
X239092646Y-145512622D02*
X238941972Y-143357883D01*
X235757265Y-142613222D02*
X235726918Y-142179281D01*
X239092646Y-145512622D02*
X235757265Y-142613222D01*
%TO.N,index_home*%
X237732391Y-126060129D02*
X237581715Y-123905385D01*
X234397010Y-123160723D02*
X234366661Y-122726787D01*
X237732391Y-126060129D02*
X234397010Y-123160723D01*
%TO.N,index_top*%
X236372136Y-106607622D02*
X236221468Y-104452885D01*
X233036749Y-103708219D02*
X233006416Y-103274288D01*
X236372136Y-106607622D02*
X233036749Y-103708219D01*
%TO.N,P19*%
X168395084Y-190118123D02*
X168395084Y-190118121D01*
X166123420Y-177234865D02*
X168395084Y-190118123D01*
X161622796Y-151710617D02*
X161622799Y-151710617D01*
X275409361Y-114180029D02*
X277054357Y-114180027D01*
X155965010Y-119623617D02*
X155965006Y-119623611D01*
X159351138Y-138827364D02*
X161622796Y-151710617D01*
X162737283Y-158031124D02*
X165008960Y-170914374D01*
X165008960Y-170914374D02*
X165008963Y-170914369D01*
X277054357Y-114180027D02*
X277054355Y-114180031D01*
X158236670Y-132506864D02*
X155965010Y-119623617D01*
%TO.N,inner_bottom*%
X257164343Y-144595033D02*
X257164353Y-144160041D01*
X260289354Y-147720033D02*
X260289341Y-145560036D01*
X260289354Y-147720033D02*
X257164343Y-144595033D01*
%TO.N,inner_home*%
X257164354Y-125095039D02*
X257164352Y-124660035D01*
X260289348Y-128220037D02*
X260289343Y-126060041D01*
X260289348Y-128220037D02*
X257164354Y-125095039D01*
%TO.N,inner_top*%
X260289344Y-108720039D02*
X257164349Y-105595035D01*
X257164349Y-105595035D02*
X257164355Y-105160036D01*
X260289344Y-108720039D02*
X260289345Y-106560036D01*
%TO.N,inner_cluster*%
X250789258Y-187020431D02*
X252818992Y-187759196D01*
X254794619Y-185152714D02*
X255203372Y-185301494D01*
X254794613Y-185152699D02*
X250789258Y-187020431D01*
X255203376Y-185301489D02*
X254794613Y-185152699D01*
X252818986Y-187759207D02*
X252818989Y-187759208D01*
%TO.N,home_cluster*%
X274180295Y-189071884D02*
X274589062Y-189220665D01*
X272204682Y-191678367D02*
X270174943Y-190939607D01*
X270174942Y-190939608D02*
X274180295Y-189071884D01*
X270174943Y-190939607D02*
X270174942Y-190939608D01*
%TO.N,P18*%
X277054351Y-116720034D02*
X277054355Y-116720041D01*
X275409358Y-116720031D02*
X277054351Y-116720034D01*
X183859497Y-163263692D02*
X182038830Y-150309003D01*
X186573362Y-182573925D02*
X184752708Y-169619234D01*
X179324957Y-130998783D02*
X179324958Y-130998781D01*
X178431749Y-124643246D02*
X176611091Y-111688556D01*
X176611091Y-111688556D02*
X176611086Y-111688552D01*
X182038830Y-150309003D02*
X182038831Y-150309006D01*
X181145617Y-143953472D02*
X179324957Y-130998783D01*
X184752708Y-169619234D02*
X184752705Y-169619236D01*
%TO.N,outer_cluster*%
X292504300Y-195741278D02*
X292913079Y-195890055D01*
X290528686Y-198347766D02*
X290528682Y-198347762D01*
X288498948Y-197608996D02*
X292504300Y-195741278D01*
X288498948Y-197608996D02*
X290528686Y-198347766D01*
%TO.N,P9*%
X262376113Y-156053975D02*
X262376110Y-130603179D01*
X270169356Y-127229533D02*
X270169356Y-126880034D01*
X295659410Y-200215203D02*
X291881592Y-201976812D01*
X262360511Y-177473353D02*
X262369768Y-177482610D01*
X273557592Y-195307424D02*
X277335400Y-193545798D01*
X164420282Y-172350520D02*
X181654412Y-169311667D01*
X219446970Y-156553568D02*
X219446968Y-156553566D01*
X219747571Y-158692549D02*
X219446970Y-156553568D01*
X181654412Y-169311667D02*
X181657751Y-169306920D01*
X258887015Y-159543060D02*
X262376113Y-156053975D01*
X293629667Y-199476428D02*
X295659407Y-200215198D01*
X262360510Y-156069575D02*
X262360511Y-177473353D01*
X268524364Y-126880039D02*
X270169355Y-126880036D01*
X200554259Y-162238258D02*
X200554259Y-162238253D01*
X162801283Y-174662664D02*
X163176376Y-176789853D01*
X262376113Y-156053975D02*
X262360510Y-156069575D01*
X219446954Y-156553579D02*
X222436444Y-159543067D01*
X257949706Y-189626634D02*
X262369768Y-177482610D01*
X181657753Y-169306919D02*
X185377029Y-164371268D01*
X200554254Y-162238252D02*
X203107526Y-158849928D01*
X200854869Y-164377238D02*
X200554259Y-162238258D01*
X257949714Y-189626628D02*
X257949710Y-189626631D01*
X277335405Y-193545795D02*
X277335400Y-193545798D01*
X222436444Y-159543067D02*
X258887015Y-159543060D01*
X162801284Y-174662668D02*
X164420282Y-172350520D01*
X275305664Y-192807033D02*
X277335405Y-193545795D01*
X262376110Y-130603179D02*
X264424226Y-128555064D01*
X255919981Y-188887867D02*
X257949716Y-189626629D01*
X257949716Y-189626629D02*
X273557592Y-195307424D01*
X181657760Y-169306916D02*
X181657752Y-169306927D01*
X295659407Y-200215198D02*
X295659410Y-200215203D01*
X291881592Y-201976812D02*
X273557592Y-195307424D01*
X163176376Y-176789853D02*
X163176373Y-176789859D01*
X185377029Y-164371268D02*
X200554254Y-162238252D01*
X268843818Y-128555064D02*
X270169356Y-127229533D01*
X203107526Y-158849928D02*
X219446959Y-156553571D01*
X264424226Y-128555064D02*
X268843818Y-128555064D01*
X182032830Y-171434103D02*
X181657760Y-169306916D01*
X270169355Y-126880036D02*
X270169359Y-126880033D01*
%TO.N,P8*%
X178646685Y-152230344D02*
X178271614Y-150103162D01*
X200393667Y-139539705D02*
X216733086Y-137243360D01*
X178271614Y-150103162D02*
X178271616Y-150103159D01*
X238711774Y-140065921D02*
X238561095Y-137911181D01*
X161019379Y-153167846D02*
X178253517Y-150129004D01*
X263754918Y-123076581D02*
X268905898Y-123076590D01*
X159415156Y-155458922D02*
X159415156Y-155458919D01*
X260289345Y-142260039D02*
X260289355Y-140100031D01*
X260289339Y-140100039D02*
X261926110Y-138463263D01*
X197840376Y-142928031D02*
X200393667Y-139539705D01*
X238561095Y-137911180D02*
X240749954Y-140100034D01*
X261926110Y-138463263D02*
X261926112Y-124905379D01*
X182000989Y-145154108D02*
X197840376Y-142928031D01*
X268905898Y-123076590D02*
X268905910Y-123076584D01*
X268905910Y-123076584D02*
X270169357Y-124340033D01*
X216733090Y-137243354D02*
X216733083Y-137243359D01*
X178271614Y-150103161D02*
X182000989Y-145154108D01*
X178253517Y-150129004D02*
X178271614Y-150103161D01*
X159415155Y-155458916D02*
X161019379Y-153167846D01*
X261926112Y-124905379D02*
X263754918Y-123076581D01*
X159790232Y-157586104D02*
X159415156Y-155458922D01*
X197840376Y-142928029D02*
X197840376Y-142928031D01*
X240749954Y-140100034D02*
X260289339Y-140100039D01*
X217033699Y-139382332D02*
X216733090Y-137243354D01*
X219069285Y-139274187D02*
X238561095Y-137911181D01*
X216733086Y-137243360D02*
X219069285Y-139274187D01*
X198140995Y-145067012D02*
X197840376Y-142928029D01*
X268524356Y-124340033D02*
X270169357Y-124340033D01*
%TO.N,P7*%
X174873540Y-130891062D02*
X174885462Y-130899408D01*
X237200844Y-118458679D02*
X239342201Y-120600037D01*
X175260555Y-133026598D02*
X174885469Y-130899414D01*
X195427109Y-125756786D02*
X195126505Y-123617805D01*
X197679781Y-120229481D02*
X214019206Y-117933131D01*
X260289337Y-120600038D02*
X260352799Y-120536581D01*
X195126505Y-123617805D02*
X195126499Y-123617808D01*
X268905909Y-120536586D02*
X270169357Y-121800034D01*
X260289349Y-122760041D02*
X260289340Y-120600038D01*
X270169349Y-121800029D02*
X270169357Y-121800034D01*
X157659696Y-133926323D02*
X174873540Y-130891062D01*
X174885469Y-130899414D02*
X174885471Y-130899408D01*
X268524363Y-121800031D02*
X270169349Y-121800029D01*
X156404103Y-138382352D02*
X156029011Y-136255169D01*
X156029011Y-136255169D02*
X156029016Y-136255165D01*
X214019204Y-117933134D02*
X214019214Y-117933124D01*
X156029013Y-136255167D02*
X157659696Y-133926323D01*
X174885462Y-130899408D02*
X178624966Y-125936935D01*
X239342201Y-120600037D02*
X260289337Y-120600038D01*
X214019206Y-117933131D02*
X216304713Y-119919872D01*
X237351529Y-120613421D02*
X237200841Y-118458680D01*
X216304713Y-119919872D02*
X237200843Y-118458683D01*
X214319824Y-120072100D02*
X214019204Y-117933134D01*
X260352799Y-120536581D02*
X268905905Y-120536586D01*
X178624966Y-125936935D02*
X195126494Y-123617795D01*
X268905905Y-120536586D02*
X268905909Y-120536586D01*
X195126494Y-123617795D02*
X197679781Y-120229481D01*
%TO.N,P6*%
X213541805Y-100567027D02*
X235839144Y-99007857D01*
X235991261Y-101160920D02*
X235840592Y-99006182D01*
X211305340Y-98622899D02*
X213541805Y-100567027D01*
X235840595Y-99006180D02*
X237941838Y-101107416D01*
X235839144Y-99007857D02*
X235840595Y-99006180D01*
X153017959Y-119178597D02*
X152642882Y-117051421D01*
X208355354Y-100210990D02*
X209344397Y-98898491D01*
X237941838Y-101107416D02*
X260281973Y-101107422D01*
X263766273Y-118058740D02*
X268968062Y-118058733D01*
X171499337Y-111695662D02*
X171499335Y-111695658D01*
X261951519Y-116243980D02*
X263766273Y-118058740D01*
X268524357Y-119260031D02*
X270169357Y-119260032D01*
X268968062Y-118058733D02*
X268968061Y-118058736D01*
X192412626Y-104307575D02*
X193976862Y-102231746D01*
X211605941Y-100761879D02*
X211305345Y-98622902D01*
X192412631Y-104307573D02*
X192412627Y-104307576D01*
X260289345Y-101100036D02*
X261951519Y-102762205D01*
X260289334Y-103260038D02*
X260289339Y-101100037D01*
X193976862Y-102231746D02*
X208355354Y-100210990D01*
X152642882Y-117051421D02*
X152642876Y-117051413D01*
X152642875Y-117051414D02*
X154279388Y-114714231D01*
X175248927Y-106719771D02*
X192412626Y-104307575D01*
X211305345Y-98622902D02*
X211305334Y-98622900D01*
X260281973Y-101107422D02*
X260289345Y-101100036D01*
X261951519Y-102762205D02*
X261951519Y-116243980D01*
X192713240Y-106446560D02*
X192412631Y-104307573D01*
X154279388Y-114714231D02*
X171479064Y-111681473D01*
X171479064Y-111681473D02*
X171499329Y-111695655D01*
X268968061Y-118058736D02*
X270169357Y-119260032D01*
X171499329Y-111695655D02*
X175248927Y-106719771D01*
X171874407Y-113822846D02*
X171499337Y-111695662D01*
X209344397Y-98898491D02*
X211305337Y-98622898D01*
%TO.N,RAW*%
X285644808Y-148115253D02*
X285594005Y-148064454D01*
X282411803Y-128804056D02*
X282411803Y-100787853D01*
X287295803Y-138336257D02*
X287295805Y-133688058D01*
X277054351Y-98940031D02*
X275409358Y-98940028D01*
X281834805Y-100210856D02*
X276680180Y-100210856D01*
X285644805Y-149359855D02*
X285644808Y-148115253D01*
X275409358Y-98940028D02*
X275409359Y-98940032D01*
X285129607Y-147600056D02*
X285129606Y-140502455D01*
X287214352Y-149160030D02*
X286689581Y-149160032D01*
X287295805Y-133688058D02*
X282411803Y-128804056D01*
X282411803Y-100787853D02*
X281834805Y-100210856D01*
X276680180Y-100210856D02*
X275409359Y-98940032D01*
X285594005Y-148064454D02*
X285129607Y-147600056D01*
X286689581Y-149160032D02*
X285594005Y-148064454D01*
X285129606Y-140502455D02*
X287295803Y-138336257D01*
%TO.N,GND*%
X274639356Y-153010029D02*
X274639354Y-149766257D01*
X274639352Y-138682026D02*
X274639352Y-146810044D01*
X277054358Y-101480032D02*
X275409356Y-101480032D01*
X274639352Y-146810044D02*
X274639354Y-149766257D01*
X270169354Y-106560027D02*
X270169356Y-106560033D01*
X268524362Y-104020034D02*
X270169354Y-104020034D01*
X275329346Y-136722026D02*
X275329354Y-137992040D01*
X268524355Y-106560029D02*
X270169354Y-106560027D01*
X275329350Y-137992025D02*
X274639352Y-138682026D01*
%TO.N,RST*%
X270939352Y-143313506D02*
X272309806Y-141943054D01*
X275546502Y-141943056D02*
X278558204Y-141943056D01*
X276680186Y-105290857D02*
X275409354Y-104020028D01*
X280920403Y-105290854D02*
X276680186Y-105290857D01*
X277054351Y-104020034D02*
X275409359Y-104020035D01*
X281961805Y-106332255D02*
X280920403Y-105290854D01*
X270939351Y-146810049D02*
X270939353Y-149766252D01*
X270939353Y-153010034D02*
X270939353Y-149766252D01*
X270939351Y-146810049D02*
X270939352Y-143313506D01*
X275409359Y-104020035D02*
X275409354Y-104020028D01*
X281961802Y-138539452D02*
X281961805Y-106332255D01*
X278558204Y-141943056D02*
X281961802Y-138539452D01*
X272309806Y-141943054D02*
X273732206Y-141943058D01*
%TO.N,VCC*%
X273986202Y-132193173D02*
X273986203Y-107983184D01*
X272789348Y-133390027D02*
X273986202Y-132193173D01*
X273986203Y-107983184D02*
X275409356Y-106560030D01*
X275409356Y-106560030D02*
X277054357Y-106560033D01*
%TO.N,P21*%
X277054356Y-109100035D02*
X277054356Y-109100033D01*
X275409356Y-109100033D02*
X277054356Y-109100035D01*
%TO.N,P1*%
X272767004Y-101537680D02*
X270169358Y-98940032D01*
X277869353Y-136722039D02*
X277869339Y-137992025D01*
X275205404Y-130640056D02*
X276602403Y-132037055D01*
X268524355Y-98940034D02*
X270169356Y-98940030D01*
X276602403Y-132037055D02*
X276602407Y-136939258D01*
X277655177Y-137992029D02*
X277869350Y-137992028D01*
X270169356Y-98940030D02*
X270169358Y-98940032D01*
X272767004Y-130640057D02*
X272767004Y-101537680D01*
X276602407Y-136939258D02*
X277655177Y-137992029D01*
%TO.N,P0*%
X270169353Y-101480033D02*
X270169355Y-101480033D01*
X268524362Y-101480035D02*
X270169353Y-101480033D01*
%TO.N,P2*%
X267709347Y-136722030D02*
X267709345Y-137992042D01*
X271497007Y-138158457D02*
X271497002Y-110427684D01*
X270169350Y-109100028D02*
X270169358Y-109100033D01*
X271497002Y-110427684D02*
X270169358Y-109100033D01*
X267709348Y-137992029D02*
X268637777Y-138920453D01*
X268637777Y-138920453D02*
X270735006Y-138920454D01*
X268524358Y-109100027D02*
X270169350Y-109100028D01*
X270735006Y-138920454D02*
X271497007Y-138158457D01*
%TO.N,P3*%
X271047006Y-128626257D02*
X271047006Y-112517687D01*
X268982402Y-136725080D02*
X268982404Y-130690853D01*
X268524355Y-111640034D02*
X270169350Y-111640033D01*
X271047006Y-112517687D02*
X270169352Y-111640034D01*
X270169350Y-111640033D02*
X270169352Y-111640034D01*
X270249353Y-137992028D02*
X268982402Y-136725080D01*
X268982404Y-130690853D02*
X271047006Y-128626257D01*
X270249344Y-136722048D02*
X270249350Y-137992031D01*
%TO.N,P4*%
X270169353Y-114180031D02*
X270169353Y-114180029D01*
X268524359Y-114180036D02*
X270169353Y-114180031D01*
%TO.N,P5*%
X270169355Y-116720035D02*
X270169357Y-116720033D01*
X268524357Y-116720035D02*
X270169355Y-116720035D01*
%TO.N,BPOS*%
X287214353Y-152160031D02*
X284679604Y-149625279D01*
X284679605Y-140316059D02*
X286289347Y-138706322D01*
X286289347Y-138706322D02*
X286289343Y-135410036D01*
X284679604Y-149625279D02*
X284679605Y-140316059D01*
%TO.N,1*%
X265169365Y-98940030D02*
X267074355Y-98940034D01*
%TO.N,2*%
X265169356Y-101480029D02*
X267074355Y-101480029D01*
X267074355Y-101480029D02*
X267074357Y-101480030D01*
%TO.N,3*%
X265169358Y-104020034D02*
X267074351Y-104020029D01*
%TO.N,4*%
X265169356Y-106560034D02*
X267074359Y-106560033D01*
%TO.N,5*%
X265169355Y-109100034D02*
X267074355Y-109100034D01*
%TO.N,6*%
X265169354Y-111640033D02*
X267074348Y-111640034D01*
X267074348Y-111640034D02*
X267074356Y-111640041D01*
%TO.N,7*%
X265169357Y-114180033D02*
X267074346Y-114180035D01*
X267074346Y-114180035D02*
X267074356Y-114180017D01*
%TO.N,8*%
X265169358Y-116720032D02*
X267074356Y-116720034D01*
%TO.N,9*%
X265169354Y-119260032D02*
X267074352Y-119260033D01*
X267074352Y-119260033D02*
X267074355Y-119260035D01*
%TO.N,10*%
X265169355Y-121800034D02*
X267074350Y-121800034D01*
%TO.N,11*%
X267074355Y-124340038D02*
X267074356Y-124340036D01*
X265169357Y-124340035D02*
X267074355Y-124340038D01*
%TO.N,12*%
X265169362Y-126880035D02*
X267074356Y-126880030D01*
%TO.N,13*%
X280409347Y-126880033D02*
X278504357Y-126880029D01*
%TO.N,14*%
X278504358Y-124340034D02*
X278504358Y-124340033D01*
X280409356Y-124340035D02*
X278504358Y-124340034D01*
%TO.N,15*%
X280409358Y-121800034D02*
X278504361Y-121800034D01*
%TO.N,16*%
X280409357Y-119260033D02*
X278504354Y-119260032D01*
%TO.N,17*%
X280409357Y-116720033D02*
X278504357Y-116720031D01*
%TO.N,18*%
X278504368Y-114180035D02*
X278504357Y-114180025D01*
X280409356Y-114180032D02*
X278504368Y-114180035D01*
%TO.N,19*%
X280409358Y-111640036D02*
X278504370Y-111640034D01*
X278504370Y-111640034D02*
X278504355Y-111640045D01*
%TO.N,20*%
X280409360Y-109100033D02*
X278504355Y-109100030D01*
%TO.N,21*%
X280409359Y-106560030D02*
X278504361Y-106560033D01*
X278504361Y-106560033D02*
X278504359Y-106560029D01*
%TO.N,22*%
X280409359Y-104020032D02*
X278504362Y-104020034D01*
%TO.N,23*%
X280409357Y-101480035D02*
X278504358Y-101480028D01*
X278504358Y-101480028D02*
X278504357Y-101480030D01*
%TO.N,24*%
X280409352Y-98940032D02*
X278504355Y-98940032D01*
%TO.N,O1*%
X267709339Y-135706035D02*
X267709349Y-133390035D01*
%TO.N,O2*%
X270249348Y-135706039D02*
X270249347Y-133390029D01*
%TO.N,O4*%
X275329349Y-135706039D02*
X275329349Y-133390040D01*
%TO.N,O5*%
X277869346Y-135706036D02*
X277869355Y-133390033D01*
%TD*%
M02*
