%TF.GenerationSoftware,KiCad,Pcbnew,8.0.2*%
%TF.CreationDate,2024-05-17T16:06:01-05:00*%
%TF.ProjectId,janus,6a616e75-732e-46b6-9963-61645f706362,v1.0.0*%
%TF.SameCoordinates,Original*%
%TF.FileFunction,Paste,Bot*%
%TF.FilePolarity,Positive*%
%FSLAX46Y46*%
G04 Gerber Fmt 4.6, Leading zero omitted, Abs format (unit mm)*
G04 Created by KiCad (PCBNEW 8.0.2) date 2024-05-17 16:06:01*
%MOMM*%
%LPD*%
G01*
G04 APERTURE LIST*
G04 Aperture macros list*
%AMRotRect*
0 Rectangle, with rotation*
0 The origin of the aperture is its center*
0 $1 length*
0 $2 width*
0 $3 Rotation angle, in degrees counterclockwise*
0 Add horizontal line*
21,1,$1,$2,0,0,$3*%
G04 Aperture macros list end*
%ADD10R,0.900000X0.900000*%
%ADD11R,1.250000X0.900000*%
%ADD12R,1.100000X1.800000*%
%ADD13R,1.200000X0.900000*%
%ADD14RotRect,2.600000X2.600000X10.000000*%
%ADD15RotRect,0.900000X1.200000X278.000000*%
%ADD16RotRect,2.600000X2.600000X8.000000*%
%ADD17R,2.600000X2.600000*%
%ADD18RotRect,0.900000X1.200000X160.000000*%
%ADD19RotRect,0.900000X1.200000X274.000000*%
%ADD20RotRect,0.900000X1.200000X280.000000*%
%ADD21RotRect,2.600000X2.600000X4.000000*%
%ADD22RotRect,2.600000X2.600000X250.000000*%
G04 APERTURE END LIST*
D10*
%TO.C,T1*%
X290389355Y-146210031D03*
X288189355Y-146210031D03*
X290389355Y-153610031D03*
X288189355Y-153610031D03*
D11*
X287214355Y-147660031D03*
X287214355Y-150660031D03*
X287214355Y-152160031D03*
%TD*%
D12*
%TO.C,B1*%
X274639354Y-146810049D03*
X274639354Y-153010031D03*
X270939354Y-146810049D03*
X270939354Y-153010031D03*
%TD*%
D13*
%TO.C,D20*%
X260289343Y-142260035D03*
X260289343Y-145560035D03*
%TD*%
D14*
%TO.C,S6*%
X164369587Y-167288316D03*
X177896062Y-165969433D03*
%TD*%
D15*
%TO.C,D12*%
X192713244Y-106446550D03*
X193172516Y-109714434D03*
%TD*%
D16*
%TO.C,S12*%
X177919304Y-120997078D03*
X191483567Y-120151063D03*
%TD*%
D17*
%TO.C,S22*%
X243614359Y-115610034D03*
X257164359Y-116660034D03*
%TD*%
D18*
%TO.C,D23*%
X255919974Y-188887868D03*
X252818978Y-187759200D03*
%TD*%
D15*
%TO.C,D15*%
X214319822Y-120072104D03*
X214779094Y-123339988D03*
%TD*%
D14*
%TO.C,S8*%
X157597291Y-128880805D03*
X171123766Y-127561922D03*
%TD*%
%TO.C,S4*%
X138740845Y-134236567D03*
X152267320Y-132917684D03*
%TD*%
D16*
%TO.C,S15*%
X199525891Y-134622618D03*
X213090154Y-133776603D03*
%TD*%
D14*
%TO.C,S1*%
X148899266Y-191847820D03*
X162425741Y-190528937D03*
%TD*%
D17*
%TO.C,S20*%
X243614348Y-154610041D03*
X257164348Y-155660041D03*
%TD*%
D19*
%TO.C,D19*%
X235991259Y-101160919D03*
X236221455Y-104452881D03*
%TD*%
D16*
%TO.C,S16*%
X196812021Y-115312393D03*
X210376284Y-114466378D03*
%TD*%
D20*
%TO.C,D3*%
X156404104Y-138382355D03*
X156977142Y-141632223D03*
%TD*%
D18*
%TO.C,D25*%
X293629679Y-199476428D03*
X290528691Y-198347762D03*
%TD*%
D20*
%TO.C,D5*%
X182032837Y-171434098D03*
X182605875Y-174683966D03*
%TD*%
D15*
%TO.C,D11*%
X195427113Y-125756766D03*
X195886385Y-129024650D03*
%TD*%
D20*
%TO.C,D7*%
X175260554Y-133026594D03*
X175833592Y-136276462D03*
%TD*%
D15*
%TO.C,D9*%
X200854867Y-164377227D03*
X201314139Y-167645111D03*
%TD*%
D14*
%TO.C,S7*%
X160983436Y-148084559D03*
X174509911Y-146765676D03*
%TD*%
D19*
%TO.C,D17*%
X238711775Y-140065917D03*
X238941971Y-143357879D03*
%TD*%
D16*
%TO.C,S9*%
X186060940Y-178927754D03*
X199625203Y-178081739D03*
%TD*%
D13*
%TO.C,D21*%
X260289345Y-122760032D03*
X260289345Y-126060032D03*
%TD*%
D16*
%TO.C,S13*%
X204953645Y-173243081D03*
X218517908Y-172397066D03*
%TD*%
D20*
%TO.C,D2*%
X159790241Y-157586100D03*
X160363279Y-160835968D03*
%TD*%
D14*
%TO.C,S3*%
X142126986Y-153440314D03*
X155653461Y-152121431D03*
%TD*%
D21*
%TO.C,S17*%
X222938872Y-153549022D03*
X236529110Y-153651264D03*
%TD*%
D20*
%TO.C,D6*%
X178646689Y-152230350D03*
X179219727Y-155480218D03*
%TD*%
D15*
%TO.C,D10*%
X198140994Y-145067013D03*
X198600266Y-148334897D03*
%TD*%
D14*
%TO.C,S2*%
X145513126Y-172644068D03*
X159039601Y-171325185D03*
%TD*%
D20*
%TO.C,D1*%
X163176368Y-176789856D03*
X163749406Y-180039724D03*
%TD*%
D17*
%TO.C,S21*%
X243614351Y-135110039D03*
X257164351Y-136160039D03*
%TD*%
D18*
%TO.C,D24*%
X275305667Y-192807037D03*
X272204679Y-191678371D03*
%TD*%
D16*
%TO.C,S14*%
X202239774Y-153932852D03*
X215804037Y-153086837D03*
%TD*%
D13*
%TO.C,D22*%
X260289346Y-103260033D03*
X260289346Y-106560033D03*
%TD*%
D22*
%TO.C,S24*%
X269403652Y-172913709D03*
X263782602Y-185287423D03*
%TD*%
%TO.C,S23*%
X250017977Y-168994542D03*
X244396928Y-181368258D03*
%TD*%
D20*
%TO.C,D4*%
X153017958Y-119178602D03*
X153590996Y-122428470D03*
%TD*%
D14*
%TO.C,S5*%
X167755715Y-186492059D03*
X181282190Y-185173176D03*
%TD*%
D21*
%TO.C,S18*%
X221578630Y-134096524D03*
X235168868Y-134198766D03*
%TD*%
D20*
%TO.C,D8*%
X171874419Y-113822842D03*
X172447457Y-117072710D03*
%TD*%
D15*
%TO.C,D13*%
X219747567Y-158692555D03*
X220206839Y-161960439D03*
%TD*%
D16*
%TO.C,S11*%
X180633192Y-140307312D03*
X194197455Y-139461297D03*
%TD*%
D15*
%TO.C,D16*%
X211605948Y-100761870D03*
X212065220Y-104029754D03*
%TD*%
D21*
%TO.C,S19*%
X220218374Y-114644026D03*
X233808612Y-114746268D03*
%TD*%
D15*
%TO.C,D14*%
X217033689Y-139382329D03*
X217492961Y-142650213D03*
%TD*%
D19*
%TO.C,D18*%
X237351522Y-120613414D03*
X237581718Y-123905376D03*
%TD*%
D22*
%TO.C,S25*%
X287727654Y-179583115D03*
X282106604Y-191956829D03*
%TD*%
D16*
%TO.C,S10*%
X183347060Y-159617530D03*
X196911323Y-158771515D03*
%TD*%
M02*
