%TF.GenerationSoftware,KiCad,Pcbnew,8.0.2*%
%TF.CreationDate,2024-06-23T16:01:54-05:00*%
%TF.ProjectId,janus,6a616e75-732e-46b6-9963-61645f706362,v1.0.0*%
%TF.SameCoordinates,Original*%
%TF.FileFunction,Copper,L1,Top*%
%TF.FilePolarity,Positive*%
%FSLAX46Y46*%
G04 Gerber Fmt 4.6, Leading zero omitted, Abs format (unit mm)*
G04 Created by KiCad (PCBNEW 8.0.2) date 2024-06-23 16:01:54*
%MOMM*%
%LPD*%
G01*
G04 APERTURE LIST*
G04 Aperture macros list*
%AMRotRect*
0 Rectangle, with rotation*
0 The origin of the aperture is its center*
0 $1 length*
0 $2 width*
0 $3 Rotation angle, in degrees counterclockwise*
0 Add horizontal line*
21,1,$1,$2,0,0,$3*%
%AMFreePoly0*
4,1,6,1.000000,0.000000,0.500000,-0.750000,-0.500000,-0.750000,-0.500000,0.750000,0.500000,0.750000,1.000000,0.000000,1.000000,0.000000,$1*%
%AMFreePoly1*
4,1,6,0.500000,-0.750000,-0.650000,-0.750000,-0.150000,0.000000,-0.650000,0.750000,0.500000,0.750000,0.500000,-0.750000,0.500000,-0.750000,$1*%
%AMFreePoly2*
4,1,6,0.600000,-0.250000,-0.600000,-0.250000,-0.600000,1.000000,0.000000,0.400000,0.600000,1.000000,0.600000,-0.250000,0.600000,-0.250000,$1*%
%AMFreePoly3*
4,1,6,0.600000,0.200000,0.000000,-0.400000,-0.600000,0.200000,-0.600000,0.400000,0.600000,0.400000,0.600000,0.200000,0.600000,0.200000,$1*%
G04 Aperture macros list end*
%TA.AperFunction,SMDPad,CuDef*%
%ADD10R,1.250000X0.900000*%
%TD*%
%TA.AperFunction,SMDPad,CuDef*%
%ADD11R,0.900000X0.900000*%
%TD*%
%TA.AperFunction,WasherPad*%
%ADD12C,1.000000*%
%TD*%
%TA.AperFunction,SMDPad,CuDef*%
%ADD13R,1.100000X1.800000*%
%TD*%
%TA.AperFunction,ComponentPad*%
%ADD14C,1.905000*%
%TD*%
%TA.AperFunction,SMDPad,CuDef*%
%ADD15R,1.200000X0.900000*%
%TD*%
%TA.AperFunction,ComponentPad*%
%ADD16R,1.778000X1.778000*%
%TD*%
%TA.AperFunction,SMDPad,CuDef*%
%ADD17RotRect,0.900000X1.200000X274.000000*%
%TD*%
%TA.AperFunction,ComponentPad*%
%ADD18RotRect,1.778000X1.778000X274.000000*%
%TD*%
%TA.AperFunction,SMDPad,CuDef*%
%ADD19RotRect,0.900000X1.200000X158.000000*%
%TD*%
%TA.AperFunction,ComponentPad*%
%ADD20RotRect,1.778000X1.778000X158.000000*%
%TD*%
%TA.AperFunction,SMDPad,CuDef*%
%ADD21RotRect,2.600000X2.600000X256.000000*%
%TD*%
%TA.AperFunction,ComponentPad*%
%ADD22C,0.800000*%
%TD*%
%TA.AperFunction,SMDPad,CuDef*%
%ADD23R,2.600000X2.600000*%
%TD*%
%TA.AperFunction,SMDPad,CuDef*%
%ADD24RotRect,2.600000X2.600000X2.000000*%
%TD*%
%TA.AperFunction,SMDPad,CuDef*%
%ADD25RotRect,2.600000X2.600000X4.000000*%
%TD*%
%TA.AperFunction,SMDPad,CuDef*%
%ADD26RotRect,0.900000X1.200000X272.000000*%
%TD*%
%TA.AperFunction,ComponentPad*%
%ADD27RotRect,1.778000X1.778000X272.000000*%
%TD*%
%TA.AperFunction,SMDPad,CuDef*%
%ADD28RotRect,2.600000X2.600000X240.000000*%
%TD*%
%TA.AperFunction,SMDPad,CuDef*%
%ADD29RotRect,2.600000X2.600000X248.000000*%
%TD*%
%TA.AperFunction,ComponentPad*%
%ADD30C,1.752600*%
%TD*%
%TA.AperFunction,SMDPad,CuDef*%
%ADD31FreePoly0,180.000000*%
%TD*%
%TA.AperFunction,SMDPad,CuDef*%
%ADD32FreePoly1,180.000000*%
%TD*%
%TA.AperFunction,SMDPad,CuDef*%
%ADD33FreePoly1,0.000000*%
%TD*%
%TA.AperFunction,SMDPad,CuDef*%
%ADD34FreePoly0,0.000000*%
%TD*%
%TA.AperFunction,SMDPad,CuDef*%
%ADD35RotRect,2.600000X2.600000X264.000000*%
%TD*%
%TA.AperFunction,SMDPad,CuDef*%
%ADD36RotRect,0.900000X1.200000X166.000000*%
%TD*%
%TA.AperFunction,ComponentPad*%
%ADD37RotRect,1.778000X1.778000X166.000000*%
%TD*%
%TA.AperFunction,ComponentPad*%
%ADD38O,1.200000X1.700000*%
%TD*%
%TA.AperFunction,ComponentPad*%
%ADD39R,1.200000X1.700000*%
%TD*%
%TA.AperFunction,SMDPad,CuDef*%
%ADD40RotRect,0.900000X1.200000X174.000000*%
%TD*%
%TA.AperFunction,ComponentPad*%
%ADD41RotRect,1.778000X1.778000X174.000000*%
%TD*%
%TA.AperFunction,SMDPad,CuDef*%
%ADD42RotRect,0.900000X1.200000X150.000000*%
%TD*%
%TA.AperFunction,ComponentPad*%
%ADD43RotRect,1.778000X1.778000X150.000000*%
%TD*%
%TA.AperFunction,SMDPad,CuDef*%
%ADD44FreePoly2,0.000000*%
%TD*%
%TA.AperFunction,SMDPad,CuDef*%
%ADD45FreePoly3,0.000000*%
%TD*%
%TA.AperFunction,ViaPad*%
%ADD46C,0.800000*%
%TD*%
%TA.AperFunction,Conductor*%
%ADD47C,0.250000*%
%TD*%
G04 APERTURE END LIST*
D10*
%TO.P,T1,3*%
%TO.N,N/C*%
X181617705Y-111218174D03*
%TO.P,T1,2*%
%TO.N,RAW*%
X181617706Y-112718189D03*
%TO.P,T1,1*%
%TO.N,BPOS*%
X181617705Y-115718174D03*
D11*
%TO.P,T1,*%
%TO.N,*%
X182592712Y-117168175D03*
X184792706Y-117168173D03*
D12*
X183692706Y-114968175D03*
X183692704Y-111968173D03*
D11*
X182592704Y-109768175D03*
X184792698Y-109768173D03*
%TD*%
D13*
%TO.P,B1,2*%
%TO.N,RST*%
X165642704Y-116568173D03*
X165642705Y-110368174D03*
%TO.P,B1,1*%
%TO.N,GND*%
X169342703Y-116568174D03*
X169342704Y-110368175D03*
%TD*%
D14*
%TO.P,D21,2*%
%TO.N,index_home*%
X136092692Y-111278175D03*
D15*
X136092692Y-109118175D03*
%TO.P,D21,1*%
%TO.N,P7*%
X136092692Y-105818175D03*
D16*
X136092692Y-103658175D03*
%TD*%
D14*
%TO.P,D8,2*%
%TO.N,pinky_home*%
X75273509Y-112750706D03*
D17*
X75122835Y-110595968D03*
%TO.P,D8,1*%
%TO.N,P7*%
X74892639Y-107304006D03*
D18*
X74741965Y-105149268D03*
%TD*%
D14*
%TO.P,D30,2*%
%TO.N,home_cluster*%
X168140271Y-171819176D03*
D19*
X170142988Y-172628327D03*
%TO.P,D30,1*%
%TO.N,P9*%
X173202694Y-173864529D03*
D20*
X175205411Y-174673680D03*
%TD*%
D14*
%TO.P,D22,2*%
%TO.N,index_top*%
X136092715Y-92078167D03*
D15*
X136092715Y-89918167D03*
%TO.P,D22,1*%
%TO.N,P6*%
X136092715Y-86618167D03*
D16*
X136092715Y-84458167D03*
%TD*%
D21*
%TO.P,S29,2*%
%TO.N,inner_cluster*%
X152044098Y-167420793D03*
D22*
%TO.P,S29,1*%
%TO.N,P19*%
X141609921Y-150854446D03*
D21*
X154303329Y-154019267D03*
%TD*%
D23*
%TO.P,S26,2*%
%TO.N,inner_top*%
X152167703Y-88518179D03*
%TO.P,S26,1*%
%TO.N,P20*%
X138617703Y-89568180D03*
D22*
X138617702Y-102650180D03*
%TD*%
D14*
%TO.P,D7,2*%
%TO.N,pinky_bottom*%
X76612830Y-131903928D03*
D17*
X76462156Y-129749190D03*
%TO.P,D7,1*%
%TO.N,P8*%
X76231960Y-126457228D03*
D18*
X76081286Y-124302490D03*
%TD*%
D24*
%TO.P,S12,2*%
%TO.N,ring_bottom*%
X93504690Y-127725663D03*
D22*
%TO.P,S12,1*%
%TO.N,P16*%
X80456147Y-142321951D03*
D24*
X79999592Y-129247919D03*
%TD*%
D23*
%TO.P,S22,2*%
%TO.N,index_top*%
X132967708Y-88518174D03*
%TO.P,S22,1*%
%TO.N,P19*%
X119417708Y-89568175D03*
D22*
X119417707Y-102650175D03*
%TD*%
D14*
%TO.P,D24,2*%
%TO.N,inner_bottom*%
X155292705Y-130478178D03*
D15*
X155292705Y-128318178D03*
%TO.P,D24,1*%
%TO.N,P8*%
X155292705Y-125018178D03*
D16*
X155292705Y-122858178D03*
%TD*%
D25*
%TO.P,S4,2*%
%TO.N,outer_top*%
X51415242Y-91603467D03*
%TO.P,S4,1*%
%TO.N,P15*%
X37971493Y-93596110D03*
D22*
X38884047Y-106646244D03*
%TD*%
D14*
%TO.P,D10,2*%
%TO.N,pinky_number*%
X72594871Y-74444241D03*
D17*
X72444197Y-72289503D03*
%TO.P,D10,1*%
%TO.N,P5*%
X72214001Y-68997541D03*
D18*
X72063327Y-66842803D03*
%TD*%
D14*
%TO.P,D17,2*%
%TO.N,middle_home*%
X115270255Y-111316070D03*
D26*
X115194872Y-109157386D03*
%TO.P,D17,1*%
%TO.N,P7*%
X115079704Y-105859396D03*
D27*
X115004321Y-103700712D03*
%TD*%
D14*
%TO.P,D13,2*%
%TO.N,ring_home*%
X96081953Y-111986140D03*
D26*
X96006570Y-109827456D03*
%TO.P,D13,1*%
%TO.N,P7*%
X95891402Y-106529466D03*
D27*
X95816019Y-104370782D03*
%TD*%
D14*
%TO.P,D2,2*%
%TO.N,outer_bottom*%
X57459604Y-133243257D03*
D17*
X57308930Y-131088519D03*
%TO.P,D2,1*%
%TO.N,P8*%
X57078734Y-127796557D03*
D18*
X56928060Y-125641819D03*
%TD*%
D14*
%TO.P,D12,2*%
%TO.N,ring_bottom*%
X96752020Y-131174446D03*
D26*
X96676637Y-129015762D03*
%TO.P,D12,1*%
%TO.N,P8*%
X96561469Y-125717772D03*
D27*
X96486086Y-123559088D03*
%TD*%
D25*
%TO.P,S9,2*%
%TO.N,pinky_top*%
X70568463Y-90264132D03*
%TO.P,S9,1*%
%TO.N,P14*%
X57124714Y-92256775D03*
D22*
X58037268Y-105306909D03*
%TD*%
D14*
%TO.P,D23,2*%
%TO.N,index_number*%
X136092711Y-72878176D03*
D15*
X136092711Y-70718176D03*
%TO.P,D23,1*%
%TO.N,P5*%
X136092711Y-67418176D03*
D16*
X136092711Y-65258176D03*
%TD*%
D14*
%TO.P,D15,2*%
%TO.N,ring_number*%
X94741818Y-73609537D03*
D26*
X94666435Y-71450853D03*
%TO.P,D15,1*%
%TO.N,P5*%
X94551267Y-68152863D03*
D27*
X94475884Y-65994179D03*
%TD*%
D28*
%TO.P,S31,2*%
%TO.N,outer_cluster*%
X190632435Y-180333009D03*
%TO.P,S31,1*%
%TO.N,P18*%
X196498108Y-168073374D03*
D22*
X185168764Y-161532373D03*
%TD*%
D23*
%TO.P,S23,2*%
%TO.N,index_number*%
X132967693Y-69318180D03*
%TO.P,S23,1*%
%TO.N,P19*%
X119417693Y-70368181D03*
D22*
X119417692Y-83450181D03*
%TD*%
D23*
%TO.P,S21,2*%
%TO.N,index_home*%
X132967704Y-107718175D03*
%TO.P,S21,1*%
%TO.N,P19*%
X119417704Y-108768176D03*
D22*
X119417703Y-121850176D03*
%TD*%
D14*
%TO.P,D16,2*%
%TO.N,middle_bottom*%
X115940319Y-130504371D03*
D26*
X115864936Y-128345687D03*
%TO.P,D16,1*%
%TO.N,P8*%
X115749768Y-125047697D03*
D27*
X115674385Y-122889013D03*
%TD*%
D29*
%TO.P,S30,2*%
%TO.N,home_cluster*%
X172611682Y-170255314D03*
D22*
%TO.P,S30,1*%
%TO.N,P20*%
X164584639Y-152398035D03*
D29*
X176714059Y-157298636D03*
%TD*%
D14*
%TO.P,D6,2*%
%TO.N,pinky_mod*%
X77952162Y-151057174D03*
D17*
X77801488Y-148902436D03*
%TO.P,D6,1*%
%TO.N,P9*%
X77571292Y-145610474D03*
D18*
X77420618Y-143455736D03*
%TD*%
D25*
%TO.P,S6,2*%
%TO.N,pinky_mod*%
X74586440Y-147723821D03*
%TO.P,S6,1*%
%TO.N,P14*%
X61142691Y-149716464D03*
D22*
X62055245Y-162766598D03*
%TD*%
D24*
%TO.P,S14,2*%
%TO.N,ring_top*%
X92164539Y-89349054D03*
D22*
%TO.P,S14,1*%
%TO.N,P16*%
X79115996Y-103945342D03*
D24*
X78659441Y-90871310D03*
%TD*%
D23*
%TO.P,S20,2*%
%TO.N,index_bottom*%
X132967711Y-126918179D03*
%TO.P,S20,1*%
%TO.N,P19*%
X119417711Y-127968180D03*
D22*
X119417710Y-141050180D03*
%TD*%
D25*
%TO.P,S3,2*%
%TO.N,outer_home*%
X52754557Y-110756681D03*
%TO.P,S3,1*%
%TO.N,P15*%
X39310808Y-112749324D03*
D22*
X40223362Y-125799458D03*
%TD*%
%TO.P,MCU1,VCC*%
%TO.N,VCC*%
X170112697Y-70718169D03*
%TO.P,MCU1,RST*%
%TO.N,RST*%
X170112697Y-68178170D03*
%TO.P,MCU1,P21*%
%TO.N,P21*%
X170112697Y-73258170D03*
%TO.P,MCU1,P20*%
%TO.N,P20*%
X170112698Y-75798169D03*
%TO.P,MCU1,P19*%
%TO.N,P19*%
X170112699Y-78338168D03*
%TO.P,MCU1,P18*%
%TO.N,P18*%
X170112699Y-80878169D03*
%TO.P,MCU1,P16*%
%TO.N,P16*%
X170112697Y-88498170D03*
%TO.P,MCU1,P15*%
%TO.N,P15*%
X170112698Y-83418170D03*
%TO.P,MCU1,P14*%
%TO.N,P14*%
X170112701Y-85958165D03*
%TO.P,MCU1,P10*%
%TO.N,P10*%
X170112698Y-91038169D03*
%TO.P,MCU1,P9*%
%TO.N,P9*%
X164872698Y-91038170D03*
%TO.P,MCU1,P8*%
%TO.N,P8*%
X164872695Y-88498165D03*
%TO.P,MCU1,P7*%
%TO.N,P7*%
X164872699Y-85958168D03*
%TO.P,MCU1,P6*%
%TO.N,P6*%
X164872699Y-83418169D03*
%TO.P,MCU1,P5*%
%TO.N,P5*%
X164872699Y-80878168D03*
%TO.P,MCU1,P4*%
%TO.N,P4*%
X164872698Y-78338169D03*
%TO.P,MCU1,P3*%
%TO.N,P3*%
X164872697Y-75798170D03*
%TO.P,MCU1,P2*%
%TO.N,P2*%
X164872697Y-73258169D03*
%TO.P,MCU1,P1*%
%TO.N,P1*%
X164872698Y-63098169D03*
%TO.P,MCU1,P0*%
%TO.N,P0*%
X164872699Y-65638168D03*
%TO.P,MCU1,GND*%
%TO.N,GND*%
X170112701Y-65638173D03*
X164872698Y-70718168D03*
X164872695Y-68178173D03*
%TO.P,MCU1,B+*%
%TO.N,RAW*%
X170112698Y-63098168D03*
D30*
%TO.P,MCU1,*%
%TO.N,17*%
X175112701Y-80878170D03*
%TO.N,14*%
X175112699Y-88498168D03*
%TO.N,19*%
X175112699Y-75798168D03*
%TO.N,21*%
X175112699Y-70718170D03*
%TO.N,22*%
X175112699Y-68178174D03*
%TO.N,20*%
X175112698Y-73258169D03*
%TO.N,23*%
X175112698Y-65638169D03*
%TO.N,15*%
X175112697Y-85958170D03*
%TO.N,16*%
X175112697Y-83418168D03*
%TO.N,18*%
X175112697Y-78338169D03*
%TO.N,24*%
X175112690Y-63098170D03*
%TO.N,13*%
X175112683Y-91038167D03*
D31*
X173207699Y-91038169D03*
%TO.N,20*%
X173207699Y-73258168D03*
%TO.N,22*%
X173207699Y-68178172D03*
%TO.N,24*%
X173207699Y-63098166D03*
%TO.N,14*%
X173207698Y-88498168D03*
%TO.N,15*%
X173207698Y-85958169D03*
%TO.N,16*%
X173207698Y-83418170D03*
%TO.N,23*%
X173207698Y-65638169D03*
%TO.N,17*%
X173207697Y-80878169D03*
%TO.N,19*%
X173207697Y-75798170D03*
%TO.N,18*%
X173207695Y-78338168D03*
%TO.N,21*%
X173207695Y-70718168D03*
D32*
%TO.N,P21*%
X171757699Y-73258169D03*
%TO.N,P16*%
X171757693Y-88498168D03*
%TO.N,P18*%
X171757694Y-80878169D03*
%TO.N,RST*%
X171757693Y-68178170D03*
%TO.N,RAW*%
X171757693Y-63098169D03*
%TO.N,P10*%
X171757692Y-91038169D03*
%TO.N,P14*%
X171757692Y-85958169D03*
%TO.N,P15*%
X171757692Y-83418169D03*
%TO.N,P20*%
X171757692Y-75798176D03*
%TO.N,VCC*%
X171757692Y-70718168D03*
%TO.N,GND*%
X171757692Y-65638168D03*
%TO.N,P19*%
X171757691Y-78338155D03*
D33*
%TO.N,P2*%
X163227696Y-73258177D03*
%TO.N,P3*%
X163227695Y-75798169D03*
%TO.N,P0*%
X163227695Y-65638170D03*
%TO.N,P8*%
X163227694Y-88498168D03*
%TO.N,P6*%
X163227694Y-83418169D03*
%TO.N,P4*%
X163227694Y-78338169D03*
%TO.N,GND*%
X163227694Y-70718169D03*
%TO.N,P1*%
X163227694Y-63098169D03*
%TO.N,P9*%
X163227693Y-91038168D03*
%TO.N,P7*%
X163227693Y-85958169D03*
%TO.N,GND*%
X163227692Y-68178171D03*
%TO.N,P5*%
X163227691Y-80878169D03*
D34*
%TO.N,9*%
X161777701Y-83418170D03*
%TO.N,6*%
X161777701Y-75798170D03*
%TO.N,7*%
X161777699Y-78338168D03*
%TO.N,5*%
X161777699Y-73258169D03*
%TO.N,11*%
X161777698Y-88498169D03*
%TO.N,4*%
X161777698Y-70718168D03*
%TO.N,3*%
X161777698Y-68178169D03*
%TO.N,2*%
X161777698Y-65638170D03*
%TO.N,12*%
X161777697Y-91038172D03*
%TO.N,10*%
X161777697Y-85958166D03*
%TO.N,8*%
X161777697Y-80878170D03*
%TO.N,1*%
X161777697Y-63098169D03*
D30*
X159872713Y-63098171D03*
%TO.N,12*%
X159872706Y-91038168D03*
%TO.N,6*%
X159872699Y-75798169D03*
%TO.N,4*%
X159872699Y-70718170D03*
%TO.N,3*%
X159872699Y-68178168D03*
%TO.N,11*%
X159872698Y-88498169D03*
%TO.N,8*%
X159872698Y-80878169D03*
%TO.N,10*%
X159872697Y-85958164D03*
%TO.N,9*%
X159872697Y-83418168D03*
%TO.N,7*%
X159872697Y-78338170D03*
%TO.N,2*%
X159872697Y-65638170D03*
%TO.N,5*%
X159872695Y-73258168D03*
%TD*%
D25*
%TO.P,S8,2*%
%TO.N,pinky_home*%
X71907791Y-109417371D03*
%TO.P,S8,1*%
%TO.N,P14*%
X58464042Y-111410014D03*
D22*
X59376596Y-124460148D03*
%TD*%
D25*
%TO.P,S2,2*%
%TO.N,outer_bottom*%
X54093884Y-129909922D03*
%TO.P,S2,1*%
%TO.N,P15*%
X40650135Y-131902565D03*
D22*
X41562689Y-144952699D03*
%TD*%
D14*
%TO.P,D20,2*%
%TO.N,index_bottom*%
X136092697Y-130478173D03*
D15*
X136092697Y-128318173D03*
%TO.P,D20,1*%
%TO.N,P8*%
X136092697Y-125018173D03*
D16*
X136092697Y-122858173D03*
%TD*%
D24*
%TO.P,S13,2*%
%TO.N,ring_home*%
X92834621Y-108537367D03*
D22*
%TO.P,S13,1*%
%TO.N,P16*%
X79786078Y-123133655D03*
D24*
X79329523Y-110059623D03*
%TD*%
D35*
%TO.P,S28,2*%
%TO.N,mod_cluster*%
X132197115Y-163312029D03*
%TO.P,S28,1*%
%TO.N,P10*%
X132569228Y-149726502D03*
D22*
X119558892Y-148359060D03*
%TD*%
D24*
%TO.P,S19,2*%
%TO.N,middle_number*%
X110682777Y-69490678D03*
D22*
%TO.P,S19,1*%
%TO.N,P10*%
X97634234Y-84086966D03*
D24*
X97177679Y-71012934D03*
%TD*%
D25*
%TO.P,S7,2*%
%TO.N,pinky_bottom*%
X73247114Y-128570585D03*
%TO.P,S7,1*%
%TO.N,P14*%
X59803365Y-130563228D03*
D22*
X60715919Y-143613362D03*
%TD*%
D14*
%TO.P,D9,2*%
%TO.N,pinky_top*%
X73934196Y-93597476D03*
D17*
X73783522Y-91442738D03*
%TO.P,D9,1*%
%TO.N,P6*%
X73553326Y-88150776D03*
D18*
X73402652Y-85996038D03*
%TD*%
D14*
%TO.P,D27,2*%
%TO.N,inner_number*%
X155292704Y-72878181D03*
D15*
X155292704Y-70718181D03*
%TO.P,D27,1*%
%TO.N,P5*%
X155292704Y-67418181D03*
D16*
X155292704Y-65258181D03*
%TD*%
D24*
%TO.P,S17,2*%
%TO.N,middle_home*%
X112022920Y-107867288D03*
D22*
%TO.P,S17,1*%
%TO.N,P10*%
X98974377Y-122463576D03*
D24*
X98517822Y-109389544D03*
%TD*%
D25*
%TO.P,S10,2*%
%TO.N,pinky_number*%
X69229122Y-71110907D03*
%TO.P,S10,1*%
%TO.N,P14*%
X55785373Y-73103550D03*
D22*
X56697927Y-86153684D03*
%TD*%
D14*
%TO.P,D3,2*%
%TO.N,outer_home*%
X56120269Y-114090029D03*
D17*
X55969595Y-111935291D03*
%TO.P,D3,1*%
%TO.N,P7*%
X55739399Y-108643329D03*
D18*
X55588725Y-106488591D03*
%TD*%
D14*
%TO.P,D26,2*%
%TO.N,inner_top*%
X155292710Y-92078168D03*
D15*
X155292710Y-89918168D03*
%TO.P,D26,1*%
%TO.N,P6*%
X155292710Y-86618168D03*
D16*
X155292710Y-84458168D03*
%TD*%
D14*
%TO.P,D29,2*%
%TO.N,inner_cluster*%
X147833844Y-169591731D03*
D36*
X149929682Y-170114282D03*
%TO.P,D29,1*%
%TO.N,P9*%
X153131658Y-170912624D03*
D37*
X155227496Y-171435175D03*
%TD*%
D23*
%TO.P,S27,2*%
%TO.N,inner_number*%
X152167709Y-69318163D03*
%TO.P,S27,1*%
%TO.N,P20*%
X138617709Y-70368164D03*
D22*
X138617708Y-83450164D03*
%TD*%
D14*
%TO.P,D18,2*%
%TO.N,middle_top*%
X114600190Y-92127757D03*
D26*
X114524807Y-89969073D03*
%TO.P,D18,1*%
%TO.N,P6*%
X114409639Y-86671083D03*
D27*
X114334256Y-84512399D03*
%TD*%
D38*
%TO.P,JST1,2*%
%TO.N,GND*%
X178692709Y-99268170D03*
D39*
%TO.P,JST1,1*%
%TO.N,BPOS*%
X180692707Y-99268170D03*
%TD*%
D25*
%TO.P,S5,2*%
%TO.N,outer_number*%
X50075915Y-72450224D03*
%TO.P,S5,1*%
%TO.N,P15*%
X36632166Y-74442867D03*
D22*
X37544720Y-87493001D03*
%TD*%
D24*
%TO.P,S15,2*%
%TO.N,ring_number*%
X91494476Y-70160743D03*
D22*
%TO.P,S15,1*%
%TO.N,P16*%
X78445933Y-84757031D03*
D24*
X77989378Y-71682999D03*
%TD*%
D14*
%TO.P,D5,2*%
%TO.N,outer_number*%
X53441644Y-75783563D03*
D17*
X53290970Y-73628825D03*
%TO.P,D5,1*%
%TO.N,P5*%
X53060774Y-70336863D03*
D18*
X52910100Y-68182125D03*
%TD*%
D14*
%TO.P,D1,2*%
%TO.N,outer_mod*%
X58798932Y-152396483D03*
D17*
X58648258Y-150241745D03*
%TO.P,D1,1*%
%TO.N,P9*%
X58418062Y-146949783D03*
D18*
X58267388Y-144795045D03*
%TD*%
D14*
%TO.P,D11,2*%
%TO.N,ring_mod*%
X97422102Y-150362735D03*
D26*
X97346719Y-148204051D03*
%TO.P,D11,1*%
%TO.N,P9*%
X97231551Y-144906061D03*
D27*
X97156168Y-142747377D03*
%TD*%
D14*
%TO.P,D19,2*%
%TO.N,middle_number*%
X113930127Y-72939464D03*
D26*
X113854744Y-70780780D03*
%TO.P,D19,1*%
%TO.N,P5*%
X113739576Y-67482790D03*
D27*
X113664193Y-65324106D03*
%TD*%
D14*
%TO.P,D28,2*%
%TO.N,mod_cluster*%
X128329963Y-166047782D03*
D40*
X130478131Y-166273564D03*
%TO.P,D28,1*%
%TO.N,P9*%
X133760055Y-166618508D03*
D41*
X135908223Y-166844290D03*
%TD*%
D25*
%TO.P,S1,2*%
%TO.N,outer_mod*%
X55433214Y-149063153D03*
%TO.P,S1,1*%
%TO.N,P15*%
X41989465Y-151055796D03*
D22*
X42902019Y-164105930D03*
%TD*%
D14*
%TO.P,D25,2*%
%TO.N,inner_home*%
X155292709Y-111278173D03*
D15*
X155292709Y-109118173D03*
%TO.P,D25,1*%
%TO.N,P7*%
X155292709Y-105818173D03*
D16*
X155292709Y-103658173D03*
%TD*%
D14*
%TO.P,D4,2*%
%TO.N,outer_top*%
X54780953Y-94936790D03*
D17*
X54630279Y-92782052D03*
%TO.P,D4,1*%
%TO.N,P6*%
X54400083Y-89490090D03*
D18*
X54249409Y-87335352D03*
%TD*%
D23*
%TO.P,S25,2*%
%TO.N,inner_home*%
X152167714Y-107718174D03*
%TO.P,S25,1*%
%TO.N,P20*%
X138617714Y-108768175D03*
D22*
X138617713Y-121850175D03*
%TD*%
D14*
%TO.P,D14,2*%
%TO.N,ring_top*%
X95411892Y-92797834D03*
D26*
X95336509Y-90639150D03*
%TO.P,D14,1*%
%TO.N,P6*%
X95221341Y-87341160D03*
D27*
X95145958Y-85182476D03*
%TD*%
D14*
%TO.P,D31,2*%
%TO.N,outer_cluster*%
X185986887Y-181259358D03*
D42*
X187857501Y-182339360D03*
%TO.P,D31,1*%
%TO.N,P9*%
X190715385Y-183989358D03*
D43*
X192585999Y-185069360D03*
%TD*%
D24*
%TO.P,S18,2*%
%TO.N,middle_top*%
X111352851Y-88678996D03*
D22*
%TO.P,S18,1*%
%TO.N,P10*%
X98304308Y-103275284D03*
D24*
X97847753Y-90201252D03*
%TD*%
%TO.P,S16,2*%
%TO.N,middle_bottom*%
X112692983Y-127055591D03*
D22*
%TO.P,S16,1*%
%TO.N,P10*%
X99644440Y-141651879D03*
D24*
X99187885Y-128577847D03*
%TD*%
%TO.P,S11,2*%
%TO.N,ring_mod*%
X94174757Y-146913967D03*
D22*
%TO.P,S11,1*%
%TO.N,P16*%
X81126214Y-161510255D03*
D24*
X80669659Y-148436223D03*
%TD*%
D23*
%TO.P,S24,2*%
%TO.N,inner_bottom*%
X152167707Y-126918165D03*
%TO.P,S24,1*%
%TO.N,P20*%
X138617707Y-127968166D03*
D22*
X138617706Y-141050166D03*
%TD*%
D30*
%TO.P,OLED1,5*%
%TO.N,O5*%
X172572697Y-97548172D03*
%TO.P,OLED1,4*%
%TO.N,O4*%
X170032702Y-97548172D03*
%TO.P,OLED1,3*%
%TO.N,VCC*%
X167492702Y-97548172D03*
%TO.P,OLED1,2*%
%TO.N,O2*%
X164952701Y-97548171D03*
%TO.P,OLED1,1*%
%TO.N,O1*%
X162412701Y-97548171D03*
D44*
%TO.P,OLED1,*%
%TO.N,P1*%
X172572705Y-100880165D03*
D45*
%TO.N,O5*%
X172572702Y-99703372D03*
D22*
%TO.N,P1*%
X172572701Y-102150171D03*
D45*
%TO.N,O4*%
X170032709Y-99703373D03*
D44*
%TO.N,GND*%
X170032706Y-100880173D03*
D22*
X170032702Y-102150174D03*
%TO.N,P3*%
X164952705Y-102150170D03*
D44*
X164952701Y-100880172D03*
D45*
%TO.N,O2*%
X164952697Y-99703373D03*
D22*
%TO.N,P2*%
X162412703Y-102150172D03*
D44*
X162412703Y-100880166D03*
D45*
%TO.N,O1*%
X162412702Y-99703372D03*
%TD*%
D46*
%TO.N,P18*%
X178949454Y-112380000D03*
%TO.N,P9*%
X159650000Y-144919798D03*
X157835403Y-139888165D03*
X101709908Y-142586645D03*
%TO.N,RAW*%
X174270886Y-113468172D03*
X167799248Y-94110760D03*
X178949454Y-113468170D03*
%TO.N,BPOS*%
X179949455Y-113468172D03*
%TO.N,GND*%
X169342707Y-113468174D03*
%TO.N,RST*%
X165642706Y-113468179D03*
%TO.N,P1*%
X169799255Y-95110755D03*
X167799249Y-95110754D03*
%TD*%
D47*
%TO.N,P18*%
X178949454Y-108455374D02*
X182858563Y-104546265D01*
X178949454Y-112380000D02*
X178949454Y-108455374D01*
%TO.N,RAW*%
X174270888Y-113468170D02*
X174270886Y-113468172D01*
X178949454Y-113468170D02*
X174270888Y-113468170D01*
%TO.N,P1*%
X166658451Y-93995268D02*
X166658451Y-93969957D01*
X167773937Y-95110754D02*
X166658451Y-93995268D01*
X167799249Y-95110754D02*
X167773937Y-95110754D01*
%TO.N,P9*%
X157835403Y-143105403D02*
X157835403Y-139888165D01*
X159649798Y-144919798D02*
X157835403Y-143105403D01*
X159650000Y-144919798D02*
X159649798Y-144919798D01*
X157838165Y-139888165D02*
X157835403Y-139888165D01*
X101708258Y-142588412D02*
X101709908Y-142586645D01*
X97156164Y-142747376D02*
X101708258Y-142588412D01*
%TO.N,P20*%
X153236767Y-141050164D02*
X138617700Y-141050165D01*
X164584633Y-152398033D02*
X153236767Y-141050164D01*
%TO.N,P19*%
X131805657Y-141050183D02*
X119417712Y-141050176D01*
X141609922Y-150854447D02*
X131805657Y-141050183D01*
%TO.N,P10*%
X112851710Y-141651881D02*
X99644442Y-141651884D01*
X119558890Y-148359057D02*
X112851710Y-141651881D01*
%TO.N,P9*%
X157837453Y-139879963D02*
X157835403Y-139888165D01*
%TO.N,P19*%
X170112713Y-78338172D02*
X171757693Y-78338171D01*
X171374123Y-77076757D02*
X170112713Y-78338172D01*
X176419251Y-77076755D02*
X171374123Y-77076757D01*
X157577143Y-61373466D02*
X176009160Y-61373469D01*
X176856964Y-76639038D02*
X176419251Y-77076755D01*
X121522654Y-63088564D02*
X155862059Y-63088553D01*
X176856967Y-62221272D02*
X176856964Y-76639038D01*
X119417701Y-65193510D02*
X121522654Y-63088564D01*
X176009160Y-61373469D02*
X176856967Y-62221272D01*
X119417693Y-70368175D02*
X119417701Y-65193510D01*
X155862059Y-63088553D02*
X157577143Y-61373466D01*
%TO.N,P20*%
X170112711Y-75798176D02*
X171757698Y-75798184D01*
X171374118Y-74536756D02*
X170112706Y-75798169D01*
X175860280Y-74536761D02*
X171374118Y-74536756D01*
X176406973Y-62407669D02*
X176406966Y-73990070D01*
X175822764Y-61823469D02*
X176406973Y-62407669D01*
X157763542Y-61823471D02*
X175822764Y-61823469D01*
X176406966Y-73990070D02*
X175860280Y-74536761D01*
X140249651Y-63538557D02*
X156048452Y-63538555D01*
X138617711Y-65170503D02*
X140249651Y-63538557D01*
X138617711Y-70368168D02*
X138617711Y-65170503D01*
X156048452Y-63538555D02*
X157763542Y-61823471D01*
X170112706Y-75798169D02*
X170112711Y-75798176D01*
%TO.N,P18*%
X182858571Y-88595068D02*
X176406963Y-82143468D01*
X176406963Y-82143468D02*
X171377994Y-82143472D01*
X182858563Y-104546265D02*
X182858571Y-88595068D01*
X171377994Y-82143472D02*
X170112701Y-80878175D01*
%TO.N,GND*%
X178692710Y-102514531D02*
X178692706Y-99268173D01*
X177448368Y-103758869D02*
X178692710Y-102514531D01*
X170032697Y-102150177D02*
X171641386Y-103758868D01*
X171641386Y-103758868D02*
X177448368Y-103758869D01*
%TO.N,P18*%
X170112706Y-80878174D02*
X171757697Y-80878170D01*
X185168763Y-161532380D02*
X185168758Y-161518268D01*
%TO.N,RAW*%
X167799257Y-65411630D02*
X170112703Y-63098173D01*
X167799248Y-94110760D02*
X167799257Y-65411630D01*
%TO.N,P1*%
X169891455Y-95110757D02*
X171313854Y-96533157D01*
X169799255Y-95110755D02*
X169891455Y-95110757D01*
%TO.N,RAW*%
X178949452Y-113442865D02*
X178949454Y-113468170D01*
X179674147Y-112718175D02*
X178949452Y-113442865D01*
X181617705Y-112718167D02*
X179674147Y-112718175D01*
%TO.N,BPOS*%
X181617707Y-115718162D02*
X179949451Y-114049923D01*
X179949451Y-114049923D02*
X179949455Y-113468172D01*
%TO.N,24*%
X173207706Y-63098176D02*
X175112702Y-63098165D01*
%TO.N,21*%
X173207701Y-70718175D02*
X175112710Y-70718178D01*
%TO.N,5*%
X161777705Y-73258174D02*
X161777709Y-73258168D01*
%TO.N,7*%
X159872706Y-78338176D02*
X161777706Y-78338178D01*
%TO.N,9*%
X161777702Y-83418176D02*
X161777706Y-83418174D01*
%TO.N,13*%
X175112691Y-91038174D02*
X175112692Y-91038171D01*
%TO.N,15*%
X175112702Y-85958172D02*
X175112701Y-85958172D01*
%TO.N,7*%
X161777706Y-78338178D02*
X161777707Y-78338179D01*
%TO.N,8*%
X159872702Y-80878174D02*
X161777700Y-80878179D01*
%TO.N,20*%
X175112698Y-73258179D02*
X175112703Y-73258177D01*
%TO.N,1*%
X159872706Y-63098175D02*
X161777706Y-63098181D01*
%TO.N,20*%
X173207706Y-73258171D02*
X175112698Y-73258179D01*
%TO.N,4*%
X159872709Y-70718170D02*
X161777705Y-70718176D01*
%TO.N,6*%
X161777703Y-75798171D02*
X161777706Y-75798174D01*
%TO.N,O4*%
X170032703Y-99703366D02*
X170032709Y-99703370D01*
%TO.N,11*%
X159872706Y-88498177D02*
X161777707Y-88498176D01*
%TO.N,19*%
X175112698Y-75798175D02*
X175112704Y-75798173D01*
%TO.N,4*%
X161777705Y-70718176D02*
X161777705Y-70718173D01*
%TO.N,9*%
X159872710Y-83418171D02*
X161777702Y-83418176D01*
%TO.N,3*%
X161777701Y-68178173D02*
X161777707Y-68178173D01*
%TO.N,O2*%
X164952695Y-97548169D02*
X164952695Y-99703377D01*
%TO.N,O1*%
X162412700Y-99703369D02*
X162412698Y-99703373D01*
%TO.N,15*%
X173207702Y-85958180D02*
X175112702Y-85958172D01*
%TO.N,3*%
X159872705Y-68178176D02*
X161777701Y-68178173D01*
%TO.N,12*%
X161777702Y-91038173D02*
X161777707Y-91038171D01*
%TO.N,24*%
X175112702Y-63098165D02*
X175112704Y-63098166D01*
%TO.N,O4*%
X170032701Y-97548166D02*
X170032703Y-99703366D01*
%TO.N,18*%
X175112703Y-78338170D02*
X175112707Y-78338169D01*
%TO.N,O1*%
X162412701Y-97548168D02*
X162412700Y-99703369D01*
%TO.N,O2*%
X164952695Y-99703377D02*
X164952694Y-99703377D01*
%TO.N,10*%
X159872701Y-85958170D02*
X161777706Y-85958175D01*
%TO.N,14*%
X173207706Y-88498169D02*
X175112707Y-88498180D01*
%TO.N,O5*%
X172572693Y-97548173D02*
X172572695Y-99703358D01*
%TO.N,8*%
X161777700Y-80878179D02*
X161777699Y-80878175D01*
%TO.N,22*%
X173207707Y-68178175D02*
X175112704Y-68178178D01*
%TO.N,1*%
X161777706Y-63098181D02*
X161777701Y-63098177D01*
%TO.N,17*%
X173207704Y-80878179D02*
X175112708Y-80878180D01*
%TO.N,12*%
X159872714Y-91038173D02*
X161777702Y-91038173D01*
%TO.N,2*%
X159872708Y-65638175D02*
X161777707Y-65638175D01*
%TO.N,23*%
X173207710Y-65638177D02*
X175112704Y-65638176D01*
%TO.N,21*%
X175112710Y-70718178D02*
X175112709Y-70718179D01*
%TO.N,18*%
X173207702Y-78338179D02*
X175112703Y-78338170D01*
%TO.N,6*%
X159872700Y-75798183D02*
X161777703Y-75798171D01*
%TO.N,19*%
X173207711Y-75798181D02*
X175112698Y-75798175D01*
%TO.N,16*%
X175112709Y-83418181D02*
X175112712Y-83418176D01*
%TO.N,17*%
X175112708Y-80878180D02*
X175112710Y-80878180D01*
%TO.N,13*%
X173207705Y-91038176D02*
X175112691Y-91038174D01*
%TO.N,5*%
X159872705Y-73258173D02*
X161777705Y-73258174D01*
%TO.N,16*%
X173207704Y-83418173D02*
X175112709Y-83418181D01*
%TO.N,O5*%
X172572695Y-99703358D02*
X172572695Y-99703360D01*
%TO.N,P15*%
X41989458Y-151055789D02*
X41989463Y-151055793D01*
X171757702Y-83418174D02*
X170112700Y-83418176D01*
X39310807Y-112749328D02*
X38884046Y-106646238D01*
X170112700Y-83418176D02*
X170112702Y-83418177D01*
X37544719Y-87493007D02*
X36632151Y-74442872D01*
X40650137Y-131902554D02*
X40650127Y-131902568D01*
X41562691Y-144952699D02*
X40650139Y-131902559D01*
X41562688Y-144952701D02*
X41989458Y-151055789D01*
X42902014Y-164105925D02*
X41989461Y-151055781D01*
X37971493Y-93596105D02*
X37544716Y-87493011D01*
X40223367Y-125799461D02*
X39310807Y-112749328D01*
X40223367Y-125799460D02*
X40650137Y-131902554D01*
X37544716Y-87493011D02*
X37544724Y-87493006D01*
X38884042Y-106646240D02*
X37971493Y-93596109D01*
%TO.N,outer_mod*%
X55463562Y-149497084D02*
X55433218Y-149063147D01*
X58798934Y-152396489D02*
X55463562Y-149497084D01*
X58798934Y-152396489D02*
X58648265Y-150241738D01*
%TO.N,outer_bottom*%
X54124228Y-130343858D02*
X54093896Y-129909911D01*
X57459597Y-133243261D02*
X54124228Y-130343858D01*
X57459597Y-133243261D02*
X57308938Y-131088511D01*
%TO.N,outer_home*%
X56120280Y-114090019D02*
X55969616Y-111935291D01*
X56120280Y-114090019D02*
X52784907Y-111190629D01*
X52784907Y-111190629D02*
X52754577Y-110756683D01*
%TO.N,outer_top*%
X51445585Y-92037398D02*
X51415237Y-91603452D01*
X54780940Y-94936791D02*
X54630287Y-92782054D01*
X54780940Y-94936791D02*
X51445585Y-92037398D01*
%TO.N,outer_number*%
X53441622Y-75783560D02*
X53290948Y-73628829D01*
X50106254Y-72884165D02*
X50075905Y-72450228D01*
X53441622Y-75783560D02*
X50106254Y-72884165D01*
%TO.N,P14*%
X56697936Y-86153686D02*
X57124703Y-92256776D01*
X59803370Y-130563225D02*
X59803372Y-130563230D01*
X170112712Y-85958172D02*
X170112709Y-85958173D01*
X58464044Y-111410008D02*
X58464045Y-111410007D01*
X59376587Y-124460128D02*
X58464039Y-111410000D01*
X59376596Y-124460133D02*
X59803370Y-130563225D01*
X60715921Y-143613356D02*
X59803369Y-130563233D01*
X58037268Y-105306912D02*
X57124719Y-92256779D01*
X57124703Y-92256776D02*
X57124717Y-92256780D01*
X58037268Y-105306915D02*
X58464044Y-111410008D01*
X62055242Y-162766603D02*
X61142698Y-149716462D01*
X56697948Y-86153690D02*
X55785389Y-73103552D01*
X60715919Y-143613364D02*
X61142694Y-149716461D01*
X171757695Y-85958179D02*
X170112712Y-85958172D01*
%TO.N,pinky_mod*%
X77952165Y-151057162D02*
X77801478Y-148902421D01*
X77952165Y-151057162D02*
X74616777Y-148157770D01*
X74616777Y-148157770D02*
X74586441Y-147723820D01*
%TO.N,pinky_bottom*%
X76612852Y-131903931D02*
X73277467Y-129004527D01*
X76612852Y-131903931D02*
X76462159Y-129749189D01*
X73277467Y-129004527D02*
X73247108Y-128570593D01*
%TO.N,pinky_home*%
X71938134Y-109851299D02*
X71907798Y-109417368D01*
X75273512Y-112750694D02*
X75122842Y-110595964D01*
X75273512Y-112750694D02*
X71938134Y-109851299D01*
%TO.N,pinky_top*%
X73934182Y-93597484D02*
X70598806Y-90698071D01*
X70598806Y-90698071D02*
X70568471Y-90264136D01*
X73783524Y-91442736D02*
X73934182Y-93597484D01*
%TO.N,pinky_number*%
X72444189Y-72289505D02*
X72594866Y-74444245D01*
X69259485Y-71544845D02*
X69229140Y-71110896D01*
X72594866Y-74444245D02*
X69259485Y-71544845D01*
%TO.N,P16*%
X80456153Y-142321949D02*
X80456152Y-142321951D01*
X171757701Y-88498171D02*
X170112705Y-88498171D01*
X80456140Y-142321953D02*
X79999582Y-129247922D01*
X79786080Y-123133657D02*
X79999585Y-129247911D01*
X80669661Y-148436227D02*
X80456153Y-142321949D01*
X79329516Y-110059623D02*
X79116007Y-103945348D01*
X79115992Y-103945337D02*
X78659450Y-90871308D01*
X79999585Y-129247911D02*
X79999586Y-129247912D01*
X78445928Y-84757033D02*
X78445929Y-84757034D01*
X170112705Y-88498171D02*
X170112700Y-88498173D01*
X79116007Y-103945348D02*
X79115989Y-103945346D01*
X78659442Y-90871310D02*
X78445928Y-84757033D01*
X79786072Y-123133646D02*
X79329511Y-110059609D01*
X78445922Y-84757047D02*
X77989366Y-71683011D01*
X81126215Y-161510255D02*
X80669664Y-148436218D01*
%TO.N,ring_mod*%
X94189935Y-147348707D02*
X94174747Y-146913971D01*
X97422092Y-150362750D02*
X97346716Y-148204053D01*
X97422092Y-150362750D02*
X94189935Y-147348707D01*
%TO.N,ring_bottom*%
X96752029Y-131174439D02*
X93519868Y-128160401D01*
X93519868Y-128160401D02*
X93504688Y-127725663D01*
X96752029Y-131174439D02*
X96676635Y-129015760D01*
%TO.N,ring_home*%
X92849793Y-108972109D02*
X92834615Y-108537369D01*
X96081955Y-111986135D02*
X92849793Y-108972109D01*
X96081955Y-111986135D02*
X96006570Y-109827452D01*
%TO.N,ring_top*%
X95411878Y-92797837D02*
X95336508Y-90639147D01*
X95411878Y-92797837D02*
X92179731Y-89783798D01*
X92179731Y-89783798D02*
X92164543Y-89349055D01*
%TO.N,ring_number*%
X94741801Y-73609527D02*
X94666431Y-71450850D01*
X94741801Y-73609527D02*
X91509654Y-70595500D01*
X91509654Y-70595500D02*
X91494476Y-70160763D01*
%TO.N,P10*%
X97634239Y-84086962D02*
X97634239Y-84086961D01*
X119558877Y-148359052D02*
X132569212Y-149726501D01*
X99187891Y-128577843D02*
X99187892Y-128577845D01*
X97634234Y-84086960D02*
X97177680Y-71012941D01*
X98974370Y-122463567D02*
X99187891Y-128577843D01*
X132569212Y-149726501D02*
X132569208Y-149726505D01*
X98304311Y-103275267D02*
X97847746Y-90201229D01*
X97847760Y-90201248D02*
X97634239Y-84086962D01*
X98974372Y-122463582D02*
X98517824Y-109389545D01*
X99644451Y-141651881D02*
X99187881Y-128577853D01*
X98304305Y-103275284D02*
X98304308Y-103275276D01*
X171757704Y-91038174D02*
X170112699Y-91038177D01*
X98517817Y-109389544D02*
X98304305Y-103275284D01*
%TO.N,middle_bottom*%
X112708162Y-127490330D02*
X112692989Y-127055597D01*
X115940326Y-130504373D02*
X115864952Y-128345684D01*
X115940326Y-130504373D02*
X112708162Y-127490330D01*
%TO.N,middle_home*%
X115270270Y-111316074D02*
X112038103Y-108302023D01*
X115270270Y-111316074D02*
X115194874Y-109157383D01*
X112038103Y-108302023D02*
X112022909Y-107867306D01*
%TO.N,middle_top*%
X114600195Y-92127761D02*
X114524797Y-89969077D01*
X111368029Y-89113733D02*
X111352858Y-88678997D01*
X114600195Y-92127761D02*
X111368029Y-89113733D01*
%TO.N,middle_number*%
X113930119Y-72939459D02*
X113854727Y-70780774D01*
X110697961Y-69925421D02*
X110682783Y-69490693D01*
X113930119Y-72939459D02*
X110697961Y-69925421D01*
%TO.N,P19*%
X119417713Y-127968174D02*
X119417710Y-127968173D01*
X119417712Y-89568168D02*
X119417713Y-83450194D01*
X119417701Y-89568171D02*
X119417708Y-89568171D01*
X154303329Y-154019274D02*
X141609923Y-150854450D01*
X119417712Y-102650164D02*
X119417711Y-108768172D01*
X119417702Y-121850180D02*
X119417699Y-127968175D01*
X119417700Y-70368167D02*
X119417700Y-70368168D01*
X119417711Y-108768172D02*
X119417701Y-108768179D01*
X119417711Y-83450167D02*
X119417700Y-70368167D01*
X119417709Y-121850177D02*
X119417707Y-108768185D01*
X119417707Y-108768185D02*
X119417700Y-108768176D01*
X119417713Y-83450194D02*
X119417700Y-83450177D01*
X119417704Y-141050173D02*
X119417713Y-127968174D01*
X119417699Y-127968175D02*
X119417712Y-127968182D01*
X119417728Y-102650176D02*
X119417701Y-89568171D01*
X141609923Y-150854450D02*
X141609927Y-150854451D01*
%TO.N,index_bottom*%
X136092708Y-130478175D02*
X136092713Y-128318170D01*
X132967716Y-127353171D02*
X132967696Y-126918174D01*
X136092708Y-130478175D02*
X132967716Y-127353171D01*
%TO.N,index_home*%
X132967709Y-108153173D02*
X132967696Y-107718166D01*
X136092704Y-111278179D02*
X132967709Y-108153173D01*
X136092704Y-111278179D02*
X136092701Y-109118174D01*
%TO.N,index_top*%
X132967703Y-88953173D02*
X132967705Y-88518169D01*
X136092708Y-92078178D02*
X132967703Y-88953173D01*
X136092708Y-92078178D02*
X136092702Y-89918176D01*
%TO.N,index_number*%
X136092706Y-72878170D02*
X132967701Y-69753172D01*
X132967701Y-69753172D02*
X132967710Y-69318169D01*
X136092706Y-72878170D02*
X136092699Y-70718175D01*
%TO.N,P20*%
X138617717Y-127968160D02*
X138617713Y-127968165D01*
X138617714Y-108768181D02*
X138617718Y-108768177D01*
X138617698Y-108768167D02*
X138617722Y-108768178D01*
X138617710Y-121850179D02*
X138617717Y-127968160D01*
X138617706Y-121850181D02*
X138617714Y-108768181D01*
X176714057Y-157298634D02*
X176714058Y-157298634D01*
X138617694Y-83450178D02*
X138617704Y-83450169D01*
X138617714Y-70368172D02*
X138617715Y-70368175D01*
X138617714Y-102650170D02*
X138617719Y-89568171D01*
X138617707Y-127968167D02*
X138617709Y-127968166D01*
X138617693Y-102650178D02*
X138617698Y-108768167D01*
X138617703Y-89568175D02*
X138617694Y-83450178D01*
X164584642Y-152398045D02*
X176714057Y-157298634D01*
X138617719Y-89568171D02*
X138617719Y-89568172D01*
X138617706Y-141050182D02*
X138617707Y-127968167D01*
X138617700Y-83450177D02*
X138617714Y-70368172D01*
%TO.N,inner_bottom*%
X152167702Y-126918172D02*
X152167700Y-127353169D01*
X155292711Y-130478172D02*
X155292706Y-128318176D01*
X152167700Y-127353169D02*
X155292711Y-130478172D01*
%TO.N,inner_home*%
X155292705Y-111278169D02*
X155292708Y-109118177D01*
X155292705Y-111278169D02*
X152167719Y-108153170D01*
X152167719Y-108153170D02*
X152167708Y-107718168D01*
%TO.N,inner_top*%
X155292712Y-92078175D02*
X152167714Y-88953162D01*
X155292712Y-92078175D02*
X155292709Y-89918172D01*
X152167714Y-88953162D02*
X152167710Y-88518172D01*
%TO.N,inner_number*%
X152167714Y-69753183D02*
X152167711Y-69318165D01*
X155292709Y-72878171D02*
X155292700Y-70718162D01*
X155292709Y-72878171D02*
X152167714Y-69753183D01*
%TO.N,mod_cluster*%
X130478130Y-166273568D02*
X130478133Y-166273579D01*
X132197093Y-163312029D02*
X131764493Y-163266556D01*
X128329961Y-166047783D02*
X130478130Y-166273568D01*
X131764493Y-163266556D02*
X128329961Y-166047783D01*
%TO.N,inner_cluster*%
X147833852Y-169591732D02*
X147833846Y-169591724D01*
X151622029Y-167315555D02*
X152044114Y-167420803D01*
X149929685Y-170114279D02*
X147833852Y-169591732D01*
X147833846Y-169591724D02*
X151622029Y-167315555D01*
%TO.N,home_cluster*%
X172208349Y-170092367D02*
X172611678Y-170255321D01*
X170142978Y-172628322D02*
X168140251Y-171819169D01*
X168140251Y-171819169D02*
X172208349Y-170092367D01*
%TO.N,P18*%
X196498109Y-168073379D02*
X185168765Y-161532393D01*
X185168765Y-161532393D02*
X185168768Y-161532388D01*
%TO.N,outer_cluster*%
X187857495Y-182339350D02*
X185986886Y-181259359D01*
X190255722Y-180115521D02*
X190632430Y-180333023D01*
X185986886Y-181259359D02*
X185986881Y-181259358D01*
X185986881Y-181259358D02*
X190255722Y-180115521D01*
%TO.N,P9*%
X133760046Y-166618509D02*
X135908222Y-166844290D01*
X164872699Y-91038173D02*
X164872706Y-91038178D01*
X164201850Y-92316758D02*
X164872708Y-91645907D01*
X155227492Y-171435169D02*
X155227490Y-171435171D01*
X135908222Y-166844290D02*
X135908221Y-166844290D01*
X164872708Y-91645907D02*
X164872706Y-91038178D01*
X157837453Y-139879963D02*
X157837454Y-93118561D01*
X77571298Y-145610457D02*
X77420608Y-143455721D01*
X173202687Y-173864532D02*
X175205401Y-174673676D01*
X153131649Y-170912617D02*
X155227492Y-171435169D01*
X163227708Y-91038174D02*
X164872699Y-91038173D01*
X192585997Y-185069366D02*
X192585999Y-185069367D01*
X58418057Y-146949787D02*
X58267398Y-144795047D01*
X97231542Y-144906067D02*
X97156161Y-142747387D01*
X158639255Y-92316760D02*
X164201850Y-92316758D01*
X157837454Y-93118561D02*
X158639255Y-92316760D01*
X190715381Y-183989357D02*
X192585997Y-185069366D01*
%TO.N,P8*%
X96561468Y-125717776D02*
X96486093Y-123559085D01*
X115749790Y-125047704D02*
X115674397Y-122889015D01*
X136092713Y-125018169D02*
X136092705Y-122858166D01*
X164151055Y-89776762D02*
X164872702Y-89055105D01*
X157387454Y-90977756D02*
X158588454Y-89776763D01*
X155292717Y-122858173D02*
X157387459Y-120763437D01*
X164872701Y-88498170D02*
X164872700Y-88498166D01*
X163227701Y-88498171D02*
X164872701Y-88498170D01*
X57078732Y-127796549D02*
X56928058Y-125641810D01*
X155292712Y-125018171D02*
X155292718Y-122858167D01*
X76231972Y-126457235D02*
X76081285Y-124302500D01*
X164872702Y-89055105D02*
X164872700Y-88498166D01*
X157387459Y-120763437D02*
X157387454Y-90977756D01*
X158588454Y-89776763D02*
X164151055Y-89776762D01*
%TO.N,P7*%
X156937454Y-88913156D02*
X158613852Y-87236756D01*
X74892644Y-107303998D02*
X74741979Y-105149258D01*
X163227694Y-85958179D02*
X164872707Y-85958173D01*
X95891406Y-106529461D02*
X95816028Y-104370777D01*
X55739412Y-108643325D02*
X55588740Y-106488591D01*
X155292709Y-105818165D02*
X155292714Y-103658175D01*
X164872707Y-85958173D02*
X164872707Y-85958172D01*
X155292715Y-103658169D02*
X156937452Y-102013433D01*
X136092714Y-105818166D02*
X136092706Y-103658173D01*
X115079720Y-105859403D02*
X115004315Y-103700714D01*
X164201850Y-87236759D02*
X164872706Y-86565900D01*
X158613852Y-87236756D02*
X164201850Y-87236759D01*
X156937452Y-102013433D02*
X156937454Y-88913156D01*
X164872706Y-86565900D02*
X164872707Y-85958172D01*
%TO.N,P6*%
X136092704Y-86618169D02*
X136092710Y-84458171D01*
X54400078Y-89490105D02*
X54249419Y-87335365D01*
X73553318Y-88150765D02*
X73402651Y-85996027D01*
X155292702Y-84458172D02*
X155531293Y-84696753D01*
X95221325Y-87341165D02*
X95145952Y-85182478D01*
X114409633Y-86671090D02*
X114334242Y-84512407D01*
X163227702Y-83418177D02*
X164872702Y-83418181D01*
X155531293Y-84696753D02*
X164227252Y-84696762D01*
X164227252Y-84696762D02*
X164872712Y-84051301D01*
X164872712Y-84051301D02*
X164872702Y-83418181D01*
X155292702Y-86618177D02*
X155292703Y-84458173D01*
%TO.N,P5*%
X164252658Y-82156752D02*
X164872710Y-81536709D01*
X155292705Y-65258190D02*
X156759650Y-66725134D01*
X113739567Y-67482788D02*
X113664187Y-65324094D01*
X72213991Y-68997545D02*
X72063317Y-66842799D01*
X136092699Y-67418175D02*
X136092709Y-65258176D01*
X164872710Y-81536709D02*
X164872707Y-80878170D01*
X163227693Y-80878174D02*
X164872706Y-80878171D01*
X156759650Y-66725134D02*
X156759649Y-80327955D01*
X94551250Y-68152852D02*
X94475879Y-65994169D01*
X158588458Y-82156760D02*
X164252658Y-82156752D01*
X156759649Y-80327955D02*
X158588458Y-82156760D01*
X53060759Y-70336869D02*
X52910090Y-68182128D01*
X164872706Y-80878171D02*
X164872707Y-80878170D01*
X155292718Y-67418172D02*
X155292706Y-65258177D01*
%TO.N,RAW*%
X171757702Y-63098175D02*
X171757703Y-63098176D01*
X170112703Y-63098173D02*
X171757702Y-63098175D01*
%TO.N,GND*%
X170032702Y-100880180D02*
X170032699Y-102150172D01*
X169342709Y-110368175D02*
X169342705Y-102840165D01*
X163227697Y-68178177D02*
X164872695Y-68178174D01*
X170032699Y-102150172D02*
X170032697Y-102150174D01*
X164872695Y-68178174D02*
X164872702Y-68178181D01*
X170112701Y-65638180D02*
X171757697Y-65638183D01*
X169342709Y-113468173D02*
X169342709Y-110368175D01*
X164872699Y-70718175D02*
X164872700Y-70718175D01*
X163227705Y-70718175D02*
X164872699Y-70718175D01*
X169342707Y-113468174D02*
X169342709Y-113468173D01*
X169342713Y-116568175D02*
X169342707Y-113468174D01*
X169342705Y-102840165D02*
X170032697Y-102150174D01*
X171757697Y-65638183D02*
X171757697Y-65638178D01*
%TO.N,RST*%
X165642704Y-113468179D02*
X165642706Y-113468179D01*
X171757694Y-68178174D02*
X170112707Y-68178172D01*
X165642711Y-116568170D02*
X165642704Y-113468179D01*
X165642706Y-113468179D02*
X165642710Y-110368178D01*
%TO.N,VCC*%
X170112701Y-70718179D02*
X170112701Y-70718177D01*
X167492702Y-97548176D02*
X168799251Y-96241618D01*
X171757700Y-70718176D02*
X170112701Y-70718179D01*
X168799251Y-96241618D02*
X168799249Y-72031630D01*
X168799249Y-72031630D02*
X170112701Y-70718177D01*
%TO.N,P21*%
X170112706Y-73258170D02*
X170112704Y-73258172D01*
X171757706Y-73258171D02*
X170112706Y-73258170D01*
%TO.N,P1*%
X163227701Y-63098177D02*
X164872700Y-63098180D01*
X172572701Y-102150167D02*
X172572698Y-102150166D01*
X166658452Y-64883917D02*
X164872700Y-63098180D01*
X166658451Y-93969957D02*
X166658452Y-64883917D01*
X172572699Y-100880167D02*
X172572701Y-102150167D01*
%TO.N,P0*%
X164872700Y-65638176D02*
X164872706Y-65638171D01*
X163227708Y-65638175D02*
X164872700Y-65638176D01*
%TO.N,P2*%
X166208452Y-74593923D02*
X164872714Y-73258170D01*
X166208447Y-102273552D02*
X166208452Y-74593923D01*
X165344853Y-103137153D02*
X166208447Y-102273552D01*
X162412703Y-100880166D02*
X162412701Y-102150173D01*
X163227703Y-73258175D02*
X164872695Y-73258177D01*
X162412701Y-102150173D02*
X163399680Y-103137157D01*
X163399680Y-103137157D02*
X165344853Y-103137153D01*
X164872695Y-73258177D02*
X164872714Y-73258170D01*
%TO.N,P3*%
X164952694Y-100880170D02*
X164952703Y-102150163D01*
X163227704Y-75798174D02*
X164872713Y-75798182D01*
X164952703Y-102150163D02*
X164952704Y-102150170D01*
X163693854Y-93510550D02*
X165758456Y-91445958D01*
X164952704Y-102150170D02*
X164230861Y-102150165D01*
X165758456Y-91445958D02*
X165758453Y-76683923D01*
X164872713Y-75798182D02*
X164872713Y-75798181D01*
X164230861Y-102150165D02*
X163693847Y-101613165D01*
X163693847Y-101613165D02*
X163693854Y-93510550D01*
X165758453Y-76683923D02*
X164872713Y-75798181D01*
%TO.N,P4*%
X163227705Y-78338174D02*
X164872706Y-78338185D01*
%TO.N,P1*%
X172572698Y-102150166D02*
X171313855Y-100891321D01*
X171313855Y-100891321D02*
X171313854Y-96533157D01*
%TD*%
M02*
