<svg width="149.663mm" height="133.782mm" viewBox="0 0 149.663 133.782" xmlns="http://www.w3.org/2000/svg"><g id="svgGroup" stroke-linecap="round" fill-rule="evenodd" font-size="9pt" stroke="#000" stroke-width="0.25mm" fill="none" style="stroke:#000;stroke-width:0.25mm;fill:none"><path d="M 1.15 1.15 m -1.15 0 a 1.15 1.15 0 0 1 2.3 0 a 1.15 1.15 0 0 1 -2.3 0 z M 147.946 7.148 m -1.15 0 a 1.15 1.15 0 0 1 2.3 0 a 1.15 1.15 0 0 1 -2.3 0 z M 146.09 91.022 m -1.15 0 a 1.15 1.15 0 0 1 2.3 0 a 1.15 1.15 0 0 1 -2.3 0 z M 148.513 132.632 m -1.15 0 a 1.15 1.15 0 0 1 2.3 0 a 1.15 1.15 0 0 1 -2.3 0 z M 76.365 103.277 m -1.15 0 a 1.15 1.15 0 0 1 2.3 0 a 1.15 1.15 0 0 1 -2.3 0 z M 1.15 98.15 m -1.15 0 a 1.15 1.15 0 0 1 2.3 0 a 1.15 1.15 0 0 1 -2.3 0 z" vector-effect="non-scaling-stroke"/></g></svg>