0
SECTION
2
HEADER
9
$INSUNITS
70
4
0
ENDSEC
0
SECTION
2
TABLES
0
TABLE
2
LTYPE
0
LTYPE
72
65
70
0
2
CONTINUOUS
3
______
73
0
40
0
0
LTYPE
72
65
70
0
2
DASHED
3
_ _ _ 
73
2
40
7.5
49
5
49
-2.5
0
LTYPE
72
65
70
0
2
DOTTED
3
. . . 
73
2
40
1.5
49
0.5
49
-1
0
ENDTAB
0
TABLE
2
LAYER
0
ENDTAB
0
ENDSEC
0
SECTION
2
ENTITIES
0
LINE
8
0
6
CONTINUOUS
10
34.6
20
-159.1
11
34.6
21
-64.1
0
ARC
8
0
6
CONTINUOUS
10
40.9
20
-64.1
40
6.3
50
90
51
180
0
LINE
8
0
6
CONTINUOUS
10
40.9
20
-57.8
11
78.3
21
-57.8
0
ARC
8
0
6
CONTINUOUS
10
78.3
20
-64.1
40
6.3
50
88.8450499
51
90
0
LINE
8
0
6
CONTINUOUS
10
78.4269848
20
-57.8012799
11
82.6303949
21
-57.8860224
0
ARC
8
0
6
CONTINUOUS
10
82.5034101
20
-64.1847425
40
6.3
50
87.9999998
51
88.8450497
0
LINE
8
0
6
CONTINUOUS
10
82.7232769
20
-57.8885803
11
120.1004938
21
-59.1938214
0
ARC
8
0
6
CONTINUOUS
10
119.880627
20
-65.4899836
40
6.3
50
86.8450496
51
88.0000001
0
LINE
8
0
6
CONTINUOUS
10
120.2273566
20
-59.1995322
11
124.425249
21
-59.43092
0
ARC
8
0
6
CONTINUOUS
10
124.0785194
20
-65.7213714
40
6.3
50
85.9999995
51
86.8450496
0
LINE
8
0
6
CONTINUOUS
10
124.5179852
20
-59.4367179
11
143.6709707
21
-60.7760252
0
LINE
8
0
6
CONTINUOUS
10
143.671215
20
-60.7760422
11
186.0676871
21
-63.7406924
0
ARC
8
0
6
CONTINUOUS
10
185.6282213
20
-70.0253459
40
6.3
50
356.0000004
51
445.9999999
0
LINE
8
0
6
CONTINUOUS
10
191.9128748
20
-70.4648116
11
186.7384016
21
-144.4632261
0
LINE
8
0
6
CONTINUOUS
10
186.7384016
20
-144.4632261
11
192.1490437
21
-156.1425557
0
LINE
8
0
6
CONTINUOUS
10
192.1490437
20
-156.1425557
11
205.7820431
21
-165.33813
0
ARC
8
0
6
CONTINUOUS
10
202.2591278
20
-170.5610667
40
6.3
50
326
51
415.9999998
0
LINE
8
0
6
CONTINUOUS
10
207.4820645
20
-174.083982
11
192.2160983
21
-196.7167077
0
ARC
8
0
6
CONTINUOUS
10
186.9931616
20
-193.1937924
40
6.3
50
235.2448418
51
326.0000001
0
LINE
8
0
6
CONTINUOUS
10
183.4015098
20
-198.3697018
11
167.7008744
21
-187.474763
0
LINE
8
0
6
CONTINUOUS
10
167.7008744
20
-187.474763
11
150.7980985
21
-179.2614934
0
LINE
8
0
6
CONTINUOUS
10
150.7980985
20
-179.2614934
11
134.3354952
21
-173.9124693
0
LINE
8
0
6
CONTINUOUS
10
134.3354952
20
-173.9124693
11
115.5165404
21
-170.6785379
0
LINE
8
0
6
CONTINUOUS
10
115.5165404
20
-170.6785379
11
40.4567468
21
-165.3843875
0
ARC
8
0
6
CONTINUOUS
10
40.9
20
-159.1
40
6.3
50
180
51
265.9631882
0
ENDSEC
0
EOF