0
SECTION
2
HEADER
9
$INSUNITS
70
4
0
ENDSEC
0
SECTION
2
TABLES
0
TABLE
2
LTYPE
0
LTYPE
72
65
70
0
2
CONTINUOUS
3
______
73
0
40
0
0
LTYPE
72
65
70
0
2
DASHED
3
_ _ _ 
73
2
40
7.5
49
5
49
-2.5
0
LTYPE
72
65
70
0
2
DOTTED
3
. . . 
73
2
40
1.5
49
0.5
49
-1
0
ENDTAB
0
TABLE
2
LAYER
0
ENDTAB
0
ENDSEC
0
SECTION
2
ENTITIES
0
LINE
8
0
6
CONTINUOUS
10
188.3204164
20
-121.8393603
11
190.3155445
21
-121.9788733
0
LINE
8
0
6
CONTINUOUS
10
190.3155445
20
-121.9788733
11
190.8735962
21
-113.9983609
0
LINE
8
0
6
CONTINUOUS
10
190.8735962
20
-113.9983609
11
188.8784681
21
-113.8588479
0
LINE
8
0
6
CONTINUOUS
10
188.8784681
20
-113.8588479
11
188.3204164
21
-121.8393603
0
ENDSEC
0
EOF