0
SECTION
2
HEADER
9
$INSUNITS
70
4
0
ENDSEC
0
SECTION
2
TABLES
0
TABLE
2
LTYPE
0
LTYPE
72
65
70
64
2
CONTINUOUS
3
______
73
0
40
0
0
ENDTAB
0
TABLE
2
LAYER
0
ENDTAB
0
ENDSEC
0
SECTION
2
ENTITIES
0
LINE
8
0
10
34.9
20
-159.1
11
34.9
21
-64.1
0
ARC
8
0
10
40.9
20
-64.1
40
6
50
90
51
180
0
LINE
8
0
10
40.9
20
-58.1
11
78.3
21
-58.1
0
ARC
8
0
10
78.3
20
-64.1
40
6
50
448.8450499
51
90
0
LINE
8
0
10
78.4209379
20
-58.101219
11
82.624348
21
-58.1859615
0
ARC
8
0
10
82.5034101
20
-64.1847425
40
6
50
447.9999998
51
88.8450497
0
LINE
8
0
10
82.7128071
20
-58.1883975
11
120.090024
21
-59.4936386
0
ARC
8
0
10
119.880627
20
-65.4899836
40
6
50
446.8450496
51
88.0000001
0
LINE
8
0
10
120.2108457
20
-59.4990775
11
124.4087381
21
-59.7304653
0
ARC
8
0
10
124.0785194
20
-65.7213714
40
6
50
445.9999995
51
86.8450496
0
LINE
8
0
10
124.4970583
20
-59.7359871
11
143.6502876
21
-61.0753114
0
LINE
8
0
10
143.6502881
20
-61.0753114
11
186.0467602
21
-64.0399616
0
ARC
8
0
10
185.6282213
20
-70.0253459
40
6
50
356.0000004
51
85.9999999
0
LINE
8
0
10
191.6136056
20
-70.4438847
11
186.4337482
21
-144.5192965
0
LINE
8
0
10
186.4337482
20
-144.5192965
11
191.9119771
21
-156.3445177
0
LINE
8
0
10
191.9119771
20
-156.3445177
11
205.6142852
21
-165.5868413
0
ARC
8
0
10
202.2591278
20
-170.5610667
40
6
50
326
51
55.9999998
0
LINE
8
0
10
207.2333532
20
-173.9162241
11
191.967387
21
-196.5489498
0
ARC
8
0
10
186.9931616
20
-193.1937924
40
6
50
235.2425593
51
326.0000001
0
LINE
8
0
10
183.5725408
20
-198.1232299
11
167.8528501
21
-187.2150683
0
LINE
8
0
10
167.8528501
20
-187.2150683
11
150.9105435
21
-178.9825903
0
LINE
8
0
10
150.9105435
20
-178.9825903
11
134.4076249
21
-173.620467
0
LINE
8
0
10
134.4076249
20
-173.620467
11
115.5525887
21
-170.3803352
0
LINE
8
0
10
115.5525887
20
-170.3803352
11
40.4778541
21
-165.085131
0
ARC
8
0
10
40.9
20
-159.1
40
6
50
180
51
265.9654703
0
CIRCLE
8
0
10
39.9
20
-63.1
40
1.15
0
CIRCLE
8
0
10
186.6955418
20
-69.0975383
40
1.15
0
CIRCLE
8
0
10
184.8402055
20
-152.9724317
40
1.15
0
CIRCLE
8
0
10
187.2630062
20
-194.5820229
40
1.15
0
CIRCLE
8
0
10
115.1150838
20
-165.2274393
40
1.15
0
CIRCLE
8
0
10
39.9
20
-160.1
40
1.15
0
ENDSEC
0
EOF