0
SECTION
2
HEADER
9
$INSUNITS
70
4
0
ENDSEC
0
SECTION
2
TABLES
0
TABLE
2
LTYPE
0
LTYPE
72
65
70
64
2
CONTINUOUS
3
______
73
0
40
0
0
ENDTAB
0
TABLE
2
LAYER
0
ENDTAB
0
ENDSEC
0
SECTION
2
ENTITIES
0
LINE
8
0
10
-15.1
20
-9.1
11
-15.1
21
85.9
0
ARC
8
0
10
-9.1
20
85.9
40
6
50
90
51
180
0
LINE
8
0
10
-9.1
20
91.9
11
28.1348539
21
91.9
0
LINE
8
0
10
28.1348539
20
91.9
11
34.478089
21
92.2494503
0
ARC
8
0
10
34.80813
20
86.2585344
40
6
50
447.0000004
51
93.1532505
0
LINE
8
0
10
35.1221457
20
92.2503116
11
53.2972033
21
91.2977972
0
LINE
8
0
10
53.2972036
20
91.2977972
11
72.2726063
21
90.3033384
0
LINE
8
0
10
72.2726063
20
90.3033384
11
76.0858759
21
90.3559697
0
ARC
8
0
10
76.1686808
20
84.3565411
40
6
50
444.9999996
51
90.790754
0
LINE
8
0
10
76.6916153
20
90.3337093
11
94.8223588
21
88.7474748
0
LINE
8
0
10
94.8223591
20
88.7474748
11
138.1568282
21
84.9561999
0
ARC
8
0
10
137.6338937
20
78.9790317
40
6
50
354.9999996
51
85
0
LINE
8
0
10
143.6110619
20
78.4560972
11
137.1391991
21
4.4823685
0
LINE
8
0
10
137.1391991
20
4.4823685
11
142.410215
21
-7.4366596
0
LINE
8
0
10
142.410215
20
-7.4366596
11
155.9491356
21
-16.9167139
0
ARC
8
0
10
152.507677
20
-21.8316262
40
6
50
325.0000003
51
54.9999998
0
LINE
8
0
10
157.4225893
20
-25.2730848
11
141.7639525
21
-47.6359356
0
ARC
8
0
10
136.8490402
20
-44.194477
40
6
50
234.2425595
51
324.9999998
0
LINE
8
0
10
133.3429099
20
-49.0634656
11
117.8159874
21
-37.8826192
0
LINE
8
0
10
117.8159874
20
-37.8826192
11
101.0199375
21
-29.3557109
0
LINE
8
0
10
101.0199375
20
-29.3557109
11
84.6131138
21
-23.7063885
0
LINE
8
0
10
84.6131138
20
-23.7063885
11
65.8790083
21
-20.1493635
0
LINE
8
0
10
65.8790083
20
-20.1493635
11
-9.5020746
21
-15.0865128
0
ARC
8
0
10
-9.1
20
-9.1
40
6
50
180
51
266.1575909
0
CIRCLE
8
0
10
-10.1
20
86.9
40
1.15
0
CIRCLE
8
0
10
54.086489
20
87.250943
40
1.15
0
CIRCLE
8
0
10
138.7172441
20
79.8880707
40
1.15
0
CIRCLE
8
0
10
135.3983715
20
-3.941668
40
1.15
0
CIRCLE
8
0
10
137.0946159
20
-45.5872055
40
1.15
0
CIRCLE
8
0
10
65.46999
20
-14.9779379
40
1.15
0
CIRCLE
8
0
10
-10.1
20
-10.1
40
1.15
0
ENDSEC
0
EOF