0
SECTION
2
HEADER
9
$INSUNITS
70
4
0
ENDSEC
0
SECTION
2
TABLES
0
TABLE
2
LTYPE
0
LTYPE
72
65
70
64
2
CONTINUOUS
3
______
73
0
40
0
0
ENDTAB
0
TABLE
2
LAYER
0
ENDTAB
0
ENDSEC
0
SECTION
2
ENTITIES
0
LINE
8
0
10
36.5879274
20
-161.7576065
11
23.2170176
21
-85.9274094
0
ARC
8
0
10
29.1258641
20
-84.8855203
40
6
50
100.0000003
51
190.0000001
0
LINE
8
0
10
28.083975
20
-78.9766738
11
42.883532
21
-76.3671125
0
ARC
8
0
10
47.9823189
20
-79.5297653
40
6
50
460.0000003
51
508.1896849
0
LINE
8
0
10
46.9404298
20
-73.6209188
11
62.2906282
21
-70.9142647
0
LINE
8
0
10
62.2906282
20
-70.9142647
11
63.4891744
21
-68.6796272
0
ARC
8
0
10
68.776656
20
-71.5155642
40
6
50
458
51
151.7931479
0
LINE
8
0
10
67.9416174
20
-65.5739558
11
82.1062608
21
-63.583245
0
ARC
8
0
10
87.669364
20
-65.8308845
40
6
50
458
51
518.0000008
0
LINE
8
0
10
86.8343254
20
-59.8892761
11
105.1542847
21
-57.3145738
0
ARC
8
0
10
105.9893233
20
-63.2561822
40
6
50
434.330442
51
97.9999998
0
LINE
8
0
10
107.6098568
20
-57.4791699
11
112.6516581
21
-58.8934663
0
LINE
8
0
10
112.6516581
20
-58.8934663
11
130.0689957
21
-57.6755275
0
ARC
8
0
10
130.4875345
20
-63.6609118
40
6
50
430.3304375
51
93.9999998
0
LINE
8
0
10
132.5071049
20
-58.0110149
11
137.4379676
21
-59.7735646
0
LINE
8
0
10
137.4379676
20
-59.7735646
11
179.6478364
21
-59.7735646
0
ARC
8
0
10
179.6478364
20
-65.7735646
40
6
50
360
51
90
0
LINE
8
0
10
185.6478364
20
-65.7735646
11
185.6478364
21
-125.0907824
0
LINE
8
0
10
185.6478364
20
-125.0907824
11
201.159593
21
-138.0349876
0
ARC
8
0
10
197.315378
20
-142.641723
40
6
50
340.0000005
51
50.1557764
0
LINE
8
0
10
202.9535337
20
-144.6938438
11
193.4624748
21
-170.770314
0
ARC
8
0
10
187.8243191
20
-168.7181932
40
6
50
249.9999996
51
340.0000001
0
LINE
8
0
10
185.7721982
20
-174.3563489
11
126.4117055
21
-152.7508965
0
LINE
8
0
10
126.4117055
20
-152.7508965
11
43.4874558
21
-166.6333647
0
ARC
8
0
10
42.4967739
20
-160.7157174
40
6
50
190.0000001
51
279.5038367
0
CIRCLE
8
0
10
27.9674082
20
-84.0743608
40
1.5
0
CIRCLE
8
0
10
96.5509974
20
-62.5629972
40
1.5
0
CIRCLE
8
0
10
180.6478364
20
-64.7735646
40
1.5
0
CIRCLE
8
0
10
180.6478364
20
-127.2735646
40
1.5
0
CIRCLE
8
0
10
188.4219915
20
-169.999906
40
1.5
0
CIRCLE
8
0
10
125.6975091
20
-147.1700614
40
1.5
0
CIRCLE
8
0
10
41.6856144
20
-161.8741733
40
1.5
0
ENDSEC
0
EOF