0
SECTION
2
HEADER
9
$INSUNITS
70
4
0
ENDSEC
0
SECTION
2
TABLES
0
TABLE
2
LTYPE
0
LTYPE
72
65
70
64
2
CONTINUOUS
3
______
73
0
40
0
0
ENDTAB
0
TABLE
2
LAYER
0
ENDTAB
0
ENDSEC
0
SECTION
2
ENTITIES
0
LINE
8
0
10
42.4967739
20
-160.7157174
11
60.7157174
21
-157.5032261
0
LINE
8
0
10
60.7157174
20
-157.5032261
11
57.5032261
21
-139.2842826
0
LINE
8
0
10
57.5032261
20
-139.2842826
11
39.2842826
21
-142.4967739
0
LINE
8
0
10
39.2842826
20
-142.4967739
11
42.4967739
21
-160.7157174
0
LINE
8
0
10
39.1106344
20
-141.5119662
11
57.3295779
21
-138.2994749
0
LINE
8
0
10
57.3295779
20
-138.2994749
11
54.1170866
21
-120.0805314
0
LINE
8
0
10
54.1170866
20
-120.0805314
11
35.8981431
21
-123.2930227
0
LINE
8
0
10
35.8981431
20
-123.2930227
11
39.1106344
21
-141.5119662
0
LINE
8
0
10
35.7244949
20
-122.308215
11
53.9434384
21
-119.0957237
0
LINE
8
0
10
53.9434384
20
-119.0957237
11
50.7309471
21
-100.8767802
0
LINE
8
0
10
50.7309471
20
-100.8767802
11
32.5120036
21
-104.0892715
0
LINE
8
0
10
32.5120036
20
-104.0892715
11
35.7244949
21
-122.308215
0
LINE
8
0
10
32.3383554
20
-103.1044638
11
50.5572989
21
-99.8919725
0
LINE
8
0
10
50.5572989
20
-99.8919725
11
47.3448076
21
-81.673029
0
LINE
8
0
10
47.3448076
20
-81.673029
11
29.1258641
21
-84.8855203
0
LINE
8
0
10
29.1258641
20
-84.8855203
11
32.3383554
21
-103.1044638
0
LINE
8
0
10
61.3532287
20
-155.3599624
11
79.5721722
21
-152.1474711
0
LINE
8
0
10
79.5721722
20
-152.1474711
11
76.3596809
21
-133.9285276
0
LINE
8
0
10
76.3596809
20
-133.9285276
11
58.1407374
21
-137.1410189
0
LINE
8
0
10
58.1407374
20
-137.1410189
11
61.3532287
21
-155.3599624
0
LINE
8
0
10
57.9670892
20
-136.1562112
11
76.1860327
21
-132.9437199
0
LINE
8
0
10
76.1860327
20
-132.9437199
11
72.9735414
21
-114.7247764
0
LINE
8
0
10
72.9735414
20
-114.7247764
11
54.7545979
21
-117.9372677
0
LINE
8
0
10
54.7545979
20
-117.9372677
11
57.9670892
21
-136.1562112
0
LINE
8
0
10
54.5809497
20
-116.95246
11
72.7998932
21
-113.7399687
0
LINE
8
0
10
72.7998932
20
-113.7399687
11
69.5874019
21
-95.5210252
0
LINE
8
0
10
69.5874019
20
-95.5210252
11
51.3684584
21
-98.7335165
0
LINE
8
0
10
51.3684584
20
-98.7335165
11
54.5809497
21
-116.95246
0
LINE
8
0
10
51.1948102
20
-97.7487088
11
69.4137537
21
-94.5362175
0
LINE
8
0
10
69.4137537
20
-94.5362175
11
66.2012624
21
-76.317274
0
LINE
8
0
10
66.2012624
20
-76.317274
11
47.9823189
21
-79.5297653
0
LINE
8
0
10
47.9823189
20
-79.5297653
11
51.1948102
21
-97.7487088
0
LINE
8
0
10
79.4929848
20
-147.7662054
11
97.8129441
21
-145.1915031
0
LINE
8
0
10
97.8129441
20
-145.1915031
11
95.2382418
21
-126.8715438
0
LINE
8
0
10
95.2382418
20
-126.8715438
11
76.9182825
21
-129.4462461
0
LINE
8
0
10
76.9182825
20
-129.4462461
11
79.4929848
21
-147.7662054
0
LINE
8
0
10
76.7791093
20
-128.4559781
11
95.0990686
21
-125.8812758
0
LINE
8
0
10
95.0990686
20
-125.8812758
11
92.5243663
21
-107.5613165
0
LINE
8
0
10
92.5243663
20
-107.5613165
11
74.204407
21
-110.1360188
0
LINE
8
0
10
74.204407
20
-110.1360188
11
76.7791093
21
-128.4559781
0
LINE
8
0
10
74.0652338
20
-109.1457508
11
92.3851931
21
-106.5710485
0
LINE
8
0
10
92.3851931
20
-106.5710485
11
89.8104908
21
-88.2510892
0
LINE
8
0
10
89.8104908
20
-88.2510892
11
71.4905315
21
-90.8257915
0
LINE
8
0
10
71.4905315
20
-90.8257915
11
74.0652338
21
-109.1457508
0
LINE
8
0
10
71.3513583
20
-89.8355235
11
89.6713176
21
-87.2608212
0
LINE
8
0
10
89.6713176
20
-87.2608212
11
87.0966153
21
-68.9408619
0
LINE
8
0
10
87.0966153
20
-68.9408619
11
68.776656
21
-71.5155642
0
LINE
8
0
10
68.776656
20
-71.5155642
11
71.3513583
21
-89.8355235
0
LINE
8
0
10
98.3856928
20
-142.0815257
11
116.7056521
21
-139.5068234
0
LINE
8
0
10
116.7056521
20
-139.5068234
11
114.1309498
21
-121.1868641
0
LINE
8
0
10
114.1309498
20
-121.1868641
11
95.8109905
21
-123.7615664
0
LINE
8
0
10
95.8109905
20
-123.7615664
11
98.3856928
21
-142.0815257
0
LINE
8
0
10
95.6718173
20
-122.7712984
11
113.9917766
21
-120.1965961
0
LINE
8
0
10
113.9917766
20
-120.1965961
11
111.4170743
21
-101.8766368
0
LINE
8
0
10
111.4170743
20
-101.8766368
11
93.097115
21
-104.4513391
0
LINE
8
0
10
93.097115
20
-104.4513391
11
95.6718173
21
-122.7712984
0
LINE
8
0
10
92.9579418
20
-103.4610711
11
111.2779011
21
-100.8863688
0
LINE
8
0
10
111.2779011
20
-100.8863688
11
108.7031988
21
-82.5664095
0
LINE
8
0
10
108.7031988
20
-82.5664095
11
90.3832395
21
-85.1411118
0
LINE
8
0
10
90.3832395
20
-85.1411118
11
92.9579418
21
-103.4610711
0
LINE
8
0
10
90.2440663
20
-84.1508438
11
108.5640256
21
-81.5761415
0
LINE
8
0
10
108.5640256
20
-81.5761415
11
105.9893233
21
-63.2561822
0
LINE
8
0
10
105.9893233
20
-63.2561822
11
87.669364
21
-65.8308845
0
LINE
8
0
10
87.669364
20
-65.8308845
11
90.2440663
21
-84.1508438
0
LINE
8
0
10
116.0435967
20
-122.3113394
11
134.4985316
21
-121.0208447
0
LINE
8
0
10
134.4985316
20
-121.0208447
11
133.2080369
21
-102.5659098
0
LINE
8
0
10
133.2080369
20
-102.5659098
11
114.753102
21
-103.8564045
0
LINE
8
0
10
114.753102
20
-103.8564045
11
116.0435967
21
-122.3113394
0
LINE
8
0
10
114.6833455
20
-102.8588404
11
133.1382804
21
-101.5683457
0
LINE
8
0
10
133.1382804
20
-101.5683457
11
131.8477857
21
-83.1134108
0
LINE
8
0
10
131.8477857
20
-83.1134108
11
113.3928508
21
-84.4039055
0
LINE
8
0
10
113.3928508
20
-84.4039055
11
114.6833455
21
-102.8588404
0
LINE
8
0
10
113.3230943
20
-83.4063414
11
131.7780292
21
-82.1158467
0
LINE
8
0
10
131.7780292
20
-82.1158467
11
130.4875345
21
-63.6609118
0
LINE
8
0
10
130.4875345
20
-63.6609118
11
112.0325996
21
-64.9514065
0
LINE
8
0
10
112.0325996
20
-64.9514065
11
113.3230943
21
-83.4063414
0
LINE
8
0
10
136.3978364
20
-123.2735646
11
154.8978364
21
-123.2735646
0
LINE
8
0
10
154.8978364
20
-123.2735646
11
154.8978364
21
-104.7735646
0
LINE
8
0
10
154.8978364
20
-104.7735646
11
136.3978364
21
-104.7735646
0
LINE
8
0
10
136.3978364
20
-104.7735646
11
136.3978364
21
-123.2735646
0
LINE
8
0
10
136.3978364
20
-103.7735646
11
154.8978364
21
-103.7735646
0
LINE
8
0
10
154.8978364
20
-103.7735646
11
154.8978364
21
-85.2735646
0
LINE
8
0
10
154.8978364
20
-85.2735646
11
136.3978364
21
-85.2735646
0
LINE
8
0
10
136.3978364
20
-85.2735646
11
136.3978364
21
-103.7735646
0
LINE
8
0
10
136.3978364
20
-84.2735646
11
154.8978364
21
-84.2735646
0
LINE
8
0
10
154.8978364
20
-84.2735646
11
154.8978364
21
-65.7735646
0
LINE
8
0
10
154.8978364
20
-65.7735646
11
136.3978364
21
-65.7735646
0
LINE
8
0
10
136.3978364
20
-65.7735646
11
136.3978364
21
-84.2735646
0
LINE
8
0
10
140.119366
20
-131.6677215
11
133.7919933
21
-149.052035
0
LINE
8
0
10
133.7919933
20
-149.052035
11
151.1763068
21
-155.3794077
0
LINE
8
0
10
151.1763068
20
-155.3794077
11
157.5036795
21
-137.9950942
0
LINE
8
0
10
157.5036795
20
-137.9950942
11
140.119366
21
-131.6677215
0
LINE
8
0
10
160.0252153
20
-133.9910359
11
153.6978426
21
-151.3753494
0
LINE
8
0
10
153.6978426
20
-151.3753494
11
171.0821561
21
-157.7027221
0
LINE
8
0
10
171.0821561
20
-157.7027221
11
177.4095288
21
-140.3184086
0
LINE
8
0
10
177.4095288
20
-140.3184086
11
160.0252153
21
-133.9910359
0
LINE
8
0
10
178.3492214
20
-140.6604287
11
172.0218487
21
-158.0447422
0
LINE
8
0
10
172.0218487
20
-158.0447422
11
189.4061622
21
-164.3721149
0
LINE
8
0
10
189.4061622
20
-164.3721149
11
195.7335349
21
-146.9878014
0
LINE
8
0
10
195.7335349
20
-146.9878014
11
178.3492214
21
-140.6604287
0
ENDSEC
0
EOF