0
SECTION
2
HEADER
9
$INSUNITS
70
4
0
ENDSEC
0
SECTION
2
TABLES
0
TABLE
2
LTYPE
0
LTYPE
72
65
70
64
2
CONTINUOUS
3
______
73
0
40
0
0
ENDTAB
0
TABLE
2
LAYER
0
ENDTAB
0
ENDSEC
0
SECTION
2
ENTITIES
0
LINE
8
0
10
-9.1
20
-9.1
11
9.1
21
-9.1
0
LINE
8
0
10
9.1
20
-9.1
11
9.1
21
9.1
0
LINE
8
0
10
9.1
20
9.1
11
-9.1
21
9.1
0
LINE
8
0
10
-9.1
20
9.1
11
-9.1
21
-9.1
0
LINE
8
0
10
-9.1
20
10.1
11
9.1
21
10.1
0
LINE
8
0
10
9.1
20
10.1
11
9.1
21
28.3
0
LINE
8
0
10
9.1
20
28.3
11
-9.1
21
28.3
0
LINE
8
0
10
-9.1
20
28.3
11
-9.1
21
10.1
0
LINE
8
0
10
-9.1
20
29.3
11
9.1
21
29.3
0
LINE
8
0
10
9.1
20
29.3
11
9.1
21
47.5
0
LINE
8
0
10
9.1
20
47.5
11
-9.1
21
47.5
0
LINE
8
0
10
-9.1
20
47.5
11
-9.1
21
29.3
0
LINE
8
0
10
-9.1
20
48.5
11
9.1
21
48.5
0
LINE
8
0
10
9.1
20
48.5
11
9.1
21
66.7
0
LINE
8
0
10
9.1
20
66.7
11
-9.1
21
66.7
0
LINE
8
0
10
-9.1
20
66.7
11
-9.1
21
48.5
0
LINE
8
0
10
-9.1
20
67.7
11
9.1
21
67.7
0
LINE
8
0
10
9.1
20
67.7
11
9.1
21
85.9
0
LINE
8
0
10
9.1
20
85.9
11
-9.1
21
85.9
0
LINE
8
0
10
-9.1
20
85.9
11
-9.1
21
67.7
0
LINE
8
0
10
10.1
20
-9.1
11
28.3
21
-9.1
0
LINE
8
0
10
28.3
20
-9.1
11
28.3
21
9.1
0
LINE
8
0
10
28.3
20
9.1
11
10.1
21
9.1
0
LINE
8
0
10
10.1
20
9.1
11
10.1
21
-9.1
0
LINE
8
0
10
10.1
20
10.1
11
28.3
21
10.1
0
LINE
8
0
10
28.3
20
10.1
11
28.3
21
28.3
0
LINE
8
0
10
28.3
20
28.3
11
10.1
21
28.3
0
LINE
8
0
10
10.1
20
28.3
11
10.1
21
10.1
0
LINE
8
0
10
10.1
20
29.3
11
28.3
21
29.3
0
LINE
8
0
10
28.3
20
29.3
11
28.3
21
47.5
0
LINE
8
0
10
28.3
20
47.5
11
10.1
21
47.5
0
LINE
8
0
10
10.1
20
47.5
11
10.1
21
29.3
0
LINE
8
0
10
10.1
20
48.5
11
28.3
21
48.5
0
LINE
8
0
10
28.3
20
48.5
11
28.3
21
66.7
0
LINE
8
0
10
28.3
20
66.7
11
10.1
21
66.7
0
LINE
8
0
10
10.1
20
66.7
11
10.1
21
48.5
0
LINE
8
0
10
10.1
20
67.7
11
28.3
21
67.7
0
LINE
8
0
10
28.3
20
67.7
11
28.3
21
85.9
0
LINE
8
0
10
28.3
20
85.9
11
10.1
21
85.9
0
LINE
8
0
10
10.1
20
85.9
11
10.1
21
67.7
0
LINE
8
0
10
29.836214
20
-8.6112716
11
48.0112716
21
-9.563786
0
LINE
8
0
10
48.0112716
20
-9.563786
11
48.963786
21
8.6112716
0
LINE
8
0
10
48.963786
20
8.6112716
11
30.7887284
21
9.563786
0
LINE
8
0
10
30.7887284
20
9.563786
11
29.836214
21
-8.6112716
0
LINE
8
0
10
30.8410644
20
10.5624155
11
49.016122
21
9.6099011
0
LINE
8
0
10
49.016122
20
9.6099011
11
49.9686364
21
27.7849587
0
LINE
8
0
10
49.9686364
20
27.7849587
11
31.7935788
21
28.7374731
0
LINE
8
0
10
31.7935788
20
28.7374731
11
30.8410644
21
10.5624155
0
LINE
8
0
10
31.8459148
20
29.7361026
11
50.0209724
21
28.7835882
0
LINE
8
0
10
50.0209724
20
28.7835882
11
50.9734868
21
46.9586458
0
LINE
8
0
10
50.9734868
20
46.9586458
11
32.7984292
21
47.9111602
0
LINE
8
0
10
32.7984292
20
47.9111602
11
31.8459148
21
29.7361026
0
LINE
8
0
10
32.8507652
20
48.9097897
11
51.0258228
21
47.9572753
0
LINE
8
0
10
51.0258228
20
47.9572753
11
51.9783372
21
66.1323329
0
LINE
8
0
10
51.9783372
20
66.1323329
11
33.8032796
21
67.0848473
0
LINE
8
0
10
33.8032796
20
67.0848473
11
32.8507652
21
48.9097897
0
LINE
8
0
10
33.8556156
20
68.0834768
11
52.0306732
21
67.1309624
0
LINE
8
0
10
52.0306732
20
67.1309624
11
52.9831876
21
85.30602
0
LINE
8
0
10
52.9831876
20
85.30602
11
34.80813
21
86.2585344
0
LINE
8
0
10
34.80813
20
86.2585344
11
33.8556156
21
68.0834768
0
LINE
8
0
10
50.0147515
20
9.5575651
11
68.1898091
21
8.6050507
0
LINE
8
0
10
68.1898091
20
8.6050507
11
69.1423235
21
26.7801083
0
LINE
8
0
10
69.1423235
20
26.7801083
11
50.9672659
21
27.7326227
0
LINE
8
0
10
50.9672659
20
27.7326227
11
50.0147515
21
9.5575651
0
LINE
8
0
10
51.0196019
20
28.7312522
11
69.1946595
21
27.7787378
0
LINE
8
0
10
69.1946595
20
27.7787378
11
70.1471739
21
45.9537954
0
LINE
8
0
10
70.1471739
20
45.9537954
11
51.9721163
21
46.9063098
0
LINE
8
0
10
51.9721163
20
46.9063098
11
51.0196019
21
28.7312522
0
LINE
8
0
10
52.0244523
20
47.9049393
11
70.1995099
21
46.9524249
0
LINE
8
0
10
70.1995099
20
46.9524249
11
71.1520243
21
65.1274825
0
LINE
8
0
10
71.1520243
20
65.1274825
11
52.9769667
21
66.0799969
0
LINE
8
0
10
52.9769667
20
66.0799969
11
52.0244523
21
47.9049393
0
LINE
8
0
10
53.0293027
20
67.0786264
11
71.2043603
21
66.126112
0
LINE
8
0
10
71.2043603
20
66.126112
11
72.1568747
21
84.3011696
0
LINE
8
0
10
72.1568747
20
84.3011696
11
53.9818171
21
85.253684
0
LINE
8
0
10
53.9818171
20
85.253684
11
53.0293027
21
67.0786264
0
LINE
8
0
10
69.5622754
20
8.844983
11
87.6930189
21
7.2587485
0
LINE
8
0
10
87.6930189
20
7.2587485
11
89.2792534
21
25.389492
0
LINE
8
0
10
89.2792534
20
25.389492
11
71.1485099
21
26.9757265
0
LINE
8
0
10
71.1485099
20
26.9757265
11
69.5622754
21
8.844983
0
LINE
8
0
10
71.2356657
20
27.9719212
11
89.3664092
21
26.3856867
0
LINE
8
0
10
89.3664092
20
26.3856867
11
90.9526437
21
44.5164302
0
LINE
8
0
10
90.9526437
20
44.5164302
11
72.8219002
21
46.1026647
0
LINE
8
0
10
72.8219002
20
46.1026647
11
71.2356657
21
27.9719212
0
LINE
8
0
10
72.909056
20
47.0988594
11
91.0397995
21
45.5126249
0
LINE
8
0
10
91.0397995
20
45.5126249
11
92.626034
21
63.6433684
0
LINE
8
0
10
92.626034
20
63.6433684
11
74.4952905
21
65.2296029
0
LINE
8
0
10
74.4952905
20
65.2296029
11
72.909056
21
47.0988594
0
LINE
8
0
10
74.5824463
20
66.2257976
11
92.7131898
21
64.6395631
0
LINE
8
0
10
92.7131898
20
64.6395631
11
94.2994243
21
82.7703066
0
LINE
8
0
10
94.2994243
20
82.7703066
11
76.1686808
21
84.3565411
0
LINE
8
0
10
76.1686808
20
84.3565411
11
74.5824463
21
66.2257976
0
LINE
8
0
10
88.6892136
20
7.1715927
11
106.8199571
21
5.5853582
0
LINE
8
0
10
106.8199571
20
5.5853582
11
108.4061916
21
23.7161017
0
LINE
8
0
10
108.4061916
20
23.7161017
11
90.2754481
21
25.3023362
0
LINE
8
0
10
90.2754481
20
25.3023362
11
88.6892136
21
7.1715927
0
LINE
8
0
10
90.3626039
20
26.2985309
11
108.4933474
21
24.7122964
0
LINE
8
0
10
108.4933474
20
24.7122964
11
110.0795819
21
42.8430399
0
LINE
8
0
10
110.0795819
20
42.8430399
11
91.9488384
21
44.4292744
0
LINE
8
0
10
91.9488384
20
44.4292744
11
90.3626039
21
26.2985309
0
LINE
8
0
10
92.0359942
20
45.4254691
11
110.1667377
21
43.8392346
0
LINE
8
0
10
110.1667377
20
43.8392346
11
111.7529722
21
61.9699781
0
LINE
8
0
10
111.7529722
20
61.9699781
11
93.6222287
21
63.5562126
0
LINE
8
0
10
93.6222287
20
63.5562126
11
92.0359942
21
45.4254691
0
LINE
8
0
10
93.7093845
20
64.5524073
11
111.840128
21
62.9661728
0
LINE
8
0
10
111.840128
20
62.9661728
11
113.4263625
21
81.0969163
0
LINE
8
0
10
113.4263625
20
81.0969163
11
95.295619
21
82.6831508
0
LINE
8
0
10
95.295619
20
82.6831508
11
93.7093845
21
64.5524073
0
LINE
8
0
10
70.1151499
20
3.678495
11
66.6424262
21
-14.1871197
0
LINE
8
0
10
66.6424262
20
-14.1871197
11
84.5080409
21
-17.6598434
0
LINE
8
0
10
84.5080409
20
-17.6598434
11
87.9807646
21
0.2057713
0
LINE
8
0
10
87.9807646
20
0.2057713
11
70.1151499
21
3.678495
0
LINE
8
0
10
92.0827575
20
-0.6839726
11
86.1574171
21
-17.8924106
0
LINE
8
0
10
86.1574171
20
-17.8924106
11
103.3658551
21
-23.817751
0
LINE
8
0
10
103.3658551
20
-23.817751
11
109.2911955
21
-6.609313
0
LINE
8
0
10
109.2911955
20
-6.609313
11
92.0827575
21
-0.6839726
0
LINE
8
0
10
115.05765
20
-4.209538
11
106.7950229
21
-20.4258567
0
LINE
8
0
10
106.7950229
20
-20.4258567
11
123.0113416
21
-28.6884838
0
LINE
8
0
10
123.0113416
20
-28.6884838
11
131.2739687
21
-12.4721651
0
LINE
8
0
10
131.2739687
20
-12.4721651
11
115.05765
21
-4.209538
0
LINE
8
0
10
134.989337
20
-15.1196768
11
124.5502458
21
-30.028244
0
LINE
8
0
10
124.5502458
20
-30.028244
11
139.458813
21
-40.4673352
0
LINE
8
0
10
139.458813
20
-40.4673352
11
149.8979042
21
-25.558768
0
LINE
8
0
10
149.8979042
20
-25.558768
11
134.989337
21
-15.1196768
0
ENDSEC
0
EOF