0
SECTION
2
HEADER
9
$INSUNITS
70
4
0
ENDSEC
0
SECTION
2
TABLES
0
TABLE
2
LTYPE
0
LTYPE
72
65
70
64
2
CONTINUOUS
3
______
73
0
40
0
0
ENDTAB
0
TABLE
2
LAYER
0
ENDTAB
0
ENDSEC
0
SECTION
2
ENTITIES
0
LINE
8
0
10
42.3109017
20
-160.583136
11
60.583136
21
-157.6890983
0
LINE
8
0
10
60.583136
20
-157.6890983
11
57.6890983
21
-139.416864
0
LINE
8
0
10
57.6890983
20
-139.416864
11
39.416864
21
-142.3109017
0
LINE
8
0
10
39.416864
20
-142.3109017
11
42.3109017
21
-160.583136
0
LINE
8
0
10
39.2604296
20
-141.3232134
11
57.5326639
21
-138.4291757
0
LINE
8
0
10
57.5326639
20
-138.4291757
11
54.6386262
21
-120.1569414
0
LINE
8
0
10
54.6386262
20
-120.1569414
11
36.3663919
21
-123.0509791
0
LINE
8
0
10
36.3663919
20
-123.0509791
11
39.2604296
21
-141.3232134
0
LINE
8
0
10
36.2099575
20
-122.0632908
11
54.4821918
21
-119.1692531
0
LINE
8
0
10
54.4821918
20
-119.1692531
11
51.5881541
21
-100.8970188
0
LINE
8
0
10
51.5881541
20
-100.8970188
11
33.3159198
21
-103.7910565
0
LINE
8
0
10
33.3159198
20
-103.7910565
11
36.2099575
21
-122.0632908
0
LINE
8
0
10
33.1594854
20
-102.8033682
11
51.4317197
21
-99.9093305
0
LINE
8
0
10
51.4317197
20
-99.9093305
11
48.537682
21
-81.6370962
0
LINE
8
0
10
48.537682
20
-81.6370962
11
30.2654477
21
-84.5311339
0
LINE
8
0
10
30.2654477
20
-84.5311339
11
33.1594854
21
-102.8033682
0
LINE
8
0
10
61.2579554
20
-155.5572872
11
79.5301897
21
-152.6632495
0
LINE
8
0
10
79.5301897
20
-152.6632495
11
76.636152
21
-134.3910152
0
LINE
8
0
10
76.636152
20
-134.3910152
11
58.3639177
21
-137.2850529
0
LINE
8
0
10
58.3639177
20
-137.2850529
11
61.2579554
21
-155.5572872
0
LINE
8
0
10
58.2074833
20
-136.2973646
11
76.4797176
21
-133.4033269
0
LINE
8
0
10
76.4797176
20
-133.4033269
11
73.5856799
21
-115.1310926
0
LINE
8
0
10
73.5856799
20
-115.1310926
11
55.3134456
21
-118.0251303
0
LINE
8
0
10
55.3134456
20
-118.0251303
11
58.2074833
21
-136.2973646
0
LINE
8
0
10
55.1570112
20
-117.037442
11
73.4292455
21
-114.1434043
0
LINE
8
0
10
73.4292455
20
-114.1434043
11
70.5352078
21
-95.87117
0
LINE
8
0
10
70.5352078
20
-95.87117
11
52.2629735
21
-98.7652077
0
LINE
8
0
10
52.2629735
20
-98.7652077
11
55.1570112
21
-117.037442
0
LINE
8
0
10
52.1065391
20
-97.7775194
11
70.3787734
21
-94.8834817
0
LINE
8
0
10
70.3787734
20
-94.8834817
11
67.4847357
21
-76.6112474
0
LINE
8
0
10
67.4847357
20
-76.6112474
11
49.2125014
21
-79.5052851
0
LINE
8
0
10
49.2125014
20
-79.5052851
11
52.1065391
21
-97.7775194
0
LINE
8
0
10
79.527478
20
-148.2812691
11
97.8895818
21
-146.0266863
0
LINE
8
0
10
97.8895818
20
-146.0266863
11
95.634999
21
-127.6645825
0
LINE
8
0
10
95.634999
20
-127.6645825
11
77.2728952
21
-129.9191653
0
LINE
8
0
10
77.2728952
20
-129.9191653
11
79.527478
21
-148.2812691
0
LINE
8
0
10
77.1510258
20
-128.9266191
11
95.5131296
21
-126.6720363
0
LINE
8
0
10
95.5131296
20
-126.6720363
11
93.2585468
21
-108.3099325
0
LINE
8
0
10
93.2585468
20
-108.3099325
11
74.896443
21
-110.5645153
0
LINE
8
0
10
74.896443
20
-110.5645153
11
77.1510258
21
-128.9266191
0
LINE
8
0
10
74.7745736
20
-109.5719691
11
93.1366774
21
-107.3173863
0
LINE
8
0
10
93.1366774
20
-107.3173863
11
90.8820946
21
-88.9552825
0
LINE
8
0
10
90.8820946
20
-88.9552825
11
72.5199908
21
-91.2098653
0
LINE
8
0
10
72.5199908
20
-91.2098653
11
74.7745736
21
-109.5719691
0
LINE
8
0
10
72.3981214
20
-90.2173191
11
90.7602252
21
-87.9627363
0
LINE
8
0
10
90.7602252
20
-87.9627363
11
88.5056424
21
-69.6006325
0
LINE
8
0
10
88.5056424
20
-69.6006325
11
70.1435386
21
-71.8552153
0
LINE
8
0
10
70.1435386
20
-71.8552153
11
72.3981214
21
-90.2173191
0
LINE
8
0
10
98.51652
20
-142.9271784
11
116.8786238
21
-140.6725956
0
LINE
8
0
10
116.8786238
20
-140.6725956
11
114.624041
21
-122.3104918
0
LINE
8
0
10
114.624041
20
-122.3104918
11
96.2619372
21
-124.5650746
0
LINE
8
0
10
96.2619372
20
-124.5650746
11
98.51652
21
-142.9271784
0
LINE
8
0
10
96.1400678
20
-123.5725284
11
114.5021716
21
-121.3179456
0
LINE
8
0
10
114.5021716
20
-121.3179456
11
112.2475888
21
-102.9558418
0
LINE
8
0
10
112.2475888
20
-102.9558418
11
93.885485
21
-105.2104246
0
LINE
8
0
10
93.885485
20
-105.2104246
11
96.1400678
21
-123.5725284
0
LINE
8
0
10
93.7636156
20
-104.2178784
11
112.1257194
21
-101.9632956
0
LINE
8
0
10
112.1257194
20
-101.9632956
11
109.8711366
21
-83.6011918
0
LINE
8
0
10
109.8711366
20
-83.6011918
11
91.5090328
21
-85.8557746
0
LINE
8
0
10
91.5090328
20
-85.8557746
11
93.7636156
21
-104.2178784
0
LINE
8
0
10
91.3871634
20
-84.8632284
11
109.7492672
21
-82.6086456
0
LINE
8
0
10
109.7492672
20
-82.6086456
11
107.4946844
21
-64.2465418
0
LINE
8
0
10
107.4946844
20
-64.2465418
11
89.1325806
21
-66.5011246
0
LINE
8
0
10
89.1325806
20
-66.5011246
11
91.3871634
21
-84.8632284
0
LINE
8
0
10
116.5167717
20
-123.4681763
11
134.9914181
21
-122.4999611
0
LINE
8
0
10
134.9914181
20
-122.4999611
11
134.0232029
21
-104.0253147
0
LINE
8
0
10
134.0232029
20
-104.0253147
11
115.5485565
21
-104.9935299
0
LINE
8
0
10
115.5485565
20
-104.9935299
11
116.5167717
21
-123.4681763
0
LINE
8
0
10
115.4962206
20
-103.9949004
11
133.970867
21
-103.0266852
0
LINE
8
0
10
133.970867
20
-103.0266852
11
133.0026518
21
-84.5520388
0
LINE
8
0
10
133.0026518
20
-84.5520388
11
114.5280054
21
-85.520254
0
LINE
8
0
10
114.5280054
20
-85.520254
11
115.4962206
21
-103.9949004
0
LINE
8
0
10
114.4756695
20
-84.5216245
11
132.9503159
21
-83.5534093
0
LINE
8
0
10
132.9503159
20
-83.5534093
11
131.9821007
21
-65.0787629
0
LINE
8
0
10
131.9821007
20
-65.0787629
11
113.5074543
21
-66.0469781
0
LINE
8
0
10
113.5074543
20
-66.0469781
11
114.4756695
21
-84.5216245
0
LINE
8
0
10
136.8511183
20
-124.7854853
11
155.3483006
21
-125.1083548
0
LINE
8
0
10
155.3483006
20
-125.1083548
11
155.6711701
21
-106.6111725
0
LINE
8
0
10
155.6711701
20
-106.6111725
11
137.1739878
21
-106.288303
0
LINE
8
0
10
137.1739878
20
-106.288303
11
136.8511183
21
-124.7854853
0
LINE
8
0
10
137.1914402
20
-105.2884552
11
155.6886225
21
-105.6113247
0
LINE
8
0
10
155.6886225
20
-105.6113247
11
156.011492
21
-87.1141424
0
LINE
8
0
10
156.011492
20
-87.1141424
11
137.5143097
21
-86.7912729
0
LINE
8
0
10
137.5143097
20
-86.7912729
11
137.1914402
21
-105.2884552
0
LINE
8
0
10
137.5317621
20
-85.7914251
11
156.0289444
21
-86.1142946
0
LINE
8
0
10
156.0289444
20
-86.1142946
11
156.3518139
21
-67.6171123
0
LINE
8
0
10
156.3518139
20
-67.6171123
11
137.8546316
21
-67.2942428
0
LINE
8
0
10
137.8546316
20
-67.2942428
11
137.5317621
21
-85.7914251
0
LINE
8
0
10
133.7957757
20
-150.5145513
11
151.0670136
21
-157.1443584
0
LINE
8
0
10
151.0670136
20
-157.1443584
11
157.6968207
21
-139.8731205
0
LINE
8
0
10
157.6968207
20
-139.8731205
11
140.4255828
21
-133.2433134
0
LINE
8
0
10
140.4255828
20
-133.2433134
11
133.7957757
21
-150.5145513
0
LINE
8
0
10
160.2878529
20
-135.9136789
11
153.6580458
21
-153.1849168
0
LINE
8
0
10
153.6580458
20
-153.1849168
11
170.9292837
21
-159.8147239
0
LINE
8
0
10
170.9292837
20
-159.8147239
11
177.5590908
21
-142.543486
0
LINE
8
0
10
177.5590908
20
-142.543486
11
160.2878529
21
-135.9136789
0
LINE
8
0
10
178.4926712
20
-142.9018539
11
171.8628641
21
-160.1730918
0
LINE
8
0
10
171.8628641
20
-160.1730918
11
189.134102
21
-166.8028989
0
LINE
8
0
10
189.134102
20
-166.8028989
11
195.7639091
21
-149.531661
0
LINE
8
0
10
195.7639091
20
-149.531661
11
178.4926712
21
-142.9018539
0
ENDSEC
0
EOF