0
SECTION
2
HEADER
9
$INSUNITS
70
4
0
ENDSEC
0
SECTION
2
TABLES
0
TABLE
2
LTYPE
0
LTYPE
72
65
70
64
2
CONTINUOUS
3
______
73
0
40
0
0
ENDTAB
0
TABLE
2
LAYER
0
ENDTAB
0
ENDSEC
0
SECTION
2
ENTITIES
0
LINE
8
0
10
40.9
20
-159.1
11
59.1
21
-159.1
0
LINE
8
0
10
59.1
20
-159.1
11
59.1
21
-140.9
0
LINE
8
0
10
59.1
20
-140.9
11
40.9
21
-140.9
0
LINE
8
0
10
40.9
20
-140.9
11
40.9
21
-159.1
0
LINE
8
0
10
40.9
20
-139.9
11
59.1
21
-139.9
0
LINE
8
0
10
59.1
20
-139.9
11
59.1
21
-121.7
0
LINE
8
0
10
59.1
20
-121.7
11
40.9
21
-121.7
0
LINE
8
0
10
40.9
20
-121.7
11
40.9
21
-139.9
0
LINE
8
0
10
40.9
20
-120.7
11
59.1
21
-120.7
0
LINE
8
0
10
59.1
20
-120.7
11
59.1
21
-102.5
0
LINE
8
0
10
59.1
20
-102.5
11
40.9
21
-102.5
0
LINE
8
0
10
40.9
20
-102.5
11
40.9
21
-120.7
0
LINE
8
0
10
40.9
20
-101.5
11
59.1
21
-101.5
0
LINE
8
0
10
59.1
20
-101.5
11
59.1
21
-83.3
0
LINE
8
0
10
59.1
20
-83.3
11
40.9
21
-83.3
0
LINE
8
0
10
40.9
20
-83.3
11
40.9
21
-101.5
0
LINE
8
0
10
40.9
20
-82.3
11
59.1
21
-82.3
0
LINE
8
0
10
59.1
20
-82.3
11
59.1
21
-64.1
0
LINE
8
0
10
59.1
20
-64.1
11
40.9
21
-64.1
0
LINE
8
0
10
40.9
20
-64.1
11
40.9
21
-82.3
0
LINE
8
0
10
60.1
20
-159.1
11
78.3
21
-159.1
0
LINE
8
0
10
78.3
20
-159.1
11
78.3
21
-140.9
0
LINE
8
0
10
78.3
20
-140.9
11
60.1
21
-140.9
0
LINE
8
0
10
60.1
20
-140.9
11
60.1
21
-159.1
0
LINE
8
0
10
60.1
20
-139.9
11
78.3
21
-139.9
0
LINE
8
0
10
78.3
20
-139.9
11
78.3
21
-121.7
0
LINE
8
0
10
78.3
20
-121.7
11
60.1
21
-121.7
0
LINE
8
0
10
60.1
20
-121.7
11
60.1
21
-139.9
0
LINE
8
0
10
60.1
20
-120.7
11
78.3
21
-120.7
0
LINE
8
0
10
78.3
20
-120.7
11
78.3
21
-102.5
0
LINE
8
0
10
78.3
20
-102.5
11
60.1
21
-102.5
0
LINE
8
0
10
60.1
20
-102.5
11
60.1
21
-120.7
0
LINE
8
0
10
60.1
20
-101.5
11
78.3
21
-101.5
0
LINE
8
0
10
78.3
20
-101.5
11
78.3
21
-83.3
0
LINE
8
0
10
78.3
20
-83.3
11
60.1
21
-83.3
0
LINE
8
0
10
60.1
20
-83.3
11
60.1
21
-101.5
0
LINE
8
0
10
60.1
20
-82.3
11
78.3
21
-82.3
0
LINE
8
0
10
78.3
20
-82.3
11
78.3
21
-64.1
0
LINE
8
0
10
78.3
20
-64.1
11
60.1
21
-64.1
0
LINE
8
0
10
60.1
20
-64.1
11
60.1
21
-82.3
0
LINE
8
0
10
79.1879581
20
-159.1268711
11
97.3768711
21
-159.7620419
0
LINE
8
0
10
97.3768711
20
-159.7620419
11
98.0120419
21
-141.5731289
0
LINE
8
0
10
98.0120419
20
-141.5731289
11
79.8231289
21
-140.9379581
0
LINE
8
0
10
79.8231289
20
-140.9379581
11
79.1879581
21
-159.1268711
0
LINE
8
0
10
79.8580284
20
-139.9385672
11
98.0469414
21
-140.573738
0
LINE
8
0
10
98.0469414
20
-140.573738
11
98.6821122
21
-122.384825
0
LINE
8
0
10
98.6821122
20
-122.384825
11
80.4931992
21
-121.7496542
0
LINE
8
0
10
80.4931992
20
-121.7496542
11
79.8580284
21
-139.9385672
0
LINE
8
0
10
80.5280987
20
-120.7502633
11
98.7170117
21
-121.3854341
0
LINE
8
0
10
98.7170117
20
-121.3854341
11
99.3521825
21
-103.1965211
0
LINE
8
0
10
99.3521825
20
-103.1965211
11
81.1632695
21
-102.5613503
0
LINE
8
0
10
81.1632695
20
-102.5613503
11
80.5280987
21
-120.7502633
0
LINE
8
0
10
81.198169
20
-101.5619594
11
99.387082
21
-102.1971302
0
LINE
8
0
10
99.387082
20
-102.1971302
11
100.0222528
21
-84.0082172
0
LINE
8
0
10
100.0222528
20
-84.0082172
11
81.8333398
21
-83.3730464
0
LINE
8
0
10
81.8333398
20
-83.3730464
11
81.198169
21
-101.5619594
0
LINE
8
0
10
81.8682393
20
-82.3736555
11
100.0571523
21
-83.0088263
0
LINE
8
0
10
100.0571523
20
-83.0088263
11
100.6923231
21
-64.8199133
0
LINE
8
0
10
100.6923231
20
-64.8199133
11
82.5034101
21
-64.1847425
0
LINE
8
0
10
82.5034101
20
-64.1847425
11
81.8682393
21
-82.3736555
0
LINE
8
0
10
99.0463323
20
-140.6086375
11
117.2352453
21
-141.2438083
0
LINE
8
0
10
117.2352453
20
-141.2438083
11
117.8704161
21
-123.0548953
0
LINE
8
0
10
117.8704161
20
-123.0548953
11
99.6815031
21
-122.4197245
0
LINE
8
0
10
99.6815031
20
-122.4197245
11
99.0463323
21
-140.6086375
0
LINE
8
0
10
99.7164026
20
-121.4203336
11
117.9053156
21
-122.0555044
0
LINE
8
0
10
117.9053156
20
-122.0555044
11
118.5404864
21
-103.8665914
0
LINE
8
0
10
118.5404864
20
-103.8665914
11
100.3515734
21
-103.2314206
0
LINE
8
0
10
100.3515734
20
-103.2314206
11
99.7164026
21
-121.4203336
0
LINE
8
0
10
100.3864729
20
-102.2320297
11
118.5753859
21
-102.8672005
0
LINE
8
0
10
118.5753859
20
-102.8672005
11
119.2105567
21
-84.6782875
0
LINE
8
0
10
119.2105567
20
-84.6782875
11
101.0216437
21
-84.0431167
0
LINE
8
0
10
101.0216437
20
-84.0431167
11
100.3864729
21
-102.2320297
0
LINE
8
0
10
101.0565432
20
-83.0437258
11
119.2454562
21
-83.6788966
0
LINE
8
0
10
119.2454562
20
-83.6788966
11
119.880627
21
-65.4899836
0
LINE
8
0
10
119.880627
20
-65.4899836
11
101.691714
21
-64.8548128
0
LINE
8
0
10
101.691714
20
-64.8548128
11
101.0565432
21
-83.0437258
0
LINE
8
0
10
118.7909786
20
-141.3367265
11
136.9466443
21
-142.6062944
0
LINE
8
0
10
136.9466443
20
-142.6062944
11
138.2162122
21
-124.4506287
0
LINE
8
0
10
138.2162122
20
-124.4506287
11
120.0605465
21
-123.1810608
0
LINE
8
0
10
120.0605465
20
-123.1810608
11
118.7909786
21
-141.3367265
0
LINE
8
0
10
120.1303029
20
-122.1834967
11
138.2859686
21
-123.4530646
0
LINE
8
0
10
138.2859686
20
-123.4530646
11
139.5555365
21
-105.2973989
0
LINE
8
0
10
139.5555365
20
-105.2973989
11
121.3998708
21
-104.027831
0
LINE
8
0
10
121.3998708
20
-104.027831
11
120.1303029
21
-122.1834967
0
LINE
8
0
10
121.4696272
20
-103.0302669
11
139.6252929
21
-104.2998348
0
LINE
8
0
10
139.6252929
20
-104.2998348
11
140.8948608
21
-86.1441691
0
LINE
8
0
10
140.8948608
20
-86.1441691
11
122.7391951
21
-84.8746012
0
LINE
8
0
10
122.7391951
20
-84.8746012
11
121.4696272
21
-103.0302669
0
LINE
8
0
10
122.8089515
20
-83.8770371
11
140.9646172
21
-85.146605
0
LINE
8
0
10
140.9646172
20
-85.146605
11
142.2341851
21
-66.9909393
0
LINE
8
0
10
142.2341851
20
-66.9909393
11
124.0785194
21
-65.7213714
0
LINE
8
0
10
124.0785194
20
-65.7213714
11
122.8089515
21
-83.8770371
0
LINE
8
0
10
137.9442084
20
-142.6760508
11
156.0998741
21
-143.9456187
0
LINE
8
0
10
156.0998741
20
-143.9456187
11
157.369442
21
-125.789953
0
LINE
8
0
10
157.369442
20
-125.789953
11
139.2137763
21
-124.5203851
0
LINE
8
0
10
139.2137763
20
-124.5203851
11
137.9442084
21
-142.6760508
0
LINE
8
0
10
139.2835327
20
-123.522821
11
157.4391984
21
-124.7923889
0
LINE
8
0
10
157.4391984
20
-124.7923889
11
158.7087663
21
-106.6367232
0
LINE
8
0
10
158.7087663
20
-106.6367232
11
140.5531006
21
-105.3671553
0
LINE
8
0
10
140.5531006
20
-105.3671553
11
139.2835327
21
-123.522821
0
LINE
8
0
10
140.622857
20
-104.3695912
11
158.7785227
21
-105.6391591
0
LINE
8
0
10
158.7785227
20
-105.6391591
11
160.0480906
21
-87.4834934
0
LINE
8
0
10
160.0480906
20
-87.4834934
11
141.8924249
21
-86.2139255
0
LINE
8
0
10
141.8924249
20
-86.2139255
11
140.622857
21
-104.3695912
0
LINE
8
0
10
141.9621813
20
-85.2163614
11
160.117847
21
-86.4859293
0
LINE
8
0
10
160.117847
20
-86.4859293
11
161.3874149
21
-68.3302636
0
LINE
8
0
10
161.3874149
20
-68.3302636
11
143.2317492
21
-67.0606957
0
LINE
8
0
10
143.2317492
20
-67.0606957
11
141.9621813
21
-85.2163614
0
LINE
8
0
10
119.4339366
20
-146.4927786
11
116.2735397
21
-164.4162797
0
LINE
8
0
10
116.2735397
20
-164.4162797
11
134.1970408
21
-167.5766766
0
LINE
8
0
10
134.1970408
20
-167.5766766
11
137.3574377
21
-149.6531755
0
LINE
8
0
10
137.3574377
20
-149.6531755
11
119.4339366
21
-146.4927786
0
LINE
8
0
10
141.474334
20
-150.4711942
11
135.8502247
21
-167.7804227
0
LINE
8
0
10
135.8502247
20
-167.7804227
11
153.1594532
21
-173.404532
0
LINE
8
0
10
153.1594532
20
-173.404532
11
158.7835625
21
-156.0953035
0
LINE
8
0
10
158.7835625
20
-156.0953035
11
141.474334
21
-150.4711942
0
LINE
8
0
10
164.5072569
20
-153.5952554
11
156.528902
21
-169.9533071
0
LINE
8
0
10
156.528902
20
-169.9533071
11
172.8869537
21
-177.931662
0
LINE
8
0
10
172.8869537
20
-177.931662
11
180.8653086
21
-161.5736103
0
LINE
8
0
10
180.8653086
20
-161.5736103
11
164.5072569
21
-153.5952554
0
LINE
8
0
10
184.6263163
20
-164.1558768
11
174.4490055
21
-179.2443606
0
LINE
8
0
10
174.4490055
20
-179.2443606
11
189.5374893
21
-189.4216714
0
LINE
8
0
10
189.5374893
20
-189.4216714
11
199.7148001
21
-174.3331876
0
LINE
8
0
10
199.7148001
20
-174.3331876
11
184.6263163
21
-164.1558768
0
ENDSEC
0
EOF