0
SECTION
2
HEADER
9
$INSUNITS
70
4
0
ENDSEC
0
SECTION
2
TABLES
0
TABLE
2
LTYPE
0
LTYPE
72
65
70
64
2
CONTINUOUS
3
______
73
0
40
0
0
ENDTAB
0
TABLE
2
LAYER
0
ENDTAB
0
ENDSEC
0
SECTION
2
ENTITIES
0
LINE
8
0
10
-9.1
20
-9.1
11
9.1
21
-9.1
0
LINE
8
0
10
9.1
20
-9.1
11
9.1
21
9.1
0
LINE
8
0
10
9.1
20
9.1
11
-9.1
21
9.1
0
LINE
8
0
10
-9.1
20
9.1
11
-9.1
21
-9.1
0
LINE
8
0
10
-9.1
20
10.1
11
9.1
21
10.1
0
LINE
8
0
10
9.1
20
10.1
11
9.1
21
28.3
0
LINE
8
0
10
9.1
20
28.3
11
-9.1
21
28.3
0
LINE
8
0
10
-9.1
20
28.3
11
-9.1
21
10.1
0
LINE
8
0
10
-9.1
20
29.3
11
9.1
21
29.3
0
LINE
8
0
10
9.1
20
29.3
11
9.1
21
47.5
0
LINE
8
0
10
9.1
20
47.5
11
-9.1
21
47.5
0
LINE
8
0
10
-9.1
20
47.5
11
-9.1
21
29.3
0
LINE
8
0
10
-9.1
20
48.5
11
9.1
21
48.5
0
LINE
8
0
10
9.1
20
48.5
11
9.1
21
66.7
0
LINE
8
0
10
9.1
20
66.7
11
-9.1
21
66.7
0
LINE
8
0
10
-9.1
20
66.7
11
-9.1
21
48.5
0
LINE
8
0
10
-9.1
20
67.7
11
9.1
21
67.7
0
LINE
8
0
10
9.1
20
67.7
11
9.1
21
85.9
0
LINE
8
0
10
9.1
20
85.9
11
-9.1
21
85.9
0
LINE
8
0
10
-9.1
20
85.9
11
-9.1
21
67.7
0
LINE
8
0
10
10.1
20
-9.1
11
28.3
21
-9.1
0
LINE
8
0
10
28.3
20
-9.1
11
28.3
21
9.1
0
LINE
8
0
10
28.3
20
9.1
11
10.1
21
9.1
0
LINE
8
0
10
10.1
20
9.1
11
10.1
21
-9.1
0
LINE
8
0
10
10.1
20
10.1
11
28.3
21
10.1
0
LINE
8
0
10
28.3
20
10.1
11
28.3
21
28.3
0
LINE
8
0
10
28.3
20
28.3
11
10.1
21
28.3
0
LINE
8
0
10
10.1
20
28.3
11
10.1
21
10.1
0
LINE
8
0
10
10.1
20
29.3
11
28.3
21
29.3
0
LINE
8
0
10
28.3
20
29.3
11
28.3
21
47.5
0
LINE
8
0
10
28.3
20
47.5
11
10.1
21
47.5
0
LINE
8
0
10
10.1
20
47.5
11
10.1
21
29.3
0
LINE
8
0
10
10.1
20
48.5
11
28.3
21
48.5
0
LINE
8
0
10
28.3
20
48.5
11
28.3
21
66.7
0
LINE
8
0
10
28.3
20
66.7
11
10.1
21
66.7
0
LINE
8
0
10
10.1
20
66.7
11
10.1
21
48.5
0
LINE
8
0
10
10.1
20
67.7
11
28.3
21
67.7
0
LINE
8
0
10
28.3
20
67.7
11
28.3
21
85.9
0
LINE
8
0
10
28.3
20
85.9
11
10.1
21
85.9
0
LINE
8
0
10
10.1
20
85.9
11
10.1
21
67.7
0
LINE
8
0
10
29.836214
20
-4.6112716
11
48.0112716
21
-5.563786
0
LINE
8
0
10
48.0112716
20
-5.563786
11
48.963786
21
12.6112716
0
LINE
8
0
10
48.963786
20
12.6112716
11
30.7887284
21
13.563786
0
LINE
8
0
10
30.7887284
20
13.563786
11
29.836214
21
-4.6112716
0
LINE
8
0
10
30.8410644
20
14.5624155
11
49.016122
21
13.6099011
0
LINE
8
0
10
49.016122
20
13.6099011
11
49.9686364
21
31.7849587
0
LINE
8
0
10
49.9686364
20
31.7849587
11
31.7935788
21
32.7374731
0
LINE
8
0
10
31.7935788
20
32.7374731
11
30.8410644
21
14.5624155
0
LINE
8
0
10
31.8459148
20
33.7361026
11
50.0209724
21
32.7835882
0
LINE
8
0
10
50.0209724
20
32.7835882
11
50.9734868
21
50.9586458
0
LINE
8
0
10
50.9734868
20
50.9586458
11
32.7984292
21
51.9111602
0
LINE
8
0
10
32.7984292
20
51.9111602
11
31.8459148
21
33.7361026
0
LINE
8
0
10
32.8507652
20
52.9097897
11
51.0258228
21
51.9572753
0
LINE
8
0
10
51.0258228
20
51.9572753
11
51.9783372
21
70.1323329
0
LINE
8
0
10
51.9783372
20
70.1323329
11
33.8032796
21
71.0848473
0
LINE
8
0
10
33.8032796
20
71.0848473
11
32.8507652
21
52.9097897
0
LINE
8
0
10
33.8556156
20
72.0834768
11
52.0306732
21
71.1309624
0
LINE
8
0
10
52.0306732
20
71.1309624
11
52.9831876
21
89.30602
0
LINE
8
0
10
52.9831876
20
89.30602
11
34.80813
21
90.2585344
0
LINE
8
0
10
34.80813
20
90.2585344
11
33.8556156
21
72.0834768
0
LINE
8
0
10
50.0147515
20
13.5575651
11
68.1898091
21
12.6050507
0
LINE
8
0
10
68.1898091
20
12.6050507
11
69.1423235
21
30.7801083
0
LINE
8
0
10
69.1423235
20
30.7801083
11
50.9672659
21
31.7326227
0
LINE
8
0
10
50.9672659
20
31.7326227
11
50.0147515
21
13.5575651
0
LINE
8
0
10
51.0196019
20
32.7312522
11
69.1946595
21
31.7787378
0
LINE
8
0
10
69.1946595
20
31.7787378
11
70.1471739
21
49.9537954
0
LINE
8
0
10
70.1471739
20
49.9537954
11
51.9721163
21
50.9063098
0
LINE
8
0
10
51.9721163
20
50.9063098
11
51.0196019
21
32.7312522
0
LINE
8
0
10
52.0244523
20
51.9049393
11
70.1995099
21
50.9524249
0
LINE
8
0
10
70.1995099
20
50.9524249
11
71.1520243
21
69.1274825
0
LINE
8
0
10
71.1520243
20
69.1274825
11
52.9769667
21
70.0799969
0
LINE
8
0
10
52.9769667
20
70.0799969
11
52.0244523
21
51.9049393
0
LINE
8
0
10
53.0293027
20
71.0786264
11
71.2043603
21
70.126112
0
LINE
8
0
10
71.2043603
20
70.126112
11
72.1568747
21
88.3011696
0
LINE
8
0
10
72.1568747
20
88.3011696
11
53.9818171
21
89.253684
0
LINE
8
0
10
53.9818171
20
89.253684
11
53.0293027
21
71.0786264
0
LINE
8
0
10
69.4052676
20
9.8490944
11
87.5360111
21
8.2628599
0
LINE
8
0
10
87.5360111
20
8.2628599
11
89.1222456
21
26.3936034
0
LINE
8
0
10
89.1222456
20
26.3936034
11
70.9915021
21
27.9798379
0
LINE
8
0
10
70.9915021
20
27.9798379
11
69.4052676
21
9.8490944
0
LINE
8
0
10
71.0786579
20
28.9760326
11
89.2094014
21
27.3897981
0
LINE
8
0
10
89.2094014
20
27.3897981
11
90.7956359
21
45.5205416
0
LINE
8
0
10
90.7956359
20
45.5205416
11
72.6648924
21
47.1067761
0
LINE
8
0
10
72.6648924
20
47.1067761
11
71.0786579
21
28.9760326
0
LINE
8
0
10
72.7520482
20
48.1029708
11
90.8827917
21
46.5167363
0
LINE
8
0
10
90.8827917
20
46.5167363
11
92.4690262
21
64.6474798
0
LINE
8
0
10
92.4690262
20
64.6474798
11
74.3382827
21
66.2337143
0
LINE
8
0
10
74.3382827
20
66.2337143
11
72.7520482
21
48.1029708
0
LINE
8
0
10
74.4254385
20
67.229909
11
92.556182
21
65.6436745
0
LINE
8
0
10
92.556182
20
65.6436745
11
94.1424165
21
83.774418
0
LINE
8
0
10
94.1424165
20
83.774418
11
76.011673
21
85.3606525
0
LINE
8
0
10
76.011673
20
85.3606525
11
74.4254385
21
67.229909
0
LINE
8
0
10
88.5322057
20
8.1757041
11
106.6629492
21
6.5894696
0
LINE
8
0
10
106.6629492
20
6.5894696
11
108.2491837
21
24.7202131
0
LINE
8
0
10
108.2491837
20
24.7202131
11
90.1184402
21
26.3064476
0
LINE
8
0
10
90.1184402
20
26.3064476
11
88.5322057
21
8.1757041
0
LINE
8
0
10
90.205596
20
27.3026423
11
108.3363395
21
25.7164078
0
LINE
8
0
10
108.3363395
20
25.7164078
11
109.922574
21
43.8471513
0
LINE
8
0
10
109.922574
20
43.8471513
11
91.7918305
21
45.4333858
0
LINE
8
0
10
91.7918305
20
45.4333858
11
90.205596
21
27.3026423
0
LINE
8
0
10
91.8789863
20
46.4295805
11
110.0097298
21
44.843346
0
LINE
8
0
10
110.0097298
20
44.843346
11
111.5959643
21
62.9740895
0
LINE
8
0
10
111.5959643
20
62.9740895
11
93.4652208
21
64.560324
0
LINE
8
0
10
93.4652208
20
64.560324
11
91.8789863
21
46.4295805
0
LINE
8
0
10
93.5523766
20
65.5565187
11
111.6831201
21
63.9702842
0
LINE
8
0
10
111.6831201
20
63.9702842
11
113.2693546
21
82.1010277
0
LINE
8
0
10
113.2693546
20
82.1010277
11
95.1386111
21
83.6872622
0
LINE
8
0
10
95.1386111
20
83.6872622
11
93.5523766
21
65.5565187
0
LINE
8
0
10
69.9581421
20
4.6826064
11
66.4854184
21
-13.1830083
0
LINE
8
0
10
66.4854184
20
-13.1830083
11
84.3510331
21
-16.655732
0
LINE
8
0
10
84.3510331
20
-16.655732
11
87.8237568
21
1.2098827
0
LINE
8
0
10
87.8237568
20
1.2098827
11
69.9581421
21
4.6826064
0
LINE
8
0
10
91.9257497
20
0.3201388
11
86.0004093
21
-16.8882992
0
LINE
8
0
10
86.0004093
20
-16.8882992
11
103.2088473
21
-22.8136396
0
LINE
8
0
10
103.2088473
20
-22.8136396
11
109.1341877
21
-5.6052016
0
LINE
8
0
10
109.1341877
20
-5.6052016
11
91.9257497
21
0.3201388
0
LINE
8
0
10
114.9006422
20
-3.2054266
11
106.6380151
21
-19.4217453
0
LINE
8
0
10
106.6380151
20
-19.4217453
11
122.8543338
21
-27.6843724
0
LINE
8
0
10
122.8543338
20
-27.6843724
11
131.1169609
21
-11.4680537
0
LINE
8
0
10
131.1169609
20
-11.4680537
11
114.9006422
21
-3.2054266
0
LINE
8
0
10
134.8323292
20
-14.1155654
11
124.393238
21
-29.0241326
0
LINE
8
0
10
124.393238
20
-29.0241326
11
139.3018052
21
-39.4632238
0
LINE
8
0
10
139.3018052
20
-39.4632238
11
149.7408964
21
-24.5546566
0
LINE
8
0
10
149.7408964
20
-24.5546566
11
134.8323292
21
-14.1155654
0
ENDSEC
0
EOF