0
SECTION
2
HEADER
9
$INSUNITS
70
4
0
ENDSEC
0
SECTION
2
TABLES
0
TABLE
2
LTYPE
0
LTYPE
72
65
70
64
2
CONTINUOUS
3
______
73
0
40
0
0
ENDTAB
0
TABLE
2
LAYER
0
ENDTAB
0
ENDSEC
0
SECTION
2
ENTITIES
0
LINE
8
0
10
34.6
20
-159.1
11
34.6
21
-64.1
0
ARC
8
0
10
40.9
20
-64.1
40
6.3
50
90
51
180
0
LINE
8
0
10
40.9
20
-57.8
11
78.3
21
-57.8
0
ARC
8
0
10
78.3
20
-64.1
40
6.3
50
88.8450499
51
90
0
LINE
8
0
10
78.4269848
20
-57.8012799
11
82.6303949
21
-57.8860224
0
ARC
8
0
10
82.5034101
20
-64.1847425
40
6.3
50
87.9999998
51
88.8450497
0
LINE
8
0
10
82.7232769
20
-57.8885803
11
120.1004938
21
-59.1938214
0
ARC
8
0
10
119.880627
20
-65.4899836
40
6.3
50
86.8450496
51
88.0000001
0
LINE
8
0
10
120.2273566
20
-59.1995322
11
124.425249
21
-59.43092
0
ARC
8
0
10
124.0785194
20
-65.7213714
40
6.3
50
85.9999995
51
86.8450496
0
LINE
8
0
10
124.5179852
20
-59.4367179
11
143.6709707
21
-60.7760252
0
LINE
8
0
10
143.671215
20
-60.7760422
11
186.0676871
21
-63.7406924
0
ARC
8
0
10
185.6282213
20
-70.0253459
40
6.3
50
356.0000004
51
445.9999999
0
LINE
8
0
10
191.9128748
20
-70.4648116
11
186.7384016
21
-144.4632261
0
LINE
8
0
10
186.7384016
20
-144.4632261
11
192.1490437
21
-156.1425557
0
LINE
8
0
10
192.1490437
20
-156.1425557
11
205.7820431
21
-165.33813
0
ARC
8
0
10
202.2591278
20
-170.5610667
40
6.3
50
326
51
415.9999998
0
LINE
8
0
10
207.4820645
20
-174.083982
11
192.2160983
21
-196.7167077
0
ARC
8
0
10
186.9931616
20
-193.1937924
40
6.3
50
235.2448418
51
326.0000001
0
LINE
8
0
10
183.4015098
20
-198.3697018
11
167.7008744
21
-187.474763
0
LINE
8
0
10
167.7008744
20
-187.474763
11
150.7980985
21
-179.2614934
0
LINE
8
0
10
150.7980985
20
-179.2614934
11
134.3354952
21
-173.9124693
0
LINE
8
0
10
134.3354952
20
-173.9124693
11
115.5165404
21
-170.6785379
0
LINE
8
0
10
115.5165404
20
-170.6785379
11
40.4567468
21
-165.3843875
0
ARC
8
0
10
40.9
20
-159.1
40
6.3
50
180
51
265.9631882
0
LINE
8
0
10
42.875
20
-156.975
11
57.125
21
-156.975
0
LINE
8
0
10
57.125
20
-156.975
11
57.125
21
-143.025
0
LINE
8
0
10
57.125
20
-143.025
11
42.875
21
-143.025
0
LINE
8
0
10
42.875
20
-143.025
11
42.875
21
-156.975
0
LINE
8
0
10
42.875
20
-137.775
11
57.125
21
-137.775
0
LINE
8
0
10
57.125
20
-137.775
11
57.125
21
-123.825
0
LINE
8
0
10
57.125
20
-123.825
11
42.875
21
-123.825
0
LINE
8
0
10
42.875
20
-123.825
11
42.875
21
-137.775
0
LINE
8
0
10
42.875
20
-118.575
11
57.125
21
-118.575
0
LINE
8
0
10
57.125
20
-118.575
11
57.125
21
-104.625
0
LINE
8
0
10
57.125
20
-104.625
11
42.875
21
-104.625
0
LINE
8
0
10
42.875
20
-104.625
11
42.875
21
-118.575
0
LINE
8
0
10
42.875
20
-99.375
11
57.125
21
-99.375
0
LINE
8
0
10
57.125
20
-99.375
11
57.125
21
-85.425
0
LINE
8
0
10
57.125
20
-85.425
11
42.875
21
-85.425
0
LINE
8
0
10
42.875
20
-85.425
11
42.875
21
-99.375
0
LINE
8
0
10
42.875
20
-80.175
11
57.125
21
-80.175
0
LINE
8
0
10
57.125
20
-80.175
11
57.125
21
-66.225
0
LINE
8
0
10
57.125
20
-66.225
11
42.875
21
-66.225
0
LINE
8
0
10
42.875
20
-66.225
11
42.875
21
-80.175
0
LINE
8
0
10
62.075
20
-156.975
11
76.325
21
-156.975
0
LINE
8
0
10
76.325
20
-156.975
11
76.325
21
-143.025
0
LINE
8
0
10
76.325
20
-143.025
11
62.075
21
-143.025
0
LINE
8
0
10
62.075
20
-143.025
11
62.075
21
-156.975
0
LINE
8
0
10
62.075
20
-137.775
11
76.325
21
-137.775
0
LINE
8
0
10
76.325
20
-137.775
11
76.325
21
-123.825
0
LINE
8
0
10
76.325
20
-123.825
11
62.075
21
-123.825
0
LINE
8
0
10
62.075
20
-123.825
11
62.075
21
-137.775
0
LINE
8
0
10
62.075
20
-118.575
11
76.325
21
-118.575
0
LINE
8
0
10
76.325
20
-118.575
11
76.325
21
-104.625
0
LINE
8
0
10
76.325
20
-104.625
11
62.075
21
-104.625
0
LINE
8
0
10
62.075
20
-104.625
11
62.075
21
-118.575
0
LINE
8
0
10
62.075
20
-99.375
11
76.325
21
-99.375
0
LINE
8
0
10
76.325
20
-99.375
11
76.325
21
-85.425
0
LINE
8
0
10
76.325
20
-85.425
11
62.075
21
-85.425
0
LINE
8
0
10
62.075
20
-85.425
11
62.075
21
-99.375
0
LINE
8
0
10
62.075
20
-80.175
11
76.325
21
-80.175
0
LINE
8
0
10
76.325
20
-80.175
11
76.325
21
-66.225
0
LINE
8
0
10
76.325
20
-66.225
11
62.075
21
-66.225
0
LINE
8
0
10
62.075
20
-66.225
11
62.075
21
-80.175
0
LINE
8
0
10
81.2359164
20
-157.0720921
11
95.4772357
21
-157.5694099
0
LINE
8
0
10
95.4772357
20
-157.5694099
11
95.9640836
21
-143.6279079
0
LINE
8
0
10
95.9640836
20
-143.6279079
11
81.7227643
21
-143.1305901
0
LINE
8
0
10
81.7227643
20
-143.1305901
11
81.2359164
21
-157.0720921
0
LINE
8
0
10
81.9059867
20
-137.8837882
11
96.147306
21
-138.381106
0
LINE
8
0
10
96.147306
20
-138.381106
11
96.6341539
21
-124.439604
0
LINE
8
0
10
96.6341539
20
-124.439604
11
82.3928346
21
-123.9422862
0
LINE
8
0
10
82.3928346
20
-123.9422862
11
81.9059867
21
-137.8837882
0
LINE
8
0
10
82.576057
20
-118.6954843
11
96.8173763
21
-119.1928021
0
LINE
8
0
10
96.8173763
20
-119.1928021
11
97.3042242
21
-105.2513001
0
LINE
8
0
10
97.3042242
20
-105.2513001
11
83.0629049
21
-104.7539823
0
LINE
8
0
10
83.0629049
20
-104.7539823
11
82.576057
21
-118.6954843
0
LINE
8
0
10
83.2461273
20
-99.5071804
11
97.4874466
21
-100.0044982
0
LINE
8
0
10
97.4874466
20
-100.0044982
11
97.9742945
21
-86.0629962
0
LINE
8
0
10
97.9742945
20
-86.0629962
11
83.7329752
21
-85.5656784
0
LINE
8
0
10
83.7329752
20
-85.5656784
11
83.2461273
21
-99.5071804
0
LINE
8
0
10
83.9161976
20
-80.3188765
11
98.1575169
21
-80.8161943
0
LINE
8
0
10
98.1575169
20
-80.8161943
11
98.6443648
21
-66.8746923
0
LINE
8
0
10
98.6443648
20
-66.8746923
11
84.4030455
21
-66.3773745
0
LINE
8
0
10
84.4030455
20
-66.3773745
11
83.9161976
21
-80.3188765
0
LINE
8
0
10
101.0942906
20
-138.5538585
11
115.3356099
21
-139.0511763
0
LINE
8
0
10
115.3356099
20
-139.0511763
11
115.8224578
21
-125.1096743
0
LINE
8
0
10
115.8224578
20
-125.1096743
11
101.5811385
21
-124.6123565
0
LINE
8
0
10
101.5811385
20
-124.6123565
11
101.0942906
21
-138.5538585
0
LINE
8
0
10
101.7643609
20
-119.3655546
11
116.0056802
21
-119.8628724
0
LINE
8
0
10
116.0056802
20
-119.8628724
11
116.4925281
21
-105.9213704
0
LINE
8
0
10
116.4925281
20
-105.9213704
11
102.2512088
21
-105.4240526
0
LINE
8
0
10
102.2512088
20
-105.4240526
11
101.7643609
21
-119.3655546
0
LINE
8
0
10
102.4344312
20
-100.1772507
11
116.6757505
21
-100.6745685
0
LINE
8
0
10
116.6757505
20
-100.6745685
11
117.1625984
21
-86.7330665
0
LINE
8
0
10
117.1625984
20
-86.7330665
11
102.9212791
21
-86.2357487
0
LINE
8
0
10
102.9212791
20
-86.2357487
11
102.4344312
21
-100.1772507
0
LINE
8
0
10
103.1045015
20
-80.9889468
11
117.3458208
21
-81.4862646
0
LINE
8
0
10
117.3458208
20
-81.4862646
11
117.8326687
21
-67.5447626
0
LINE
8
0
10
117.8326687
20
-67.5447626
11
103.5913494
21
-67.0474448
0
LINE
8
0
10
103.5913494
20
-67.0474448
11
103.1045015
21
-80.9889468
0
LINE
8
0
10
120.9094001
20
-139.354672
11
135.1246879
21
-140.3487017
0
LINE
8
0
10
135.1246879
20
-140.3487017
11
136.0977907
21
-126.4326832
0
LINE
8
0
10
136.0977907
20
-126.4326832
11
121.8825029
21
-125.4386535
0
LINE
8
0
10
121.8825029
20
-125.4386535
11
120.9094001
21
-139.354672
0
LINE
8
0
10
122.2487244
20
-120.2014422
11
136.4640122
21
-121.1954719
0
LINE
8
0
10
136.4640122
20
-121.1954719
11
137.437115
21
-107.2794534
0
LINE
8
0
10
137.437115
20
-107.2794534
11
123.2218272
21
-106.2854237
0
LINE
8
0
10
123.2218272
20
-106.2854237
11
122.2487244
21
-120.2014422
0
LINE
8
0
10
123.5880487
20
-101.0482124
11
137.8033365
21
-102.0422421
0
LINE
8
0
10
137.8033365
20
-102.0422421
11
138.7764393
21
-88.1262236
0
LINE
8
0
10
138.7764393
20
-88.1262236
11
124.5611515
21
-87.1321939
0
LINE
8
0
10
124.5611515
20
-87.1321939
11
123.5880487
21
-101.0482124
0
LINE
8
0
10
124.927373
20
-81.8949826
11
139.1426608
21
-82.8890123
0
LINE
8
0
10
139.1426608
20
-82.8890123
11
140.1157636
21
-68.9729938
0
LINE
8
0
10
140.1157636
20
-68.9729938
11
125.9004758
21
-67.9789641
0
LINE
8
0
10
125.9004758
20
-67.9789641
11
124.927373
21
-81.8949826
0
LINE
8
0
10
140.0626299
20
-140.6939963
11
154.2779177
21
-141.688026
0
LINE
8
0
10
154.2779177
20
-141.688026
11
155.2510205
21
-127.7720075
0
LINE
8
0
10
155.2510205
20
-127.7720075
11
141.0357327
21
-126.7779778
0
LINE
8
0
10
141.0357327
20
-126.7779778
11
140.0626299
21
-140.6939963
0
LINE
8
0
10
141.4019542
20
-121.5407665
11
155.617242
21
-122.5347962
0
LINE
8
0
10
155.617242
20
-122.5347962
11
156.5903448
21
-108.6187777
0
LINE
8
0
10
156.5903448
20
-108.6187777
11
142.375057
21
-107.624748
0
LINE
8
0
10
142.375057
20
-107.624748
11
141.4019542
21
-121.5407665
0
LINE
8
0
10
142.7412785
20
-102.3875367
11
156.9565663
21
-103.3815664
0
LINE
8
0
10
156.9565663
20
-103.3815664
11
157.9296691
21
-89.4655479
0
LINE
8
0
10
157.9296691
20
-89.4655479
11
143.7143813
21
-88.4715182
0
LINE
8
0
10
143.7143813
20
-88.4715182
11
142.7412785
21
-102.3875367
0
LINE
8
0
10
144.0806028
20
-83.2343069
11
158.2958906
21
-84.2283366
0
LINE
8
0
10
158.2958906
20
-84.2283366
11
159.2689934
21
-70.3123181
0
LINE
8
0
10
159.2689934
20
-70.3123181
11
145.0537056
21
-69.3182884
0
LINE
8
0
10
145.0537056
20
-69.3182884
11
144.0806028
21
-83.2343069
0
LINE
8
0
10
121.1836979
20
-148.8067763
11
118.7092114
21
-162.8402868
0
LINE
8
0
10
118.7092114
20
-162.8402868
11
132.4472795
21
-165.2626789
0
LINE
8
0
10
132.4472795
20
-165.2626789
11
134.921766
21
-151.2291684
0
LINE
8
0
10
134.921766
20
-151.2291684
11
121.1836979
21
-148.8067763
0
LINE
8
0
10
142.8850205
20
-153.0061919
11
138.4815283
21
-166.5587472
0
LINE
8
0
10
138.4815283
20
-166.5587472
11
151.7487667
21
-170.8695343
0
LINE
8
0
10
151.7487667
20
-170.8695343
11
156.1522589
21
-157.316979
0
LINE
8
0
10
156.1522589
20
-157.316979
11
142.8850205
21
-153.0061919
0
LINE
8
0
10
165.5514112
20
-156.3019124
11
159.3046224
21
-169.1097275
0
LINE
8
0
10
159.3046224
20
-169.1097275
11
171.8427994
21
-175.225005
0
LINE
8
0
10
171.8427994
20
-175.225005
11
178.0895882
21
-162.4171899
0
LINE
8
0
10
178.0895882
20
-162.4171899
11
165.5514112
21
-156.3019124
0
LINE
8
0
10
185.2836152
20
-166.9815109
11
177.3151163
21
-178.7952963
0
LINE
8
0
10
177.3151163
20
-178.7952963
11
188.8801904
21
-186.5960373
0
LINE
8
0
10
188.8801904
20
-186.5960373
11
196.8486893
21
-174.7822519
0
LINE
8
0
10
196.8486893
20
-174.7822519
11
185.2836152
21
-166.9815109
0
CIRCLE
8
0
10
39.9
20
-63.1
40
1.15
0
CIRCLE
8
0
10
186.6955418
20
-69.0975383
40
1.15
0
CIRCLE
8
0
10
184.8402055
20
-152.9724317
40
1.15
0
CIRCLE
8
0
10
187.2630062
20
-194.5820229
40
1.15
0
CIRCLE
8
0
10
115.1150838
20
-165.2274393
40
1.15
0
CIRCLE
8
0
10
39.9
20
-160.1
40
1.15
0
ENDSEC
0
EOF