0
SECTION
2
HEADER
9
$INSUNITS
70
4
0
ENDSEC
0
SECTION
2
TABLES
0
TABLE
2
LTYPE
0
LTYPE
72
65
70
64
2
CONTINUOUS
3
______
73
0
40
0
0
ENDTAB
0
TABLE
2
LAYER
0
ENDTAB
0
ENDSEC
0
SECTION
2
ENTITIES
0
LINE
8
0
10
-15.1
20
-9.1
11
-15.1
21
85.9
0
ARC
8
0
10
-9.1
20
85.9
40
6
50
90
51
180
0
LINE
8
0
10
-9.1
20
91.9
11
26.4764623
21
91.9
0
LINE
8
0
10
26.4764623
20
91.9
11
31.469446
21
95.2438317
0
ARC
8
0
10
34.80813
20
90.2585344
40
6
50
447.0000004
51
123.8104618
0
LINE
8
0
10
35.1221457
20
96.2503116
11
53.2972033
21
95.2977972
0
LINE
8
0
10
53.2972036
20
95.2977972
11
72.4708904
21
94.2929468
0
ARC
8
0
10
72.1568747
20
88.3011696
40
6
50
412.6628883
51
87
0
LINE
8
0
10
75.7958958
20
93.0716544
11
78.2675787
21
91.1862054
0
LINE
8
0
10
78.2675787
20
91.1862054
11
94.665351
21
89.7515862
0
LINE
8
0
10
94.6653513
20
89.7515862
11
137.9998203
21
85.9603113
0
ARC
8
0
10
137.4768858
20
79.9831431
40
6
50
354.9999996
51
85
0
LINE
8
0
10
143.454054
20
79.4602086
11
136.9821912
21
5.4864799
0
LINE
8
0
10
136.9821912
20
5.4864799
11
142.2532072
21
-6.4325482
0
LINE
8
0
10
142.2532072
20
-6.4325482
11
155.7921278
21
-15.9126025
0
ARC
8
0
10
152.3506692
20
-20.8275148
40
6
50
325.0000003
51
54.9999998
0
LINE
8
0
10
157.2655815
20
-24.2689734
11
141.6069447
21
-46.6318242
0
ARC
8
0
10
136.6920324
20
-43.1903656
40
6
50
234.2425595
51
324.9999998
0
LINE
8
0
10
133.1859021
20
-48.0593542
11
117.6589796
21
-36.8785078
0
LINE
8
0
10
117.6589796
20
-36.8785078
11
100.8629297
21
-28.3515995
0
LINE
8
0
10
100.8629297
20
-28.3515995
11
84.456106
21
-22.7022771
0
LINE
8
0
10
84.456106
20
-22.7022771
11
65.7607575
21
-19.1526108
0
LINE
8
0
10
65.7607575
20
-19.1526108
11
-9.4236389
21
-15.0912651
0
ARC
8
0
10
-9.1
20
-9.1
40
6
50
180
51
266.9079755
0
LINE
8
0
10
-7.5
20
-7.5
11
7.5
21
-7.5
0
LINE
8
0
10
7.5
20
-7.5
11
7.5
21
7.5
0
LINE
8
0
10
7.5
20
7.5
11
-7.5
21
7.5
0
LINE
8
0
10
-7.5
20
7.5
11
-7.5
21
-7.5
0
LINE
8
0
10
-7.5
20
11.7
11
7.5
21
11.7
0
LINE
8
0
10
7.5
20
11.7
11
7.5
21
26.7
0
LINE
8
0
10
7.5
20
26.7
11
-7.5
21
26.7
0
LINE
8
0
10
-7.5
20
26.7
11
-7.5
21
11.7
0
LINE
8
0
10
-7.5
20
30.9
11
7.5
21
30.9
0
LINE
8
0
10
7.5
20
30.9
11
7.5
21
45.9
0
LINE
8
0
10
7.5
20
45.9
11
-7.5
21
45.9
0
LINE
8
0
10
-7.5
20
45.9
11
-7.5
21
30.9
0
LINE
8
0
10
-7.5
20
50.1
11
7.5
21
50.1
0
LINE
8
0
10
7.5
20
50.1
11
7.5
21
65.1
0
LINE
8
0
10
7.5
20
65.1
11
-7.5
21
65.1
0
LINE
8
0
10
-7.5
20
65.1
11
-7.5
21
50.1
0
LINE
8
0
10
-7.5
20
69.3
11
7.5
21
69.3
0
LINE
8
0
10
7.5
20
69.3
11
7.5
21
84.3
0
LINE
8
0
10
7.5
20
84.3
11
-7.5
21
84.3
0
LINE
8
0
10
-7.5
20
84.3
11
-7.5
21
69.3
0
LINE
8
0
10
11.7
20
-7.5
11
26.7
21
-7.5
0
LINE
8
0
10
26.7
20
-7.5
11
26.7
21
7.5
0
LINE
8
0
10
26.7
20
7.5
11
11.7
21
7.5
0
LINE
8
0
10
11.7
20
7.5
11
11.7
21
-7.5
0
LINE
8
0
10
11.7
20
11.7
11
26.7
21
11.7
0
LINE
8
0
10
26.7
20
11.7
11
26.7
21
26.7
0
LINE
8
0
10
26.7
20
26.7
11
11.7
21
26.7
0
LINE
8
0
10
11.7
20
26.7
11
11.7
21
11.7
0
LINE
8
0
10
11.7
20
30.9
11
26.7
21
30.9
0
LINE
8
0
10
26.7
20
30.9
11
26.7
21
45.9
0
LINE
8
0
10
26.7
20
45.9
11
11.7
21
45.9
0
LINE
8
0
10
11.7
20
45.9
11
11.7
21
30.9
0
LINE
8
0
10
11.7
20
50.1
11
26.7
21
50.1
0
LINE
8
0
10
26.7
20
50.1
11
26.7
21
65.1
0
LINE
8
0
10
26.7
20
65.1
11
11.7
21
65.1
0
LINE
8
0
10
11.7
20
65.1
11
11.7
21
50.1
0
LINE
8
0
10
11.7
20
69.3
11
26.7
21
69.3
0
LINE
8
0
10
26.7
20
69.3
11
26.7
21
84.3
0
LINE
8
0
10
26.7
20
84.3
11
11.7
21
84.3
0
LINE
8
0
10
11.7
20
84.3
11
11.7
21
69.3
0
LINE
8
0
10
31.5177588
20
-3.0972018
11
46.4972018
21
-3.8822412
0
LINE
8
0
10
46.4972018
20
-3.8822412
11
47.2822412
21
11.0972018
0
LINE
8
0
10
47.2822412
20
11.0972018
11
32.3027982
21
11.8822412
0
LINE
8
0
10
32.3027982
20
11.8822412
11
31.5177588
21
-3.0972018
0
LINE
8
0
10
32.5226092
20
16.0764853
11
47.5020522
21
15.2914459
0
LINE
8
0
10
47.5020522
20
15.2914459
11
48.2870916
21
30.2708889
0
LINE
8
0
10
48.2870916
20
30.2708889
11
33.3076486
21
31.0559283
0
LINE
8
0
10
33.3076486
20
31.0559283
11
32.5226092
21
16.0764853
0
LINE
8
0
10
33.5274596
20
35.2501724
11
48.5069026
21
34.465133
0
LINE
8
0
10
48.5069026
20
34.465133
11
49.291942
21
49.444576
0
LINE
8
0
10
49.291942
20
49.444576
11
34.312499
21
50.2296154
0
LINE
8
0
10
34.312499
20
50.2296154
11
33.5274596
21
35.2501724
0
LINE
8
0
10
34.53231
20
54.4238595
11
49.511753
21
53.6388201
0
LINE
8
0
10
49.511753
20
53.6388201
11
50.2967924
21
68.6182631
0
LINE
8
0
10
50.2967924
20
68.6182631
11
35.3173494
21
69.4033025
0
LINE
8
0
10
35.3173494
20
69.4033025
11
34.53231
21
54.4238595
0
LINE
8
0
10
35.5371604
20
73.5975466
11
50.5166034
21
72.8125072
0
LINE
8
0
10
50.5166034
20
72.8125072
11
51.3016428
21
87.7919502
0
LINE
8
0
10
51.3016428
20
87.7919502
11
36.3221998
21
88.5769896
0
LINE
8
0
10
36.3221998
20
88.5769896
11
35.5371604
21
73.5975466
0
LINE
8
0
10
51.6962963
20
15.0716349
11
66.6757393
21
14.2865955
0
LINE
8
0
10
66.6757393
20
14.2865955
11
67.4607787
21
29.2660385
0
LINE
8
0
10
67.4607787
20
29.2660385
11
52.4813357
21
30.0510779
0
LINE
8
0
10
52.4813357
20
30.0510779
11
51.6962963
21
15.0716349
0
LINE
8
0
10
52.7011467
20
34.245322
11
67.6805897
21
33.4602826
0
LINE
8
0
10
67.6805897
20
33.4602826
11
68.4656291
21
48.4397256
0
LINE
8
0
10
68.4656291
20
48.4397256
11
53.4861861
21
49.224765
0
LINE
8
0
10
53.4861861
20
49.224765
11
52.7011467
21
34.245322
0
LINE
8
0
10
53.7059971
20
53.4190091
11
68.6854401
21
52.6339697
0
LINE
8
0
10
68.6854401
20
52.6339697
11
69.4704795
21
67.6134127
0
LINE
8
0
10
69.4704795
20
67.6134127
11
54.4910365
21
68.3984521
0
LINE
8
0
10
54.4910365
20
68.3984521
11
53.7059971
21
53.4190091
0
LINE
8
0
10
54.7108475
20
72.5926962
11
69.6902905
21
71.8076568
0
LINE
8
0
10
69.6902905
20
71.8076568
11
70.4753299
21
86.7870998
0
LINE
8
0
10
70.4753299
20
86.7870998
11
55.4958869
21
87.5721392
0
LINE
8
0
10
55.4958869
20
87.5721392
11
54.7108475
21
72.5926962
0
LINE
8
0
10
71.1386283
20
11.3035567
11
86.0815488
21
9.9962206
0
LINE
8
0
10
86.0815488
20
9.9962206
11
87.3888849
21
24.9391411
0
LINE
8
0
10
87.3888849
20
24.9391411
11
72.4459644
21
26.2464772
0
LINE
8
0
10
72.4459644
20
26.2464772
11
71.1386283
21
11.3035567
0
LINE
8
0
10
72.8120186
20
30.4304949
11
87.7549391
21
29.1231588
0
LINE
8
0
10
87.7549391
20
29.1231588
11
89.0622752
21
44.0660793
0
LINE
8
0
10
89.0622752
20
44.0660793
11
74.1193547
21
45.3734154
0
LINE
8
0
10
74.1193547
20
45.3734154
11
72.8120186
21
30.4304949
0
LINE
8
0
10
74.4854089
20
49.5574331
11
89.4283294
21
48.250097
0
LINE
8
0
10
89.4283294
20
48.250097
11
90.7356655
21
63.1930175
0
LINE
8
0
10
90.7356655
20
63.1930175
11
75.792745
21
64.5003536
0
LINE
8
0
10
75.792745
20
64.5003536
11
74.4854089
21
49.5574331
0
LINE
8
0
10
76.1587992
20
68.6843713
11
91.1017197
21
67.3770352
0
LINE
8
0
10
91.1017197
20
67.3770352
11
92.4090558
21
82.3199557
0
LINE
8
0
10
92.4090558
20
82.3199557
11
77.4661353
21
83.6272918
0
LINE
8
0
10
77.4661353
20
83.6272918
11
76.1587992
21
68.6843713
0
LINE
8
0
10
90.2655664
20
9.6301664
11
105.2084869
21
8.3228303
0
LINE
8
0
10
105.2084869
20
8.3228303
11
106.515823
21
23.2657508
0
LINE
8
0
10
106.515823
20
23.2657508
11
91.5729025
21
24.5730869
0
LINE
8
0
10
91.5729025
20
24.5730869
11
90.2655664
21
9.6301664
0
LINE
8
0
10
91.9389567
20
28.7571046
11
106.8818772
21
27.4497685
0
LINE
8
0
10
106.8818772
20
27.4497685
11
108.1892133
21
42.392689
0
LINE
8
0
10
108.1892133
20
42.392689
11
93.2462928
21
43.7000251
0
LINE
8
0
10
93.2462928
20
43.7000251
11
91.9389567
21
28.7571046
0
LINE
8
0
10
93.612347
20
47.8840428
11
108.5552675
21
46.5767067
0
LINE
8
0
10
108.5552675
20
46.5767067
11
109.8626036
21
61.5196272
0
LINE
8
0
10
109.8626036
20
61.5196272
11
94.9196831
21
62.8269633
0
LINE
8
0
10
94.9196831
20
62.8269633
11
93.612347
21
47.8840428
0
LINE
8
0
10
95.2857373
20
67.010981
11
110.2286578
21
65.7036449
0
LINE
8
0
10
110.2286578
20
65.7036449
11
111.5359939
21
80.6465654
0
LINE
8
0
10
111.5359939
20
80.6465654
11
96.5930734
21
81.9539015
0
LINE
8
0
10
96.5930734
20
81.9539015
11
95.2857373
21
67.010981
0
LINE
8
0
10
71.2234512
20
2.8067085
11
68.3613163
21
-11.9176992
0
LINE
8
0
10
68.3613163
20
-11.9176992
11
83.085724
21
-14.7798341
0
LINE
8
0
10
83.085724
20
-14.7798341
11
85.9478589
21
-0.0554264
0
LINE
8
0
10
85.9478589
20
-0.0554264
11
71.2234512
21
2.8067085
0
LINE
8
0
10
92.9176703
20
-1.7135999
11
88.034148
21
-15.8963786
0
LINE
8
0
10
88.034148
20
-15.8963786
11
102.2169267
21
-20.7799009
0
LINE
8
0
10
102.2169267
20
-20.7799009
11
107.100449
21
-6.5971222
0
LINE
8
0
10
107.100449
20
-6.5971222
11
92.9176703
21
-1.7135999
0
LINE
8
0
10
115.5998678
20
-5.3574218
11
108.7900103
21
-18.7225197
0
LINE
8
0
10
108.7900103
20
-18.7225197
11
122.1551082
21
-25.5323772
0
LINE
8
0
10
122.1551082
20
-25.5323772
11
128.9649657
21
-12.1672793
0
LINE
8
0
10
128.9649657
20
-12.1672793
11
115.5998678
21
-5.3574218
0
LINE
8
0
10
135.2252501
20
-16.343931
11
126.6216036
21
-28.6312117
0
LINE
8
0
10
126.6216036
20
-28.6312117
11
138.9088843
21
-37.2348582
0
LINE
8
0
10
138.9088843
20
-37.2348582
11
147.5125308
21
-24.9475775
0
LINE
8
0
10
147.5125308
20
-24.9475775
11
135.2252501
21
-16.343931
0
ENDSEC
0
EOF