0
SECTION
2
HEADER
9
$INSUNITS
70
4
0
ENDSEC
0
SECTION
2
TABLES
0
TABLE
2
LTYPE
0
LTYPE
72
65
70
64
2
CONTINUOUS
3
______
73
0
40
0
0
ENDTAB
0
TABLE
2
LAYER
0
ENDTAB
0
ENDSEC
0
SECTION
2
ENTITIES
0
LINE
8
0
10
-15.4
20
-9.1
11
-15.4
21
85.9
0
ARC
8
0
10
-9.1
20
85.9
40
6.3
50
90
51
180
0
LINE
8
0
10
-9.1
20
92.2
11
26.3852853
21
92.2
0
LINE
8
0
10
26.3852853
20
92.2
11
31.3025118
21
95.4930966
0
ARC
8
0
10
34.80813
20
90.2585344
40
6.3
50
87.0000004
51
123.8104618
0
LINE
8
0
10
35.1378465
20
96.5499005
11
53.3129041
21
95.5973861
0
LINE
8
0
10
53.3129044
20
95.5973861
11
72.4865912
21
94.5925357
0
ARC
8
0
10
72.1568747
20
88.3011696
40
6.3
50
52.6628883
51
87
0
LINE
8
0
10
75.9778469
20
93.3101786
11
78.3803739
21
91.477483
0
LINE
8
0
10
78.3803739
20
91.477483
11
94.691254
21
90.0504659
0
LINE
8
0
10
94.691498
20
90.0504446
11
138.025967
21
86.2591697
0
ARC
8
0
10
137.4768858
20
79.9831431
40
6.3
50
354.9999996
51
445
0
LINE
8
0
10
143.7529124
20
79.4340619
11
137.2877767
21
5.5372246
0
LINE
8
0
10
137.2877767
20
5.5372246
11
142.4937625
21
-6.2347545
0
LINE
8
0
10
142.4937625
20
-6.2347545
11
155.9642008
21
-15.6668569
0
ARC
8
0
10
152.3506692
20
-20.8275148
40
6.3
50
325.0000003
51
414.9999998
0
LINE
8
0
10
157.5113271
20
-24.4410463
11
141.8526903
21
-46.8038971
0
ARC
8
0
10
136.6920324
20
-43.1903656
40
6.3
50
234.2425595
51
324.9999998
0
LINE
8
0
10
133.0105956
20
-48.3028036
11
117.5024948
21
-37.1355107
0
LINE
8
0
10
117.5024948
20
-37.1355107
11
100.7456342
21
-28.6284976
0
LINE
8
0
10
100.7456342
20
-28.6284976
11
84.3788909
21
-22.9929759
0
LINE
8
0
10
84.3788909
20
-22.9929759
11
65.7245245
21
-19.451091
0
LINE
8
0
10
65.7245245
20
-19.451091
11
-9.4398209
21
-15.3908283
0
ARC
8
0
10
-9.1
20
-9.1
40
6.3
50
180
51
266.9079755
0
LINE
8
0
10
-7.25
20
-7
11
7.25
21
-7
0
LINE
8
0
10
7.25
20
-7
11
7.25
21
7
0
LINE
8
0
10
7.25
20
7
11
-7.25
21
7
0
LINE
8
0
10
-7.25
20
7
11
-7.25
21
-7
0
LINE
8
0
10
-7.25
20
12.2
11
7.25
21
12.2
0
LINE
8
0
10
7.25
20
12.2
11
7.25
21
26.2
0
LINE
8
0
10
7.25
20
26.2
11
-7.25
21
26.2
0
LINE
8
0
10
-7.25
20
26.2
11
-7.25
21
12.2
0
LINE
8
0
10
-7.25
20
31.4
11
7.25
21
31.4
0
LINE
8
0
10
7.25
20
31.4
11
7.25
21
45.4
0
LINE
8
0
10
7.25
20
45.4
11
-7.25
21
45.4
0
LINE
8
0
10
-7.25
20
45.4
11
-7.25
21
31.4
0
LINE
8
0
10
-7.25
20
50.6
11
7.25
21
50.6
0
LINE
8
0
10
7.25
20
50.6
11
7.25
21
64.6
0
LINE
8
0
10
7.25
20
64.6
11
-7.25
21
64.6
0
LINE
8
0
10
-7.25
20
64.6
11
-7.25
21
50.6
0
LINE
8
0
10
-7.25
20
69.8
11
7.25
21
69.8
0
LINE
8
0
10
7.25
20
69.8
11
7.25
21
83.8
0
LINE
8
0
10
7.25
20
83.8
11
-7.25
21
83.8
0
LINE
8
0
10
-7.25
20
83.8
11
-7.25
21
69.8
0
LINE
8
0
10
11.95
20
-7
11
26.45
21
-7
0
LINE
8
0
10
26.45
20
-7
11
26.45
21
7
0
LINE
8
0
10
26.45
20
7
11
11.95
21
7
0
LINE
8
0
10
11.95
20
7
11
11.95
21
-7
0
LINE
8
0
10
11.95
20
12.2
11
26.45
21
12.2
0
LINE
8
0
10
26.45
20
12.2
11
26.45
21
26.2
0
LINE
8
0
10
26.45
20
26.2
11
11.95
21
26.2
0
LINE
8
0
10
11.95
20
26.2
11
11.95
21
12.2
0
LINE
8
0
10
11.95
20
31.4
11
26.45
21
31.4
0
LINE
8
0
10
26.45
20
31.4
11
26.45
21
45.4
0
LINE
8
0
10
26.45
20
45.4
11
11.95
21
45.4
0
LINE
8
0
10
11.95
20
45.4
11
11.95
21
31.4
0
LINE
8
0
10
11.95
20
50.6
11
26.45
21
50.6
0
LINE
8
0
10
26.45
20
50.6
11
26.45
21
64.6
0
LINE
8
0
10
26.45
20
64.6
11
11.95
21
64.6
0
LINE
8
0
10
11.95
20
64.6
11
11.95
21
50.6
0
LINE
8
0
10
11.95
20
69.8
11
26.45
21
69.8
0
LINE
8
0
10
26.45
20
69.8
11
26.45
21
83.8
0
LINE
8
0
10
26.45
20
83.8
11
11.95
21
83.8
0
LINE
8
0
10
11.95
20
83.8
11
11.95
21
69.8
0
LINE
8
0
10
31.7935842
20
-2.6109711
11
46.2737124
21
-3.3698424
0
LINE
8
0
10
46.2737124
20
-3.3698424
11
47.0064158
21
10.6109711
0
LINE
8
0
10
47.0064158
20
10.6109711
11
32.5262876
21
11.3698424
0
LINE
8
0
10
32.5262876
20
11.3698424
11
31.7935842
21
-2.6109711
0
LINE
8
0
10
32.7984346
20
16.562716
11
47.2785628
21
15.8038447
0
LINE
8
0
10
47.2785628
20
15.8038447
11
48.0112662
21
29.7846582
0
LINE
8
0
10
48.0112662
20
29.7846582
11
33.531138
21
30.5435295
0
LINE
8
0
10
33.531138
20
30.5435295
11
32.7984346
21
16.562716
0
LINE
8
0
10
33.803285
20
35.7364031
11
48.2834132
21
34.9775318
0
LINE
8
0
10
48.2834132
20
34.9775318
11
49.0161166
21
48.9583453
0
LINE
8
0
10
49.0161166
20
48.9583453
11
34.5359884
21
49.7172166
0
LINE
8
0
10
34.5359884
20
49.7172166
11
33.803285
21
35.7364031
0
LINE
8
0
10
34.8081354
20
54.9100902
11
49.2882636
21
54.1512189
0
LINE
8
0
10
49.2882636
20
54.1512189
11
50.020967
21
68.1320324
0
LINE
8
0
10
50.020967
20
68.1320324
11
35.5408388
21
68.8909037
0
LINE
8
0
10
35.5408388
20
68.8909037
11
34.8081354
21
54.9100902
0
LINE
8
0
10
35.8129858
20
74.0837773
11
50.293114
21
73.324906
0
LINE
8
0
10
50.293114
20
73.324906
11
51.0258174
21
87.3057195
0
LINE
8
0
10
51.0258174
20
87.3057195
11
36.5456892
21
88.0645908
0
LINE
8
0
10
36.5456892
20
88.0645908
11
35.8129858
21
74.0837773
0
LINE
8
0
10
51.9721217
20
15.5578656
11
66.4522499
21
14.7989943
0
LINE
8
0
10
66.4522499
20
14.7989943
11
67.1849533
21
28.7798078
0
LINE
8
0
10
67.1849533
20
28.7798078
11
52.7048251
21
29.5386791
0
LINE
8
0
10
52.7048251
20
29.5386791
11
51.9721217
21
15.5578656
0
LINE
8
0
10
52.9769721
20
34.7315527
11
67.4571003
21
33.9726814
0
LINE
8
0
10
67.4571003
20
33.9726814
11
68.1898037
21
47.9534949
0
LINE
8
0
10
68.1898037
20
47.9534949
11
53.7096755
21
48.7123662
0
LINE
8
0
10
53.7096755
20
48.7123662
11
52.9769721
21
34.7315527
0
LINE
8
0
10
53.9818225
20
53.9052398
11
68.4619507
21
53.1463685
0
LINE
8
0
10
68.4619507
20
53.1463685
11
69.1946541
21
67.127182
0
LINE
8
0
10
69.1946541
20
67.127182
11
54.7145259
21
67.8860533
0
LINE
8
0
10
54.7145259
20
67.8860533
11
53.9818225
21
53.9052398
0
LINE
8
0
10
54.9866729
20
73.0789269
11
69.4668011
21
72.3200556
0
LINE
8
0
10
69.4668011
20
72.3200556
11
70.1995045
21
86.3008691
0
LINE
8
0
10
70.1995045
20
86.3008691
11
55.7193763
21
87.0597404
0
LINE
8
0
10
55.7193763
20
87.0597404
11
54.9866729
21
73.0789269
0
LINE
8
0
10
71.4312548
20
11.7798651
11
85.876078
21
10.5161069
0
LINE
8
0
10
85.876078
20
10.5161069
11
87.0962584
21
24.4628327
0
LINE
8
0
10
87.0962584
20
24.4628327
11
72.6514352
21
25.7265909
0
LINE
8
0
10
72.6514352
20
25.7265909
11
71.4312548
21
11.7798651
0
LINE
8
0
10
73.1046451
20
30.9068033
11
87.5494683
21
29.6430451
0
LINE
8
0
10
87.5494683
20
29.6430451
11
88.7696487
21
43.5897709
0
LINE
8
0
10
88.7696487
20
43.5897709
11
74.3248255
21
44.8535291
0
LINE
8
0
10
74.3248255
20
44.8535291
11
73.1046451
21
30.9068033
0
LINE
8
0
10
74.7780354
20
50.0337415
11
89.2228586
21
48.7699833
0
LINE
8
0
10
89.2228586
20
48.7699833
11
90.443039
21
62.7167091
0
LINE
8
0
10
90.443039
20
62.7167091
11
75.9982158
21
63.9804673
0
LINE
8
0
10
75.9982158
20
63.9804673
11
74.7780354
21
50.0337415
0
LINE
8
0
10
76.4514257
20
69.1606797
11
90.8962489
21
67.8969215
0
LINE
8
0
10
90.8962489
20
67.8969215
11
92.1164293
21
81.8436473
0
LINE
8
0
10
92.1164293
20
81.8436473
11
77.6716061
21
83.1074055
0
LINE
8
0
10
77.6716061
20
83.1074055
11
76.4514257
21
69.1606797
0
LINE
8
0
10
90.5581929
20
10.1064748
11
105.0030161
21
8.8427166
0
LINE
8
0
10
105.0030161
20
8.8427166
11
106.2231965
21
22.7894424
0
LINE
8
0
10
106.2231965
20
22.7894424
11
91.7783733
21
24.0532006
0
LINE
8
0
10
91.7783733
20
24.0532006
11
90.5581929
21
10.1064748
0
LINE
8
0
10
92.2315832
20
29.233413
11
106.6764064
21
27.9696548
0
LINE
8
0
10
106.6764064
20
27.9696548
11
107.8965868
21
41.9163806
0
LINE
8
0
10
107.8965868
20
41.9163806
11
93.4517636
21
43.1801388
0
LINE
8
0
10
93.4517636
20
43.1801388
11
92.2315832
21
29.233413
0
LINE
8
0
10
93.9049735
20
48.3603512
11
108.3497967
21
47.096593
0
LINE
8
0
10
108.3497967
20
47.096593
11
109.5699771
21
61.0433188
0
LINE
8
0
10
109.5699771
20
61.0433188
11
95.1251539
21
62.307077
0
LINE
8
0
10
95.1251539
20
62.307077
11
93.9049735
21
48.3603512
0
LINE
8
0
10
95.5783638
20
67.4872894
11
110.023187
21
66.2235312
0
LINE
8
0
10
110.023187
20
66.2235312
11
111.2433674
21
80.170257
0
LINE
8
0
10
111.2433674
20
80.170257
11
96.7985442
21
81.4340152
0
LINE
8
0
10
96.7985442
20
81.4340152
11
95.5783638
21
67.4872894
0
LINE
8
0
10
71.6665625
20
2.4658972
11
68.8998321
21
-11.7676969
0
LINE
8
0
10
68.8998321
20
-11.7676969
11
82.6426127
21
-14.4390228
0
LINE
8
0
10
82.6426127
20
-14.4390228
11
85.4093431
21
-0.2054287
0
LINE
8
0
10
85.4093431
20
-0.2054287
11
71.6665625
21
2.4658972
0
LINE
8
0
10
93.3090376
20
-2.1127636
11
88.5882994
21
-15.822783
0
LINE
8
0
10
88.5882994
20
-15.822783
11
101.8255594
21
-20.3807372
0
LINE
8
0
10
101.8255594
20
-20.3807372
11
106.5462976
21
-6.6707178
0
LINE
8
0
10
106.5462976
20
-6.6707178
11
93.3090376
21
-2.1127636
0
LINE
8
0
10
115.9318735
20
-5.8071687
11
109.3490112
21
-18.7267633
0
LINE
8
0
10
109.3490112
20
-18.7267633
11
121.8231025
21
-25.0826303
0
LINE
8
0
10
121.8231025
20
-25.0826303
11
128.4059648
21
-12.1630357
0
LINE
8
0
10
128.4059648
20
-12.1630357
11
115.9318735
21
-5.8071687
0
LINE
8
0
10
135.4914321
20
-16.8355072
11
127.1745737
21
-28.7132119
0
LINE
8
0
10
127.1745737
20
-28.7132119
11
138.6427023
21
-36.743282
0
LINE
8
0
10
138.6427023
20
-36.743282
11
146.9595607
21
-24.8655773
0
LINE
8
0
10
146.9595607
20
-24.8655773
11
135.4914321
21
-16.8355072
0
ENDSEC
0
EOF