0
SECTION
2
HEADER
9
$INSUNITS
70
4
0
ENDSEC
0
SECTION
2
TABLES
0
TABLE
2
LTYPE
0
LTYPE
72
65
70
64
2
CONTINUOUS
3
______
73
0
40
0
0
ENDTAB
0
TABLE
2
LAYER
0
ENDTAB
0
ENDSEC
0
SECTION
2
ENTITIES
0
LINE
8
0
10
43.7655959
20
-158.580921
11
58.580921
21
-156.2344041
0
LINE
8
0
10
58.580921
20
-156.2344041
11
56.2344041
21
-141.419079
0
LINE
8
0
10
56.2344041
20
-141.419079
11
41.419079
21
-143.7655959
0
LINE
8
0
10
41.419079
20
-143.7655959
11
43.7655959
21
-158.580921
0
LINE
8
0
10
40.7151238
20
-139.3209984
11
55.5304489
21
-136.9744815
0
LINE
8
0
10
55.5304489
20
-136.9744815
11
53.183932
21
-122.1591564
0
LINE
8
0
10
53.183932
20
-122.1591564
11
38.3686069
21
-124.5056733
0
LINE
8
0
10
38.3686069
20
-124.5056733
11
40.7151238
21
-139.3209984
0
LINE
8
0
10
37.6646517
20
-120.0610758
11
52.4799768
21
-117.7145589
0
LINE
8
0
10
52.4799768
20
-117.7145589
11
50.1334599
21
-102.8992338
0
LINE
8
0
10
50.1334599
20
-102.8992338
11
35.3181348
21
-105.2457507
0
LINE
8
0
10
35.3181348
20
-105.2457507
11
37.6646517
21
-120.0610758
0
LINE
8
0
10
34.6141796
20
-100.8011532
11
49.4295047
21
-98.4546363
0
LINE
8
0
10
49.4295047
20
-98.4546363
11
47.0829878
21
-83.6393112
0
LINE
8
0
10
47.0829878
20
-83.6393112
11
32.2676627
21
-85.9858281
0
LINE
8
0
10
32.2676627
20
-85.9858281
11
34.6141796
21
-100.8011532
0
LINE
8
0
10
62.7126496
20
-153.5550722
11
77.5279747
21
-151.2085553
0
LINE
8
0
10
77.5279747
20
-151.2085553
11
75.1814578
21
-136.3932302
0
LINE
8
0
10
75.1814578
20
-136.3932302
11
60.3661327
21
-138.7397471
0
LINE
8
0
10
60.3661327
20
-138.7397471
11
62.7126496
21
-153.5550722
0
LINE
8
0
10
59.6621775
20
-134.2951496
11
74.4775026
21
-131.9486327
0
LINE
8
0
10
74.4775026
20
-131.9486327
11
72.1309857
21
-117.1333076
0
LINE
8
0
10
72.1309857
20
-117.1333076
11
57.3156606
21
-119.4798245
0
LINE
8
0
10
57.3156606
20
-119.4798245
11
59.6621775
21
-134.2951496
0
LINE
8
0
10
56.6117054
20
-115.035227
11
71.4270305
21
-112.6887101
0
LINE
8
0
10
71.4270305
20
-112.6887101
11
69.0805136
21
-97.873385
0
LINE
8
0
10
69.0805136
20
-97.873385
11
54.2651885
21
-100.2199019
0
LINE
8
0
10
54.2651885
20
-100.2199019
11
56.6117054
21
-115.035227
0
LINE
8
0
10
53.5612333
20
-95.7753044
11
68.3765584
21
-93.4287875
0
LINE
8
0
10
68.3765584
20
-93.4287875
11
66.0300415
21
-78.6134624
0
LINE
8
0
10
66.0300415
20
-78.6134624
11
51.2147164
21
-80.9599793
0
LINE
8
0
10
51.2147164
20
-80.9599793
11
53.5612333
21
-95.7753044
0
LINE
8
0
10
81.0511624
20
-146.331042
11
95.9393547
21
-144.5030019
0
LINE
8
0
10
95.9393547
20
-144.5030019
11
94.1113146
21
-129.6148096
0
LINE
8
0
10
94.1113146
20
-129.6148096
11
79.2231223
21
-131.4428497
0
LINE
8
0
10
79.2231223
20
-131.4428497
11
81.0511624
21
-146.331042
0
LINE
8
0
10
78.6747102
20
-126.976392
11
93.5629025
21
-125.1483519
0
LINE
8
0
10
93.5629025
20
-125.1483519
11
91.7348624
21
-110.2601596
0
LINE
8
0
10
91.7348624
20
-110.2601596
11
76.8466701
21
-112.0881997
0
LINE
8
0
10
76.8466701
20
-112.0881997
11
78.6747102
21
-126.976392
0
LINE
8
0
10
76.298258
20
-107.621742
11
91.1864503
21
-105.7937019
0
LINE
8
0
10
91.1864503
20
-105.7937019
11
89.3584102
21
-90.9055096
0
LINE
8
0
10
89.3584102
20
-90.9055096
11
74.4702179
21
-92.7335497
0
LINE
8
0
10
74.4702179
20
-92.7335497
11
76.298258
21
-107.621742
0
LINE
8
0
10
73.9218058
20
-88.267092
11
88.8099981
21
-86.4390519
0
LINE
8
0
10
88.8099981
20
-86.4390519
11
86.981958
21
-71.5508596
0
LINE
8
0
10
86.981958
20
-71.5508596
11
72.0937657
21
-73.3788997
0
LINE
8
0
10
72.0937657
20
-73.3788997
11
73.9218058
21
-88.267092
0
LINE
8
0
10
100.0402044
20
-140.9769513
11
114.9283967
21
-139.1489112
0
LINE
8
0
10
114.9283967
20
-139.1489112
11
113.1003566
21
-124.2607189
0
LINE
8
0
10
113.1003566
20
-124.2607189
11
98.2121643
21
-126.088759
0
LINE
8
0
10
98.2121643
20
-126.088759
11
100.0402044
21
-140.9769513
0
LINE
8
0
10
97.6637522
20
-121.6223013
11
112.5519445
21
-119.7942612
0
LINE
8
0
10
112.5519445
20
-119.7942612
11
110.7239044
21
-104.9060689
0
LINE
8
0
10
110.7239044
20
-104.9060689
11
95.8357121
21
-106.734109
0
LINE
8
0
10
95.8357121
20
-106.734109
11
97.6637522
21
-121.6223013
0
LINE
8
0
10
95.2873
20
-102.2676513
11
110.1754923
21
-100.4396112
0
LINE
8
0
10
110.1754923
20
-100.4396112
11
108.3474522
21
-85.5514189
0
LINE
8
0
10
108.3474522
20
-85.5514189
11
93.4592599
21
-87.379459
0
LINE
8
0
10
93.4592599
20
-87.379459
11
95.2873
21
-102.2676513
0
LINE
8
0
10
92.9108478
20
-82.9130013
11
107.7990401
21
-81.0849612
0
LINE
8
0
10
107.7990401
20
-81.0849612
11
105.971
21
-66.1967689
0
LINE
8
0
10
105.971
20
-66.1967689
11
91.0828077
21
-68.024809
0
LINE
8
0
10
91.0828077
20
-68.024809
11
92.9108478
21
-82.9130013
0
LINE
8
0
10
118.1727855
20
-121.6289867
11
133.1522285
21
-120.8439473
0
LINE
8
0
10
133.1522285
20
-120.8439473
11
132.3671891
21
-105.8645043
0
LINE
8
0
10
132.3671891
20
-105.8645043
11
117.3877461
21
-106.6495437
0
LINE
8
0
10
117.3877461
20
-106.6495437
11
118.1727855
21
-121.6289867
0
LINE
8
0
10
117.1522344
20
-102.1557108
11
132.1316774
21
-101.3706714
0
LINE
8
0
10
132.1316774
20
-101.3706714
11
131.346638
21
-86.3912284
0
LINE
8
0
10
131.346638
20
-86.3912284
11
116.367195
21
-87.1762678
0
LINE
8
0
10
116.367195
20
-87.1762678
11
117.1522344
21
-102.1557108
0
LINE
8
0
10
116.1316833
20
-82.6824349
11
131.1111263
21
-81.8973955
0
LINE
8
0
10
131.1111263
20
-81.8973955
11
130.3260869
21
-66.9179525
0
LINE
8
0
10
130.3260869
20
-66.9179525
11
115.3466439
21
-67.7029919
0
LINE
8
0
10
115.3466439
20
-67.7029919
11
116.1316833
21
-82.6824349
0
LINE
8
0
10
138.6313934
20
-123.0662936
11
153.6291089
21
-123.3280797
0
LINE
8
0
10
153.6291089
20
-123.3280797
11
153.890895
21
-108.3303642
0
LINE
8
0
10
153.890895
20
-108.3303642
11
138.8931795
21
-108.0685781
0
LINE
8
0
10
138.8931795
20
-108.0685781
11
138.6313934
21
-123.0662936
0
LINE
8
0
10
138.9717153
20
-103.5692635
11
153.9694308
21
-103.8310496
0
LINE
8
0
10
153.9694308
20
-103.8310496
11
154.2312169
21
-88.8333341
0
LINE
8
0
10
154.2312169
20
-88.8333341
11
139.2335014
21
-88.571548
0
LINE
8
0
10
139.2335014
20
-88.571548
11
138.9717153
21
-103.5692635
0
LINE
8
0
10
139.3120372
20
-84.0722334
11
154.3097527
21
-84.3340195
0
LINE
8
0
10
154.3097527
20
-84.3340195
11
154.5715388
21
-69.336304
0
LINE
8
0
10
154.5715388
20
-69.336304
11
139.5738233
21
-69.0745179
0
LINE
8
0
10
139.5738233
20
-69.0745179
11
139.3120372
21
-84.0722334
0
LINE
8
0
10
136.0566854
20
-149.5079295
11
150.0603918
21
-154.8834487
0
LINE
8
0
10
150.0603918
20
-154.8834487
11
155.435911
21
-140.8797423
0
LINE
8
0
10
155.435911
20
-140.8797423
11
141.4322046
21
-135.5042231
0
LINE
8
0
10
141.4322046
20
-135.5042231
11
136.0566854
21
-149.5079295
0
LINE
8
0
10
161.2944747
20
-138.1745886
11
155.9189555
21
-152.178295
0
LINE
8
0
10
155.9189555
20
-152.178295
11
169.9226619
21
-157.5538142
0
LINE
8
0
10
169.9226619
20
-157.5538142
11
175.2981811
21
-143.5501078
0
LINE
8
0
10
175.2981811
20
-143.5501078
11
161.2944747
21
-138.1745886
0
LINE
8
0
10
179.499293
20
-145.1627636
11
174.1237738
21
-159.16647
0
LINE
8
0
10
174.1237738
20
-159.16647
11
188.1274802
21
-164.5419892
0
LINE
8
0
10
188.1274802
20
-164.5419892
11
193.5029994
21
-150.5382828
0
LINE
8
0
10
193.5029994
20
-150.5382828
11
179.499293
21
-145.1627636
0
ENDSEC
0
EOF