0
SECTION
2
HEADER
9
$INSUNITS
70
4
0
ENDSEC
0
SECTION
2
TABLES
0
TABLE
2
LTYPE
0
LTYPE
72
65
70
64
2
CONTINUOUS
3
______
73
0
40
0
0
ENDTAB
0
TABLE
2
LAYER
0
ENDTAB
0
ENDSEC
0
SECTION
2
ENTITIES
0
LINE
8
0
10
43.9163032
20
-158.6884195
11
58.6884195
21
-156.0836968
0
LINE
8
0
10
58.6884195
20
-156.0836968
11
56.0836968
21
-141.3115805
0
LINE
8
0
10
56.0836968
20
-141.3115805
11
41.3115805
21
-143.9163032
0
LINE
8
0
10
41.3115805
20
-143.9163032
11
43.9163032
21
-158.6884195
0
LINE
8
0
10
40.5301637
20
-139.4846683
11
55.30228
21
-136.8799456
0
LINE
8
0
10
55.30228
20
-136.8799456
11
52.6975573
21
-122.1078293
0
LINE
8
0
10
52.6975573
20
-122.1078293
11
37.925441
21
-124.712552
0
LINE
8
0
10
37.925441
20
-124.712552
11
40.5301637
21
-139.4846683
0
LINE
8
0
10
37.1440242
20
-120.2809171
11
51.9161405
21
-117.6761944
0
LINE
8
0
10
51.9161405
20
-117.6761944
11
49.3114178
21
-102.9040781
0
LINE
8
0
10
49.3114178
20
-102.9040781
11
34.5393015
21
-105.5088008
0
LINE
8
0
10
34.5393015
20
-105.5088008
11
37.1440242
21
-120.2809171
0
LINE
8
0
10
33.7578847
20
-101.0771659
11
48.530001
21
-98.4724432
0
LINE
8
0
10
48.530001
20
-98.4724432
11
45.9252783
21
-83.7003269
0
LINE
8
0
10
45.9252783
20
-83.7003269
11
31.153162
21
-86.3050496
0
LINE
8
0
10
31.153162
20
-86.3050496
11
33.7578847
21
-101.0771659
0
LINE
8
0
10
62.772758
20
-153.3326645
11
77.5448743
21
-150.7279418
0
LINE
8
0
10
77.5448743
20
-150.7279418
11
74.9401516
21
-135.9558255
0
LINE
8
0
10
74.9401516
20
-135.9558255
11
60.1680353
21
-138.5605482
0
LINE
8
0
10
60.1680353
20
-138.5605482
11
62.772758
21
-153.3326645
0
LINE
8
0
10
59.3866185
20
-134.1289133
11
74.1587348
21
-131.5241906
0
LINE
8
0
10
74.1587348
20
-131.5241906
11
71.5540121
21
-116.7520743
0
LINE
8
0
10
71.5540121
20
-116.7520743
11
56.7818958
21
-119.356797
0
LINE
8
0
10
56.7818958
20
-119.356797
11
59.3866185
21
-134.1289133
0
LINE
8
0
10
56.000479
20
-114.9251621
11
70.7725953
21
-112.3204394
0
LINE
8
0
10
70.7725953
20
-112.3204394
11
68.1678726
21
-97.5483231
0
LINE
8
0
10
68.1678726
20
-97.5483231
11
53.3957563
21
-100.1530458
0
LINE
8
0
10
53.3957563
20
-100.1530458
11
56.000479
21
-114.9251621
0
LINE
8
0
10
52.6143395
20
-95.7214109
11
67.3864558
21
-93.1166882
0
LINE
8
0
10
67.3864558
20
-93.1166882
11
64.7817331
21
-78.3445719
0
LINE
8
0
10
64.7817331
20
-78.3445719
11
50.0096168
21
-80.9492946
0
LINE
8
0
10
50.0096168
20
-80.9492946
11
52.6143395
21
-95.7214109
0
LINE
8
0
10
80.982401
20
-145.7896834
11
95.8364221
21
-143.7020869
0
LINE
8
0
10
95.8364221
20
-143.7020869
11
93.7488256
21
-128.8480658
0
LINE
8
0
10
93.7488256
20
-128.8480658
11
78.8948045
21
-130.9356623
0
LINE
8
0
10
78.8948045
20
-130.9356623
11
80.982401
21
-145.7896834
0
LINE
8
0
10
78.2685255
20
-126.4794561
11
93.1225466
21
-124.3918596
0
LINE
8
0
10
93.1225466
20
-124.3918596
11
91.0349501
21
-109.5378385
0
LINE
8
0
10
91.0349501
20
-109.5378385
11
76.180929
21
-111.625435
0
LINE
8
0
10
76.180929
20
-111.625435
11
78.2685255
21
-126.4794561
0
LINE
8
0
10
75.55465
20
-107.1692288
11
90.4086711
21
-105.0816323
0
LINE
8
0
10
90.4086711
20
-105.0816323
11
88.3210746
21
-90.2276112
0
LINE
8
0
10
88.3210746
20
-90.2276112
11
73.4670535
21
-92.3152077
0
LINE
8
0
10
73.4670535
20
-92.3152077
11
75.55465
21
-107.1692288
0
LINE
8
0
10
72.8407745
20
-87.8590015
11
87.6947956
21
-85.771405
0
LINE
8
0
10
87.6947956
20
-85.771405
11
85.6071991
21
-70.9173839
0
LINE
8
0
10
85.6071991
20
-70.9173839
11
70.753178
21
-73.0049804
0
LINE
8
0
10
70.753178
20
-73.0049804
11
72.8407745
21
-87.8590015
0
LINE
8
0
10
99.875109
20
-140.1050037
11
114.7291301
21
-138.0174072
0
LINE
8
0
10
114.7291301
20
-138.0174072
11
112.6415336
21
-123.1633861
0
LINE
8
0
10
112.6415336
20
-123.1633861
11
97.7875125
21
-125.2509826
0
LINE
8
0
10
97.7875125
20
-125.2509826
11
99.875109
21
-140.1050037
0
LINE
8
0
10
97.1612335
20
-120.7947764
11
112.0152546
21
-118.7071799
0
LINE
8
0
10
112.0152546
20
-118.7071799
11
109.9276581
21
-103.8531588
0
LINE
8
0
10
109.9276581
20
-103.8531588
11
95.073637
21
-105.9407553
0
LINE
8
0
10
95.073637
20
-105.9407553
11
97.1612335
21
-120.7947764
0
LINE
8
0
10
94.447358
20
-101.4845491
11
109.3013791
21
-99.3969526
0
LINE
8
0
10
109.3013791
20
-99.3969526
11
107.2137826
21
-84.5429315
0
LINE
8
0
10
107.2137826
20
-84.5429315
11
92.3597615
21
-86.630528
0
LINE
8
0
10
92.3597615
20
-86.630528
11
94.447358
21
-101.4845491
0
LINE
8
0
10
91.7334825
20
-82.1743218
11
106.5875036
21
-80.0867253
0
LINE
8
0
10
106.5875036
20
-80.0867253
11
104.4999071
21
-65.2327042
0
LINE
8
0
10
104.4999071
20
-65.2327042
11
89.645886
21
-67.3203007
0
LINE
8
0
10
89.645886
20
-67.3203007
11
91.7334825
21
-82.1743218
0
LINE
8
0
10
117.66726
20
-120.4435285
11
132.6307207
21
-119.3971814
0
LINE
8
0
10
132.6307207
20
-119.3971814
11
131.5843736
21
-104.4337207
0
LINE
8
0
10
131.5843736
20
-104.4337207
11
116.6209129
21
-105.4800678
0
LINE
8
0
10
116.6209129
20
-105.4800678
11
117.66726
21
-120.4435285
0
LINE
8
0
10
116.3070088
20
-100.9910295
11
131.2704695
21
-99.9446824
0
LINE
8
0
10
131.2704695
20
-99.9446824
11
130.2241224
21
-84.9812217
0
LINE
8
0
10
130.2241224
20
-84.9812217
11
115.2606617
21
-86.0275688
0
LINE
8
0
10
115.2606617
20
-86.0275688
11
116.3070088
21
-100.9910295
0
LINE
8
0
10
114.9467576
20
-81.5385305
11
129.9102183
21
-80.4921834
0
LINE
8
0
10
129.9102183
20
-80.4921834
11
128.8638712
21
-65.5287227
0
LINE
8
0
10
128.8638712
20
-65.5287227
11
113.9004105
21
-66.5750698
0
LINE
8
0
10
113.9004105
20
-66.5750698
11
114.9467576
21
-81.5385305
0
LINE
8
0
10
138.1478364
20
-121.5235646
11
153.1478364
21
-121.5235646
0
LINE
8
0
10
153.1478364
20
-121.5235646
11
153.1478364
21
-106.5235646
0
LINE
8
0
10
153.1478364
20
-106.5235646
11
138.1478364
21
-106.5235646
0
LINE
8
0
10
138.1478364
20
-106.5235646
11
138.1478364
21
-121.5235646
0
LINE
8
0
10
138.1478364
20
-102.0235646
11
153.1478364
21
-102.0235646
0
LINE
8
0
10
153.1478364
20
-102.0235646
11
153.1478364
21
-87.0235646
0
LINE
8
0
10
153.1478364
20
-87.0235646
11
138.1478364
21
-87.0235646
0
LINE
8
0
10
138.1478364
20
-87.0235646
11
138.1478364
21
-102.0235646
0
LINE
8
0
10
138.1478364
20
-82.5235646
11
153.1478364
21
-82.5235646
0
LINE
8
0
10
153.1478364
20
-82.5235646
11
153.1478364
21
-67.5235646
0
LINE
8
0
10
153.1478364
20
-67.5235646
11
138.1478364
21
-67.5235646
0
LINE
8
0
10
138.1478364
20
-67.5235646
11
138.1478364
21
-82.5235646
0
LINE
8
0
10
141.1652928
20
-133.9107189
11
136.0349907
21
-148.0061082
0
LINE
8
0
10
136.0349907
20
-148.0061082
11
150.13038
21
-153.1364103
0
LINE
8
0
10
150.13038
20
-153.1364103
11
155.2606821
21
-139.041021
0
LINE
8
0
10
155.2606821
20
-139.041021
11
141.1652928
21
-133.9107189
0
LINE
8
0
10
161.0711421
20
-136.2340333
11
155.94084
21
-150.3294226
0
LINE
8
0
10
155.94084
20
-150.3294226
11
170.0362293
21
-155.4597247
0
LINE
8
0
10
170.0362293
20
-155.4597247
11
175.1665314
21
-141.3643354
0
LINE
8
0
10
175.1665314
20
-141.3643354
11
161.0711421
21
-136.2340333
0
LINE
8
0
10
179.3951482
20
-142.9034261
11
174.2648461
21
-156.9988154
0
LINE
8
0
10
174.2648461
20
-156.9988154
11
188.3602354
21
-162.1291175
0
LINE
8
0
10
188.3602354
20
-162.1291175
11
193.4905375
21
-148.0337282
0
LINE
8
0
10
193.4905375
20
-148.0337282
11
179.3951482
21
-142.9034261
0
ENDSEC
0
EOF