0
SECTION
2
HEADER
9
$INSUNITS
70
4
0
ENDSEC
0
SECTION
2
TABLES
0
TABLE
2
LTYPE
0
LTYPE
72
65
70
64
2
CONTINUOUS
3
______
73
0
40
0
0
ENDTAB
0
TABLE
2
LAYER
0
ENDTAB
0
ENDSEC
0
SECTION
2
ENTITIES
0
LINE
8
0
10
-7.125
20
-6.975
11
7.125
21
-6.975
0
LINE
8
0
10
7.125
20
-6.975
11
7.125
21
6.975
0
LINE
8
0
10
7.125
20
6.975
11
-7.125
21
6.975
0
LINE
8
0
10
-7.125
20
6.975
11
-7.125
21
-6.975
0
LINE
8
0
10
-7.125
20
12.225
11
7.125
21
12.225
0
LINE
8
0
10
7.125
20
12.225
11
7.125
21
26.175
0
LINE
8
0
10
7.125
20
26.175
11
-7.125
21
26.175
0
LINE
8
0
10
-7.125
20
26.175
11
-7.125
21
12.225
0
LINE
8
0
10
-7.125
20
31.425
11
7.125
21
31.425
0
LINE
8
0
10
7.125
20
31.425
11
7.125
21
45.375
0
LINE
8
0
10
7.125
20
45.375
11
-7.125
21
45.375
0
LINE
8
0
10
-7.125
20
45.375
11
-7.125
21
31.425
0
LINE
8
0
10
-7.125
20
50.625
11
7.125
21
50.625
0
LINE
8
0
10
7.125
20
50.625
11
7.125
21
64.575
0
LINE
8
0
10
7.125
20
64.575
11
-7.125
21
64.575
0
LINE
8
0
10
-7.125
20
64.575
11
-7.125
21
50.625
0
LINE
8
0
10
-7.125
20
69.825
11
7.125
21
69.825
0
LINE
8
0
10
7.125
20
69.825
11
7.125
21
83.775
0
LINE
8
0
10
7.125
20
83.775
11
-7.125
21
83.775
0
LINE
8
0
10
-7.125
20
83.775
11
-7.125
21
69.825
0
LINE
8
0
10
12.075
20
-6.975
11
26.325
21
-6.975
0
LINE
8
0
10
26.325
20
-6.975
11
26.325
21
6.975
0
LINE
8
0
10
26.325
20
6.975
11
12.075
21
6.975
0
LINE
8
0
10
12.075
20
6.975
11
12.075
21
-6.975
0
LINE
8
0
10
12.075
20
12.225
11
26.325
21
12.225
0
LINE
8
0
10
26.325
20
12.225
11
26.325
21
26.175
0
LINE
8
0
10
26.325
20
26.175
11
12.075
21
26.175
0
LINE
8
0
10
12.075
20
26.175
11
12.075
21
12.225
0
LINE
8
0
10
12.075
20
31.425
11
26.325
21
31.425
0
LINE
8
0
10
26.325
20
31.425
11
26.325
21
45.375
0
LINE
8
0
10
26.325
20
45.375
11
12.075
21
45.375
0
LINE
8
0
10
12.075
20
45.375
11
12.075
21
31.425
0
LINE
8
0
10
12.075
20
50.625
11
26.325
21
50.625
0
LINE
8
0
10
26.325
20
50.625
11
26.325
21
64.575
0
LINE
8
0
10
26.325
20
64.575
11
12.075
21
64.575
0
LINE
8
0
10
12.075
20
64.575
11
12.075
21
50.625
0
LINE
8
0
10
12.075
20
69.825
11
26.325
21
69.825
0
LINE
8
0
10
26.325
20
69.825
11
26.325
21
83.775
0
LINE
8
0
10
26.325
20
83.775
11
12.075
21
83.775
0
LINE
8
0
10
12.075
20
83.775
11
12.075
21
69.825
0
LINE
8
0
10
31.9197213
20
-6.5925473
11
46.1501921
21
-7.3383347
0
LINE
8
0
10
46.1501921
20
-7.3383347
11
46.8802787
21
6.5925473
0
LINE
8
0
10
46.8802787
20
6.5925473
11
32.6498079
21
7.3383347
0
LINE
8
0
10
32.6498079
20
7.3383347
11
31.9197213
21
-6.5925473
0
LINE
8
0
10
32.9245717
20
12.5811398
11
47.1550425
21
11.8353524
0
LINE
8
0
10
47.1550425
20
11.8353524
11
47.8851291
21
25.7662344
0
LINE
8
0
10
47.8851291
20
25.7662344
11
33.6546583
21
26.5120218
0
LINE
8
0
10
33.6546583
20
26.5120218
11
32.9245717
21
12.5811398
0
LINE
8
0
10
33.9294221
20
31.7548269
11
48.1598929
21
31.0090395
0
LINE
8
0
10
48.1598929
20
31.0090395
11
48.8899795
21
44.9399215
0
LINE
8
0
10
48.8899795
20
44.9399215
11
34.6595087
21
45.6857089
0
LINE
8
0
10
34.6595087
20
45.6857089
11
33.9294221
21
31.7548269
0
LINE
8
0
10
34.9342725
20
50.928514
11
49.1647433
21
50.1827266
0
LINE
8
0
10
49.1647433
20
50.1827266
11
49.8948299
21
64.1136086
0
LINE
8
0
10
49.8948299
20
64.1136086
11
35.6643591
21
64.859396
0
LINE
8
0
10
35.6643591
20
64.859396
11
34.9342725
21
50.928514
0
LINE
8
0
10
35.9391229
20
70.1022011
11
50.1695937
21
69.3564137
0
LINE
8
0
10
50.1695937
20
69.3564137
11
50.8996803
21
83.2872957
0
LINE
8
0
10
50.8996803
20
83.2872957
11
36.6692095
21
84.0330831
0
LINE
8
0
10
36.6692095
20
84.0330831
11
35.9391229
21
70.1022011
0
LINE
8
0
10
52.0982588
20
11.5762894
11
66.3287296
21
10.830502
0
LINE
8
0
10
66.3287296
20
10.830502
11
67.0588162
21
24.761384
0
LINE
8
0
10
67.0588162
20
24.761384
11
52.8283454
21
25.5071714
0
LINE
8
0
10
52.8283454
20
25.5071714
11
52.0982588
21
11.5762894
0
LINE
8
0
10
53.1031092
20
30.7499765
11
67.33358
21
30.0041891
0
LINE
8
0
10
67.33358
20
30.0041891
11
68.0636666
21
43.9350711
0
LINE
8
0
10
68.0636666
20
43.9350711
11
53.8331958
21
44.6808585
0
LINE
8
0
10
53.8331958
20
44.6808585
11
53.1031092
21
30.7499765
0
LINE
8
0
10
54.1079596
20
49.9236636
11
68.3384304
21
49.1778762
0
LINE
8
0
10
68.3384304
20
49.1778762
11
69.068517
21
63.1087582
0
LINE
8
0
10
69.068517
20
63.1087582
11
54.8380462
21
63.8545456
0
LINE
8
0
10
54.8380462
20
63.8545456
11
54.1079596
21
49.9236636
0
LINE
8
0
10
55.11281
20
69.0973507
11
69.3432808
21
68.3515633
0
LINE
8
0
10
69.3432808
20
68.3515633
11
70.0733674
21
82.2824453
0
LINE
8
0
10
70.0733674
20
82.2824453
11
55.8428966
21
83.0282327
0
LINE
8
0
10
55.8428966
20
83.0282327
11
55.11281
21
69.0973507
0
LINE
8
0
10
71.7149659
20
10.7897641
11
85.9107403
21
9.5477948
0
LINE
8
0
10
85.9107403
20
9.5477948
11
87.1265629
21
23.4447109
0
LINE
8
0
10
87.1265629
20
23.4447109
11
72.9307885
21
24.6866802
0
LINE
8
0
10
72.9307885
20
24.6866802
11
71.7149659
21
10.7897641
0
LINE
8
0
10
73.3883562
20
29.9167023
11
87.5841306
21
28.674733
0
LINE
8
0
10
87.5841306
20
28.674733
11
88.7999532
21
42.5716491
0
LINE
8
0
10
88.7999532
20
42.5716491
11
74.6041788
21
43.8136184
0
LINE
8
0
10
74.6041788
20
43.8136184
11
73.3883562
21
29.9167023
0
LINE
8
0
10
75.0617465
20
49.0436405
11
89.2575209
21
47.8016712
0
LINE
8
0
10
89.2575209
20
47.8016712
11
90.4733435
21
61.6985873
0
LINE
8
0
10
90.4733435
20
61.6985873
11
76.2775691
21
62.9405566
0
LINE
8
0
10
76.2775691
20
62.9405566
11
75.0617465
21
49.0436405
0
LINE
8
0
10
76.7351368
20
68.1705787
11
90.9309112
21
66.9286094
0
LINE
8
0
10
90.9309112
20
66.9286094
11
92.1467338
21
80.8255255
0
LINE
8
0
10
92.1467338
20
80.8255255
11
77.9509594
21
82.0674948
0
LINE
8
0
10
77.9509594
20
82.0674948
11
76.7351368
21
68.1705787
0
LINE
8
0
10
90.8419041
20
9.1163738
11
105.0376785
21
7.8744045
0
LINE
8
0
10
105.0376785
20
7.8744045
11
106.2535011
21
21.7713206
0
LINE
8
0
10
106.2535011
20
21.7713206
11
92.0577267
21
23.0132899
0
LINE
8
0
10
92.0577267
20
23.0132899
11
90.8419041
21
9.1163738
0
LINE
8
0
10
92.5152944
20
28.243312
11
106.7110688
21
27.0013427
0
LINE
8
0
10
106.7110688
20
27.0013427
11
107.9268914
21
40.8982588
0
LINE
8
0
10
107.9268914
20
40.8982588
11
93.731117
21
42.1402281
0
LINE
8
0
10
93.731117
20
42.1402281
11
92.5152944
21
28.243312
0
LINE
8
0
10
94.1886847
20
47.3702502
11
108.3844591
21
46.1282809
0
LINE
8
0
10
108.3844591
20
46.1282809
11
109.6002817
21
60.025197
0
LINE
8
0
10
109.6002817
20
60.025197
11
95.4045073
21
61.2671663
0
LINE
8
0
10
95.4045073
20
61.2671663
11
94.1886847
21
47.3702502
0
LINE
8
0
10
95.862075
20
66.4971884
11
110.0578494
21
65.2552191
0
LINE
8
0
10
110.0578494
20
65.2552191
11
111.273672
21
79.1521352
0
LINE
8
0
10
111.273672
20
79.1521352
11
97.0778976
21
80.3941045
0
LINE
8
0
10
97.0778976
20
80.3941045
11
95.862075
21
66.4971884
0
LINE
8
0
10
71.8242599
20
1.3343122
11
69.1052317
21
-12.6538751
0
LINE
8
0
10
69.1052317
20
-12.6538751
11
82.7989309
21
-15.3156606
0
LINE
8
0
10
82.7989309
20
-15.3156606
11
85.5179591
21
-1.3274733
0
LINE
8
0
10
85.5179591
20
-1.3274733
11
71.8242599
21
1.3343122
0
LINE
8
0
10
93.4489873
20
-3.2432041
11
88.8096411
21
-16.7168438
0
LINE
8
0
10
88.8096411
20
-16.7168438
11
101.9996253
21
-21.2585195
0
LINE
8
0
10
101.9996253
20
-21.2585195
11
106.6389715
21
-7.7848798
0
LINE
8
0
10
106.6389715
20
-7.7848798
11
93.4489873
21
-3.2432041
0
LINE
8
0
10
116.0544076
20
-6.9340057
11
109.585043
21
-19.6308486
0
LINE
8
0
10
109.585043
20
-19.6308486
11
122.014584
21
-25.9640161
0
LINE
8
0
10
122.014584
20
-25.9640161
11
128.4839486
21
-13.2671732
0
LINE
8
0
10
128.4839486
20
-13.2671732
11
116.0544076
21
-6.9340057
0
LINE
8
0
10
135.5972216
20
-17.956352
11
127.4237574
21
-29.6292687
0
LINE
8
0
10
127.4237574
20
-29.6292687
11
138.8509284
21
-37.63066
0
LINE
8
0
10
138.8509284
20
-37.63066
11
147.0243926
21
-25.9577433
0
LINE
8
0
10
147.0243926
20
-25.9577433
11
135.5972216
21
-17.956352
0
ENDSEC
0
EOF