0
SECTION
2
HEADER
9
$INSUNITS
70
4
0
ENDSEC
0
SECTION
2
TABLES
0
TABLE
2
LTYPE
0
LTYPE
72
65
70
64
2
CONTINUOUS
3
______
73
0
40
0
0
ENDTAB
0
TABLE
2
LAYER
0
ENDTAB
0
ENDSEC
0
SECTION
2
ENTITIES
0
LINE
8
0
10
42.775
20
-156.975
11
57.225
21
-156.975
0
LINE
8
0
10
57.225
20
-156.975
11
57.225
21
-143.025
0
LINE
8
0
10
57.225
20
-143.025
11
42.775
21
-143.025
0
LINE
8
0
10
42.775
20
-143.025
11
42.775
21
-156.975
0
LINE
8
0
10
42.775
20
-137.775
11
57.225
21
-137.775
0
LINE
8
0
10
57.225
20
-137.775
11
57.225
21
-123.825
0
LINE
8
0
10
57.225
20
-123.825
11
42.775
21
-123.825
0
LINE
8
0
10
42.775
20
-123.825
11
42.775
21
-137.775
0
LINE
8
0
10
42.775
20
-118.575
11
57.225
21
-118.575
0
LINE
8
0
10
57.225
20
-118.575
11
57.225
21
-104.625
0
LINE
8
0
10
57.225
20
-104.625
11
42.775
21
-104.625
0
LINE
8
0
10
42.775
20
-104.625
11
42.775
21
-118.575
0
LINE
8
0
10
42.775
20
-99.375
11
57.225
21
-99.375
0
LINE
8
0
10
57.225
20
-99.375
11
57.225
21
-85.425
0
LINE
8
0
10
57.225
20
-85.425
11
42.775
21
-85.425
0
LINE
8
0
10
42.775
20
-85.425
11
42.775
21
-99.375
0
LINE
8
0
10
42.775
20
-80.175
11
57.225
21
-80.175
0
LINE
8
0
10
57.225
20
-80.175
11
57.225
21
-66.225
0
LINE
8
0
10
57.225
20
-66.225
11
42.775
21
-66.225
0
LINE
8
0
10
42.775
20
-66.225
11
42.775
21
-80.175
0
LINE
8
0
10
61.975
20
-156.975
11
76.425
21
-156.975
0
LINE
8
0
10
76.425
20
-156.975
11
76.425
21
-143.025
0
LINE
8
0
10
76.425
20
-143.025
11
61.975
21
-143.025
0
LINE
8
0
10
61.975
20
-143.025
11
61.975
21
-156.975
0
LINE
8
0
10
61.975
20
-137.775
11
76.425
21
-137.775
0
LINE
8
0
10
76.425
20
-137.775
11
76.425
21
-123.825
0
LINE
8
0
10
76.425
20
-123.825
11
61.975
21
-123.825
0
LINE
8
0
10
61.975
20
-123.825
11
61.975
21
-137.775
0
LINE
8
0
10
61.975
20
-118.575
11
76.425
21
-118.575
0
LINE
8
0
10
76.425
20
-118.575
11
76.425
21
-104.625
0
LINE
8
0
10
76.425
20
-104.625
11
61.975
21
-104.625
0
LINE
8
0
10
61.975
20
-104.625
11
61.975
21
-118.575
0
LINE
8
0
10
61.975
20
-99.375
11
76.425
21
-99.375
0
LINE
8
0
10
76.425
20
-99.375
11
76.425
21
-85.425
0
LINE
8
0
10
76.425
20
-85.425
11
61.975
21
-85.425
0
LINE
8
0
10
61.975
20
-85.425
11
61.975
21
-99.375
0
LINE
8
0
10
61.975
20
-80.175
11
76.425
21
-80.175
0
LINE
8
0
10
76.425
20
-80.175
11
76.425
21
-66.225
0
LINE
8
0
10
76.425
20
-66.225
11
61.975
21
-66.225
0
LINE
8
0
10
61.975
20
-66.225
11
61.975
21
-80.175
0
LINE
8
0
10
81.1359773
20
-157.0686022
11
95.5771747
21
-157.5728999
0
LINE
8
0
10
95.5771747
20
-157.5728999
11
96.0640227
21
-143.6313978
0
LINE
8
0
10
96.0640227
20
-143.6313978
11
81.6228253
21
-143.1271001
0
LINE
8
0
10
81.6228253
20
-143.1271001
11
81.1359773
21
-157.0686022
0
LINE
8
0
10
81.8060476
20
-137.8802983
11
96.247245
21
-138.384596
0
LINE
8
0
10
96.247245
20
-138.384596
11
96.734093
21
-124.4430939
0
LINE
8
0
10
96.734093
20
-124.4430939
11
82.2928956
21
-123.9387962
0
LINE
8
0
10
82.2928956
20
-123.9387962
11
81.8060476
21
-137.8802983
0
LINE
8
0
10
82.4761179
20
-118.6919944
11
96.9173153
21
-119.1962921
0
LINE
8
0
10
96.9173153
20
-119.1962921
11
97.4041633
21
-105.25479
0
LINE
8
0
10
97.4041633
20
-105.25479
11
82.9629659
21
-104.7504923
0
LINE
8
0
10
82.9629659
20
-104.7504923
11
82.4761179
21
-118.6919944
0
LINE
8
0
10
83.1461882
20
-99.5036905
11
97.5873856
21
-100.0079882
0
LINE
8
0
10
97.5873856
20
-100.0079882
11
98.0742336
21
-86.0664861
0
LINE
8
0
10
98.0742336
20
-86.0664861
11
83.6330362
21
-85.5621884
0
LINE
8
0
10
83.6330362
20
-85.5621884
11
83.1461882
21
-99.5036905
0
LINE
8
0
10
83.8162585
20
-80.3153866
11
98.2574559
21
-80.8196843
0
LINE
8
0
10
98.2574559
20
-80.8196843
11
98.7443039
21
-66.8781822
0
LINE
8
0
10
98.7443039
20
-66.8781822
11
84.3031065
21
-66.3738845
0
LINE
8
0
10
84.3031065
20
-66.3738845
11
83.8162585
21
-80.3153866
0
LINE
8
0
10
100.9943515
20
-138.5503686
11
115.4355489
21
-139.0546663
0
LINE
8
0
10
115.4355489
20
-139.0546663
11
115.9223969
21
-125.1131642
0
LINE
8
0
10
115.9223969
20
-125.1131642
11
101.4811995
21
-124.6088665
0
LINE
8
0
10
101.4811995
20
-124.6088665
11
100.9943515
21
-138.5503686
0
LINE
8
0
10
101.6644218
20
-119.3620647
11
116.1056192
21
-119.8663624
0
LINE
8
0
10
116.1056192
20
-119.8663624
11
116.5924672
21
-105.9248603
0
LINE
8
0
10
116.5924672
20
-105.9248603
11
102.1512698
21
-105.4205626
0
LINE
8
0
10
102.1512698
20
-105.4205626
11
101.6644218
21
-119.3620647
0
LINE
8
0
10
102.3344921
20
-100.1737608
11
116.7756895
21
-100.6780585
0
LINE
8
0
10
116.7756895
20
-100.6780585
11
117.2625375
21
-86.7365564
0
LINE
8
0
10
117.2625375
20
-86.7365564
11
102.8213401
21
-86.2322587
0
LINE
8
0
10
102.8213401
20
-86.2322587
11
102.3344921
21
-100.1737608
0
LINE
8
0
10
103.0045624
20
-80.9854569
11
117.4457598
21
-81.4897546
0
LINE
8
0
10
117.4457598
20
-81.4897546
11
117.9326078
21
-67.5482525
0
LINE
8
0
10
117.9326078
20
-67.5482525
11
103.4914104
21
-67.0439548
0
LINE
8
0
10
103.4914104
20
-67.0439548
11
103.0045624
21
-80.9854569
0
LINE
8
0
10
120.8096437
20
-139.3476963
11
135.2244443
21
-140.3556774
0
LINE
8
0
10
135.2244443
20
-140.3556774
11
136.1975471
21
-126.4396589
0
LINE
8
0
10
136.1975471
20
-126.4396589
11
121.7827465
21
-125.4316778
0
LINE
8
0
10
121.7827465
20
-125.4316778
11
120.8096437
21
-139.3476963
0
LINE
8
0
10
122.148968
20
-120.1944665
11
136.5637686
21
-121.2024476
0
LINE
8
0
10
136.5637686
20
-121.2024476
11
137.5368714
21
-107.2864291
0
LINE
8
0
10
137.5368714
20
-107.2864291
11
123.1220708
21
-106.278448
0
LINE
8
0
10
123.1220708
20
-106.278448
11
122.148968
21
-120.1944665
0
LINE
8
0
10
123.4882923
20
-101.0412367
11
137.9030929
21
-102.0492178
0
LINE
8
0
10
137.9030929
20
-102.0492178
11
138.8761957
21
-88.1331993
0
LINE
8
0
10
138.8761957
20
-88.1331993
11
124.4613951
21
-87.1252182
0
LINE
8
0
10
124.4613951
20
-87.1252182
11
123.4882923
21
-101.0412367
0
LINE
8
0
10
124.8276166
20
-81.8880069
11
139.2424172
21
-82.895988
0
LINE
8
0
10
139.2424172
20
-82.895988
11
140.21552
21
-68.9799695
0
LINE
8
0
10
140.21552
20
-68.9799695
11
125.8007194
21
-67.9719884
0
LINE
8
0
10
125.8007194
20
-67.9719884
11
124.8276166
21
-81.8880069
0
LINE
8
0
10
139.9628735
20
-140.6870206
11
154.3776741
21
-141.6950017
0
LINE
8
0
10
154.3776741
20
-141.6950017
11
155.3507769
21
-127.7789832
0
LINE
8
0
10
155.3507769
20
-127.7789832
11
140.9359763
21
-126.7710021
0
LINE
8
0
10
140.9359763
20
-126.7710021
11
139.9628735
21
-140.6870206
0
LINE
8
0
10
141.3021978
20
-121.5337908
11
155.7169984
21
-122.5417719
0
LINE
8
0
10
155.7169984
20
-122.5417719
11
156.6901012
21
-108.6257534
0
LINE
8
0
10
156.6901012
20
-108.6257534
11
142.2753006
21
-107.6177723
0
LINE
8
0
10
142.2753006
20
-107.6177723
11
141.3021978
21
-121.5337908
0
LINE
8
0
10
142.6415221
20
-102.380561
11
157.0563227
21
-103.3885421
0
LINE
8
0
10
157.0563227
20
-103.3885421
11
158.0294255
21
-89.4725236
0
LINE
8
0
10
158.0294255
20
-89.4725236
11
143.6146249
21
-88.4645425
0
LINE
8
0
10
143.6146249
20
-88.4645425
11
142.6415221
21
-102.380561
0
LINE
8
0
10
143.9808464
20
-83.2273312
11
158.395647
21
-84.2353123
0
LINE
8
0
10
158.395647
20
-84.2353123
11
159.3687498
21
-70.3192938
0
LINE
8
0
10
159.3687498
20
-70.3192938
11
144.9539492
21
-69.3113127
0
LINE
8
0
10
144.9539492
20
-69.3113127
11
143.9808464
21
-83.2273312
0
LINE
8
0
10
121.2010627
20
-148.7082955
11
118.6918465
21
-162.9387676
0
LINE
8
0
10
118.6918465
20
-162.9387676
11
132.4299147
21
-165.3611597
0
LINE
8
0
10
132.4299147
20
-165.3611597
11
134.9391309
21
-151.1306876
0
LINE
8
0
10
134.9391309
20
-151.1306876
11
121.2010627
21
-148.7082955
0
LINE
8
0
10
142.9159222
20
-152.9110862
11
138.4506266
21
-166.6538529
0
LINE
8
0
10
138.4506266
20
-166.6538529
11
151.717865
21
-170.96464
0
LINE
8
0
10
151.717865
20
-170.96464
11
156.1831606
21
-157.2218733
0
LINE
8
0
10
156.1831606
20
-157.2218733
11
142.9159222
21
-152.9110862
0
LINE
8
0
10
165.5952484
20
-156.212033
11
159.2607853
21
-169.1996069
0
LINE
8
0
10
159.2607853
20
-169.1996069
11
171.7989622
21
-175.3148844
0
LINE
8
0
10
171.7989622
20
-175.3148844
11
178.1334253
21
-162.3273105
0
LINE
8
0
10
178.1334253
20
-162.3273105
11
165.5952484
21
-156.212033
0
LINE
8
0
10
185.3395345
20
-166.8986071
11
177.259197
21
-178.8782001
0
LINE
8
0
10
177.259197
20
-178.8782001
11
188.8242711
21
-186.6789411
0
LINE
8
0
10
188.8242711
20
-186.6789411
11
196.9046086
21
-174.6993481
0
LINE
8
0
10
196.9046086
20
-174.6993481
11
185.3395345
21
-166.8986071
0
ENDSEC
0
EOF