0
SECTION
2
HEADER
9
$INSUNITS
70
4
0
ENDSEC
0
SECTION
2
TABLES
0
TABLE
2
LTYPE
0
LTYPE
72
65
70
64
2
CONTINUOUS
3
______
73
0
40
0
0
ENDTAB
0
TABLE
2
LAYER
0
ENDTAB
0
ENDSEC
0
SECTION
2
ENTITIES
0
LINE
8
0
10
33.1411003
20
-162.3653752
11
19.7701905
21
-86.5351781
0
ARC
8
0
10
29.1258641
20
-84.8855203
40
9.5
50
100.0000003
51
190.0000001
0
LINE
8
0
10
27.4762063
20
-75.5298467
11
40.9375911
21
-73.1562412
0
ARC
8
0
10
47.9823189
20
-79.5297653
40
9.5
50
100.0000003
51
137.8636451
0
LINE
8
0
10
46.3326611
20
-70.1740917
11
60.0094249
21
-67.7625092
0
LINE
8
0
10
60.0094249
20
-67.7625092
11
60.4048101
21
-67.0253307
0
ARC
8
0
10
68.776656
20
-71.5155642
40
9.5
50
98
51
151.7931479
0
LINE
8
0
10
67.4545115
20
-62.1080176
11
79.9039604
21
-60.3583616
0
ARC
8
0
10
87.669364
20
-65.8308845
40
9.5
50
98
51
144.826449
0
LINE
8
0
10
86.3478458
20
-56.4232499
11
104.6671789
21
-53.8486356
0
ARC
8
0
10
105.9893233
20
-63.2561822
40
9.5
50
74.330442
51
97.9999998
0
LINE
8
0
10
108.5551681
20
-54.109246
11
113.0127755
21
-55.3596679
0
LINE
8
0
10
113.0127755
20
-55.3596679
11
129.8242172
21
-54.1840975
0
ARC
8
0
10
130.4875345
20
-63.6609118
40
9.5
50
70.3304375
51
93.9999998
0
LINE
8
0
10
133.6857831
20
-54.7154546
11
138.0447107
21
-56.2735646
0
LINE
8
0
10
138.0447107
20
-56.2735646
11
179.6478364
21
-56.2735646
0
ARC
8
0
10
179.6478364
20
-65.7735646
40
9.5
50
0
51
90
0
LINE
8
0
10
189.1478364
20
-65.7735646
11
189.1478364
21
-123.4529094
0
LINE
8
0
10
189.1478364
20
-123.4529094
11
203.4020518
21
-135.3477253
0
ARC
8
0
10
197.315378
20
-142.641723
40
9.5
50
340.0000005
51
410.1557764
0
LINE
8
0
10
206.2422415
20
-145.8915086
11
196.7517048
21
-171.966544
0
ARC
8
0
10
187.8243191
20
-168.7181932
40
9.5
50
249.9999996
51
340.0000001
0
LINE
8
0
10
184.5751277
20
-177.645273
11
126.080654
21
-156.3550259
0
LINE
8
0
10
126.080654
20
-156.3550259
11
44.0653535
21
-170.0853256
0
ARC
8
0
10
42.4967739
20
-160.7157174
40
9.5
50
190.0000001
51
279.5038367
0
LINE
8
0
10
35.1107158
20
-162.0180788
11
21.739806
21
-86.1878817
0
ARC
8
0
10
29.1258641
20
-84.8855203
40
7.5
50
100.0000003
51
190.0000001
0
LINE
8
0
10
27.8235027
20
-77.4994622
11
42.0057
21
-74.998758
0
ARC
8
0
10
47.9823189
20
-79.5297653
40
7.5
50
100.0000003
51
142.8334273
0
LINE
8
0
10
46.6799575
20
-72.1437072
11
61.3129697
21
-69.5635123
0
LINE
8
0
10
61.3129697
20
-69.5635123
11
62.167304
21
-67.970643
0
ARC
8
0
10
68.776656
20
-71.5155642
40
7.5
50
98
51
151.7931479
0
LINE
8
0
10
67.7328577
20
-64.0885537
11
81.1014766
21
-62.2097168
0
ARC
8
0
10
87.669364
20
-65.8308845
40
7.5
50
98
51
151.1301025
0
LINE
8
0
10
86.6255658
20
-58.403874
11
104.9455251
21
-55.8291717
0
ARC
8
0
10
105.9893233
20
-63.2561822
40
7.5
50
74.330442
51
97.9999998
0
LINE
8
0
10
108.0149902
20
-56.0349168
11
112.8064226
21
-57.3789813
0
LINE
8
0
10
112.8064226
20
-57.3789813
11
129.964361
21
-56.1791814
0
ARC
8
0
10
130.4875345
20
-63.6609118
40
7.5
50
70.3304375
51
93.9999998
0
LINE
8
0
10
133.0119975
20
-56.5985407
11
137.6980003
21
-58.2735646
0
LINE
8
0
10
137.6980003
20
-58.2735646
11
179.6478364
21
-58.2735646
0
ARC
8
0
10
179.6478364
20
-65.7735646
40
7.5
50
0
51
90
0
LINE
8
0
10
187.1478364
20
-65.7735646
11
187.1478364
21
-124.3888368
0
LINE
8
0
10
187.1478364
20
-124.3888368
11
202.1206468
21
-136.8833038
0
ARC
8
0
10
197.315378
20
-142.641723
40
7.5
50
340.0000005
51
410.1557764
0
LINE
8
0
10
204.3630726
20
-145.206874
11
194.8720137
21
-171.2833442
0
ARC
8
0
10
187.8243191
20
-168.7181932
40
7.5
50
249.9999996
51
340.0000001
0
LINE
8
0
10
185.259168
20
-175.7658878
11
126.2698262
21
-154.2955234
0
LINE
8
0
10
126.2698262
20
-154.2955234
11
43.7351263
21
-168.1127765
0
ARC
8
0
10
42.4967739
20
-160.7157174
40
7.5
50
190.0000001
51
279.5038367
0
ENDSEC
0
EOF