0
SECTION
2
HEADER
9
$INSUNITS
70
4
0
ENDSEC
0
SECTION
2
TABLES
0
TABLE
2
LTYPE
0
LTYPE
72
65
70
64
2
CONTINUOUS
3
______
73
0
40
0
0
ENDTAB
0
TABLE
2
LAYER
0
ENDTAB
0
ENDSEC
0
SECTION
2
ENTITIES
0
LINE
8
0
10
-17.4
20
-9.1
11
-17.4
21
85.9
0
ARC
8
0
10
-9.1
20
85.9
40
8.3
50
90
51
180
0
LINE
8
0
10
-9.1
20
94.2
11
25.7774393
21
94.2
0
LINE
8
0
10
25.7774393
20
94.2
11
30.1896171
21
97.1548624
0
ARC
8
0
10
34.80813
20
90.2585344
40
8.3
50
87.0000004
51
123.8054506
0
LINE
8
0
10
35.2425184
20
98.5471596
11
53.417576
21
97.5946452
0
LINE
8
0
10
53.4175763
20
97.5946452
11
72.5912631
21
96.5897948
0
ARC
8
0
10
72.1568747
20
88.3011696
40
8.3
50
52.6628883
51
87
0
LINE
8
0
10
77.1913567
20
94.8999567
11
79.1323425
21
93.419334
0
LINE
8
0
10
79.1323425
20
93.419334
11
94.8655655
21
92.0428553
0
LINE
8
0
10
94.8658095
20
92.042834
11
138.2002785
21
88.2515591
0
ARC
8
0
10
137.4768858
20
79.9831431
40
8.3
50
354.9999996
51
445
0
LINE
8
0
10
145.7453018
20
79.2597504
11
139.3250137
21
5.875523
0
LINE
8
0
10
139.3250137
20
5.875523
11
144.0974642
21
-4.9161293
0
LINE
8
0
10
144.0974642
20
-4.9161293
11
157.1113536
21
-14.0285528
0
ARC
8
0
10
152.3506692
20
-20.8275148
40
8.3
50
325.0000003
51
414.9949883
0
LINE
8
0
10
159.1496312
20
-25.5881992
11
143.4909944
21
-47.95105
0
ARC
8
0
10
136.6920324
20
-43.1903656
40
8.3
50
234.2425595
51
324.9999998
0
LINE
8
0
10
131.8413723
20
-49.9254303
11
116.4592622
21
-38.8488625
0
LINE
8
0
10
116.4592622
20
-38.8488625
11
99.9636611
21
-30.474484
0
LINE
8
0
10
99.9636611
20
-30.474484
11
83.8641229
21
-24.9309685
0
LINE
8
0
10
83.8641229
20
-24.9309685
11
65.4829715
21
-21.4409586
0
LINE
8
0
10
65.4829715
20
-21.4409586
11
-9.5470689
21
-17.3879508
0
ARC
8
0
10
-9.1
20
-9.1
40
8.3
50
180
51
266.9079755
0
LINE
8
0
10
-15.4
20
-9.1
11
-15.4
21
85.9
0
ARC
8
0
10
-9.1
20
85.9
40
6.3
50
90
51
180
0
LINE
8
0
10
-9.1
20
92.2
11
26.3852853
21
92.2
0
LINE
8
0
10
26.3852853
20
92.2
11
31.3025118
21
95.4930966
0
ARC
8
0
10
34.80813
20
90.2585344
40
6.3
50
87.0000004
51
123.8104618
0
LINE
8
0
10
35.1378465
20
96.5499005
11
53.3129041
21
95.5973861
0
LINE
8
0
10
53.3129044
20
95.5973861
11
72.4865912
21
94.5925357
0
ARC
8
0
10
72.1568747
20
88.3011696
40
6.3
50
52.6628883
51
87
0
LINE
8
0
10
75.9778469
20
93.3101786
11
78.3803739
21
91.477483
0
LINE
8
0
10
78.3803739
20
91.477483
11
94.691254
21
90.0504659
0
LINE
8
0
10
94.691498
20
90.0504446
11
138.025967
21
86.2591697
0
ARC
8
0
10
137.4768858
20
79.9831431
40
6.3
50
354.9999996
51
445
0
LINE
8
0
10
143.7529124
20
79.4340619
11
137.2877767
21
5.5372246
0
LINE
8
0
10
137.2877767
20
5.5372246
11
142.4937625
21
-6.2347545
0
LINE
8
0
10
142.4937625
20
-6.2347545
11
155.9642008
21
-15.6668569
0
ARC
8
0
10
152.3506692
20
-20.8275148
40
6.3
50
325.0000003
51
414.9999998
0
LINE
8
0
10
157.5113271
20
-24.4410463
11
141.8526903
21
-46.8038971
0
ARC
8
0
10
136.6920324
20
-43.1903656
40
6.3
50
234.2425595
51
324.9999998
0
LINE
8
0
10
133.0105956
20
-48.3028036
11
117.5024948
21
-37.1355107
0
LINE
8
0
10
117.5024948
20
-37.1355107
11
100.7456342
21
-28.6284976
0
LINE
8
0
10
100.7456342
20
-28.6284976
11
84.3788909
21
-22.9929759
0
LINE
8
0
10
84.3788909
20
-22.9929759
11
65.7245245
21
-19.451091
0
LINE
8
0
10
65.7245245
20
-19.451091
11
-9.4398209
21
-15.3908283
0
ARC
8
0
10
-9.1
20
-9.1
40
6.3
50
180
51
266.9079755
0
ENDSEC
0
EOF