0
SECTION
2
HEADER
9
$INSUNITS
70
4
0
ENDSEC
0
SECTION
2
TABLES
0
TABLE
2
LTYPE
0
LTYPE
72
65
70
64
2
CONTINUOUS
3
______
73
0
40
0
0
ENDTAB
0
TABLE
2
LAYER
0
ENDTAB
0
ENDSEC
0
SECTION
2
ENTITIES
0
LINE
8
0
10
34.3228696
20
-162.1569974
11
20.9519598
21
-86.3268003
0
ARC
8
0
10
29.1258641
20
-84.8855203
40
8.3
50
100.0000003
51
190.0000001
0
LINE
8
0
10
27.6845841
20
-76.711616
11
41.5667275
21
-74.2638194
0
ARC
8
0
10
47.9823189
20
-79.5297653
40
8.3
50
100.0000003
51
140.6206985
0
LINE
8
0
10
46.5410389
20
-71.355861
11
60.7915517
21
-68.8431111
0
LINE
8
0
10
60.7915517
20
-68.8431111
11
61.4623064
21
-67.5925181
0
ARC
8
0
10
68.776656
20
-71.5155642
40
8.3
50
98
51
151.7931479
0
LINE
8
0
10
67.6215193
20
-63.2963393
11
80.6064213
21
-61.4714303
0
ARC
8
0
10
87.669364
20
-65.8308845
40
8.3
50
98
51
148.3159054
0
LINE
8
0
10
86.5142273
20
-57.6116596
11
104.8341866
21
-55.0369573
0
ARC
8
0
10
105.9893233
20
-63.2561822
40
8.3
50
74.330442
51
97.9999998
0
LINE
8
0
10
108.2310613
20
-55.2646485
11
112.8889639
21
-56.571256
0
LINE
8
0
10
112.8889639
20
-56.571256
11
129.9085557
21
-55.3811302
0
ARC
8
0
10
130.4875345
20
-63.6609118
40
8.3
50
70.3304375
51
93.9999998
0
LINE
8
0
10
133.2821157
20
-55.8455223
11
137.8366844
21
-57.4735646
0
LINE
8
0
10
137.8366844
20
-57.4735646
11
179.6478364
21
-57.4735646
0
ARC
8
0
10
179.6478364
20
-65.7735646
40
8.3
50
0
51
90
0
LINE
8
0
10
187.9478364
20
-65.7735646
11
187.9478364
21
-124.0144657
0
LINE
8
0
10
187.9478364
20
-124.0144657
11
202.6332088
21
-136.2690724
0
ARC
8
0
10
197.315378
20
-142.641723
40
8.3
50
340.0000005
51
410.1557764
0
LINE
8
0
10
205.1146103
20
-145.4810845
11
195.6239841
21
-171.556366
0
ARC
8
0
10
187.8243191
20
-168.7181932
40
8.3
50
249.9999996
51
340.0000001
0
LINE
8
0
10
184.9855519
20
-176.5176419
11
126.1941575
21
-155.1193245
0
LINE
8
0
10
126.1941575
20
-155.1193245
11
43.8672171
21
-168.9017961
0
ARC
8
0
10
42.4967739
20
-160.7157174
40
8.3
50
190.0000001
51
279.5038367
0
LINE
8
0
10
36.2924851
20
-161.809701
11
22.9215753
21
-85.9795039
0
ARC
8
0
10
29.1258641
20
-84.8855203
40
6.3
50
100.0000003
51
190.0000001
0
LINE
8
0
10
28.0318805
20
-78.6812315
11
42.7012364
21
-76.0946281
0
ARC
8
0
10
47.9823189
20
-79.5297653
40
6.3
50
100.0000003
51
146.9575757
0
LINE
8
0
10
46.8883353
20
-73.3254765
11
62.0950965
21
-70.6441142
0
LINE
8
0
10
62.0950965
20
-70.6441142
11
63.2248003
21
-68.5378304
0
ARC
8
0
10
68.776656
20
-71.5155642
40
6.3
50
98
51
151.7931479
0
LINE
8
0
10
67.8998655
20
-65.2768754
11
81.8957566
21
-63.3098812
0
ARC
8
0
10
87.669364
20
-65.8308845
40
6.3
50
98
51
156.4118654
0
LINE
8
0
10
86.7925735
20
-59.5921957
11
105.1125328
21
-57.0174934
0
ARC
8
0
10
105.9893233
20
-63.2561822
40
6.3
50
74.330442
51
97.9999998
0
LINE
8
0
10
107.6908835
20
-57.1903193
11
112.6826111
21
-58.5905693
0
LINE
8
0
10
112.6826111
20
-58.5905693
11
130.0480687
21
-57.3762583
0
ARC
8
0
10
130.4875345
20
-63.6609118
40
6.3
50
70.3304375
51
93.9999998
0
LINE
8
0
10
132.608314
20
-57.7286026
11
137.489974
21
-59.4735646
0
LINE
8
0
10
137.489974
20
-59.4735646
11
179.6478364
21
-59.4735646
0
ARC
8
0
10
179.6478364
20
-65.7735646
40
6.3
50
0
51
90
0
LINE
8
0
10
185.9478364
20
-65.7735646
11
185.9478364
21
-124.9503932
0
LINE
8
0
10
185.9478364
20
-124.9503932
11
201.3518038
21
-137.8046509
0
ARC
8
0
10
197.315378
20
-142.641723
40
6.3
50
340.0000005
51
410.1557764
0
LINE
8
0
10
203.2354415
20
-144.7964498
11
193.7443826
21
-170.87292
0
ARC
8
0
10
187.8243191
20
-168.7181932
40
6.3
50
249.9999996
51
340.0000001
0
LINE
8
0
10
185.6695922
20
-174.6382567
11
126.3833297
21
-153.0598219
0
LINE
8
0
10
126.3833297
20
-153.0598219
11
43.5369899
21
-166.929247
0
ARC
8
0
10
42.4967739
20
-160.7157174
40
6.3
50
190.0000001
51
279.5038367
0
ENDSEC
0
EOF