0
SECTION
2
HEADER
9
$INSUNITS
70
4
0
ENDSEC
0
SECTION
2
TABLES
0
TABLE
2
LTYPE
0
LTYPE
72
65
70
64
2
CONTINUOUS
3
______
73
0
40
0
0
ENDTAB
0
TABLE
2
LAYER
0
ENDTAB
0
ENDSEC
0
SECTION
2
ENTITIES
0
LINE
8
0
10
32.6
20
-159.1
11
32.6
21
-64.1
0
ARC
8
0
10
40.9
20
-64.1
40
8.3
50
90
51
180
0
LINE
8
0
10
40.9
20
-55.8
11
78.3
21
-55.8
0
ARC
8
0
10
78.3
20
-64.1
40
8.3
50
88.8450499
51
90
0
LINE
8
0
10
78.4672974
20
-55.8016862
11
82.6707075
21
-55.8864287
0
ARC
8
0
10
82.5034101
20
-64.1847425
40
8.3
50
87.9999998
51
88.8450497
0
LINE
8
0
10
82.7930759
20
-55.8897986
11
120.1702928
21
-57.1950397
0
ARC
8
0
10
119.880627
20
-65.4899836
40
8.3
50
86.8450496
51
88.0000001
0
LINE
8
0
10
120.3374295
20
-57.2025635
11
124.5353219
21
-57.4339513
0
ARC
8
0
10
124.0785194
20
-65.7213714
40
8.3
50
85.9999995
51
86.8450496
0
LINE
8
0
10
124.6574982
20
-57.4415898
11
143.810097
21
-58.7808701
0
LINE
8
0
10
143.810728
20
-58.7809141
11
186.2072001
21
-61.7455643
0
ARC
8
0
10
185.6282213
20
-70.0253459
40
8.3
50
356.0000004
51
445.9999999
0
LINE
8
0
10
193.9080029
20
-70.6043245
11
188.7694241
21
-144.0894247
0
LINE
8
0
10
188.7694241
20
-144.0894247
11
193.729488
21
-154.796143
0
LINE
8
0
10
193.729488
20
-154.796143
11
206.9004289
21
-163.6800548
0
ARC
8
0
10
202.2591278
20
-170.5610667
40
8.3
50
326
51
415.9999998
0
LINE
8
0
10
209.1401396
20
-175.2023678
11
193.8741734
21
-197.8350935
0
ARC
8
0
10
186.9931616
20
-193.1937924
40
8.3
50
235.2475712
51
326.0000001
0
LINE
8
0
10
182.2613029
20
-200.0128476
11
166.6877029
21
-189.2060609
0
LINE
8
0
10
166.6877029
20
-189.2060609
11
150.0484619
21
-181.1208462
0
LINE
8
0
10
150.0484619
20
-181.1208462
11
133.8546286
21
-175.8591507
0
LINE
8
0
10
133.8546286
20
-175.8591507
11
115.276224
21
-172.6665565
0
LINE
8
0
10
115.276224
20
-172.6665565
11
40.3160315
21
-167.3794312
0
ARC
8
0
10
40.9
20
-159.1
40
8.3
50
180
51
265.9631882
0
LINE
8
0
10
34.6
20
-159.1
11
34.6
21
-64.1
0
ARC
8
0
10
40.9
20
-64.1
40
6.3
50
90
51
180
0
LINE
8
0
10
40.9
20
-57.8
11
78.3
21
-57.8
0
ARC
8
0
10
78.3
20
-64.1
40
6.3
50
88.8450499
51
90
0
LINE
8
0
10
78.4269848
20
-57.8012799
11
82.6303949
21
-57.8860224
0
ARC
8
0
10
82.5034101
20
-64.1847425
40
6.3
50
87.9999998
51
88.8450497
0
LINE
8
0
10
82.7232769
20
-57.8885803
11
120.1004938
21
-59.1938214
0
ARC
8
0
10
119.880627
20
-65.4899836
40
6.3
50
86.8450496
51
88.0000001
0
LINE
8
0
10
120.2273566
20
-59.1995322
11
124.425249
21
-59.43092
0
ARC
8
0
10
124.0785194
20
-65.7213714
40
6.3
50
85.9999995
51
86.8450496
0
LINE
8
0
10
124.5179852
20
-59.4367179
11
143.6709707
21
-60.7760252
0
LINE
8
0
10
143.671215
20
-60.7760422
11
186.0676871
21
-63.7406924
0
ARC
8
0
10
185.6282213
20
-70.0253459
40
6.3
50
356.0000004
51
445.9999999
0
LINE
8
0
10
191.9128748
20
-70.4648116
11
186.7384016
21
-144.4632261
0
LINE
8
0
10
186.7384016
20
-144.4632261
11
192.1490437
21
-156.1425557
0
LINE
8
0
10
192.1490437
20
-156.1425557
11
205.7820431
21
-165.33813
0
ARC
8
0
10
202.2591278
20
-170.5610667
40
6.3
50
326
51
415.9999998
0
LINE
8
0
10
207.4820645
20
-174.083982
11
192.2160983
21
-196.7167077
0
ARC
8
0
10
186.9931616
20
-193.1937924
40
6.3
50
235.2448418
51
326.0000001
0
LINE
8
0
10
183.4015098
20
-198.3697018
11
167.7008744
21
-187.474763
0
LINE
8
0
10
167.7008744
20
-187.474763
11
150.7980985
21
-179.2614934
0
LINE
8
0
10
150.7980985
20
-179.2614934
11
134.3354952
21
-173.9124693
0
LINE
8
0
10
134.3354952
20
-173.9124693
11
115.5165404
21
-170.6785379
0
LINE
8
0
10
115.5165404
20
-170.6785379
11
40.4567468
21
-165.3843875
0
ARC
8
0
10
40.9
20
-159.1
40
6.3
50
180
51
265.9631882
0
ENDSEC
0
EOF