0
SECTION
2
HEADER
9
$INSUNITS
70
4
0
ENDSEC
0
SECTION
2
TABLES
0
TABLE
2
LTYPE
0
LTYPE
72
65
70
64
2
CONTINUOUS
3
______
73
0
40
0
0
ENDTAB
0
TABLE
2
LAYER
0
ENDTAB
0
ENDSEC
0
SECTION
2
ENTITIES
0
LINE
8
0
10
-17.4
20
-9.1
11
-17.4
21
85.9
0
ARC
8
0
10
-9.1
20
85.9
40
8.3
50
90
51
180
0
LINE
8
0
10
-9.1
20
94.2
11
28.0715473
21
94.2
0
LINE
8
0
10
28.0715473
20
94.2
11
34.3515733
21
94.5459681
0
ARC
8
0
10
34.80813
20
86.2585344
40
8.3
50
87.0000004
51
93.1532505
0
LINE
8
0
10
35.2425184
20
94.5471596
11
53.417576
21
93.5946452
0
LINE
8
0
10
53.4175763
20
93.5946452
11
72.3169711
21
92.6041698
0
LINE
8
0
10
72.3169711
20
92.6041698
11
76.0541339
21
92.6557506
0
ARC
8
0
10
76.1686808
20
84.3565411
40
8.3
50
84.9999996
51
90.790754
0
LINE
8
0
10
76.8920735
20
92.6249571
11
95.022817
21
91.0387226
0
LINE
8
0
10
95.0228173
20
91.0387226
11
138.3572864
21
87.2474477
0
ARC
8
0
10
137.6338937
20
78.9790317
40
8.3
50
354.9999996
51
445
0
LINE
8
0
10
145.9023097
20
78.255639
11
139.4820216
21
4.8714116
0
LINE
8
0
10
139.4820216
20
4.8714116
11
144.254472
21
-5.9202407
0
LINE
8
0
10
144.254472
20
-5.9202407
11
157.2683614
21
-15.0326642
0
ARC
8
0
10
152.507677
20
-21.8316262
40
8.3
50
325.0000003
51
414.9999998
0
LINE
8
0
10
159.306639
20
-26.5923106
11
143.6480022
21
-48.9551614
0
ARC
8
0
10
136.8490402
20
-44.194477
40
8.3
50
234.2425595
51
324.9999998
0
LINE
8
0
10
131.9983801
20
-50.9295417
11
116.61627
21
-39.8529739
0
LINE
8
0
10
116.61627
20
-39.8529739
11
100.1206689
21
-31.4785954
0
LINE
8
0
10
100.1206689
20
-31.4785954
11
84.0211307
21
-25.9350799
0
LINE
8
0
10
84.0211307
20
-25.9350799
11
65.5863651
21
-22.4348902
0
LINE
8
0
10
65.5863651
20
-22.4348902
11
-9.6562031
21
-17.3813428
0
ARC
8
0
10
-9.1
20
-9.1
40
8.3
50
180
51
266.1575909
0
LINE
8
0
10
-15.4
20
-9.1
11
-15.4
21
85.9
0
ARC
8
0
10
-9.1
20
85.9
40
6.3
50
90
51
180
0
LINE
8
0
10
-9.1
20
92.2
11
28.1265966
21
92.2
0
LINE
8
0
10
28.1265966
20
92.2
11
34.4615869
21
92.5489961
0
ARC
8
0
10
34.80813
20
86.2585344
40
6.3
50
87.0000004
51
93.1532505
0
LINE
8
0
10
35.1378465
20
92.5499005
11
53.3129041
21
91.5973861
0
LINE
8
0
10
53.3129044
20
91.5973861
11
72.2783935
21
90.6034468
0
LINE
8
0
10
72.2783935
20
90.6034468
11
76.0817356
21
90.6559411
0
ARC
8
0
10
76.1686808
20
84.3565411
40
6.3
50
84.9999996
51
90.790754
0
LINE
8
0
10
76.717762
20
90.6325677
11
94.8485055
21
89.0463332
0
LINE
8
0
10
94.8485058
20
89.0463332
11
138.1829749
21
85.2550583
0
ARC
8
0
10
137.6338937
20
78.9790317
40
6.3
50
354.9999996
51
445
0
LINE
8
0
10
143.9099203
20
78.4299505
11
137.4447846
21
4.5331132
0
LINE
8
0
10
137.4447846
20
4.5331132
11
142.6507703
21
-7.2388659
0
LINE
8
0
10
142.6507703
20
-7.2388659
11
156.1212085
21
-16.6709683
0
ARC
8
0
10
152.507677
20
-21.8316262
40
6.3
50
325.0000003
51
414.9999998
0
LINE
8
0
10
157.6683349
20
-25.4451577
11
142.0096981
21
-47.8080085
0
ARC
8
0
10
136.8490402
20
-44.194477
40
6.3
50
234.2425595
51
324.9999998
0
LINE
8
0
10
133.1676034
20
-49.306915
11
117.6595026
21
-38.1396221
0
LINE
8
0
10
117.6595026
20
-38.1396221
11
100.902642
21
-29.632609
0
LINE
8
0
10
100.902642
20
-29.632609
11
84.5358987
21
-23.9970873
0
LINE
8
0
10
84.5358987
20
-23.9970873
11
65.8408372
21
-20.4474756
0
LINE
8
0
10
65.8408372
20
-20.4474756
11
-9.5221783
21
-15.3858385
0
ARC
8
0
10
-9.1
20
-9.1
40
6.3
50
180
51
266.1575909
0
ENDSEC
0
EOF