<svg width="167.156mm" height="106.874mm" viewBox="0 0 167.156 106.874" xmlns="http://www.w3.org/2000/svg"><g id="svgGroup" stroke-linecap="round" fill-rule="evenodd" font-size="9pt" stroke="#000" stroke-width="0.25mm" fill="none" style="stroke:#000;stroke-width:0.25mm;fill:none"><path d="M 131.68 67.349 L 148.951 73.979 L 139.006 99.886 L 121.735 93.256 L 131.68 67.349 Z M 149.885 74.338 L 167.156 80.967 L 157.211 106.874 L 139.94 100.244 L 149.885 74.338 Z M 110.16 68.997 L 127.431 75.627 L 120.802 92.898 L 103.53 86.268 L 110.16 68.997 Z M 9.151 78.064 L 27.424 75.17 L 30.318 93.443 L 12.045 96.337 L 9.151 78.064 Z M 6.101 58.804 L 24.373 55.91 L 27.267 74.183 L 8.995 77.077 L 6.101 58.804 Z M 28.098 73.039 L 46.371 70.144 L 49.265 88.417 L 30.993 91.311 L 28.098 73.039 Z M 0 20.285 L 18.272 17.391 L 21.166 35.663 L 2.894 38.557 L 0 20.285 Z M 25.048 53.779 L 43.32 50.885 L 46.214 69.157 L 27.942 72.051 L 25.048 53.779 Z M 21.998 34.519 L 40.27 31.625 L 43.164 49.897 L 24.892 52.791 L 21.998 34.519 Z M 3.05 39.545 L 21.323 36.65 L 24.217 54.923 L 5.945 57.817 L 3.05 39.545 Z M 18.947 15.259 L 37.219 12.365 L 40.113 30.637 L 21.841 33.531 L 18.947 15.259 Z M 85.283 40.747 L 103.758 39.779 L 104.726 58.253 L 86.251 59.222 L 85.283 40.747 Z M 84.263 21.274 L 102.737 20.305 L 103.705 38.78 L 85.231 39.748 L 84.263 21.274 Z M 83.242 1.8 L 101.717 0.832 L 102.685 19.307 L 84.21 20.275 L 83.242 1.8 Z M 47.007 65.673 L 65.37 63.418 L 67.624 81.78 L 49.262 84.035 L 47.007 65.673 Z M 42.255 26.963 L 60.617 24.709 L 62.871 43.071 L 44.509 45.325 L 42.255 26.963 Z M 39.878 7.609 L 58.24 5.354 L 60.495 23.716 L 42.133 25.971 L 39.878 7.609 Z M 65.996 60.319 L 84.359 58.064 L 86.613 76.426 L 68.251 78.681 L 65.996 60.319 Z M 63.62 40.964 L 81.982 38.709 L 84.237 57.071 L 65.875 59.326 L 63.62 40.964 Z M 61.244 21.609 L 79.606 19.355 L 81.86 37.717 L 63.498 39.971 L 61.244 21.609 Z M 58.867 2.255 L 77.229 0 L 79.484 18.362 L 61.122 20.617 L 58.867 2.255 Z M 44.631 46.318 L 62.993 44.063 L 65.248 62.425 L 46.886 64.68 L 44.631 46.318 Z M 106.909 42.042 L 125.406 42.365 L 125.083 60.862 L 106.586 60.539 L 106.909 42.042 Z M 107.589 3.048 L 126.086 3.371 L 125.763 21.868 L 107.266 21.545 L 107.589 3.048 Z M 107.249 22.545 L 125.746 22.868 L 125.423 41.365 L 106.926 41.042 L 107.249 22.545 Z" vector-effect="non-scaling-stroke"/></g></svg>